<?xml version="1.0" standalone="no"?>
<!DOCTYPE svg PUBLIC "-//W3C//DTD SVG 1.1//EN" "http://www.w3.org/Graphics/SVG/1.1/DTD/svg11.dtd" >
<svg xmlns="http://www.w3.org/2000/svg">
<metadata>
Created by FontPrep 20130207 at Sat Nov  1 09:39:30 2014
 By ExcentricGrey
Copyright 2009 by Daniel Johnson.  Released under the terms of the Open Font License. Kayah Li glyphs are released under the GPL version 3.
</metadata>
<defs>
<font id="354e3538e1de6fe5d5cce2c128e494c4" horiz-adv-x='1024' >
  <font-face 
    font-family="JuraBook"
    font-weight="400"
    font-stretch="normal"
    units-per-em="2048"
    panose-1="2 0 5 3 0 0 0 0 0 0"
    ascent="1638"
    descent="-410"
    x-height="922"
    cap-height="1272"
    bbox="-1068 -410 1848 1676"
    underline-thickness="102"
    underline-position="-204"
    unicode-range="U+0020-FB02"
  />
<missing-glyph horiz-adv-x="748" 
d="M136 68h408v1228h-408v-1228zM68 0v1364h544v-1364h-544z" />
    <glyph glyph-name=".notdef" horiz-adv-x="748" 
d="M136 68h408v1228h-408v-1228zM68 0v1364h544v-1364h-544z" />
    <glyph glyph-name=".null" horiz-adv-x="0" 
 />
    <glyph glyph-name="nonmarkingreturn" horiz-adv-x="682" 
 />
    <glyph glyph-name="space" unicode=" " horiz-adv-x="818" 
 />
    <glyph glyph-name="exclam" unicode="!" horiz-adv-x="420" 
d="M210 1298q52 0 52 -66v-838q0 -66 -52 -66t-52 66v838q0 66 52 66zM212 -24q-34 0 -69 24t-35 58t35 58t68 24t68 -24t35 -58t-34 -58t-68 -24z" />
    <glyph glyph-name="quotedbl" unicode="&#x22;" horiz-adv-x="544" 
d="M222 932q0 -66 -51 -66t-51 66v298q0 66 51 66t51 -66v-298zM426 932q0 -66 -52 -66t-52 66v298q0 66 52 66t52 -66v-298z" />
    <glyph glyph-name="numbersign" unicode="#" horiz-adv-x="1008" 
d="M432 768l-96 -264h246l96 264h-246zM588 1210q0 -10 -6 -34l-114 -304h248l124 340q18 48 54 48q22 0 37 -16t15 -33t-6 -35l-112 -304h126q66 0 66 -52t-66 -52h-164l-96 -264h198q66 0 66 -52t-66 -52h-236l-124 -340q-16 -48 -54 -48q-52 0 -52 52q0 14 6 32l114 304
h-250l-122 -340q-16 -48 -54 -48q-50 0 -50 50q0 10 6 34l112 304h-132q-66 0 -66 52t66 52h170l96 264h-206q-64 0 -64 52t64 52h244l124 340q20 48 52 48q52 0 52 -50z" />
    <glyph glyph-name="dollar" unicode="$" 
d="M392 706h200v296h-200q-118 0 -118 -134q0 -78 33 -120t85 -42zM880 602h-184v-320h184q118 0 118 146q0 76 -33 125t-85 49zM370 178q-127 0 -168 71q-32 56 -32 151q0 68 52 68t52 -67t24 -93t86 -26h208v320h-164q-258 0 -258 262q0 118 59 180t199 62h164v114
q0 66 52 66t52 -64v-114h202q127 0 168 -71q32 -56 32 -151q0 -68 -52 -68t-52 67t-24 92t-86 25h-188v-296h150q140 0 198 -78t58 -196q0 -252 -256 -252h-150v-130q0 -64 -52 -64t-52 62v130h-222z" />
    <glyph glyph-name="percent" unicode="%" horiz-adv-x="1004" 
d="M871 1056q19 0 36 -15t17 -36t-24 -47l-720 -692q-26 -24 -46 -24t-37 15t-17 37t24 46l722 692q26 24 45 24zM104 932q0 68 49 116t118 48t118 -48t49 -116t-49 -116t-118 -48t-118 48t-49 116zM210 932q0 -24 18 -42t41 -18t42 17t19 43t-19 43t-42 17t-41 -18t-18 -42
zM566 366q0 68 50 116t119 48t117 -48t48 -116t-48 -116t-117 -48t-119 48t-50 116zM676 367q0 -25 18 -43t43 -18t42 18t17 43t-18 42t-42 17t-42 -17t-18 -42z" />
    <glyph glyph-name="ampersand" unicode="&#x26;" horiz-adv-x="1172" 
d="M264 364q0 -150 96 -219t216 -69t224 92l-404 470q-132 -84 -132 -274zM1042 23q0 -47 -51 -47q-23 0 -53 32l-70 82q-134 -118 -283 -118t-278 85q-65 43 -106 123t-41 181t41 197t127 156l-22 26q-96 116 -96 212q0 152 113 252t245 100q64 0 121 -34t91 -79t54 -83
t20 -55t-15 -32t-38 -15t-46 30t-42 67t-58 67t-89 30q-94 0 -171 -68t-77 -180q0 -72 76 -158l472 -544q58 88 58 204q0 72 54 72q48 0 48 -72q0 -160 -90 -286l92 -104q14 -16 14 -41z" />
    <glyph glyph-name="quotesingle" unicode="'" horiz-adv-x="342" 
d="M222 932q0 -66 -51 -66t-51 66v298q0 66 51 66t51 -66v-298z" />
    <glyph glyph-name="parenleft" unicode="(" horiz-adv-x="538" 
d="M264 1006v-740q0 -180 23 -223q18 -33 133 -33v-104q-72 0 -113 10t-79 45q-68 63 -68 305v740q0 242 68 305q38 35 79 45t113 10v-104q-115 0 -134 -35t-20 -94q-2 -59 -2 -127z" />
    <glyph glyph-name="parenright" unicode=")" horiz-adv-x="538" 
d="M316 1006q0 180 -23 223q-18 33 -133 33v104q72 0 113 -10t79 -45q68 -63 68 -305v-740q0 -242 -68 -305q-38 -35 -79 -45t-113 -10v104q115 0 134 35t20 94q2 59 2 127v740z" />
    <glyph glyph-name="asterisk" unicode="*" horiz-adv-x="772" 
d="M608 808q-20 0 -44 12l-126 72v-144q0 -66 -52 -66t-52 66v144l-126 -72q-24 -12 -42 -12t-32 16t-14 40t36 46l126 74l-126 70q-36 22 -36 44t12 40t32 18t44 -12l126 -72v144q0 66 52 66t52 -66v-144l126 72q24 12 43 12t33 -16t14 -39t-38 -47l-124 -70l124 -74
q38 -24 38 -45t-13 -39t-33 -18z" />
    <glyph glyph-name="plus" unicode="+" horiz-adv-x="1124" 
d="M562 -24q-52 0 -52 64v368h-328q-62 0 -62 53t62 53h328v366q0 66 52 66t52 -66v-366h324q68 0 68 -56q0 -22 -19 -36t-49 -14h-324v-368q0 -64 -52 -64z" />
    <glyph glyph-name="comma" unicode="," horiz-adv-x="370" 
d="M284 85q0 -23 -10 -41l-82 -166q-20 -48 -50 -48q-44 0 -44 50q0 8 6 32l48 174q14 46 50 46q22 0 52 -12t30 -35z" />
    <glyph glyph-name="hyphen" unicode="-" horiz-adv-x="858" 
d="M182 408q-62 0 -62 53t62 53h490q68 0 68 -56q0 -22 -19 -36t-49 -14h-490z" />
    <glyph glyph-name="period" unicode="." horiz-adv-x="442" 
d="M221 140q33 0 68 -24t35 -58t-35 -58t-68 -24t-67 24t-34 58t34 58t67 24z" />
    <glyph glyph-name="slash" unicode="/" horiz-adv-x="660" 
d="M604 1257q0 -21 -6 -41l-436 -1196q-16 -46 -52 -46q-18 0 -35 11t-17 30t6 43l436 1196q16 46 50 46q18 0 36 -11t18 -32z" />
    <glyph glyph-name="zero" unicode="0" 
d="M1098 308q0 -140 -101 -229t-255 -89h-216q-154 0 -255 89t-101 229v656q0 140 101 229t255 89h216q154 0 255 -89t101 -229v-656zM274 994v-718q0 -68 67 -125t167 -57h252q100 0 167 57t67 125v718q0 68 -67 125t-167 57h-252q-100 0 -167 -57t-67 -125z" />
    <glyph glyph-name="one" unicode="1" horiz-adv-x="608" 
d="M159 1124q-51 0 -51 49q0 21 28 47l122 124q30 26 52 26t40 -14t18 -42v-1264q0 -64 -52 -64t-52 64v1150l-50 -48q-26 -28 -55 -28z" />
    <glyph glyph-name="two" unicode="2" 
d="M1098 920q0 -100 -83 -181t-203 -142t-240 -126t-206 -161t-90 -216h752q70 0 70 -52t-70 -52h-856v98q0 142 85 251t206 176t241 124t205 127t85 154q0 166 -70 212t-258 46h-282q-64 0 -86 -27t-22 -95t-52 -68t-52 70q0 120 46 172t152 52h296q222 0 327 -73t105 -289
z" />
    <glyph glyph-name="three" unicode="3" 
d="M718 1178h-168q-94 0 -185 -34t-91 -95t-52 -61t-52 80t99 147t267 67h160q218 0 310 -85t92 -295q0 -66 -88 -144t-166 -106q74 -22 164 -117t90 -165q0 -210 -92 -295t-310 -85h-160q-168 0 -267 67t-99 147t52 80t52 -61t91 -95t185 -34h168q158 0 218 61t60 172
t-128 191t-244 80q-78 0 -78 53t78 53q124 0 248 66t124 176t-60 171t-218 61z" />
    <glyph glyph-name="four" unicode="4" 
d="M820 444v714l-550 -714h550zM1038 340h-112v-292q0 -62 -53 -62t-53 62v292h-654v126l628 816h132v-838h112q64 0 64 -52t-64 -52z" />
    <glyph glyph-name="five" unicode="5" 
d="M219 242q13 0 68 -39t145 -78t186 -39q172 0 266 98t94 274q0 86 -31 151t-81 99q-97 66 -196 66h-484l18 250q10 144 62 201t166 57h502q64 0 64 -52t-64 -52h-514q-50 0 -76 -26t-32 -94l-12 -180h352q168 0 299 -114t131 -321t-129 -334t-335 -127q-126 0 -285 70
t-159 138q0 20 16 36t29 16z" />
    <glyph glyph-name="six" unicode="6" 
d="M274 419q0 -151 96 -242t264 -91t264 91t96 242t-96 242t-264 91t-264 -91t-96 -242zM170 409q0 183 44 336t106 249t132 165t122 99t76 30q58 0 58 -46q0 -32 -44 -54q-104 -54 -199 -165t-145 -273q128 106 321 106t325 -123t132 -314t-132 -314t-333 -123t-332 122
t-131 305z" />
    <glyph glyph-name="seven" unicode="7" 
d="M582 -20q-20 0 -39 11t-19 34t10 45l422 1118h-552q-64 0 -88 -27t-24 -95t-52 -68t-52 70q0 120 47 172t153 52h640q52 0 52 -46q0 -18 -8 -42l-436 -1172q-20 -52 -54 -52z" />
    <glyph glyph-name="eight" unicode="8" 
d="M994 940q0 54 -7 90t-16 62t-33 42t-43 25q-40 19 -229 19h-62q-146 0 -205 -13t-78 -38t-33 -69t-14 -114t14 -114t33 -69t76 -39t207 -14h62q212 0 253 30q57 42 66 95t9 107zM666 -10h-62q-173 0 -248 30q-74 30 -109 68q-77 84 -77 260q0 224 128 304
q-128 70 -128 292q0 173 69 246t219 87q56 5 146 5h62q277 0 354 -82q78 -82 78 -256q0 -222 -126 -292q126 -82 126 -304t-119 -295q-61 -37 -133 -50t-180 -13zM274 348q0 -86 17 -138t63 -77t99 -32t151 -7h62q98 0 150 7t98 32t63 77t17 138q0 164 -70 210t-258 46h-62
q-96 0 -150 -7t-100 -33t-63 -78t-17 -138z" />
    <glyph glyph-name="nine" unicode="9" 
d="M666 1178q-392 0 -392 -236q0 -155 134 -199q107 -35 271 -35q315 0 315 232q0 238 -328 238zM170 942q0 90 38 156t91 100q131 84 367 84q432 0 432 -342q0 -212 -63 -398t-164 -309t-229 -194t-260 -71q-62 0 -62 53t66 53t149 35t169 102t158 187t106 270
q-102 -64 -302 -64q-496 0 -496 338z" />
    <glyph glyph-name="colon" unicode=":" horiz-adv-x="442" 
d="M221 242q33 0 68 -24t35 -58t-35 -58t-68 -24t-67 24t-34 58t34 58t67 24zM221 948q33 0 68 -24t35 -58t-35 -58t-68 -24t-67 24t-34 58t34 58t67 24z" />
    <glyph glyph-name="semicolon" unicode=";" horiz-adv-x="442" 
d="M320 187q0 -23 -10 -41l-82 -166q-20 -48 -50 -48q-44 0 -44 50q0 8 6 32l48 174q14 46 50 46q22 0 52 -12t30 -35zM221 948q33 0 68 -24t35 -58t-35 -58t-68 -24t-67 24t-34 58t34 58t67 24z" />
    <glyph glyph-name="less" unicode="&#x3c;" horiz-adv-x="1092" 
d="M928 178q-22 0 -44 14l-728 420q-36 22 -36 53t36 51l728 420q16 12 39 12t37 -13t14 -31t-12 -35t-26 -23l-662 -380l660 -384q40 -20 40 -42t-12 -42t-34 -20z" />
    <glyph glyph-name="equal" unicode="=" horiz-adv-x="858" 
d="M182 714q-62 0 -62 53t62 53h490q68 0 68 -56q0 -22 -19 -36t-49 -14h-490zM182 508q-62 0 -62 53t62 53h490q68 0 68 -56q0 -22 -19 -36t-49 -14h-490z" />
    <glyph glyph-name="greater" unicode="&#x3e;" horiz-adv-x="1092" 
d="M166 178q-22 0 -34 20t-12 42t40 42l660 384l-662 380q-14 6 -26 23t-12 35t14 31t37 13t39 -12l728 -420q36 -20 36 -51t-36 -53l-728 -420q-22 -14 -44 -14z" />
    <glyph glyph-name="question" unicode="?" horiz-adv-x="1228" 
d="M636 388q0 -66 -52 -66t-52 66v288l314 86q52 14 86 70t34 138t-47 153t-147 71h-186q-229 0 -275 -62q-47 -62 -47 -190q0 -66 -53 -66t-53 66q0 224 120 294q62 36 132 49t176 13h152q176 0 254 -97t78 -232t-57 -209t-197 -112l-180 -50v-210zM583 140q33 0 68 -24
t35 -58t-35 -58t-68 -24t-67 24t-34 58t34 58t67 24z" />
    <glyph glyph-name="at" unicode="@" horiz-adv-x="1228" 
d="M635 474q97 0 123 38t26 152t-26 151t-123 37t-123 -37t-26 -152t26 -152t123 -37zM598 -10q-194 0 -310 131t-116 361v308q0 230 116 361t310 131h58q194 0 310 -131t116 -347t-45 -290t-140 -109q-96 -35 -252 -35q-157 0 -210 68t-53 225t53 225t199 68t200 -68
t54 -197t-20 -191q64 18 87 74t23 228t-82 274t-240 102h-58q-160 0 -241 -102t-81 -286v-308q0 -184 81 -286t241 -102h268q62 0 87 27t25 95t52 68t52 -72q0 -161 -95 -203q-43 -19 -107 -19h-282z" />
    <glyph glyph-name="A" unicode="A" horiz-adv-x="1196" 
d="M568 1120l-232 -618h468zM100 -32q-16 0 -34 12t-18 32t6 38l462 1242h108l462 -1242q6 -18 6 -38t-18 -32t-34 -12q-34 0 -54 46l-142 384h-548l-142 -384q-20 -46 -54 -46z" />
    <glyph glyph-name="B" unicode="B" 
d="M578 768q186 0 259 40t73 166t-75 165t-257 39h-304v-410h304zM170 72v1148q0 72 48 72h360q218 0 327 -66t109 -236t-98 -242q92 -34 137 -111t45 -219v-58q0 -216 -107 -288t-337 -72h-436q-48 0 -48 72zM274 664v-560h380q196 0 268 45t72 207v56q0 162 -70 207
t-258 45h-392z" />
    <glyph glyph-name="C" unicode="C" 
d="M898 0h-282q-232 0 -339 72t-107 288v572q0 216 106 288t328 72h294q129 0 169 -73q31 -57 31 -139t-52 -82t-52 68t-24 95t-86 27h-280q-96 0 -150 -7t-100 -33t-63 -78t-17 -138v-572q0 -166 72 -211t270 -45h268q64 0 87 28t23 95t52 67t52 -72q0 -162 -93 -203
q-43 -19 -107 -19z" />
    <glyph glyph-name="D" unicode="D" 
d="M994 360v572q0 164 -70 210t-258 46h-392v-1084h380q196 0 268 45t72 211zM1098 932v-572q0 -216 -107 -288t-337 -72h-436q-48 0 -48 72v1148q0 72 48 72h448q108 0 180 -13t133 -51q119 -74 119 -296z" />
    <glyph glyph-name="E" unicode="E" 
d="M274 664v-560h756q68 0 68 -56q0 -48 -68 -48h-812q-48 0 -48 72v1138q0 72 48 72h812q68 0 68 -56q0 -48 -68 -48h-756v-410h518q72 0 72 -56q0 -48 -72 -48h-518z" />
    <glyph glyph-name="F" unicode="F" 
d="M274 54q0 -68 -52 -68t-52 70v1154q0 72 48 72h812q68 0 68 -56q0 -48 -68 -48h-756v-410h518q72 0 72 -56q0 -48 -72 -48h-518v-610z" />
    <glyph glyph-name="G" unicode="G" 
d="M994 492h-262q-72 0 -72 52t72 52h366v-394q0 -98 -39 -158t-161 -60h-294q-110 0 -182 13t-133 49q-119 70 -119 292v596q0 212 107 283t339 71h282q129 0 169 -73q31 -57 31 -139t-52 -82t-52 67t-23 95t-87 28h-268q-198 0 -270 -45t-72 -207v-592q0 -162 71 -207
t259 -45h280q64 0 87 27t23 93v284z" />
    <glyph glyph-name="H" unicode="H" 
d="M274 54q0 -68 -52 -68t-52 68v1162q0 70 48 70q56 0 56 -70v-478h720v478q0 70 52 70t52 -70v-1162q0 -68 -52 -68t-52 68v580h-720v-580z" />
    <glyph glyph-name="I" unicode="I" horiz-adv-x="442" 
d="M274 50q0 -64 -52 -64t-52 64v1170q0 66 52 66t52 -66v-1170z" />
    <glyph glyph-name="J" unicode="J" horiz-adv-x="1212" 
d="M607 88q191 0 262 45t71 207v882q0 64 52 64t52 -66v-882q0 -222 -119 -292q-61 -36 -134 -49t-183 -13t-183 13t-135 50q-120 72 -120 297q0 66 56 66q50 0 50 -66q0 -166 70 -211t261 -45z" />
    <glyph glyph-name="K" unicode="K" horiz-adv-x="1158" 
d="M1030 36q0 -20 -17 -35t-39 -15t-46 30l-548 628l-106 -128v-466q0 -64 -52 -64t-52 64v1170q0 66 52 66t52 -66v-560l522 596q22 30 44 30t39 -14t17 -35t-20 -47l-426 -478l558 -630q22 -26 22 -46z" />
    <glyph glyph-name="L" unicode="L" horiz-adv-x="1156" 
d="M218 0q-48 0 -48 70v1152q0 64 52 64t52 -64v-1118h646q66 0 66 -52t-66 -52h-702z" />
    <glyph glyph-name="M" unicode="M" horiz-adv-x="1308" 
d="M655 558q-23 0 -35 16l-346 516v-1034q0 -70 -52 -70t-52 68v1162q0 70 48 70q36 0 60 -38l376 -556l378 556q26 38 58 38q50 0 50 -70v-1162q0 -68 -52 -68t-52 70v1034l-346 -516q-12 -16 -35 -16z" />
    <glyph glyph-name="N" unicode="N" 
d="M1048 -14q-28 0 -40 14l-734 1086v-1034q0 -66 -52 -66t-52 68v1162q0 70 48 70q36 0 60 -38l716 -1056v1022q0 72 52 72t52 -70v-1162q0 -68 -50 -68z" />
    <glyph glyph-name="O" unicode="O" 
d="M634 1186q-172 0 -266 -98t-94 -274v-356q0 -176 94 -274t266 -98t266 98t94 274v356q0 176 -94 274t-266 98zM634 -18q-204 0 -334 126t-130 348v360q0 222 130 348t334 126t334 -127t130 -347v-360q0 -220 -130 -347t-334 -127z" />
    <glyph glyph-name="P" unicode="P" horiz-adv-x="1140" 
d="M580 768q184 0 257 40t73 166t-74 165t-256 39h-306v-410h306zM274 50q0 -64 -52 -64t-52 64v1160q0 72 48 72h362q216 0 325 -66t109 -230t-91 -243t-255 -79h-394v-614z" />
    <glyph glyph-name="Q" unicode="Q" 
d="M618 -18q-188 0 -318 126t-130 348v360q0 222 130 348t334 126t334 -127t130 -347v-360q0 -194 -98 -314l70 -68q22 -26 22 -46t-14 -36t-37 -16t-45 22l-70 70q-120 -86 -308 -86zM634 1186q-172 0 -266 -98t-94 -274v-356q0 -176 94 -274t248 -98t236 58l-112 104
q-26 22 -26 44t15 38t38 16t51 -26l108 -106q68 92 68 244v356q0 176 -94 274t-266 98z" />
    <glyph glyph-name="R" unicode="R" horiz-adv-x="1174" 
d="M1030 47q0 -25 -15 -43t-39 -18t-37 19t-13 45t-28 137t-96 262t-152 215h-376v-614q0 -64 -52 -64t-52 64v1170q0 72 48 72h360q218 0 327 -66t109 -244q0 -250 -234 -298q66 -64 128 -219t92 -274t30 -144zM578 768q186 0 259 40t73 166t-74 165t-258 39h-304v-410h304
z" />
    <glyph glyph-name="S" unicode="S" horiz-adv-x="1232" 
d="M274 963q0 -81 35 -138t85 -67l474 -102q134 -30 194 -124t60 -224t-79 -227t-261 -97h-166q-114 0 -188 13t-137 50q-121 71 -121 297q0 66 56 66q50 0 50 -66q0 -166 71 -211t269 -45h204q106 0 152 72t46 162t-39 151t-81 71l-470 104q-140 30 -199 105t-59 210
t82 230t272 95h152q114 0 187 -13t137 -49q122 -69 122 -294q0 -66 -53 -66t-53 66q0 166 -70 209t-270 43h-196q-108 0 -157 -70t-49 -151z" />
    <glyph glyph-name="T" unicode="T" horiz-adv-x="1070" 
d="M896 1292q66 0 66 -52t-66 -52h-304v-1138q0 -64 -58 -64q-52 0 -52 64v1138h-308q-66 0 -66 52t66 52h722z" />
    <glyph glyph-name="U" unicode="U" 
d="M994 1222q0 64 52 64t52 -66v-764q0 -220 -130 -347t-334 -127t-334 126t-130 348v764q0 66 52 66t52 -64v-764q0 -176 94 -274t266 -98t266 98t94 274v764z" />
    <glyph glyph-name="V" unicode="V" horiz-adv-x="1196" 
d="M48 1263q0 17 19 29t33 12q36 0 54 -46l426 -1118l406 1118q20 46 54 46q14 0 33 -12t19 -29t-6 -41l-454 -1222h-104l-474 1222q-6 24 -6 41z" />
    <glyph glyph-name="W" unicode="W" horiz-adv-x="1974" 
d="M1804 1298q44 0 44 -38q0 -12 -8 -36l-384 -1224h-116l-354 1106l-352 -1106h-114l-386 1232q-8 24 -8 36q0 38 44 38t60 -44l348 -1118l350 1108q18 52 61 52t59 -52l352 -1108l344 1110q16 44 60 44z" />
    <glyph glyph-name="X" unicode="X" horiz-adv-x="1312" 
d="M1089 1286q19 0 37 -12t18 -38t-16 -44l-406 -558l406 -556q16 -22 16 -44t-17 -35t-39 -13t-46 32l-386 536l-384 -536q-24 -32 -47 -32t-39 14t-16 35t16 43l406 556l-406 558q-16 18 -16 44t18 38t38 12t46 -36l384 -534l386 534q28 36 47 36z" />
    <glyph glyph-name="Y" unicode="Y" horiz-adv-x="1230" 
d="M130 1238q0 20 16 34t36 14t48 -36l386 -534l384 534q26 36 47 36t38 -15t17 -34t-16 -43l-416 -578v-568q0 -62 -53 -62t-53 62v568l-418 578q-16 24 -16 44z" />
    <glyph glyph-name="Z" unicode="Z" 
d="M172 0v102l802 1086h-732q-72 0 -72 52t72 52h856v-106l-798 -1082h728q70 0 70 -52t-70 -52h-856z" />
    <glyph glyph-name="bracketleft" unicode="[" horiz-adv-x="538" 
d="M264 1262v-1252h156v-104h-260v1460h260v-104h-156z" />
    <glyph glyph-name="backslash" unicode="\" horiz-adv-x="660" 
d="M604 15q0 -19 -18 -30t-36 -11q-34 0 -50 46l-436 1196q-6 20 -6 41t17 32t35 11q36 0 52 -46l436 -1196q6 -24 6 -43z" />
    <glyph glyph-name="bracketright" unicode="]" horiz-adv-x="538" 
d="M316 10v1252h-156v104h260v-1460h-260v104h156z" />
    <glyph glyph-name="asciicircum" unicode="^" horiz-adv-x="886" 
d="M214 720q-54 0 -54 46q0 8 4 24l220 492h120l218 -492q4 -8 4 -24q0 -46 -46 -46q-36 0 -58 42l-178 400l-180 -400q-22 -42 -50 -42z" />
    <glyph glyph-name="underscore" unicode="_" horiz-adv-x="950" 
d="M56 -94q-66 0 -66 52t66 52h838q66 0 66 -52t-66 -52h-838z" />
    <glyph glyph-name="grave" unicode="`" horiz-adv-x="424" 
d="M111 1366q21 0 47 -30l192 -230q18 -22 18 -45t-16 -37t-36 -14t-48 30l-192 230q-18 22 -18 44t16 37t37 15z" />
    <glyph glyph-name="a" unicode="a" horiz-adv-x="1184" 
d="M616 590h294v114q0 62 -23 88t-87 26h-282q-244 0 -244 -120q0 -70 -52 -70t-52 70q0 116 92 170t242 54h310q116 0 158 -56t42 -196v-616q0 -68 -52 -68t-52 70v70q-114 -126 -340 -126h-186q-94 0 -154 67t-60 179q0 202 109 273t337 71zM616 486q-102 0 -157 -7
t-103 -32t-65 -75t-17 -119t34 -109t76 -40h186q168 0 254 91t86 261v30h-294z" />
    <glyph glyph-name="b" unicode="b" horiz-adv-x="1288" 
d="M616 818q-342 0 -342 -354v-8q0 -352 342 -352h58q102 0 157 7t102 32t64 75t17 136v214q0 86 -17 136t-64 75t-102 32t-157 7h-58zM616 922h58q230 0 337 -71t107 -281v-218q0 -210 -107 -281t-337 -71h-58q-224 0 -342 126v-70q0 -70 -52 -70t-52 68v1160q0 72 48 72
q56 0 56 -72v-418q118 126 342 126z" />
    <glyph glyph-name="c" unicode="c" 
d="M898 0h-282q-230 0 -338 71t-108 281v218q0 210 108 281t338 71h282q130 0 169 -74q31 -59 31 -139q0 -81 -52 -81t-52 68t-24 95t-86 27h-268q-102 0 -157 -7t-103 -32t-65 -75t-17 -136v-214q0 -86 17 -136t65 -75t103 -32t157 -7h268q64 0 87 28t23 95t52 67t52 -72
q0 -162 -93 -203q-43 -19 -107 -19z" />
    <glyph glyph-name="d" unicode="d" horiz-adv-x="1288" 
d="M1014 818h-400q-102 0 -157 -7t-102 -32t-64 -75t-17 -136v-214q0 -86 17 -136t64 -75t102 -32t157 -7h58q342 0 342 352v362zM1014 922v292q0 72 56 72q48 0 48 -72v-1160q0 -68 -52 -68t-52 70v70q-118 -126 -342 -126h-58q-230 0 -337 71t-107 281v218q0 210 107 281
t337 71h400z" />
    <glyph glyph-name="e" unicode="e" horiz-adv-x="1288" 
d="M674 818h-58q-194 0 -267 -41t-75 -183h740q-2 142 -75 183t-265 41zM1118 570v-80h-844v-136q0 -86 17 -136t65 -75t103 -32t157 -7h268q64 0 87 28t23 95t52 67t52 -72q0 -162 -93 -203q-43 -19 -107 -19h-282q-230 0 -338 71t-108 281v218q0 210 108 281t338 71h58
q230 0 337 -71t107 -281z" />
    <glyph glyph-name="f" unicode="f" horiz-adv-x="764" 
d="M668 1216q0 -48 -83 -48t-134 -7t-96 -31t-63 -74t-18 -134h276q72 0 72 -56q0 -48 -72 -48h-276v-762q0 -70 -56 -70q-48 0 -48 70v764q-62 4 -62 54q0 44 62 48q4 221 121 290q61 36 130 48t175 12q72 0 72 -56z" />
    <glyph glyph-name="g" unicode="g" horiz-adv-x="1288" 
d="M1014 104v362q0 352 -342 352h-58q-102 0 -157 -7t-102 -32t-64 -75t-17 -136v-214q0 -86 17 -136t64 -75t102 -32t157 -7h400zM1118 -174q0 -130 -38 -183t-144 -53h-566q-130 0 -169 74q-31 59 -31 139q0 81 52 81t52 -68t24 -95t86 -27h538q58 0 75 20t17 80v206h-400
q-230 0 -337 71t-107 281v218q0 210 107 281t337 71h58q224 0 342 -126v70q0 70 52 70t52 -68v-1042z" />
    <glyph glyph-name="h" unicode="h" horiz-adv-x="1288" 
d="M616 818q-170 0 -256 -91t-86 -265v-408q0 -68 -52 -68t-52 68v1160q0 72 48 72q56 0 56 -72v-418q118 126 342 126h58q230 0 337 -71t107 -281v-516q0 -68 -52 -68t-52 68v514q0 86 -17 136t-64 75t-102 32t-157 7h-58z" />
    <glyph glyph-name="i" unicode="i" horiz-adv-x="440" 
d="M264 40q0 -64 -52 -64t-52 64v840q0 66 52 66t52 -66v-840zM211 1284q33 0 68 -24t35 -58t-35 -58t-68 -24t-67 24t-34 58t34 58t67 24z" />
    <glyph glyph-name="j" unicode="j" horiz-adv-x="436" 
d="M268 0q0 -220 -119 -290q-61 -36 -131 -48t-176 -12q-72 0 -72 52t72 52q184 0 253 44t69 202v864q0 72 52 72t52 -72v-864zM114 1192q0 34 35 58t68 24t67 -24t34 -58t-34 -58t-67 -24t-68 24t-35 58z" />
    <glyph glyph-name="k" unicode="k" horiz-adv-x="996" 
d="M904 40q0 -20 -14 -36t-35 -16t-49 24l-474 458l-58 -58v-362q0 -64 -52 -64t-52 62v1172q0 66 52 66t52 -66v-682l388 370q26 24 46 24t36 -15t16 -37t-24 -46l-332 -304l478 -444q22 -26 22 -46z" />
    <glyph glyph-name="l" unicode="l" horiz-adv-x="532" 
d="M384 0h-14q-116 0 -158 57t-42 197v962q0 70 52 70t52 -70v-996q0 -64 23 -90t90 -26t67 -52t-70 -52z" />
    <glyph glyph-name="m" unicode="m" horiz-adv-x="1710" 
d="M552 818q-278 0 -278 -356v-408q0 -68 -52 -68t-52 68v812q0 70 48 70q56 0 56 -72v-68q56 68 114 97t171 29t197 -33t122 -127q102 160 290 160t280 -72t92 -280v-516q0 -68 -52 -68t-52 68v514q0 86 -13 136t-49 75t-79 32t-123 7q-126 0 -196 -92t-70 -264v-408
q0 -68 -52 -68t-52 68v514q0 162 -55 206t-195 44z" />
    <glyph glyph-name="n" unicode="n" horiz-adv-x="1288" 
d="M616 818q-170 0 -256 -91t-86 -265v-408q0 -68 -52 -68t-52 68v812q0 70 48 70q56 0 56 -72v-68q118 126 342 126h58q230 0 337 -71t107 -281v-516q0 -68 -52 -68t-52 68v514q0 86 -17 136t-64 75t-102 32t-157 7h-58z" />
    <glyph glyph-name="o" unicode="o" horiz-adv-x="1288" 
d="M616 104h58q102 0 157 7t102 32t64 75t17 136v214q0 86 -17 136t-64 75t-102 32t-157 7h-58q-102 0 -157 -7t-103 -32t-65 -75t-17 -136v-214q0 -86 17 -136t65 -75t103 -32t157 -7zM674 0h-58q-230 0 -338 71t-108 281v218q0 210 108 281t338 71h58q230 0 337 -71
t107 -281v-218q0 -210 -107 -281t-337 -71z" />
    <glyph glyph-name="p" unicode="p" horiz-adv-x="1288" 
d="M1118 352q0 -210 -107 -281t-335 -71h-402v-294q0 -70 -56 -70q-48 0 -48 70v1162q0 68 52 68t52 -70v-70q118 126 342 126h58q230 0 337 -71t107 -281v-218zM1014 568q0 86 -17 136t-64 75t-102 32t-157 7h-58q-342 0 -342 -354v-360h402q196 0 267 44t71 206v214z" />
    <glyph glyph-name="q" unicode="q" horiz-adv-x="1288" 
d="M170 352v218q0 210 108 281t338 71h58q226 0 340 -126v70q0 70 52 70t52 -68v-1162q0 -70 -48 -70q-56 0 -56 70v294h-400q-230 0 -337 71t-107 281zM274 568v-214q0 -86 17 -136t64 -75t102 -32t157 -7h400v360q0 354 -340 354h-58q-102 0 -157 -7t-103 -32t-65 -75
t-17 -136z" />
    <glyph glyph-name="r" unicode="r" horiz-adv-x="864" 
d="M596 818q-156 0 -239 -92t-83 -264v-408q0 -68 -52 -68t-52 68v812q0 70 48 70q56 0 56 -72v-68q118 126 322 126h92q70 0 70 -52t-70 -52h-92z" />
    <glyph glyph-name="s" unicode="s" 
d="M370 0q-129 0 -169 73q-31 57 -31 139t52 82t52 -67t23 -95t87 -28h496q118 0 118 148q0 74 -33 121t-85 47h-452q-258 0 -258 260q0 120 62 181t216 61h450q130 0 169 -74q31 -59 31 -139q0 -81 -52 -81t-52 68t-24 95t-86 27h-492q-118 0 -118 -138q0 -76 33 -116
t85 -40h454q140 0 198 -78t58 -198t-63 -184t-213 -64h-456z" />
    <glyph glyph-name="t" unicode="t" horiz-adv-x="774" 
d="M264 354q0 -162 69 -206t253 -44q70 0 70 -48q0 -56 -70 -56q-216 0 -321 72t-105 280v468q-62 4 -62 54q0 44 62 48v208q0 72 48 72q56 0 56 -72v-208h276q72 0 72 -56q0 -48 -72 -48h-276v-464z" />
    <glyph glyph-name="u" unicode="u" horiz-adv-x="1288" 
d="M672 104q170 0 256 91t86 265v408q0 68 52 68t52 -68v-812q0 -70 -48 -70q-56 0 -56 72v68q-118 -126 -342 -126h-58q-230 0 -337 71t-107 281v516q0 68 52 68t52 -68v-514q0 -86 17 -136t64 -75t102 -32t157 -7h58z" />
    <glyph glyph-name="v" unicode="v" horiz-adv-x="1166" 
d="M985 946q43 0 43 -40q0 -16 -8 -34l-388 -882h-140l-364 882q-8 18 -8 32q0 42 48 42q36 0 56 -44l344 -800l356 802q18 42 61 42z" />
    <glyph glyph-name="w" unicode="w" horiz-adv-x="1674" 
d="M106 908q0 38 44 38t60 -44l280 -806l292 796q16 42 57 42t55 -42l280 -796l290 806q16 44 60 44t44 -38q0 -12 -8 -36l-310 -872h-158l-254 748l-274 -748h-158l-292 872q-8 24 -8 36z" />
    <glyph glyph-name="x" unicode="x" horiz-adv-x="1176" 
d="M1020 23q0 -19 -16 -32t-37 -13t-45 24l-332 386l-334 -386q-28 -24 -48 -24t-36 13t-16 27t20 54l342 388l-342 390q-20 24 -20 45t16 35t36 14t48 -24l334 -386l332 386q24 24 45 24t37 -14t16 -35t-20 -45l-342 -390l342 -388q20 -30 20 -49z" />
    <glyph glyph-name="y" unicode="y" horiz-adv-x="1288" 
d="M1118 -174q0 -130 -38 -183t-144 -53h-566q-130 0 -169 74q-31 59 -31 139q0 81 52 81t52 -68t24 -95t86 -27h538q58 0 75 20t17 80v332q-118 -126 -342 -126h-58q-230 0 -337 71t-107 281v516q0 68 52 68t52 -68v-514q0 -86 17 -136t64 -75t102 -32t157 -7h58
q170 0 256 91t86 265v408q0 68 52 68t52 -68v-1042z" />
    <glyph glyph-name="z" unicode="z" horiz-adv-x="1222" 
d="M838 104q72 0 92 36t20 113t52 77t52 -72q0 -140 -42 -199t-158 -59h-684v128l714 690h-500q-70 0 -90 -36t-20 -113t-52 -77t-52 72q0 142 42 200t158 58h642v-134l-708 -684h534z" />
    <glyph glyph-name="braceleft" unicode="{" horiz-adv-x="538" 
d="M320 472q0 -52 -28 -144t-28 -112q0 -140 25 -173t131 -33v-104q-140 0 -200 60t-60 250q0 38 28 130t28 131t-52 84t-94 65v16q42 22 94 68t52 85t-28 131t-28 130q0 190 60 250t200 60v-104q-104 0 -130 -34t-26 -172q0 -20 28 -112t28 -144q0 -80 -142 -166
q142 -78 142 -162z" />
    <glyph glyph-name="bar" unicode="|" horiz-adv-x="442" 
d="M274 50q0 -64 -52 -64t-52 64v1170q0 66 52 66t52 -66v-1170z" />
    <glyph glyph-name="braceright" unicode="}" horiz-adv-x="538" 
d="M170 472q0 84 142 162q-142 86 -142 166q0 52 28 144t28 112q0 138 -26 172t-130 34v104q140 0 200 -60t60 -250q0 -38 -28 -130t-28 -131t52 -85t94 -68v-16q-42 -20 -94 -65t-52 -84t28 -131t28 -130q0 -190 -60 -250t-200 -60v104q106 0 131 33t25 173q0 20 -28 112
t-28 144z" />
    <glyph glyph-name="asciitilde" unicode="~" horiz-adv-x="802" 
d="M633 550q19 0 35 -12t16 -37t-28 -51l-94 -78q-16 -16 -38 -16l-15 2q-3 0 -5 2h-4l-196 72q-4 4 -11 4t-17 -8l-62 -56q-26 -18 -44 -18t-34 13t-16 39t28 48l92 76q14 18 38 18l26 -4l196 -72l10 -4q6 0 16 8l62 56q26 18 45 18z" />
    <glyph glyph-name="exclamdown" unicode="&#xa1;" horiz-adv-x="420" 
d="M212 982q34 0 68 -24t34 -58t-35 -58t-68 -24t-68 24t-35 58t35 58t69 24zM264 -276q0 -64 -52 -64t-52 64v840q0 66 52 66t52 -66v-840z" />
    <glyph glyph-name="cent" unicode="&#xa2;" horiz-adv-x="1070" 
d="M268 680v-84q0 -146 52 -197t182 -57v592q-126 -6 -180 -59t-54 -195zM606 40q0 -64 -52 -64t-52 64v196q-170 10 -254 88t-84 272v84q0 190 86 269t252 89v192q0 66 52 66t52 -66v-190h104q127 0 167 -73q31 -57 31 -139t-52 -82t-52 69t-23 95t-85 26h-90v-596h86
q62 0 87 26t25 95t52 69t52 -72q0 -161 -95 -203q-43 -19 -107 -19h-100v-196z" />
    <glyph glyph-name="sterling" unicode="&#xa3;" horiz-adv-x="1074" 
d="M160 46q0 12 2 18l76 872q20 225 131 298q95 62 237 62t224 -61t82 -233q0 -66 -52 -66t-52 66q0 122 -50 156t-164 34t-176 -48t-76 -208l-18 -198h68q64 0 64 -52t-64 -52h-76l-48 -540h582q66 0 66 -52t-66 -52h-646q-44 0 -44 56z" />
    <glyph glyph-name="currency" unicode="&#xa4;" horiz-adv-x="956" 
d="M182 461q0 95 52 169l-90 90q-24 28 -24 47t17 35t35 16t46 -24l90 -90q76 54 172 54t170 -54l88 90q26 24 46 24t37 -13t17 -37t-28 -48l-88 -90q54 -72 54 -169t-54 -171l88 -88q28 -28 28 -46t-17 -36t-37 -18t-46 28l-88 88q-74 -54 -170 -54t-172 54l-90 -88
q-24 -28 -45 -28t-37 14t-16 37t24 49l90 90q-52 74 -52 169zM270 461q0 -87 62 -148t148 -61t147 61t61 147t-61 148t-148 62t-148 -61t-61 -148z" />
    <glyph glyph-name="yen" unicode="&#xa5;" horiz-adv-x="1190" 
d="M120 1247q0 21 16 35t36 14t48 -36l376 -534l374 534q24 36 46 36t39 -15t17 -35t-16 -44l-408 -586v-62h188q66 0 66 -52t-66 -52h-188v-74h188q66 0 66 -52t-66 -52h-188v-232q0 -64 -51 -64t-51 64v232h-200q-64 0 -64 52t64 52h200v74h-200q-64 0 -64 52t64 52h200
v62l-410 586q-16 24 -16 45z" />
    <glyph glyph-name="brokenbar" unicode="&#xa6;" horiz-adv-x="342" 
d="M120 474q0 62 51 62t51 -62v-430q0 -68 -54 -68q-48 0 -48 68v430zM120 1232q0 64 51 64t51 -64v-430q0 -66 -54 -66q-48 0 -48 66v430z" />
    <glyph glyph-name="section" unicode="&#xa7;" horiz-adv-x="1228" 
d="M350 614q0 -82 105 -122t237 -40t161 20t29 105t-113 122t-237 37t-153 -20t-29 -102zM934 956q-52 0 -52 70q0 38 -14 53t-66 15h-368q-48 0 -66 -25t-18 -79q0 -130 78 -140l350 -50q208 -28 208 -222q0 -144 -92 -190q92 -54 92 -190q0 -208 -210 -208h-368
q-98 0 -130 49t-32 133q0 60 52 60t52 -70q0 -38 14 -53t66 -15h368q48 0 66 24t18 80q0 130 -78 140l-350 50q-208 28 -208 224q0 142 92 188q-92 54 -92 190q0 208 210 208h370q68 0 105 -29t46 -64t9 -92t-52 -57z" />
    <glyph glyph-name="dieresis" unicode="&#xa8;" horiz-adv-x="734" 
d="M221 1342q33 0 68 -24t35 -58t-35 -58t-68 -24t-67 24t-34 58t34 58t67 24zM513 1342q33 0 68 -24t35 -58t-35 -58t-68 -24t-67 24t-34 58t34 58t67 24z" />
    <glyph glyph-name="copyright" unicode="&#xa9;" horiz-adv-x="1228" 
d="M586 268h58q182 0 251 46t69 210v222q0 164 -69 210t-251 46h-58q-184 0 -253 -46t-69 -210v-222q0 -164 69 -210t253 -46zM586 164q-106 0 -177 13t-131 51q-118 75 -118 296v222q0 221 118 296q60 38 131 51t177 13h58q216 0 320 -73t104 -287v-222q0 -214 -104 -287
t-320 -73h-58zM772 578q42 0 42 -48q0 -28 -24 -65t-86 -37h-100q-78 0 -134 43t-56 125v78q0 82 56 125t134 43h100q60 0 85 -36t25 -75t-39 -39t-39 30q0 22 -7 30t-29 8h-96q-48 0 -79 -23t-31 -63v-78q0 -40 31 -63t79 -23h96q32 0 35 27t12 34t25 7z" />
    <glyph glyph-name="ordfeminine" unicode="&#xaa;" horiz-adv-x="738" 
d="M527 482q-39 0 -39 34v24q-36 -52 -124 -52h-74q-52 0 -86 41t-34 93q0 90 50 124t154 34h114v28q0 24 -8 33t-32 9h-158q-24 0 -31 -9t-7 -26q0 -41 -41 -41t-41 34q0 52 32 88t82 36h170q116 0 116 -138v-278q-4 -34 -43 -34zM374 698q-70 0 -96 -15t-26 -49
q0 -64 38 -64h74q118 0 124 128h-114zM172 318q-52 0 -52 45t52 45h392q56 0 56 -48q0 -42 -56 -42h-392z" />
    <glyph glyph-name="guillemotleft" unicode="&#xab;" horiz-adv-x="1032" 
d="M874 1070q40 0 40 -40q0 -34 -28 -64l-310 -300l310 -302q28 -30 28 -64q0 -40 -40 -40q-32 0 -46 14l-364 338q-36 28 -36 50t36 54l364 338q16 16 46 16zM566 1070q40 0 40 -40q0 -34 -28 -64l-310 -300l310 -302q28 -30 28 -64q0 -40 -40 -40q-32 0 -46 14l-364 338
q-36 28 -36 50t36 54l364 338q16 16 46 16z" />
    <glyph glyph-name="logicalnot" unicode="&#xac;" horiz-adv-x="964" 
d="M846 282q0 -66 -56 -66q-50 0 -50 66v126h-558q-62 0 -62 53t62 53h596q68 0 68 -64v-168z" />
    <glyph glyph-name="uni00AD" unicode="&#xad;" horiz-adv-x="858" 
d="M182 408q-62 0 -62 53t62 53h490q68 0 68 -56q0 -22 -19 -36t-49 -14h-490z" />
    <glyph glyph-name="registered" unicode="&#xae;" horiz-adv-x="1228" 
d="M612 678q78 0 107 8t29 37t-28 38t-108 9h-124v-92h124zM836 441q0 -35 -40 -35q-39 0 -45 34q-3 16 -39 72t-82 84h-142v-162q0 -28 -42 -28q-16 0 -28 8t-12 20v388q0 12 12 21t26 9h168q218 0 218 -130q0 -40 -26 -73t-70 -47q28 -24 65 -83t37 -78zM586 164
q-106 0 -177 13t-131 51q-118 75 -118 296v222q0 221 118 296q60 38 131 51t177 13h58q216 0 320 -73t104 -287v-222q0 -214 -104 -287t-320 -73h-58zM586 268h58q182 0 251 46t69 210v222q0 164 -69 210t-251 46h-58q-184 0 -253 -46t-69 -210v-222q0 -164 69 -210t253 -46
z" />
    <glyph glyph-name="macron" unicode="&#xaf;" horiz-adv-x="858" 
d="M182 1346q-62 0 -62 53t62 53h490q68 0 68 -56q0 -22 -19 -36t-49 -14h-490z" />
    <glyph glyph-name="degree" unicode="&#xb0;" horiz-adv-x="912" 
d="M456 1366q122 0 210 -87t88 -209t-87 -210t-210 -88t-210 88t-87 210t87 209t209 87zM262 1070q0 -80 57 -138t137 -58t138 57t58 138t-58 138t-138 57t-137 -57t-57 -137z" />
    <glyph glyph-name="plusminus" unicode="&#xb1;" horiz-adv-x="1124" 
d="M562 222q-52 0 -52 64v244h-328q-62 0 -62 56q0 50 62 50h328v244q0 66 52 66t52 -66v-244h324q68 0 68 -53t-68 -53h-324v-244q0 -64 -52 -64zM1006 50q0 -22 -19 -36t-49 -14h-756q-62 0 -62 56q0 50 62 50h756q68 0 68 -56z" />
    <glyph glyph-name="twosuperior" unicode="&#xb2;" horiz-adv-x="622" 
d="M546 956q0 -14 -17 -29t-37 -15h-416v54q0 72 40 129t96 91t112 62t96 57t40 59q0 64 -32 79t-132 15h-52q-76 0 -76 -52q0 -20 -14 -33t-31 -13t-32 13t-15 33q0 60 48 99t112 39h60q116 0 165 -22t67 -60t18 -96t-57 -109t-125 -82t-128 -78t-66 -99h322q22 -2 38 -15
t16 -27z" />
    <glyph glyph-name="threesuperior" unicode="&#xb3;" horiz-adv-x="598" 
d="M381 1158q-57 34 -110 34t-53 43t66 43q40 0 97 28t57 62t-6 50q-15 40 -120 40h-24q-46 0 -83 -16t-37 -40q0 -36 -46 -36t-46 40q0 48 57 93t147 45h24q118 0 168 -41t50 -129t-118 -138q118 -51 118 -173q0 -151 -218 -151h-24q-90 0 -147 45t-57 89t46 44t46 -36
q0 -24 37 -40t83 -16h24q80 0 103 20t23 63t-57 77z" />
    <glyph glyph-name="acute" unicode="&#xb4;" horiz-adv-x="424" 
d="M111 1010q-19 0 -36 15t-17 37t18 44l192 230q28 30 48 30t36 -15t16 -37t-18 -44l-192 -230q-28 -30 -47 -30z" />
    <glyph glyph-name="uni00B5" unicode="&#xb5;" horiz-adv-x="1170" 
d="M908 456v420q0 70 52 70t52 -70v-828q0 -72 -52 -72t-52 72v68q-118 -126 -322 -126t-322 126v-454q0 -72 -56 -72q-48 0 -48 72v1214q0 70 52 70t52 -70v-420q0 -176 83 -269t238 -93t239 93t84 269z" />
    <glyph glyph-name="paragraph" unicode="&#xb6;" horiz-adv-x="996" 
d="M840 40q0 -64 -52 -64t-52 64v1138h-62v-1138q0 -64 -52 -64t-52 64v624h-74q-160 0 -250 79t-90 243t107 230t317 66h260v-1242z" />
    <glyph glyph-name="periodcentered" unicode="&#xb7;" horiz-adv-x="442" 
d="M221 856q33 0 68 -24t35 -58t-35 -58t-68 -24t-67 24t-34 58t34 58t67 24z" />
    <glyph glyph-name="cedilla" unicode="&#xb8;" horiz-adv-x="418" 
d="M296 -178q0 42 -26 68t-114 46v98h62v-50q86 -30 113 -65t27 -97q0 -120 -142 -120t-142 96q0 36 31 36t31 -35t80 -35t80 58z" />
    <glyph glyph-name="onesuperior" unicode="&#xb9;" horiz-adv-x="588" 
d="M167 1346q-45 0 -45 43q0 19 24 39l96 100q26 22 44 22t33 -11t15 -37v-542q0 -54 -44 -54t-44 54v446l-36 -36q-20 -24 -43 -24z" />
    <glyph glyph-name="ordmasculine" unicode="&#xba;" horiz-adv-x="738" 
d="M172 318q-52 0 -52 45t52 45h392q56 0 56 -48q0 -42 -56 -42h-392zM360 488q-108 0 -149 37t-41 141v88q0 104 42 141t148 37h18q108 0 150 -37t42 -141v-88q0 -104 -42 -141t-150 -37h-18zM360 570h18q68 0 89 16t21 80v88q0 64 -21 80t-89 16h-18q-68 0 -88 -16
t-20 -80v-88q0 -64 20 -80t88 -16z" />
    <glyph glyph-name="guillemotright" unicode="&#xbb;" horiz-adv-x="1032" 
d="M914 662q0 -22 -36 -50l-364 -338q-14 -14 -46 -14q-40 0 -40 40q0 34 28 64l310 302l-310 300q-28 30 -28 64q0 40 40 40q30 0 46 -16l364 -338q36 -32 36 -54zM606 662q0 -22 -36 -50l-364 -338q-14 -14 -46 -14q-40 0 -40 40q0 34 28 64l310 302l-310 300
q-28 30 -28 64q0 40 40 40q30 0 46 -16l364 -338q36 -32 36 -54z" />
    <glyph glyph-name="onequarter" unicode="&#xbc;" horiz-adv-x="1248" 
d="M275 1078q-45 0 -45 43q0 19 24 39l96 100q26 22 44 22t33 -11t15 -37v-542q0 -54 -44 -54t-44 54v446l-36 -36q-20 -24 -43 -24zM1070 1038q0 -24 -24 -48l-818 -820q-26 -24 -50 -24q-40 0 -40 40q0 24 24 50l820 818q24 24 48 24q40 0 40 -40zM904 276v236l-176 -236
h176zM992 190v-154q0 -54 -44 -54t-44 54v154h-264v104l244 326h108v-344h88q52 0 52 -43t-52 -43h-88z" />
    <glyph glyph-name="onehalf" unicode="&#xbd;" horiz-adv-x="1274" 
d="M1048 1038q0 -24 -24 -48l-818 -820q-26 -24 -50 -24q-40 0 -40 40q0 24 24 50l820 818q24 24 48 24q40 0 40 -40zM1154 32q0 -14 -17 -29t-37 -15h-416v54q0 72 40 129t96 91t112 62t96 57t40 59q0 64 -32 79t-132 15h-52q-76 0 -76 -52q0 -20 -14 -33t-31 -13t-32 13
t-15 33q0 60 48 99t112 39h60q116 0 165 -22t67 -60t18 -96t-57 -109t-125 -82t-128 -78t-66 -99h322q22 -2 38 -15t16 -27zM275 1078q-45 0 -45 43q0 19 24 39l96 100q26 22 44 22t33 -11t15 -37v-542q0 -54 -44 -54t-44 54v446l-36 -36q-20 -24 -43 -24z" />
    <glyph glyph-name="threequarters" unicode="&#xbe;" horiz-adv-x="1248" 
d="M904 276v236l-176 -236h176zM992 190v-154q0 -54 -44 -54t-44 54v154h-264v104l244 326h108v-344h88q52 0 52 -43t-52 -43h-88zM1080 1038q0 -24 -24 -48l-818 -820q-26 -24 -50 -24q-40 0 -40 40q0 24 24 50l820 818q24 24 48 24q40 0 40 -40zM391 896q-57 34 -110 34
t-53 43t66 43q40 0 97 28t57 62t-6 50q-15 40 -120 40h-24q-46 0 -83 -16t-37 -40q0 -36 -46 -36t-46 40q0 48 57 93t147 45h24q118 0 168 -41t50 -129t-118 -138q118 -51 118 -173q0 -151 -218 -151h-24q-90 0 -147 45t-57 89t46 44t46 -36q0 -24 37 -40t83 -16h24
q80 0 103 20t23 63t-57 77z" />
    <glyph glyph-name="questiondown" unicode="&#xbf;" horiz-adv-x="1228" 
d="M592 570q0 66 52 66t52 -66v-288l-314 -86q-52 -14 -86 -71t-34 -138t47 -152t147 -71h188q96 0 147 7t95 31t61 76t17 128t53 76t53 -66q0 -224 -119 -294q-61 -36 -131 -49t-176 -13h-152q-176 0 -255 97t-79 232t58 209t198 112l178 50v210zM645 818q-33 0 -68 24
t-35 58t34 58t68 24t69 -24t35 -58t-35 -58t-68 -24z" />
    <glyph glyph-name="Agrave" unicode="&#xc0;" horiz-adv-x="1196" 
d="M568 1120l-232 -618h468zM100 -32q-16 0 -34 12t-18 32t6 38l462 1242h108l462 -1242q6 -18 6 -38t-18 -32t-34 -12q-34 0 -54 46l-142 384h-548l-142 -384q-20 -46 -54 -46zM408 1638q22 0 46 -26l140 -138q24 -28 24 -47t-14 -35t-38 -16t-48 26l-138 136
q-26 30 -26 48t16 35t38 17z" />
    <glyph glyph-name="Aacute" unicode="&#xc1;" horiz-adv-x="1196" 
d="M568 1120l-232 -618h468zM100 -32q-16 0 -34 12t-18 32t6 38l462 1242h108l462 -1242q6 -18 6 -38t-18 -32t-34 -12q-34 0 -54 46l-142 384h-548l-142 -384q-20 -46 -54 -46zM536 1376q-22 0 -38 15t-16 35t26 50l138 136q24 26 48 26t38 -17t14 -35t-24 -46l-140 -138
q-24 -26 -46 -26z" />
    <glyph glyph-name="Acircumflex" unicode="&#xc2;" horiz-adv-x="1196" 
d="M568 1120l-232 -618h468zM100 -32q-16 0 -34 12t-18 32t6 38l462 1242h108l462 -1242q6 -18 6 -38t-18 -32t-34 -12q-34 0 -54 46l-142 384h-548l-142 -384q-20 -46 -54 -46zM854 1338q0 -46 -46 -46q-20 0 -27 7t-17 19t-12 14l-182 192l-180 -192q-4 -4 -10 -12
t-10 -11t-11 -10t-25 -7q-46 0 -46 46q0 20 12 36l210 264h118l214 -264q12 -16 12 -36z" />
    <glyph glyph-name="Atilde" unicode="&#xc3;" horiz-adv-x="1196" 
d="M568 1120l-232 -618h468zM100 -32q-16 0 -34 12t-18 32t6 38l462 1242h108l462 -1242q6 -18 6 -38t-18 -32t-34 -12q-34 0 -54 46l-142 384h-548l-142 -384q-20 -46 -54 -46zM801 1598q19 0 35 -12t16 -37t-28 -51l-94 -78q-16 -16 -38 -16l-15 2q-3 0 -5 2h-4l-196 72
q-4 4 -11 4t-17 -8l-62 -56q-26 -18 -44 -18t-34 13t-16 39t28 48l92 76q14 18 38 18l26 -4l196 -72l10 -4q6 0 16 8l62 56q26 18 45 18z" />
    <glyph glyph-name="Adieresis" unicode="&#xc4;" horiz-adv-x="1196" 
d="M568 1120l-232 -618h468zM100 -32q-16 0 -34 12t-18 32t6 38l462 1242h108l462 -1242q6 -18 6 -38t-18 -32t-34 -12q-34 0 -54 46l-142 384h-548l-142 -384q-20 -46 -54 -46zM423 1568q33 0 68 -24t35 -58t-35 -58t-68 -24t-67 24t-34 58t34 58t67 24zM715 1568
q33 0 68 -24t35 -58t-35 -58t-68 -24t-67 24t-34 58t34 58t67 24z" />
    <glyph glyph-name="Aring" unicode="&#xc5;" horiz-adv-x="1196" 
d="M568 1120l-232 -618h468zM100 -32q-16 0 -34 12t-18 32t6 38l462 1242h108l462 -1242q6 -18 6 -38t-18 -32t-34 -12q-34 0 -54 46l-142 384h-548l-142 -384q-20 -46 -54 -46zM570 1638q68 0 115 -47t47 -115t-47 -115t-115 -47t-115 47t-47 115t47 115t115 47zM482 1475
q0 -35 26 -61t61 -26t62 26t27 62t-27 62t-62 26t-61 -27t-26 -62z" />
    <glyph glyph-name="AE" unicode="&#xc6;" horiz-adv-x="1726" 
d="M782 502v564l-362 -564h362zM886 664v-560h666q68 0 68 -56q0 -48 -68 -48h-722q-48 0 -48 72v326h-430l-246 -384q-30 -46 -68 -46t-38 36q0 20 16 46l776 1212q14 20 38 20h722q68 0 68 -56q0 -48 -68 -48h-666v-410h428q72 0 72 -56q0 -48 -72 -48h-428z" />
    <glyph glyph-name="Ccedilla" unicode="&#xc7;" 
d="M754 -192q0 42 -26 68t-114 46v78q-114 0 -188 14t-136 51q-120 72 -120 295v572q0 216 106 288t328 72h294q129 0 169 -73q31 -57 31 -139t-52 -82t-52 68t-24 95t-86 27h-280q-96 0 -150 -7t-100 -33t-63 -78t-17 -138v-572q0 -166 72 -211t270 -45h268q64 0 87 28
t23 95t52 67t52 -72q0 -162 -93 -203q-43 -19 -107 -19h-222v-30q86 -30 113 -65t27 -97q0 -120 -142 -120t-142 96q0 36 31 36t31 -35t80 -35t80 58z" />
    <glyph glyph-name="Egrave" unicode="&#xc8;" 
d="M274 664v-560h756q68 0 68 -56q0 -48 -68 -48h-812q-48 0 -48 72v1138q0 72 48 72h812q68 0 68 -56q0 -48 -68 -48h-756v-410h518q72 0 72 -56q0 -48 -72 -48h-518zM464 1638q22 0 46 -26l140 -138q24 -28 24 -47t-14 -35t-38 -16t-48 26l-138 136q-26 30 -26 48t16 35
t38 17z" />
    <glyph glyph-name="Eacute" unicode="&#xc9;" 
d="M274 664v-560h756q68 0 68 -56q0 -48 -68 -48h-812q-48 0 -48 72v1138q0 72 48 72h812q68 0 68 -56q0 -48 -68 -48h-756v-410h518q72 0 72 -56q0 -48 -72 -48h-518zM566 1376q-22 0 -38 15t-16 35t26 50l138 136q24 26 48 26t38 -17t14 -35t-24 -46l-140 -138
q-24 -26 -46 -26z" />
    <glyph glyph-name="Ecircumflex" unicode="&#xca;" 
d="M274 664v-560h756q68 0 68 -56q0 -48 -68 -48h-812q-48 0 -48 72v1138q0 72 48 72h812q68 0 68 -56q0 -48 -68 -48h-756v-410h518q72 0 72 -56q0 -48 -72 -48h-518zM908 1338q0 -46 -46 -46q-20 0 -27 7t-17 19t-12 14l-182 192l-180 -192q-4 -4 -10 -12t-10 -11t-11 -10
t-25 -7q-46 0 -46 46q0 20 12 36l210 264h118l214 -264q12 -16 12 -36z" />
    <glyph glyph-name="Edieresis" unicode="&#xcb;" 
d="M274 664v-560h756q68 0 68 -56q0 -48 -68 -48h-812q-48 0 -48 72v1138q0 72 48 72h812q68 0 68 -56q0 -48 -68 -48h-756v-410h518q72 0 72 -56q0 -48 -72 -48h-518zM479 1568q33 0 68 -24t35 -58t-35 -58t-68 -24t-67 24t-34 58t34 58t67 24zM771 1568q33 0 68 -24
t35 -58t-35 -58t-68 -24t-67 24t-34 58t34 58t67 24z" />
    <glyph glyph-name="Igrave" unicode="&#xcc;" horiz-adv-x="442" 
d="M274 50q0 -64 -52 -64t-52 64v1170q0 66 52 66t52 -66v-1170zM64 1638q22 0 46 -26l140 -138q24 -28 24 -47t-14 -35t-38 -16t-48 26l-138 136q-26 30 -26 48t16 35t38 17z" />
    <glyph glyph-name="Iacute" unicode="&#xcd;" horiz-adv-x="442" 
d="M274 50q0 -64 -52 -64t-52 64v1170q0 66 52 66t52 -66v-1170zM226 1376q-22 0 -38 15t-16 35t26 50l138 136q24 26 48 26t38 -17t14 -35t-24 -46l-140 -138q-24 -26 -46 -26z" />
    <glyph glyph-name="Icircumflex" unicode="&#xce;" horiz-adv-x="442" 
d="M274 50q0 -64 -52 -64t-52 64v1170q0 66 52 66t52 -66v-1170zM508 1338q0 -46 -46 -46q-20 0 -27 7t-17 19t-12 14l-182 192l-180 -192q-4 -4 -10 -12t-10 -11t-11 -10t-25 -7q-46 0 -46 46q0 20 12 36l210 264h118l214 -264q12 -16 12 -36z" />
    <glyph glyph-name="Idieresis" unicode="&#xcf;" horiz-adv-x="442" 
d="M274 50q0 -64 -52 -64t-52 64v1170q0 66 52 66t52 -66v-1170zM77 1568q33 0 68 -24t35 -58t-35 -58t-68 -24t-67 24t-34 58t34 58t67 24zM369 1568q33 0 68 -24t35 -58t-35 -58t-68 -24t-67 24t-34 58t34 58t67 24z" />
    <glyph glyph-name="Eth" unicode="&#xd0;" horiz-adv-x="1288" 
d="M1098 932v-572q0 -216 -107 -288t-337 -72h-436q-48 0 -48 72v524q-64 0 -64 56q0 50 64 50v518q0 72 48 72h448q108 0 180 -13t133 -51q119 -74 119 -296zM994 360v572q0 164 -70 210t-258 46h-392v-486h208q68 0 68 -53t-68 -53h-208v-492h380q196 0 268 45t72 211z
" />
    <glyph glyph-name="Ntilde" unicode="&#xd1;" 
d="M1048 -14q-28 0 -40 14l-734 1086v-1034q0 -66 -52 -66t-52 68v1162q0 70 48 70q36 0 60 -38l716 -1056v1022q0 72 52 72t52 -70v-1162q0 -68 -50 -68zM863 1598q19 0 35 -12t16 -37t-28 -51l-94 -78q-16 -16 -38 -16l-15 2q-3 0 -5 2h-4l-196 72q-4 4 -11 4t-17 -8
l-62 -56q-26 -18 -44 -18t-34 13t-16 39t28 48l92 76q14 18 38 18l26 -4l196 -72l10 -4q6 0 16 8l62 56q26 18 45 18z" />
    <glyph glyph-name="Ograve" unicode="&#xd2;" 
d="M634 1186q-172 0 -266 -98t-94 -274v-356q0 -176 94 -274t266 -98t266 98t94 274v356q0 176 -94 274t-266 98zM634 -18q-204 0 -334 126t-130 348v360q0 222 130 348t334 126t334 -127t130 -347v-360q0 -220 -130 -347t-334 -127zM474 1638q22 0 46 -26l140 -138
q24 -28 24 -47t-14 -35t-38 -16t-48 26l-138 136q-26 30 -26 48t16 35t38 17z" />
    <glyph glyph-name="Oacute" unicode="&#xd3;" 
d="M634 1186q-172 0 -266 -98t-94 -274v-356q0 -176 94 -274t266 -98t266 98t94 274v356q0 176 -94 274t-266 98zM634 -18q-204 0 -334 126t-130 348v360q0 222 130 348t334 126t334 -127t130 -347v-360q0 -220 -130 -347t-334 -127zM636 1376q-22 0 -38 15t-16 35t26 50
l138 136q24 26 48 26t38 -17t14 -35t-24 -46l-140 -138q-24 -26 -46 -26z" />
    <glyph glyph-name="Ocircumflex" unicode="&#xd4;" 
d="M634 1186q-172 0 -266 -98t-94 -274v-356q0 -176 94 -274t266 -98t266 98t94 274v356q0 176 -94 274t-266 98zM634 -18q-204 0 -334 126t-130 348v360q0 222 130 348t334 126t334 -127t130 -347v-360q0 -220 -130 -347t-334 -127zM918 1338q0 -46 -46 -46q-20 0 -27 7
t-17 19t-12 14l-182 192l-180 -192q-4 -4 -10 -12t-10 -11t-11 -10t-25 -7q-46 0 -46 46q0 20 12 36l210 264h118l214 -264q12 -16 12 -36z" />
    <glyph glyph-name="Otilde" unicode="&#xd5;" 
d="M634 1186q-172 0 -266 -98t-94 -274v-356q0 -176 94 -274t266 -98t266 98t94 274v356q0 176 -94 274t-266 98zM634 -18q-204 0 -334 126t-130 348v360q0 222 130 348t334 126t334 -127t130 -347v-360q0 -220 -130 -347t-334 -127zM865 1598q19 0 35 -12t16 -37t-28 -51
l-94 -78q-16 -16 -38 -16l-15 2q-3 0 -5 2h-4l-196 72q-4 4 -11 4t-17 -8l-62 -56q-26 -18 -44 -18t-34 13t-16 39t28 48l92 76q14 18 38 18l26 -4l196 -72l10 -4q6 0 16 8l62 56q26 18 45 18z" />
    <glyph glyph-name="Odieresis" unicode="&#xd6;" 
d="M634 1186q-172 0 -266 -98t-94 -274v-356q0 -176 94 -274t266 -98t266 98t94 274v356q0 176 -94 274t-266 98zM634 -18q-204 0 -334 126t-130 348v360q0 222 130 348t334 126t334 -127t130 -347v-360q0 -220 -130 -347t-334 -127zM489 1568q33 0 68 -24t35 -58t-35 -58
t-68 -24t-67 24t-34 58t34 58t67 24zM781 1568q33 0 68 -24t35 -58t-35 -58t-68 -24t-67 24t-34 58t34 58t67 24z" />
    <glyph glyph-name="multiply" unicode="&#xd7;" horiz-adv-x="976" 
d="M138 761q0 21 14 36t36 15t46 -24l254 -256l256 254q24 24 45 24t36 -14t15 -36t-24 -46l-256 -254l254 -256q26 -22 26 -44t-15 -37t-37 -15t-46 24l-254 256l-256 -254q-22 -26 -44 -26t-37 15t-15 37t24 46l256 254l-254 256q-24 24 -24 45z" />
    <glyph glyph-name="Oslash" unicode="&#xd8;" 
d="M994 828q0 138 -54 224l-540 -898q92 -68 249 -68t251 99t94 279v364zM990 1276q14 0 33 -12t19 -33t-12 -45l-34 -54q102 -124 102 -316v-360q0 -220 -130 -347t-317 -127t-299 84l-20 -32q-20 -38 -43 -38t-41 12t-18 33t12 45l30 50q-102 124 -102 320v360
q0 222 130 348t319 126t301 -86l20 34q18 38 50 38zM619 1186q-157 0 -251 -100t-94 -278v-364q0 -140 56 -228l540 900q-94 70 -251 70z" />
    <glyph glyph-name="Ugrave" unicode="&#xd9;" 
d="M994 1222q0 64 52 64t52 -66v-764q0 -220 -130 -347t-334 -127t-334 126t-130 348v764q0 66 52 66t52 -64v-764q0 -176 94 -274t266 -98t266 98t94 274v764zM475 1618q21 0 47 -30l192 -230q18 -22 18 -45t-16 -37t-36 -14t-48 30l-192 230q-18 22 -18 44t16 37t37 15z
" />
    <glyph glyph-name="Uacute" unicode="&#xda;" 
d="M994 1222q0 64 52 64t52 -66v-764q0 -220 -130 -347t-334 -127t-334 126t-130 348v764q0 66 52 66t52 -64v-764q0 -176 94 -274t266 -98t266 98t94 274v764zM637 1262q-19 0 -36 15t-17 37t18 44l192 230q28 30 48 30t36 -15t16 -37t-18 -44l-192 -230q-28 -30 -47 -30z
" />
    <glyph glyph-name="Ucircumflex" unicode="&#xdb;" 
d="M994 1222q0 64 52 64t52 -66v-764q0 -220 -130 -347t-334 -127t-334 126t-130 348v764q0 66 52 66t52 -64v-764q0 -176 94 -274t266 -98t266 98t94 274v764zM918 1338q0 -46 -46 -46q-20 0 -27 7t-17 19t-12 14l-182 192l-180 -192q-4 -4 -10 -12t-10 -11t-11 -10t-25 -7
q-46 0 -46 46q0 20 12 36l210 264h118l214 -264q12 -16 12 -36z" />
    <glyph glyph-name="Udieresis" unicode="&#xdc;" 
d="M994 1222q0 64 52 64t52 -66v-764q0 -220 -130 -347t-334 -127t-334 126t-130 348v764q0 66 52 66t52 -64v-764q0 -176 94 -274t266 -98t266 98t94 274v764zM489 1568q33 0 68 -24t35 -58t-35 -58t-68 -24t-67 24t-34 58t34 58t67 24zM781 1568q33 0 68 -24t35 -58
t-35 -58t-68 -24t-67 24t-34 58t34 58t67 24z" />
    <glyph glyph-name="Yacute" unicode="&#xdd;" horiz-adv-x="1230" 
d="M130 1238q0 20 16 34t36 14t48 -36l386 -534l384 534q26 36 47 36t38 -15t17 -34t-16 -43l-416 -578v-568q0 -62 -53 -62t-53 62v568l-418 578q-16 24 -16 44zM619 1262q-19 0 -36 15t-17 37t18 44l192 230q28 30 48 30t36 -15t16 -37t-18 -44l-192 -230q-28 -30 -47 -30
z" />
    <glyph glyph-name="Thorn" unicode="&#xde;" horiz-adv-x="1140" 
d="M534 828h-260v-412h258q188 0 261 39t73 165t-73 167t-259 41zM274 932h350q164 0 256 -78t92 -228t-93 -229t-257 -79h-348v-268q0 -64 -52 -64t-52 64v1096q0 66 52 66t52 -66v-214z" />
    <glyph glyph-name="germandbls" unicode="&#xdf;" horiz-adv-x="1122" 
d="M432 808q177 0 237 84q49 69 49 138q0 138 -162 138q-116 0 -168 -45t-52 -201v-864q0 -72 -56 -72q-48 0 -48 72v762q-62 4 -62 54q0 44 62 48q4 216 108 289q87 61 216 61q128 0 197 -69t69 -163q0 -178 -148 -274q284 -82 284 -374q0 -234 -89 -333t-213 -99
q-88 0 -167 58t-79 164q0 72 56 72t56 -67t46 -95t112 -28t120 71t54 259q0 110 -79 202q-95 110 -343 110v102z" />
    <glyph glyph-name="agrave" unicode="&#xe0;" horiz-adv-x="1184" 
d="M616 590h294v114q0 62 -23 88t-87 26h-282q-244 0 -244 -120q0 -70 -52 -70t-52 70q0 116 92 170t242 54h310q116 0 158 -56t42 -196v-616q0 -68 -52 -68t-52 70v70q-114 -126 -340 -126h-186q-94 0 -154 67t-60 179q0 202 109 273t337 71zM616 486q-102 0 -157 -7
t-103 -32t-65 -75t-17 -119t34 -109t76 -40h186q168 0 254 91t86 261v30h-294zM433 1360q21 0 47 -30l192 -230q18 -22 18 -45t-16 -37t-36 -14t-48 30l-192 230q-18 22 -18 44t16 37t37 15z" />
    <glyph glyph-name="aacute" unicode="&#xe1;" horiz-adv-x="1184" 
d="M616 590h294v114q0 62 -23 88t-87 26h-282q-244 0 -244 -120q0 -70 -52 -70t-52 70q0 116 92 170t242 54h310q116 0 158 -56t42 -196v-616q0 -68 -52 -68t-52 70v70q-114 -126 -340 -126h-186q-94 0 -154 67t-60 179q0 202 109 273t337 71zM616 486q-102 0 -157 -7
t-103 -32t-65 -75t-17 -119t34 -109t76 -40h186q168 0 254 91t86 261v30h-294zM595 1010q-19 0 -36 15t-17 37t18 44l192 230q28 30 48 30t36 -15t16 -37t-18 -44l-192 -230q-28 -30 -47 -30z" />
    <glyph glyph-name="acircumflex" unicode="&#xe2;" horiz-adv-x="1184" 
d="M616 590h294v114q0 62 -23 88t-87 26h-282q-244 0 -244 -120q0 -70 -52 -70t-52 70q0 116 92 170t242 54h310q116 0 158 -56t42 -196v-616q0 -68 -52 -68t-52 70v70q-114 -126 -340 -126h-186q-94 0 -154 67t-60 179q0 202 109 273t337 71zM616 486q-102 0 -157 -7
t-103 -32t-65 -75t-17 -119t34 -109t76 -40h186q168 0 254 91t86 261v30h-294zM876 1080q0 -46 -46 -46q-20 0 -27 7t-17 19t-12 14l-182 192l-180 -192q-4 -4 -10 -12t-10 -11t-11 -10t-25 -7q-46 0 -46 46q0 20 12 36l210 264h118l214 -264q12 -16 12 -36z" />
    <glyph glyph-name="atilde" unicode="&#xe3;" horiz-adv-x="1184" 
d="M616 590h294v114q0 62 -23 88t-87 26h-282q-244 0 -244 -120q0 -70 -52 -70t-52 70q0 116 92 170t242 54h310q116 0 158 -56t42 -196v-616q0 -68 -52 -68t-52 70v70q-114 -126 -340 -126h-186q-94 0 -154 67t-60 179q0 202 109 273t337 71zM616 486q-102 0 -157 -7
t-103 -32t-65 -75t-17 -119t34 -109t76 -40h186q168 0 254 91t86 261v30h-294zM825 1230q19 0 35 -12t16 -37t-28 -51l-94 -78q-16 -16 -38 -16l-15 2q-3 0 -5 2h-4l-196 72q-4 4 -11 4t-17 -8l-62 -56q-26 -18 -44 -18t-34 13t-16 39t28 48l92 76q14 18 38 18l26 -4
l196 -72l10 -4q6 0 16 8l62 56q26 18 45 18z" />
    <glyph glyph-name="adieresis" unicode="&#xe4;" horiz-adv-x="1184" 
d="M616 590h294v114q0 62 -23 88t-87 26h-282q-244 0 -244 -120q0 -70 -52 -70t-52 70q0 116 92 170t242 54h310q116 0 158 -56t42 -196v-616q0 -68 -52 -68t-52 70v70q-114 -126 -340 -126h-186q-94 0 -154 67t-60 179q0 202 109 273t337 71zM616 486q-102 0 -157 -7
t-103 -32t-65 -75t-17 -119t34 -109t76 -40h186q168 0 254 91t86 261v30h-294zM445 1198q33 0 68 -24t35 -58t-35 -58t-68 -24t-67 24t-34 58t34 58t67 24zM737 1198q33 0 68 -24t35 -58t-35 -58t-68 -24t-67 24t-34 58t34 58t67 24z" />
    <glyph glyph-name="aring" unicode="&#xe5;" horiz-adv-x="1184" 
d="M616 590h294v114q0 62 -23 88t-87 26h-282q-244 0 -244 -120q0 -70 -52 -70t-52 70q0 116 92 170t242 54h310q116 0 158 -56t42 -196v-616q0 -68 -52 -68t-52 70v70q-114 -126 -340 -126h-186q-94 0 -154 67t-60 179q0 202 109 273t337 71zM616 486q-102 0 -157 -7
t-103 -32t-65 -75t-17 -119t34 -109t76 -40h186q168 0 254 91t86 261v30h-294zM594 1358q68 0 115 -47t47 -115t-47 -115t-115 -47t-115 47t-47 115t47 115t115 47zM506 1195q0 -35 26 -61t61 -26t62 26t27 62t-27 62t-62 26t-61 -27t-26 -62z" />
    <glyph glyph-name="ae" unicode="&#xe6;" horiz-adv-x="1988" 
d="M1818 570v-84h-802v-132q0 -86 17 -136t65 -75t103 -32t157 -7h246q64 0 87 28t23 95t52 67t52 -72q0 -162 -93 -203q-43 -19 -107 -19h-260q-166 0 -265 33t-145 123q-54 -72 -167 -114t-211 -42h-186q-94 0 -154 67t-60 179q0 202 109 273t337 71h294v114q0 62 -23 88
t-87 26h-282q-244 0 -244 -120q0 -70 -52 -70t-52 70q0 116 92 170t242 54h310q142 0 180 -94q92 94 364 94h16q230 0 337 -71t107 -281zM1374 818h-16q-192 0 -266 -42t-76 -186h698q-2 144 -76 186t-264 42zM616 486q-102 0 -157 -7t-103 -32t-65 -75t-17 -119t34 -109
t76 -40h186q168 0 254 91t86 261v30h-294z" />
    <glyph glyph-name="ccedilla" unicode="&#xe7;" 
d="M750 -192q0 42 -26 68t-114 46v78q-213 0 -326 67q-114 67 -114 285v218q0 210 108 281t338 71h282q130 0 169 -74q31 -59 31 -139q0 -81 -52 -81t-52 68t-24 95t-86 27h-268q-102 0 -157 -7t-103 -32t-65 -75t-17 -136v-214q0 -86 17 -136t65 -75t103 -32t157 -7h268
q64 0 87 28t23 95t52 67t52 -72q0 -162 -93 -203q-43 -19 -107 -19h-226v-30q86 -30 113 -65t27 -97q0 -120 -142 -120t-142 96q0 36 31 36t31 -35t80 -35t80 58z" />
    <glyph glyph-name="egrave" unicode="&#xe8;" horiz-adv-x="1288" 
d="M674 818h-58q-194 0 -267 -41t-75 -183h740q-2 142 -75 183t-265 41zM1118 570v-80h-844v-136q0 -86 17 -136t65 -75t103 -32t157 -7h268q64 0 87 28t23 95t52 67t52 -72q0 -162 -93 -203q-43 -19 -107 -19h-282q-230 0 -338 71t-108 281v218q0 210 108 281t338 71h58
q230 0 337 -71t107 -281zM481 1366q21 0 47 -30l192 -230q18 -22 18 -45t-16 -37t-36 -14t-48 30l-192 230q-18 22 -18 44t16 37t37 15z" />
    <glyph glyph-name="eacute" unicode="&#xe9;" horiz-adv-x="1288" 
d="M674 818h-58q-194 0 -267 -41t-75 -183h740q-2 142 -75 183t-265 41zM1118 570v-80h-844v-136q0 -86 17 -136t65 -75t103 -32t157 -7h268q64 0 87 28t23 95t52 67t52 -72q0 -162 -93 -203q-43 -19 -107 -19h-282q-230 0 -338 71t-108 281v218q0 210 108 281t338 71h58
q230 0 337 -71t107 -281zM649 1010q-19 0 -36 15t-17 37t18 44l192 230q28 30 48 30t36 -15t16 -37t-18 -44l-192 -230q-28 -30 -47 -30z" />
    <glyph glyph-name="ecircumflex" unicode="&#xea;" horiz-adv-x="1288" 
d="M674 818h-58q-194 0 -267 -41t-75 -183h740q-2 142 -75 183t-265 41zM1118 570v-80h-844v-136q0 -86 17 -136t65 -75t103 -32t157 -7h268q64 0 87 28t23 95t52 67t52 -72q0 -162 -93 -203q-43 -19 -107 -19h-282q-230 0 -338 71t-108 281v218q0 210 108 281t338 71h58
q230 0 337 -71t107 -281zM928 1080q0 -46 -46 -46q-20 0 -27 7t-17 19t-12 14l-182 192l-180 -192q-4 -4 -10 -12t-10 -11t-11 -10t-25 -7q-46 0 -46 46q0 20 12 36l210 264h118l214 -264q12 -16 12 -36z" />
    <glyph glyph-name="edieresis" unicode="&#xeb;" horiz-adv-x="1288" 
d="M674 818h-58q-194 0 -267 -41t-75 -183h740q-2 142 -75 183t-265 41zM1118 570v-80h-844v-136q0 -86 17 -136t65 -75t103 -32t157 -7h268q64 0 87 28t23 95t52 67t52 -72q0 -162 -93 -203q-43 -19 -107 -19h-282q-230 0 -338 71t-108 281v218q0 210 108 281t338 71h58
q230 0 337 -71t107 -281zM499 1198q33 0 68 -24t35 -58t-35 -58t-68 -24t-67 24t-34 58t34 58t67 24zM791 1198q33 0 68 -24t35 -58t-35 -58t-68 -24t-67 24t-34 58t34 58t67 24z" />
    <glyph glyph-name="igrave" unicode="&#xec;" horiz-adv-x="440" 
d="M264 40q0 -64 -52 -64t-52 64v840q0 66 52 66t52 -66v-840zM7 1368q21 0 47 -30l192 -230q18 -22 18 -45t-16 -37t-36 -14t-48 30l-192 230q-18 22 -18 44t16 37t37 15z" />
    <glyph glyph-name="iacute" unicode="&#xed;" horiz-adv-x="440" 
d="M264 40q0 -64 -52 -64t-52 64v840q0 66 52 66t52 -66v-840zM213 1010q-19 0 -36 15t-17 37t18 44l192 230q28 30 48 30t36 -15t16 -37t-18 -44l-192 -230q-28 -30 -47 -30z" />
    <glyph glyph-name="icircumflex" unicode="&#xee;" horiz-adv-x="440" 
d="M264 40q0 -64 -52 -64t-52 64v840q0 66 52 66t52 -66v-840zM496 1094q0 -46 -46 -46q-20 0 -27 7t-17 19t-12 14l-182 192l-180 -192q-4 -4 -10 -12t-10 -11t-11 -10t-25 -7q-46 0 -46 46q0 20 12 36l210 264h118l214 -264q12 -16 12 -36z" />
    <glyph glyph-name="idieresis" unicode="&#xef;" horiz-adv-x="440" 
d="M264 40q0 -64 -52 -64t-52 64v840q0 66 52 66t52 -66v-840zM65 1212q33 0 68 -24t35 -58t-35 -58t-68 -24t-67 24t-34 58t34 58t67 24zM357 1212q33 0 68 -24t35 -58t-35 -58t-68 -24t-67 24t-34 58t34 58t67 24z" />
    <glyph glyph-name="eth" unicode="&#xf0;" 
d="M994 449q0 145 -82 252t-254 107t-278 -103t-106 -265t106 -265t276 -103t254 116t84 261zM382 1166q-62 0 -62 50q0 56 62 56q142 0 270 -52l66 64q28 24 49 24t38 -14t17 -36t-26 -48l-42 -40q344 -212 344 -726q0 -196 -116 -336t-326 -140t-348 126t-138 347t138 346
t358 125q152 0 252 -78q-82 174 -244 258l-100 -94q-24 -24 -45 -24t-40 15t-19 35t28 48l68 64q-88 30 -184 30z" />
    <glyph glyph-name="ntilde" unicode="&#xf1;" horiz-adv-x="1288" 
d="M616 818q-170 0 -256 -91t-86 -265v-408q0 -68 -52 -68t-52 68v812q0 70 48 70q56 0 56 -72v-68q118 126 342 126h58q230 0 337 -71t107 -281v-516q0 -68 -52 -68t-52 68v514q0 86 -17 136t-64 75t-102 32t-157 7h-58zM875 1244q19 0 35 -12t16 -37t-28 -51l-94 -78
q-16 -16 -38 -16l-15 2q-3 0 -5 2h-4l-196 72q-4 4 -11 4t-17 -8l-62 -56q-26 -18 -44 -18t-34 13t-16 39t28 48l92 76q14 18 38 18l26 -4l196 -72l10 -4q6 0 16 8l62 56q26 18 45 18z" />
    <glyph glyph-name="ograve" unicode="&#xf2;" horiz-adv-x="1288" 
d="M616 104h58q102 0 157 7t102 32t64 75t17 136v214q0 86 -17 136t-64 75t-102 32t-157 7h-58q-102 0 -157 -7t-103 -32t-65 -75t-17 -136v-214q0 -86 17 -136t65 -75t103 -32t157 -7zM674 0h-58q-230 0 -338 71t-108 281v218q0 210 108 281t338 71h58q230 0 337 -71
t107 -281v-218q0 -210 -107 -281t-337 -71zM485 1366q21 0 47 -30l192 -230q18 -22 18 -45t-16 -37t-36 -14t-48 30l-192 230q-18 22 -18 44t16 37t37 15z" />
    <glyph glyph-name="oacute" unicode="&#xf3;" horiz-adv-x="1288" 
d="M616 104h58q102 0 157 7t102 32t64 75t17 136v214q0 86 -17 136t-64 75t-102 32t-157 7h-58q-102 0 -157 -7t-103 -32t-65 -75t-17 -136v-214q0 -86 17 -136t65 -75t103 -32t157 -7zM674 0h-58q-230 0 -338 71t-108 281v218q0 210 108 281t338 71h58q230 0 337 -71
t107 -281v-218q0 -210 -107 -281t-337 -71zM645 1010q-19 0 -36 15t-17 37t18 44l192 230q28 30 48 30t36 -15t16 -37t-18 -44l-192 -230q-28 -30 -47 -30z" />
    <glyph glyph-name="ocircumflex" unicode="&#xf4;" horiz-adv-x="1288" 
d="M616 104h58q102 0 157 7t102 32t64 75t17 136v214q0 86 -17 136t-64 75t-102 32t-157 7h-58q-102 0 -157 -7t-103 -32t-65 -75t-17 -136v-214q0 -86 17 -136t65 -75t103 -32t157 -7zM674 0h-58q-230 0 -338 71t-108 281v218q0 210 108 281t338 71h58q230 0 337 -71
t107 -281v-218q0 -210 -107 -281t-337 -71zM928 1080q0 -46 -46 -46q-20 0 -27 7t-17 19t-12 14l-182 192l-180 -192q-4 -4 -10 -12t-10 -11t-11 -10t-25 -7q-46 0 -46 46q0 20 12 36l210 264h118l214 -264q12 -16 12 -36z" />
    <glyph glyph-name="otilde" unicode="&#xf5;" horiz-adv-x="1288" 
d="M616 104h58q102 0 157 7t102 32t64 75t17 136v214q0 86 -17 136t-64 75t-102 32t-157 7h-58q-102 0 -157 -7t-103 -32t-65 -75t-17 -136v-214q0 -86 17 -136t65 -75t103 -32t157 -7zM674 0h-58q-230 0 -338 71t-108 281v218q0 210 108 281t338 71h58q230 0 337 -71
t107 -281v-218q0 -210 -107 -281t-337 -71zM875 1230q19 0 35 -12t16 -37t-28 -51l-94 -78q-16 -16 -38 -16l-15 2q-3 0 -5 2h-4l-196 72q-4 4 -11 4t-17 -8l-62 -56q-26 -18 -44 -18t-34 13t-16 39t28 48l92 76q14 18 38 18l26 -4l196 -72l10 -4q6 0 16 8l62 56
q26 18 45 18z" />
    <glyph glyph-name="odieresis" unicode="&#xf6;" horiz-adv-x="1288" 
d="M616 104h58q102 0 157 7t102 32t64 75t17 136v214q0 86 -17 136t-64 75t-102 32t-157 7h-58q-102 0 -157 -7t-103 -32t-65 -75t-17 -136v-214q0 -86 17 -136t65 -75t103 -32t157 -7zM674 0h-58q-230 0 -338 71t-108 281v218q0 210 108 281t338 71h58q230 0 337 -71
t107 -281v-218q0 -210 -107 -281t-337 -71zM499 1198q33 0 68 -24t35 -58t-35 -58t-68 -24t-67 24t-34 58t34 58t67 24zM791 1198q33 0 68 -24t35 -58t-35 -58t-68 -24t-67 24t-34 58t34 58t67 24z" />
    <glyph glyph-name="divide" unicode="&#xf7;" horiz-adv-x="878" 
d="M182 408q-62 0 -62 53t62 53h490q68 0 68 -56q0 -22 -19 -36t-49 -14h-490zM421 338q33 0 68 -24t35 -58t-35 -58t-68 -24t-67 24t-34 58t34 58t67 24zM421 748q33 0 68 -24t35 -58t-35 -58t-68 -24t-67 24t-34 58t34 58t67 24z" />
    <glyph glyph-name="oslash" unicode="&#xf8;" horiz-adv-x="1288" 
d="M274 340q0 -122 40 -180l574 640q-66 18 -214 18h-58q-198 0 -270 -45t-72 -211v-222zM616 104h58q196 0 268 45t72 211v222q0 122 -38 178l-574 -638q66 -18 214 -18zM1027 938q23 0 39 -14t16 -33t-20 -49l-18 -20q74 -84 74 -252v-218q0 -210 -107 -281t-337 -71h-58
q-192 0 -284 38l-22 -24q-26 -30 -46 -30t-38 15t-18 34t22 47l16 18q-76 86 -76 254v218q0 210 108 281t338 71h58q198 0 286 -42l20 28q24 30 47 30z" />
    <glyph glyph-name="ugrave" unicode="&#xf9;" horiz-adv-x="1288" 
d="M672 104q170 0 256 91t86 265v408q0 68 52 68t52 -68v-812q0 -70 -48 -70q-56 0 -56 72v68q-118 -126 -342 -126h-58q-230 0 -337 71t-107 281v516q0 68 52 68t52 -68v-514q0 -86 17 -136t64 -75t102 -32t157 -7h58zM483 1366q21 0 47 -30l192 -230q18 -22 18 -45
t-16 -37t-36 -14t-48 30l-192 230q-18 22 -18 44t16 37t37 15z" />
    <glyph glyph-name="uacute" unicode="&#xfa;" horiz-adv-x="1288" 
d="M672 104q170 0 256 91t86 265v408q0 68 52 68t52 -68v-812q0 -70 -48 -70q-56 0 -56 72v68q-118 -126 -342 -126h-58q-230 0 -337 71t-107 281v516q0 68 52 68t52 -68v-514q0 -86 17 -136t64 -75t102 -32t157 -7h58zM647 1010q-19 0 -36 15t-17 37t18 44l192 230
q28 30 48 30t36 -15t16 -37t-18 -44l-192 -230q-28 -30 -47 -30z" />
    <glyph glyph-name="ucircumflex" unicode="&#xfb;" horiz-adv-x="1288" 
d="M672 104q170 0 256 91t86 265v408q0 68 52 68t52 -68v-812q0 -70 -48 -70q-56 0 -56 72v68q-118 -126 -342 -126h-58q-230 0 -337 71t-107 281v516q0 68 52 68t52 -68v-514q0 -86 17 -136t64 -75t102 -32t157 -7h58zM926 1094q0 -46 -46 -46q-20 0 -27 7t-17 19t-12 14
l-182 192l-180 -192q-4 -4 -10 -12t-10 -11t-11 -10t-25 -7q-46 0 -46 46q0 20 12 36l210 264h118l214 -264q12 -16 12 -36z" />
    <glyph glyph-name="udieresis" unicode="&#xfc;" horiz-adv-x="1288" 
d="M672 104q170 0 256 91t86 265v408q0 68 52 68t52 -68v-812q0 -70 -48 -70q-56 0 -56 72v68q-118 -126 -342 -126h-58q-230 0 -337 71t-107 281v516q0 68 52 68t52 -68v-514q0 -86 17 -136t64 -75t102 -32t157 -7h58zM497 1212q33 0 68 -24t35 -58t-35 -58t-68 -24t-67 24
t-34 58t34 58t67 24zM789 1212q33 0 68 -24t35 -58t-35 -58t-68 -24t-67 24t-34 58t34 58t67 24z" />
    <glyph glyph-name="yacute" unicode="&#xfd;" horiz-adv-x="1288" 
d="M1118 -174q0 -130 -38 -183t-144 -53h-566q-130 0 -169 74q-31 59 -31 139q0 81 52 81t52 -68t24 -95t86 -27h538q58 0 75 20t17 80v332q-118 -126 -342 -126h-58q-230 0 -337 71t-107 281v516q0 68 52 68t52 -68v-514q0 -86 17 -136t64 -75t102 -32t157 -7h58
q170 0 256 91t86 265v408q0 68 52 68t52 -68v-1042zM649 1010q-19 0 -36 15t-17 37t18 44l192 230q28 30 48 30t36 -15t16 -37t-18 -44l-192 -230q-28 -30 -47 -30z" />
    <glyph glyph-name="thorn" unicode="&#xfe;" horiz-adv-x="1288" 
d="M1118 352q0 -210 -107 -281t-335 -71h-402v-294q0 -70 -56 -70q-48 0 -48 70v1510q0 70 52 70t52 -70v-420q118 126 342 126h58q230 0 337 -71t107 -281v-218zM1014 568q0 86 -17 136t-64 75t-102 32t-157 7h-58q-342 0 -342 -354v-360h402q196 0 267 44t71 206v214z" />
    <glyph glyph-name="ydieresis" unicode="&#xff;" horiz-adv-x="1288" 
d="M497 1222q33 0 68 -24t35 -58t-35 -58t-68 -24t-67 24t-34 58t34 58t67 24zM789 1222q33 0 68 -24t35 -58t-35 -58t-68 -24t-67 24t-34 58t34 58t67 24zM1118 -174q0 -130 -38 -183t-144 -53h-566q-130 0 -169 74q-31 59 -31 139q0 81 52 81t52 -68t24 -95t86 -27h538
q58 0 75 20t17 80v332q-118 -126 -342 -126h-58q-230 0 -337 71t-107 281v516q0 68 52 68t52 -68v-514q0 -86 17 -136t64 -75t102 -32t157 -7h58q170 0 256 91t86 265v408q0 68 52 68t52 -68v-1042z" />
    <glyph glyph-name="Amacron" unicode="&#x100;" horiz-adv-x="1196" 
d="M322 1414q-62 0 -62 53t62 53h490q68 0 68 -56q0 -22 -19 -36t-49 -14h-490zM568 1120l-232 -618h468zM100 -32q-16 0 -34 12t-18 32t6 38l462 1242h108l462 -1242q6 -18 6 -38t-18 -32t-34 -12q-34 0 -54 46l-142 384h-548l-142 -384q-20 -46 -54 -46z" />
    <glyph glyph-name="amacron" unicode="&#x101;" horiz-adv-x="1184" 
d="M344 1044q-62 0 -62 53t62 53h490q68 0 68 -56q0 -22 -19 -36t-49 -14h-490zM616 590h294v114q0 62 -23 88t-87 26h-282q-244 0 -244 -120q0 -70 -52 -70t-52 70q0 116 92 170t242 54h310q116 0 158 -56t42 -196v-616q0 -68 -52 -68t-52 70v70q-114 -126 -340 -126h-186
q-94 0 -154 67t-60 179q0 202 109 273t337 71zM616 486q-102 0 -157 -7t-103 -32t-65 -75t-17 -119t34 -109t76 -40h186q168 0 254 91t86 261v30h-294z" />
    <glyph glyph-name="Abreve" unicode="&#x102;" horiz-adv-x="1196" 
d="M568 1120l-232 -618h468zM100 -32q-16 0 -34 12t-18 32t6 38l462 1242h108l462 -1242q6 -18 6 -38t-18 -32t-34 -12q-34 0 -54 46l-142 384h-548l-142 -384q-20 -46 -54 -46zM567 1376q-91 0 -165 71t-74 191h106q0 -86 41 -120t93 -34t93 34t41 120h106q0 -122 -75 -192
t-166 -70z" />
    <glyph glyph-name="abreve" unicode="&#x103;" horiz-adv-x="1184" 
d="M593 1044q-91 0 -165 71t-74 191h106q0 -86 41 -120t93 -34t93 34t41 120h106q0 -122 -75 -192t-166 -70zM616 590h294v114q0 62 -23 88t-87 26h-282q-244 0 -244 -120q0 -70 -52 -70t-52 70q0 116 92 170t242 54h310q116 0 158 -56t42 -196v-616q0 -68 -52 -68t-52 70
v70q-114 -126 -340 -126h-186q-94 0 -154 67t-60 179q0 202 109 273t337 71zM616 486q-102 0 -157 -7t-103 -32t-65 -75t-17 -119t34 -109t76 -40h186q168 0 254 91t86 261v30h-294z" />
    <glyph glyph-name="Aogonek" unicode="&#x104;" horiz-adv-x="1156" 
d="M100 -32q-16 0 -34 12t-18 32t6 38l462 1242h108l462 -1242q6 -18 6 -38t-18 -32t-32 -12t-26 6q-38 -38 -67 -95t-29 -81q0 -108 84 -108q32 0 76 17t56 17q30 0 30 -43t-54 -67t-120 -24t-121 58t-55 150q0 52 50 134t100 134l-122 332h-548l-142 -384q-20 -46 -54 -46
zM568 1120l-232 -618h468z" />
    <glyph glyph-name="aogonek" unicode="&#x105;" horiz-adv-x="1228" 
d="M616 486q-102 0 -157 -7t-103 -32t-65 -75t-17 -119t34 -109t76 -40h186q168 0 254 91t86 261v30h-294zM616 590h294v114q0 62 -23 88t-87 26h-282q-244 0 -244 -120q0 -70 -52 -70t-52 70q0 116 92 170t242 54h310q116 0 158 -56t42 -196v-616q0 -68 -52 -68
q-42 -36 -75 -98t-33 -88q0 -108 84 -108q32 0 76 17t56 17q30 0 30 -43t-54 -67t-120 -24t-121 58t-55 150q0 54 55 142t105 136v48q-114 -126 -340 -126h-186q-94 0 -154 67t-60 179q0 202 109 273t337 71z" />
    <glyph glyph-name="Cacute" unicode="&#x106;" 
d="M898 0h-282q-232 0 -339 72t-107 288v572q0 216 106 288t328 72h294q129 0 169 -73q31 -57 31 -139t-52 -82t-52 68t-24 95t-86 27h-280q-96 0 -150 -7t-100 -33t-63 -78t-17 -138v-572q0 -166 72 -211t270 -45h268q64 0 87 28t23 95t52 67t52 -72q0 -162 -93 -203
q-43 -19 -107 -19zM652 1378q-22 0 -38 15t-16 35t26 50l138 136q24 26 48 26t38 -17t14 -35t-24 -46l-140 -138q-24 -26 -46 -26z" />
    <glyph glyph-name="cacute" unicode="&#x107;" 
d="M898 0h-282q-230 0 -338 71t-108 281v218q0 210 108 281t338 71h282q130 0 169 -74q31 -59 31 -139q0 -81 -52 -81t-52 68t-24 95t-86 27h-268q-102 0 -157 -7t-103 -32t-65 -75t-17 -136v-214q0 -86 17 -136t65 -75t103 -32t157 -7h268q64 0 87 28t23 95t52 67t52 -72
q0 -162 -93 -203q-43 -19 -107 -19zM615 1010q-19 0 -36 15t-17 37t18 44l192 230q28 30 48 30t36 -15t16 -37t-18 -44l-192 -230q-28 -30 -47 -30z" />
    <glyph glyph-name="Ccircumflex" unicode="&#x108;" 
d="M930 1338q0 -46 -46 -46h14q129 0 169 -73q31 -57 31 -139t-52 -82t-52 68t-24 95t-86 27h-280q-96 0 -150 -7t-100 -33t-63 -78t-17 -138v-572q0 -166 72 -211t270 -45h268q64 0 87 28t23 95t52 67t52 -72q0 -162 -93 -203q-43 -19 -107 -19h-282q-232 0 -339 72
t-107 288v572q0 216 106 288t328 72h280q-20 0 -27 7t-17 19t-12 14l-182 192l-180 -192q-4 -4 -10 -12t-10 -11t-11 -10t-25 -7q-46 0 -46 46q0 20 12 36l210 264h118l214 -264q12 -16 12 -36z" />
    <glyph glyph-name="ccircumflex" unicode="&#x109;" 
d="M898 0h-282q-230 0 -338 71t-108 281v218q0 210 108 281t338 71h282q130 0 169 -74q31 -59 31 -139q0 -81 -52 -81t-52 68t-24 95t-86 27h-268q-102 0 -157 -7t-103 -32t-65 -75t-17 -136v-214q0 -86 17 -136t65 -75t103 -32t157 -7h268q64 0 87 28t23 95t52 67t52 -72
q0 -162 -93 -203q-43 -19 -107 -19zM906 1080q0 -46 -46 -46q-20 0 -27 7t-17 19t-12 14l-182 192l-180 -192q-4 -4 -10 -12t-10 -11t-11 -10t-25 -7q-46 0 -46 46q0 20 12 36l210 264h118l214 -264q12 -16 12 -36z" />
    <glyph glyph-name="Cdotaccent" unicode="&#x10a;" 
d="M898 0h-282q-232 0 -339 72t-107 288v572q0 216 106 288t328 72h294q129 0 169 -73q31 -57 31 -139t-52 -82t-52 68t-24 95t-86 27h-280q-96 0 -150 -7t-100 -33t-63 -78t-17 -138v-572q0 -166 72 -211t270 -45h268q64 0 87 28t23 95t52 67t52 -72q0 -162 -93 -203
q-43 -19 -107 -19zM607 1566q33 0 68 -24t35 -58t-35 -58t-68 -24t-67 24t-34 58t34 58t67 24z" />
    <glyph glyph-name="cdotaccent" unicode="&#x10b;" 
d="M898 0h-282q-230 0 -338 71t-108 281v218q0 210 108 281t338 71h282q130 0 169 -74q31 -59 31 -139q0 -81 -52 -81t-52 68t-24 95t-86 27h-268q-102 0 -157 -7t-103 -32t-65 -75t-17 -136v-214q0 -86 17 -136t65 -75t103 -32t157 -7h268q64 0 87 28t23 95t52 67t52 -72
q0 -162 -93 -203q-43 -19 -107 -19zM615 1198q33 0 68 -24t35 -58t-35 -58t-68 -24t-67 24t-34 58t34 58t67 24z" />
    <glyph glyph-name="Ccaron" unicode="&#x10c;" 
d="M898 0h-282q-232 0 -339 72t-107 288v572q0 216 106 288t328 72h294q129 0 169 -73q31 -57 31 -139t-52 -82t-52 68t-24 95t-86 27h-280q-96 0 -150 -7t-100 -33t-63 -78t-17 -138v-572q0 -166 72 -211t270 -45h268q64 0 87 28t23 95t52 67t52 -72q0 -162 -93 -203
q-43 -19 -107 -19zM342 1604q0 40 46 40q24 0 64 -34l168 -140l168 140q40 34 64 34q46 0 46 -40q0 -16 -14 -30l-208 -218h-112l-208 218q-14 14 -14 30z" />
    <glyph glyph-name="ccaron" unicode="&#x10d;" 
d="M360 1292q0 40 46 40q24 0 64 -34l168 -140l168 140q40 34 64 34q46 0 46 -40q0 -16 -14 -30l-208 -218h-112l-208 218q-14 14 -14 30zM898 0h-282q-230 0 -338 71t-108 281v218q0 210 108 281t338 71h282q130 0 169 -74q31 -59 31 -139q0 -81 -52 -81t-52 68t-24 95
t-86 27h-268q-102 0 -157 -7t-103 -32t-65 -75t-17 -136v-214q0 -86 17 -136t65 -75t103 -32t157 -7h268q64 0 87 28t23 95t52 67t52 -72q0 -162 -93 -203q-43 -19 -107 -19z" />
    <glyph glyph-name="Dcaron" unicode="&#x10e;" 
d="M994 360v572q0 164 -70 210t-258 46h-392v-1084h380q196 0 268 45t72 211zM1098 932v-572q0 -216 -107 -288t-337 -72h-436q-48 0 -48 72v1148q0 72 48 72h448q108 0 180 -13t133 -51q119 -74 119 -296zM304 1598q0 40 46 40q24 0 64 -34l168 -140l168 140q40 34 64 34
q46 0 46 -40q0 -16 -14 -30l-208 -218h-112l-208 218q-14 14 -14 30z" />
    <glyph glyph-name="dcaron" unicode="&#x10f;" horiz-adv-x="1376" 
d="M1014 818h-400q-102 0 -157 -7t-102 -32t-64 -75t-17 -136v-214q0 -86 17 -136t64 -75t102 -32t157 -7h58q342 0 342 352v362zM1014 922v292q0 72 56 72q48 0 48 -72v-1160q0 -68 -52 -68t-52 70v70q-118 -126 -342 -126h-58q-230 0 -337 71t-107 281v218q0 210 107 281
t337 71h400zM1358 1249q0 -23 -10 -41l-82 -166q-20 -48 -50 -48q-44 0 -44 50q0 8 6 32l48 174q14 46 50 46q22 0 52 -12t30 -35z" />
    <glyph glyph-name="Dcroat" unicode="&#x110;" horiz-adv-x="1228" 
d="M1098 932v-572q0 -216 -107 -288t-337 -72h-436q-48 0 -48 72v524q-64 0 -64 56q0 50 64 50v518q0 72 48 72h448q108 0 180 -13t133 -51q119 -74 119 -296zM994 360v572q0 164 -70 210t-258 46h-392v-486h208q68 0 68 -53t-68 -53h-208v-492h380q196 0 268 45t72 211z
" />
    <glyph glyph-name="dcroat" unicode="&#x111;" horiz-adv-x="1228" 
d="M630 1024q-62 0 -62 53t62 53h384v84q0 72 56 72q48 0 48 -72v-84h2q68 0 68 -56q0 -22 -19 -36t-49 -14h-2v-970q0 -68 -52 -68t-52 70v70q-118 -126 -342 -126h-58q-230 0 -337 71t-107 281v218q0 210 107 281t337 71h400v102h-384zM1014 818h-400q-102 0 -157 -7
t-102 -32t-64 -75t-17 -136v-214q0 -86 17 -136t64 -75t102 -32t157 -7h58q342 0 342 352v362z" />
    <glyph glyph-name="Emacron" unicode="&#x112;" 
d="M376 1412q-62 0 -62 53t62 53h490q68 0 68 -56q0 -22 -19 -36t-49 -14h-490zM274 664v-560h756q68 0 68 -56q0 -48 -68 -48h-812q-48 0 -48 72v1138q0 72 48 72h812q68 0 68 -56q0 -48 -68 -48h-756v-410h518q72 0 72 -56q0 -48 -72 -48h-518z" />
    <glyph glyph-name="emacron" unicode="&#x113;" horiz-adv-x="1288" 
d="M398 1044q-62 0 -62 53t62 53h490q68 0 68 -56q0 -22 -19 -36t-49 -14h-490zM674 818h-58q-194 0 -267 -41t-75 -183h740q-2 142 -75 183t-265 41zM1118 570v-80h-844v-136q0 -86 17 -136t65 -75t103 -32t157 -7h268q64 0 87 28t23 95t52 67t52 -72q0 -162 -93 -203
q-43 -19 -107 -19h-282q-230 0 -338 71t-108 281v218q0 210 108 281t338 71h58q230 0 337 -71t107 -281z" />
    <glyph glyph-name="Edotaccent" unicode="&#x116;" 
d="M623 1576q33 0 68 -24t35 -58t-35 -58t-68 -24t-67 24t-34 58t34 58t67 24zM274 664v-560h756q68 0 68 -56q0 -48 -68 -48h-812q-48 0 -48 72v1138q0 72 48 72h812q68 0 68 -56q0 -48 -68 -48h-756v-410h518q72 0 72 -56q0 -48 -72 -48h-518z" />
    <glyph glyph-name="edotaccent" unicode="&#x117;" horiz-adv-x="1288" 
d="M645 1208q33 0 68 -24t35 -58t-35 -58t-68 -24t-67 24t-34 58t34 58t67 24zM674 818h-58q-194 0 -267 -41t-75 -183h740q-2 142 -75 183t-265 41zM1118 570v-80h-844v-136q0 -86 17 -136t65 -75t103 -32t157 -7h268q64 0 87 28t23 95t52 67t52 -72q0 -162 -93 -203
q-43 -19 -107 -19h-282q-230 0 -338 71t-108 281v218q0 210 108 281t338 71h58q230 0 337 -71t107 -281z" />
    <glyph glyph-name="Eogonek" unicode="&#x118;" horiz-adv-x="1228" 
d="M274 664v-560h756q68 0 68 -56q0 -48 -68 -48h-334q-48 -30 -88 -100t-40 -102q0 -108 84 -108q32 0 76 17t56 17q30 0 30 -43t-54 -67t-120 -24t-121 58t-55 140t96 212h-342q-48 0 -48 72v1138q0 72 48 72h812q68 0 68 -56q0 -48 -68 -48h-756v-410h518q72 0 72 -56
q0 -48 -72 -48h-518z" />
    <glyph glyph-name="eogonek" unicode="&#x119;" horiz-adv-x="1288" 
d="M1118 570v-80h-844v-136q0 -86 17 -136t65 -75t103 -32t157 -7h268q64 0 87 28t23 95t52 67t52 -72q0 -162 -93 -203q-43 -19 -107 -19h-98q-48 -30 -88 -100t-40 -102q0 -108 84 -108q32 0 76 17t56 17q30 0 30 -43t-54 -67t-120 -24t-121 58t-55 140t96 212h-48
q-230 0 -338 71t-108 281v218q0 210 108 281t338 71h58q230 0 337 -71t107 -281zM674 818h-58q-194 0 -267 -41t-75 -183h740q-2 142 -75 183t-265 41z" />
    <glyph glyph-name="Ecaron" unicode="&#x11a;" 
d="M274 664v-560h756q68 0 68 -56q0 -48 -68 -48h-812q-48 0 -48 72v1138q0 72 48 72h812q68 0 68 -56q0 -48 -68 -48h-756v-410h518q72 0 72 -56q0 -48 -72 -48h-518zM320 1598q0 40 46 40q24 0 64 -34l168 -140l168 140q40 34 64 34q46 0 46 -40q0 -16 -14 -30l-208 -218
h-112l-208 218q-14 14 -14 30z" />
    <glyph glyph-name="ecaron" unicode="&#x11b;" horiz-adv-x="1288" 
d="M368 1292q0 40 46 40q24 0 64 -34l168 -140l168 140q40 34 64 34q46 0 46 -40q0 -16 -14 -30l-208 -218h-112l-208 218q-14 14 -14 30zM674 818h-58q-194 0 -267 -41t-75 -183h740q-2 142 -75 183t-265 41zM1118 570v-80h-844v-136q0 -86 17 -136t65 -75t103 -32t157 -7
h268q64 0 87 28t23 95t52 67t52 -72q0 -162 -93 -203q-43 -19 -107 -19h-282q-230 0 -338 71t-108 281v218q0 210 108 281t338 71h58q230 0 337 -71t107 -281z" />
    <glyph glyph-name="Gcircumflex" unicode="&#x11c;" 
d="M994 492h-262q-72 0 -72 52t72 52h366v-394q0 -98 -39 -158t-161 -60h-294q-110 0 -182 13t-133 49q-119 70 -119 292v596q0 212 107 283t339 71h282q129 0 169 -73q31 -57 31 -139t-52 -82t-52 67t-23 95t-87 28h-268q-198 0 -270 -45t-72 -207v-592q0 -162 71 -207
t259 -45h280q64 0 87 27t23 93v284zM916 1338q0 -46 -46 -46q-20 0 -27 7t-17 19t-12 14l-182 192l-180 -192q-4 -4 -10 -12t-10 -11t-11 -10t-25 -7q-46 0 -46 46q0 20 12 36l210 264h118l214 -264q12 -16 12 -36z" />
    <glyph glyph-name="gcircumflex" unicode="&#x11d;" horiz-adv-x="1288" 
d="M1014 104v362q0 352 -342 352h-58q-102 0 -157 -7t-102 -32t-64 -75t-17 -136v-214q0 -86 17 -136t64 -75t102 -32t157 -7h400zM1118 -174q0 -130 -38 -183t-144 -53h-566q-130 0 -169 74q-31 59 -31 139q0 81 52 81t52 -68t24 -95t86 -27h538q58 0 75 20t17 80v206h-400
q-230 0 -337 71t-107 281v218q0 210 107 281t337 71h58q224 0 342 -126v70q0 70 52 70t52 -68v-1042zM928 1094q0 -46 -46 -46q-20 0 -27 7t-17 19t-12 14l-182 192l-180 -192q-4 -4 -10 -12t-10 -11t-11 -10t-25 -7q-46 0 -46 46q0 20 12 36l210 264h118l214 -264
q12 -16 12 -36z" />
    <glyph glyph-name="Gbreve" unicode="&#x11e;" 
d="M994 492h-262q-72 0 -72 52t72 52h366v-394q0 -98 -39 -158t-161 -60h-294q-110 0 -182 13t-133 49q-119 70 -119 292v596q0 212 107 283t339 71h282q129 0 169 -73q31 -57 31 -139t-52 -82t-52 67t-23 95t-87 28h-268q-198 0 -270 -45t-72 -207v-592q0 -162 71 -207
t259 -45h280q64 0 87 27t23 93v284zM635 1376q-91 0 -165 71t-74 191h106q0 -86 41 -120t93 -34t93 34t41 120h106q0 -122 -75 -192t-166 -70z" />
    <glyph glyph-name="gbreve" unicode="&#x11f;" horiz-adv-x="1288" 
d="M611 1058q-91 0 -165 71t-74 191h106q0 -86 41 -120t93 -34t93 34t41 120h106q0 -122 -75 -192t-166 -70zM1014 104v362q0 352 -342 352h-58q-102 0 -157 -7t-102 -32t-64 -75t-17 -136v-214q0 -86 17 -136t64 -75t102 -32t157 -7h400zM1118 -174q0 -130 -38 -183
t-144 -53h-566q-130 0 -169 74q-31 59 -31 139q0 81 52 81t52 -68t24 -95t86 -27h538q58 0 75 20t17 80v206h-400q-230 0 -337 71t-107 281v218q0 210 107 281t337 71h58q224 0 342 -126v70q0 70 52 70t52 -68v-1042z" />
    <glyph glyph-name="Gdotaccent" unicode="&#x120;" 
d="M994 492h-262q-72 0 -72 52t72 52h366v-394q0 -98 -39 -158t-161 -60h-294q-110 0 -182 13t-133 49q-119 70 -119 292v596q0 212 107 283t339 71h282q129 0 169 -73q31 -57 31 -139t-52 -82t-52 67t-23 95t-87 28h-268q-198 0 -270 -45t-72 -207v-592q0 -162 71 -207
t259 -45h280q64 0 87 27t23 93v284zM603 1566q33 0 68 -24t35 -58t-35 -58t-68 -24t-67 24t-34 58t34 58t67 24z" />
    <glyph glyph-name="gdotaccent" unicode="&#x121;" horiz-adv-x="1288" 
d="M1014 104v362q0 352 -342 352h-58q-102 0 -157 -7t-102 -32t-64 -75t-17 -136v-214q0 -86 17 -136t64 -75t102 -32t157 -7h400zM1118 -174q0 -130 -38 -183t-144 -53h-566q-130 0 -169 74q-31 59 -31 139q0 81 52 81t52 -68t24 -95t86 -27h538q58 0 75 20t17 80v206h-400
q-230 0 -337 71t-107 281v218q0 210 107 281t337 71h58q224 0 342 -126v70q0 70 52 70t52 -68v-1042zM643 1212q33 0 68 -24t35 -58t-35 -58t-68 -24t-67 24t-34 58t34 58t67 24z" />
    <glyph glyph-name="Gcommaaccent" unicode="&#x122;" 
d="M736 -155q0 -23 -10 -41l-82 -166q-20 -48 -50 -48q-44 0 -44 50q0 8 6 32l48 174q14 46 50 46q22 0 52 -12t30 -35zM994 492h-262q-72 0 -72 52t72 52h366v-394q0 -98 -39 -158t-161 -60h-294q-110 0 -182 13t-133 49q-119 70 -119 292v596q0 212 107 283t339 71h282
q129 0 169 -73q31 -57 31 -139t-52 -82t-52 67t-23 95t-87 28h-268q-198 0 -270 -45t-72 -207v-592q0 -162 71 -207t259 -45h280q64 0 87 27t23 93v284z" />
    <glyph glyph-name="gcommaaccent" unicode="&#x123;" horiz-adv-x="1288" 
d="M590 1105q0 23 10 41l82 166q20 48 50 48q44 0 44 -50q0 -8 -6 -32l-48 -172q-14 -48 -50 -48q-22 0 -52 12t-30 35zM1014 104v362q0 352 -342 352h-58q-102 0 -157 -7t-102 -32t-64 -75t-17 -136v-214q0 -86 17 -136t64 -75t102 -32t157 -7h400zM1118 -174
q0 -130 -38 -183t-144 -53h-566q-130 0 -169 74q-31 59 -31 139q0 81 52 81t52 -68t24 -95t86 -27h538q58 0 75 20t17 80v206h-400q-230 0 -337 71t-107 281v218q0 210 107 281t337 71h58q224 0 342 -126v70q0 70 52 70t52 -68v-1042z" />
    <glyph glyph-name="Hcircumflex" unicode="&#x124;" 
d="M274 54q0 -68 -52 -68t-52 68v1162q0 70 48 70q56 0 56 -70v-478h720v478q0 70 52 70t52 -70v-1162q0 -68 -52 -68t-52 68v580h-720v-580zM922 1338q0 -46 -46 -46q-20 0 -27 7t-17 19t-12 14l-182 192l-180 -192q-4 -4 -10 -12t-10 -11t-11 -10t-25 -7q-46 0 -46 46
q0 20 12 36l210 264h118l214 -264q12 -16 12 -36z" />
    <glyph glyph-name="hcircumflex" unicode="&#x125;" horiz-adv-x="1288" 
d="M616 818q-170 0 -256 -91t-86 -265v-408q0 -68 -52 -68t-52 68v1160q0 72 48 72q56 0 56 -72v-418q118 126 342 126h58q230 0 337 -71t107 -281v-516q0 -68 -52 -68t-52 68v514q0 86 -17 136t-64 75t-102 32t-157 7h-58zM928 1338q0 -46 -46 -46q-20 0 -27 7t-17 19
t-12 14l-182 192l-180 -192q-4 -4 -10 -12t-10 -11t-11 -10t-25 -7q-46 0 -46 46q0 20 12 36l210 264h118l214 -264q12 -16 12 -36z" />
    <glyph glyph-name="Hbar" unicode="&#x126;" 
d="M994 1016h-720v-278h720v278zM106 1016q-52 0 -52 43t52 43h64v114q0 70 48 70q56 0 56 -70v-114h720v114q0 70 52 70t52 -70v-114h58q58 0 58 -46q0 -40 -58 -40h-58v-962q0 -68 -52 -68t-52 68v580h-720v-580q0 -68 -52 -68t-52 68v962h-64z" />
    <glyph glyph-name="hbar" unicode="&#x127;" horiz-adv-x="1228" 
d="M170 1106v108q0 72 48 72q56 0 56 -72v-108h420q76 0 76 -56q0 -50 -76 -50h-420v-204q118 126 342 126h58q230 0 337 -71t107 -281v-516q0 -68 -52 -68t-52 68v514q0 86 -17 136t-64 75t-102 32t-157 7h-58q-168 0 -255 -91t-87 -265v-408q0 -68 -52 -68t-52 68v946
q-76 0 -76 56q0 50 76 50z" />
    <glyph glyph-name="Itilde" unicode="&#x128;" horiz-adv-x="442" 
d="M453 1608q19 0 35 -12t16 -37t-28 -51l-94 -78q-16 -16 -38 -16l-15 2q-3 0 -5 2h-4l-196 72q-4 4 -11 4t-17 -8l-62 -56q-26 -18 -44 -18t-34 13t-16 39t28 48l92 76q14 18 38 18l26 -4l196 -72l10 -4q6 0 16 8l62 56q26 18 45 18zM274 50q0 -64 -52 -64t-52 64v1170
q0 66 52 66t52 -66v-1170z" />
    <glyph glyph-name="itilde" unicode="&#x129;" horiz-adv-x="440" 
d="M443 1264q19 0 35 -12t16 -37t-28 -51l-94 -78q-16 -16 -38 -16l-15 2q-3 0 -5 2h-4l-196 72q-4 4 -11 4t-17 -8l-62 -56q-26 -18 -44 -18t-34 13t-16 39t28 48l92 76q14 18 38 18l26 -4l196 -72l10 -4q6 0 16 8l62 56q26 18 45 18zM264 40q0 -64 -52 -64t-52 64v840
q0 66 52 66t52 -66v-840z" />
    <glyph glyph-name="Imacron" unicode="&#x12a;" horiz-adv-x="442" 
d="M-26 1412q-62 0 -62 53t62 53h490q68 0 68 -56q0 -22 -19 -36t-49 -14h-490zM274 50q0 -64 -52 -64t-52 64v1170q0 66 52 66t52 -66v-1170z" />
    <glyph glyph-name="imacron" unicode="&#x12b;" horiz-adv-x="440" 
d="M-36 1068q-62 0 -62 53t62 53h490q68 0 68 -56q0 -22 -19 -36t-49 -14h-490zM264 40q0 -64 -52 -64t-52 64v840q0 66 52 66t52 -66v-840z" />
    <glyph glyph-name="Iogonek" unicode="&#x12e;" horiz-adv-x="442" 
d="M220 -290q32 0 76 17t56 17q30 0 30 -43t-54 -67t-120 -24t-121 58t-55 150q0 48 44 123t94 131v1148q0 66 52 66t52 -66v-1170q0 -62 -50 -64q-36 -38 -62 -91t-26 -77q0 -108 84 -108z" />
    <glyph glyph-name="iogonek" unicode="&#x12f;" horiz-adv-x="440" 
d="M211 1284q33 0 68 -24t35 -58t-35 -58t-68 -24t-67 24t-34 58t34 58t67 24zM208 -310q32 0 76 17t56 17q30 0 30 -43t-54 -67t-120 -24t-121 58t-55 150q0 48 45 124t95 134v824q0 66 52 66t52 -66v-840q0 -56 -40 -62q-40 -38 -70 -96t-30 -84q0 -108 84 -108z" />
    <glyph glyph-name="Idotaccent" unicode="&#x130;" horiz-adv-x="442" 
d="M274 50q0 -64 -52 -64t-52 64v1170q0 66 52 66t52 -66v-1170zM211 1566q33 0 68 -24t35 -58t-35 -58t-68 -24t-67 24t-34 58t34 58t67 24z" />
    <glyph glyph-name="dotlessi" unicode="&#x131;" horiz-adv-x="440" 
d="M264 40q0 -64 -52 -64t-52 64v840q0 66 52 66t52 -66v-840z" />
    <glyph glyph-name="Jcircumflex" unicode="&#x134;" horiz-adv-x="1212" 
d="M607 88q191 0 262 45t71 207v882q0 64 52 64t52 -66v-882q0 -222 -119 -292q-61 -36 -134 -49t-183 -13t-183 13t-135 50q-120 72 -120 297q0 66 56 66q50 0 50 -66q0 -166 70 -211t261 -45zM1246 1340q0 -46 -46 -46q-20 0 -27 7t-17 19t-12 14l-182 192l-180 -192
q-4 -4 -10 -12t-10 -11t-11 -10t-25 -7q-46 0 -46 46q0 20 12 36l210 264h118l214 -264q12 -16 12 -36z" />
    <glyph glyph-name="jcircumflex" unicode="&#x135;" horiz-adv-x="436" 
d="M268 0q0 -220 -119 -290q-61 -36 -131 -48t-176 -12q-72 0 -72 52t72 52q184 0 253 44t69 202v864q0 72 52 72t52 -72v-864zM494 1094q0 -46 -46 -46q-20 0 -27 7t-17 19t-12 14l-182 192l-180 -192q-4 -4 -10 -12t-10 -11t-11 -10t-25 -7q-46 0 -46 46q0 20 12 36
l210 264h118l214 -264q12 -16 12 -36z" />
    <glyph glyph-name="Kcommaaccent" unicode="&#x136;" horiz-adv-x="1158" 
d="M692 -47q0 -23 -10 -41l-82 -166q-20 -48 -50 -48q-44 0 -44 50q0 8 6 32l48 174q14 46 50 46q22 0 52 -12t30 -35zM1030 36q0 -20 -17 -35t-39 -15t-46 30l-548 628l-106 -128v-466q0 -64 -52 -64t-52 64v1170q0 66 52 66t52 -66v-560l522 596q22 30 44 30t39 -14
t17 -35t-20 -47l-426 -478l558 -630q22 -26 22 -46z" />
    <glyph glyph-name="kcommaaccent" unicode="&#x137;" horiz-adv-x="996" 
d="M592 -47q0 -23 -10 -41l-82 -166q-20 -48 -50 -48q-44 0 -44 50q0 8 6 32l48 174q14 46 50 46q22 0 52 -12t30 -35zM904 40q0 -20 -14 -36t-35 -16t-49 24l-474 458l-58 -58v-362q0 -64 -52 -64t-52 62v1172q0 66 52 66t52 -66v-682l388 370q26 24 46 24t36 -15t16 -37
t-24 -46l-332 -304l478 -444q22 -26 22 -46z" />
    <glyph glyph-name="kgreenlandic" unicode="&#x138;" horiz-adv-x="1008" 
d="M878 42q0 -22 -14 -39t-36 -17t-44 18l-510 410v-366q0 -62 -52 -62t-52 62v824q0 64 52 64t52 -64v-358l508 408q24 20 46 20t36 -18t14 -40t-30 -42l-480 -378l482 -380q28 -20 28 -42z" />
    <glyph glyph-name="Lacute" unicode="&#x139;" horiz-adv-x="1156" 
d="M218 0q-48 0 -48 70v1152q0 64 52 64t52 -64v-1118h646q66 0 66 -52t-66 -52h-702zM214 1376q-22 0 -38 15t-16 35t26 50l138 136q24 26 48 26t38 -17t14 -35t-24 -46l-140 -138q-24 -26 -46 -26z" />
    <glyph glyph-name="lacute" unicode="&#x13a;" horiz-adv-x="532" 
d="M384 0h-14q-116 0 -158 57t-42 197v962q0 70 52 70t52 -70v-996q0 -64 23 -90t90 -26t67 -52t-70 -52zM214 1398q-22 0 -38 15t-16 35t26 50l138 136q24 26 48 26t38 -17t14 -35t-24 -46l-140 -138q-24 -26 -46 -26z" />
    <glyph glyph-name="Lcommaaccent" unicode="&#x13b;" horiz-adv-x="1156" 
d="M662 -155q0 -23 -10 -41l-82 -166q-20 -48 -50 -48q-44 0 -44 50q0 8 6 32l48 174q14 46 50 46q22 0 52 -12t30 -35zM218 0q-48 0 -48 70v1152q0 64 52 64t52 -64v-1118h646q66 0 66 -52t-66 -52h-702z" />
    <glyph glyph-name="lcommaaccent" unicode="&#x13c;" horiz-adv-x="532" 
d="M362 -155q0 -23 -10 -41l-82 -166q-20 -48 -50 -48q-44 0 -44 50q0 8 6 32l48 174q14 46 50 46q22 0 52 -12t30 -35zM384 0h-14q-116 0 -158 57t-42 197v962q0 70 52 70t52 -70v-996q0 -64 23 -90t90 -26t67 -52t-70 -52z" />
    <glyph glyph-name="Lcaron" unicode="&#x13d;" horiz-adv-x="1116" 
d="M218 0q-48 0 -48 70v1152q0 64 52 64t52 -64v-1118h646q66 0 66 -52t-66 -52h-702zM556 1253q0 -23 -10 -41l-82 -166q-20 -48 -50 -48q-44 0 -44 50q0 8 6 32l48 174q14 46 50 46q22 0 52 -12t30 -35z" />
    <glyph glyph-name="lcaron" unicode="&#x13e;" horiz-adv-x="512" 
d="M384 0h-14q-116 0 -158 57t-42 197v962q0 70 52 70t52 -70v-996q0 -64 23 -90t90 -26t67 -52t-70 -52zM570 1249q0 -23 -10 -41l-82 -166q-20 -48 -50 -48q-44 0 -44 50q0 8 6 32l48 174q14 46 50 46q22 0 52 -12t30 -35z" />
    <glyph glyph-name="Lslash" unicode="&#x141;" horiz-adv-x="1246" 
d="M352 0q-48 0 -48 70v544l-106 -52q-14 -6 -36 -6t-34 18t-12 41t44 45l144 72v490q0 64 52 64t52 -64v-438l92 46q30 6 44 6t29 -15t15 -40t-50 -51l-130 -64v-562h646q66 0 66 -52t-66 -52h-702z" />
    <glyph glyph-name="lslash" unicode="&#x142;" horiz-adv-x="684" 
d="M464 0h-14q-116 0 -158 57t-42 197v364l-112 -56q-14 -6 -36 -6t-34 18t-12 41t44 45l150 76v480q0 70 52 70t52 -70v-428l86 42q30 6 44 6t29 -15t15 -40t-50 -51l-124 -62v-448q0 -64 23 -90t90 -26t67 -52t-70 -52z" />
    <glyph glyph-name="Nacute" unicode="&#x143;" 
d="M1048 -14q-28 0 -40 14l-734 1086v-1034q0 -66 -52 -66t-52 68v1162q0 70 48 70q36 0 60 -38l716 -1056v1022q0 72 52 72t52 -70v-1162q0 -68 -50 -68zM557 1262q-19 0 -36 15t-17 37t18 44l192 230q28 30 48 30t36 -15t16 -37t-18 -44l-192 -230q-28 -30 -47 -30z" />
    <glyph glyph-name="nacute" unicode="&#x144;" horiz-adv-x="1288" 
d="M616 818q-170 0 -256 -91t-86 -265v-408q0 -68 -52 -68t-52 68v812q0 70 48 70q56 0 56 -72v-68q118 126 342 126h58q230 0 337 -71t107 -281v-516q0 -68 -52 -68t-52 68v514q0 86 -17 136t-64 75t-102 32t-157 7h-58zM575 1010q-19 0 -36 15t-17 37t18 44l192 230
q28 30 48 30t36 -15t16 -37t-18 -44l-192 -230q-28 -30 -47 -30z" />
    <glyph glyph-name="Ncommaaccent" unicode="&#x145;" 
d="M728 -47q0 -23 -10 -41l-82 -166q-20 -48 -50 -48q-44 0 -44 50q0 8 6 32l48 174q14 46 50 46q22 0 52 -12t30 -35zM1048 -14q-28 0 -40 14l-734 1086v-1034q0 -66 -52 -66t-52 68v1162q0 70 48 70q36 0 60 -38l716 -1056v1022q0 72 52 72t52 -70v-1162q0 -68 -50 -68z
" />
    <glyph glyph-name="ncommaaccent" unicode="&#x146;" horiz-adv-x="1288" 
d="M738 -47q0 -23 -10 -41l-82 -166q-20 -48 -50 -48q-44 0 -44 50q0 8 6 32l48 174q14 46 50 46q22 0 52 -12t30 -35zM616 818q-170 0 -256 -91t-86 -265v-408q0 -68 -52 -68t-52 68v812q0 70 48 70q56 0 56 -72v-68q118 126 342 126h58q230 0 337 -71t107 -281v-516
q0 -68 -52 -68t-52 68v514q0 86 -17 136t-64 75t-102 32t-157 7h-58z" />
    <glyph glyph-name="Ncaron" unicode="&#x147;" 
d="M1048 -14q-28 0 -40 14l-734 1086v-1034q0 -66 -52 -66t-52 68v1162q0 70 48 70q36 0 60 -38l716 -1056v1022q0 72 52 72t52 -70v-1162q0 -68 -50 -68zM342 1544q0 40 46 40q24 0 64 -34l168 -140l168 140q40 34 64 34q46 0 46 -40q0 -16 -14 -30l-208 -218h-112
l-208 218q-14 14 -14 30z" />
    <glyph glyph-name="ncaron" unicode="&#x148;" horiz-adv-x="1288" 
d="M366 1306q0 40 46 40q24 0 64 -34l168 -140l168 140q40 34 64 34q46 0 46 -40q0 -16 -14 -30l-208 -218h-112l-208 218q-14 14 -14 30zM616 818q-170 0 -256 -91t-86 -265v-408q0 -68 -52 -68t-52 68v812q0 70 48 70q56 0 56 -72v-68q118 126 342 126h58q230 0 337 -71
t107 -281v-516q0 -68 -52 -68t-52 68v514q0 86 -17 136t-64 75t-102 32t-157 7h-58z" />
    <glyph glyph-name="Eng" unicode="&#x14a;" 
d="M994 1214q0 72 52 72t52 -70v-1216q0 -220 -119 -290q-61 -36 -131 -48t-176 -12q-72 0 -72 52t72 52q184 0 253 44t69 202v20l-720 1066v-1034q0 -66 -52 -66t-52 68v1162q0 70 48 70q36 0 60 -38l716 -1056v1022z" />
    <glyph glyph-name="eng" unicode="&#x14b;" horiz-adv-x="1288" 
d="M616 818q-170 0 -256 -91t-86 -265v-408q0 -68 -52 -68t-52 68v812q0 70 48 70q56 0 56 -72v-68q118 126 342 126h58q230 0 337 -71t107 -281v-570q0 -220 -119 -290q-61 -36 -131 -48t-176 -12q-72 0 -72 52t72 52q184 0 253 44t69 202v568q0 86 -17 136t-64 75t-102 32
t-157 7h-58z" />
    <glyph glyph-name="Omacron" unicode="&#x14c;" 
d="M386 1412q-62 0 -62 53t62 53h490q68 0 68 -56q0 -22 -19 -36t-49 -14h-490zM634 1186q-172 0 -266 -98t-94 -274v-356q0 -176 94 -274t266 -98t266 98t94 274v356q0 176 -94 274t-266 98zM634 -18q-204 0 -334 126t-130 348v360q0 222 130 348t334 126t334 -127
t130 -347v-360q0 -220 -130 -347t-334 -127z" />
    <glyph glyph-name="omacron" unicode="&#x14d;" horiz-adv-x="1288" 
d="M398 1044q-62 0 -62 53t62 53h490q68 0 68 -56q0 -22 -19 -36t-49 -14h-490zM616 104h58q102 0 157 7t102 32t64 75t17 136v214q0 86 -17 136t-64 75t-102 32t-157 7h-58q-102 0 -157 -7t-103 -32t-65 -75t-17 -136v-214q0 -86 17 -136t65 -75t103 -32t157 -7zM674 0h-58
q-230 0 -338 71t-108 281v218q0 210 108 281t338 71h58q230 0 337 -71t107 -281v-218q0 -210 -107 -281t-337 -71z" />
    <glyph glyph-name="Ohungarumlaut" unicode="&#x150;" 
d="M634 1186q-172 0 -266 -98t-94 -274v-356q0 -176 94 -274t266 -98t266 98t94 274v356q0 176 -94 274t-266 98zM634 -18q-204 0 -334 126t-130 348v360q0 222 130 348t334 126t334 -127t130 -347v-360q0 -220 -130 -347t-334 -127zM730 1376q-22 0 -38 15t-16 35t26 50
l138 136q24 26 48 26t38 -17t14 -35t-24 -46l-140 -138q-24 -26 -46 -26zM530 1376q-22 0 -38 15t-16 35t26 50l138 136q24 26 48 26t38 -17t14 -35t-24 -46l-140 -138q-24 -26 -46 -26z" />
    <glyph glyph-name="ohungarumlaut" unicode="&#x151;" horiz-adv-x="1288" 
d="M616 104h58q102 0 157 7t102 32t64 75t17 136v214q0 86 -17 136t-64 75t-102 32t-157 7h-58q-102 0 -157 -7t-103 -32t-65 -75t-17 -136v-214q0 -86 17 -136t65 -75t103 -32t157 -7zM674 0h-58q-230 0 -338 71t-108 281v218q0 210 108 281t338 71h58q230 0 337 -71
t107 -281v-218q0 -210 -107 -281t-337 -71zM737 1034q-19 0 -36 15t-17 37t18 44l192 230q28 30 48 30t36 -15t16 -37t-18 -44l-192 -230q-28 -30 -47 -30zM497 1034q-19 0 -36 15t-17 37t18 44l192 230q28 30 48 30t36 -15t16 -37t-18 -44l-192 -230q-28 -30 -47 -30z" />
    <glyph glyph-name="OE" unicode="&#x152;" horiz-adv-x="1494" 
d="M560 86q128 0 204 66v968q-72 66 -203 66t-230 -103t-99 -269v-356q0 -166 100 -269t228 -103zM810 1272h486q70 0 70 -48q0 -54 -70 -54h-428v-402h190q72 0 72 -56q0 -48 -72 -48h-190v-560h428q70 0 70 -56q0 -48 -70 -48h-478q-40 0 -48 30q-94 -48 -216 -48
q-154 0 -289 131t-135 343v360q0 212 134 343t272 131t230 -50q8 32 44 32z" />
    <glyph glyph-name="oe" unicode="&#x153;" horiz-adv-x="1508" 
d="M474 0q-188 0 -266 84t-78 268v218q0 182 78 267t278 85t288 -130q78 130 280 130q242 0 301 -171q25 -73 25 -181v-80h-552v-136q0 -165 93 -213q72 -37 171 -37q184 0 184 124q0 66 52 66t52 -65t-18 -107q-32 -75 -106 -99q-73 -23 -164 -23q-236 0 -314 136
q-42 -70 -112 -103t-192 -33zM476 818q-152 0 -197 -58t-45 -192v-214q0 -134 45 -192t197 -58t200 59t48 191v214q0 132 -48 191t-200 59zM1053 818q-117 0 -170 -42t-55 -182h448q-2 140 -54 182t-169 42z" />
    <glyph glyph-name="Racute" unicode="&#x154;" horiz-adv-x="1174" 
d="M1030 47q0 -25 -15 -43t-39 -18t-37 19t-13 45t-28 137t-96 262t-152 215h-376v-614q0 -64 -52 -64t-52 64v1170q0 72 48 72h360q218 0 327 -66t109 -244q0 -250 -234 -298q66 -64 128 -219t92 -274t30 -144zM578 768q186 0 259 40t73 166t-74 165t-258 39h-304v-410h304
zM462 1376q-22 0 -38 15t-16 35t26 50l138 136q24 26 48 26t38 -17t14 -35t-24 -46l-140 -138q-24 -26 -46 -26z" />
    <glyph glyph-name="racute" unicode="&#x155;" horiz-adv-x="864" 
d="M596 818q-156 0 -239 -92t-83 -264v-408q0 -68 -52 -68t-52 68v812q0 70 48 70q56 0 56 -72v-68q118 126 322 126h92q70 0 70 -52t-70 -52h-92zM381 1010q-19 0 -36 15t-17 37t18 44l192 230q28 30 48 30t36 -15t16 -37t-18 -44l-192 -230q-28 -30 -47 -30z" />
    <glyph glyph-name="Rcommaaccent" unicode="&#x156;" horiz-adv-x="1174" 
d="M692 -47q0 -23 -10 -41l-82 -166q-20 -48 -50 -48q-44 0 -44 50q0 8 6 32l48 174q14 46 50 46q22 0 52 -12t30 -35zM1030 47q0 -25 -15 -43t-39 -18t-37 19t-13 45t-28 137t-96 262t-152 215h-376v-614q0 -64 -52 -64t-52 64v1170q0 72 48 72h360q218 0 327 -66t109 -244
q0 -250 -234 -298q66 -64 128 -219t92 -274t30 -144zM578 768q186 0 259 40t73 166t-74 165t-258 39h-304v-410h304z" />
    <glyph glyph-name="rcommaaccent" unicode="&#x157;" horiz-adv-x="864" 
d="M316 -155q0 -23 -10 -41l-82 -166q-20 -48 -50 -48q-44 0 -44 50q0 8 6 32l48 174q14 46 50 46q22 0 52 -12t30 -35zM596 818q-156 0 -239 -92t-83 -264v-408q0 -68 -52 -68t-52 68v812q0 70 48 70q56 0 56 -72v-68q118 126 322 126h92q70 0 70 -52t-70 -52h-92z" />
    <glyph glyph-name="Rcaron" unicode="&#x158;" horiz-adv-x="1174" 
d="M1030 47q0 -25 -15 -43t-39 -18t-37 19t-13 45t-28 137t-96 262t-152 215h-376v-614q0 -64 -52 -64t-52 64v1170q0 72 48 72h360q218 0 327 -66t109 -244q0 -250 -234 -298q66 -64 128 -219t92 -274t30 -144zM578 768q186 0 259 40t73 166t-74 165t-258 39h-304v-410h304
zM264 1598q0 40 46 40q24 0 64 -34l168 -140l168 140q40 34 64 34q46 0 46 -40q0 -16 -14 -30l-208 -218h-112l-208 218q-14 14 -14 30z" />
    <glyph glyph-name="rcaron" unicode="&#x159;" horiz-adv-x="864" 
d="M186 1306q0 40 46 40q24 0 64 -34l168 -140l168 140q40 34 64 34q46 0 46 -40q0 -16 -14 -30l-208 -218h-112l-208 218q-14 14 -14 30zM596 818q-156 0 -239 -92t-83 -264v-408q0 -68 -52 -68t-52 68v812q0 70 48 70q56 0 56 -72v-68q118 126 322 126h92q70 0 70 -52
t-70 -52h-92z" />
    <glyph glyph-name="Sacute" unicode="&#x15a;" horiz-adv-x="1232" 
d="M274 963q0 -81 35 -138t85 -67l474 -102q134 -30 194 -124t60 -224t-79 -227t-261 -97h-166q-114 0 -188 13t-137 50q-121 71 -121 297q0 66 56 66q50 0 50 -66q0 -166 71 -211t269 -45h204q106 0 152 72t46 162t-39 151t-81 71l-470 104q-140 30 -199 105t-59 210
t82 230t272 95h152q114 0 187 -13t137 -49q122 -69 122 -294q0 -66 -53 -66t-53 66q0 166 -70 209t-270 43h-196q-108 0 -157 -70t-49 -151zM572 1376q-22 0 -38 15t-16 35t26 50l138 136q24 26 48 26t38 -17t14 -35t-24 -46l-140 -138q-24 -26 -46 -26z" />
    <glyph glyph-name="sacute" unicode="&#x15b;" 
d="M370 0q-129 0 -169 73q-31 57 -31 139t52 82t52 -67t23 -95t87 -28h496q118 0 118 148q0 74 -33 121t-85 47h-452q-258 0 -258 260q0 120 62 181t216 61h450q130 0 169 -74q31 -59 31 -139q0 -81 -52 -81t-52 68t-24 95t-86 27h-492q-118 0 -118 -138q0 -76 33 -116
t85 -40h454q140 0 198 -78t58 -198t-63 -184t-213 -64h-456zM615 1010q-19 0 -36 15t-17 37t18 44l192 230q28 30 48 30t36 -15t16 -37t-18 -44l-192 -230q-28 -30 -47 -30z" />
    <glyph glyph-name="Scircumflex" unicode="&#x15c;" horiz-adv-x="1232" 
d="M274 963q0 -81 35 -138t85 -67l474 -102q134 -30 194 -124t60 -224t-79 -227t-261 -97h-166q-114 0 -188 13t-137 50q-121 71 -121 297q0 66 56 66q50 0 50 -66q0 -166 71 -211t269 -45h204q106 0 152 72t46 162t-39 151t-81 71l-470 104q-140 30 -199 105t-59 210
t82 230t272 95h152q114 0 187 -13t137 -49q122 -69 122 -294q0 -66 -53 -66t-53 66q0 166 -70 209t-270 43h-196q-108 0 -157 -70t-49 -151zM926 1338q0 -46 -46 -46q-20 0 -27 7t-17 19t-12 14l-182 192l-180 -192q-4 -4 -10 -12t-10 -11t-11 -10t-25 -7q-46 0 -46 46
q0 20 12 36l210 264h118l214 -264q12 -16 12 -36z" />
    <glyph glyph-name="scircumflex" unicode="&#x15d;" 
d="M370 0q-129 0 -169 73q-31 57 -31 139t52 82t52 -67t23 -95t87 -28h496q118 0 118 148q0 74 -33 121t-85 47h-452q-258 0 -258 260q0 120 62 181t216 61h450q130 0 169 -74q31 -59 31 -139q0 -81 -52 -81t-52 68t-24 95t-86 27h-492q-118 0 -118 -138q0 -76 33 -116
t85 -40h454q140 0 198 -78t58 -198t-63 -184t-213 -64h-456zM926 1080q0 -46 -46 -46q-20 0 -27 7t-17 19t-12 14l-182 192l-180 -192q-4 -4 -10 -12t-10 -11t-11 -10t-25 -7q-46 0 -46 46q0 20 12 36l210 264h118l214 -264q12 -16 12 -36z" />
    <glyph glyph-name="Scedilla" unicode="&#x15e;" horiz-adv-x="1232" 
d="M274 963q0 -81 35 -138t85 -67l474 -102q134 -30 194 -124t60 -224t-79 -227t-261 -97h-144v-30q86 -30 113 -65t27 -97q0 -120 -142 -120t-142 96q0 36 31 36t31 -35t80 -35t80 58q0 42 -26 68t-114 46v78q-196 4 -301 75t-105 285q0 66 56 66q50 0 50 -66
q0 -166 71 -211t269 -45h204q106 0 152 72t46 162t-39 151t-81 71l-470 104q-140 30 -199 105t-59 210t82 230t272 95h152q114 0 187 -13t137 -49q122 -69 122 -294q0 -66 -53 -66t-53 66q0 166 -70 209t-270 43h-196q-108 0 -157 -70t-49 -151z" />
    <glyph glyph-name="scedilla" unicode="&#x15f;" 
d="M370 0q-129 0 -169 73q-31 57 -31 139t52 82t52 -67t23 -95t87 -28h496q118 0 118 148q0 74 -33 121t-85 47h-452q-258 0 -258 260q0 120 62 181t216 61h450q130 0 169 -74q31 -59 31 -139q0 -81 -52 -81t-52 68t-24 95t-86 27h-492q-118 0 -118 -138q0 -76 33 -116
t85 -40h454q140 0 198 -78t58 -198t-63 -184t-213 -64h-208v-30q86 -30 113 -65t27 -97q0 -120 -142 -120t-142 96q0 36 31 36t31 -35t80 -35t80 58q0 42 -26 68t-114 46v78h-186z" />
    <glyph glyph-name="Scaron" unicode="&#x160;" horiz-adv-x="1232" 
d="M274 963q0 -81 35 -138t85 -67l474 -102q134 -30 194 -124t60 -224t-79 -227t-261 -97h-166q-114 0 -188 13t-137 50q-121 71 -121 297q0 66 56 66q50 0 50 -66q0 -166 71 -211t269 -45h204q106 0 152 72t46 162t-39 151t-81 71l-470 104q-140 30 -199 105t-59 210
t82 230t272 95h152q114 0 187 -13t137 -49q122 -69 122 -294q0 -66 -53 -66t-53 66q0 166 -70 209t-270 43h-196q-108 0 -157 -70t-49 -151zM362 1598q0 40 46 40q24 0 64 -34l168 -140l168 140q40 34 64 34q46 0 46 -40q0 -16 -14 -30l-208 -218h-112l-208 218
q-14 14 -14 30z" />
    <glyph glyph-name="scaron" unicode="&#x161;" 
d="M344 1292q0 40 46 40q24 0 64 -34l168 -140l168 140q40 34 64 34q46 0 46 -40q0 -16 -14 -30l-208 -218h-112l-208 218q-14 14 -14 30zM370 0q-129 0 -169 73q-31 57 -31 139t52 82t52 -67t23 -95t87 -28h496q118 0 118 148q0 74 -33 121t-85 47h-452q-258 0 -258 260
q0 120 62 181t216 61h450q130 0 169 -74q31 -59 31 -139q0 -81 -52 -81t-52 68t-24 95t-86 27h-492q-118 0 -118 -138q0 -76 33 -116t85 -40h454q140 0 198 -78t58 -198t-63 -184t-213 -64h-456z" />
    <glyph glyph-name="Tcommaaccent" unicode="&#x162;" horiz-adv-x="1070" 
d="M896 1292q66 0 66 -52t-66 -52h-304v-1138q0 -44 -30 -58v-36q86 -30 113 -65t27 -97q0 -120 -142 -120t-142 96q0 36 31 36t31 -35t80 -35t80 58q0 42 -26 68t-114 46v90q-18 16 -18 52v1138h-308q-66 0 -66 52t66 52h722z" />
    <glyph glyph-name="tcommaaccent" unicode="&#x163;" horiz-adv-x="774" 
d="M264 354q0 -162 69 -206t253 -44q70 0 70 -48q0 -56 -68 -56t-118 4v-34q86 -30 113 -65t27 -97q0 -120 -142 -120t-142 96q0 36 31 36t31 -35t80 -35t80 58q0 42 -26 68t-114 46v92q-122 24 -185 101t-63 237v468q-62 4 -62 54q0 44 62 48v208q0 72 48 72q56 0 56 -72
v-208h276q72 0 72 -56q0 -48 -72 -48h-276v-464z" />
    <glyph glyph-name="Tcaron" unicode="&#x164;" horiz-adv-x="1070" 
d="M896 1292q66 0 66 -52t-66 -52h-304v-1138q0 -64 -58 -64q-52 0 -52 64v1138h-308q-66 0 -66 52t66 52h722zM258 1604q0 40 46 40q24 0 64 -34l168 -140l168 140q40 34 64 34q46 0 46 -40q0 -16 -14 -30l-208 -218h-112l-208 218q-14 14 -14 30z" />
    <glyph glyph-name="tcaron" unicode="&#x165;" horiz-adv-x="754" 
d="M264 354q0 -162 69 -206t253 -44q70 0 70 -48q0 -56 -70 -56q-216 0 -321 72t-105 280v468q-62 4 -62 54q0 44 62 48v208q0 72 48 72q56 0 56 -72v-208h276q72 0 72 -56q0 -48 -72 -48h-276v-464zM544 1225q0 -23 -10 -41l-82 -166q-20 -48 -50 -48q-44 0 -44 50
q0 8 6 32l48 174q14 46 50 46q22 0 52 -12t30 -35z" />
    <glyph glyph-name="Tbar" unicode="&#x166;" horiz-adv-x="1070" 
d="M896 1292q66 0 66 -52t-66 -52h-304v-456h176q68 0 68 -56q0 -22 -19 -36t-49 -14h-176v-576q0 -64 -58 -64q-52 0 -52 64v576h-204q-62 0 -62 53t62 53h204v456h-308q-66 0 -66 52t66 52h722z" />
    <glyph glyph-name="tbar" unicode="&#x167;" horiz-adv-x="754" 
d="M264 354q0 -162 69 -206t253 -44q70 0 70 -48q0 -56 -70 -56q-216 0 -321 72t-105 280v188q-62 0 -62 53t62 53v174q-62 4 -62 54q0 44 62 48v208q0 72 48 72q56 0 56 -72v-208h276q72 0 72 -56q0 -48 -72 -48h-276v-172h386q68 0 68 -56q0 -22 -19 -36t-49 -14h-386
v-186z" />
    <glyph glyph-name="Utilde" unicode="&#x168;" 
d="M867 1608q19 0 35 -12t16 -37t-28 -51l-94 -78q-16 -16 -38 -16l-15 2q-3 0 -5 2h-4l-196 72q-4 4 -11 4t-17 -8l-62 -56q-26 -18 -44 -18t-34 13t-16 39t28 48l92 76q14 18 38 18l26 -4l196 -72l10 -4q6 0 16 8l62 56q26 18 45 18zM994 1222q0 64 52 64t52 -66v-764
q0 -220 -130 -347t-334 -127t-334 126t-130 348v764q0 66 52 66t52 -64v-764q0 -176 94 -274t266 -98t266 98t94 274v764z" />
    <glyph glyph-name="utilde" unicode="&#x169;" horiz-adv-x="1288" 
d="M873 1254q19 0 35 -12t16 -37t-28 -51l-94 -78q-16 -16 -38 -16l-15 2q-3 0 -5 2h-4l-196 72q-4 4 -11 4t-17 -8l-62 -56q-26 -18 -44 -18t-34 13t-16 39t28 48l92 76q14 18 38 18l26 -4l196 -72l10 -4q6 0 16 8l62 56q26 18 45 18zM672 104q170 0 256 91t86 265v408
q0 68 52 68t52 -68v-812q0 -70 -48 -70q-56 0 -56 72v68q-118 -126 -342 -126h-58q-230 0 -337 71t-107 281v516q0 68 52 68t52 -68v-514q0 -86 17 -136t64 -75t102 -32t157 -7h58z" />
    <glyph glyph-name="Umacron" unicode="&#x16a;" 
d="M388 1412q-62 0 -62 53t62 53h490q68 0 68 -56q0 -22 -19 -36t-49 -14h-490zM994 1222q0 64 52 64t52 -66v-764q0 -220 -130 -347t-334 -127t-334 126t-130 348v764q0 66 52 66t52 -64v-764q0 -176 94 -274t266 -98t266 98t94 274v764z" />
    <glyph glyph-name="umacron" unicode="&#x16b;" horiz-adv-x="1288" 
d="M394 1058q-62 0 -62 53t62 53h490q68 0 68 -56q0 -22 -19 -36t-49 -14h-490zM672 104q170 0 256 91t86 265v408q0 68 52 68t52 -68v-812q0 -70 -48 -70q-56 0 -56 72v68q-118 -126 -342 -126h-58q-230 0 -337 71t-107 281v516q0 68 52 68t52 -68v-514q0 -86 17 -136
t64 -75t102 -32t157 -7h58z" />
    <glyph glyph-name="Ubreve" unicode="&#x16c;" 
d="M994 1222q0 64 52 64t52 -66v-764q0 -220 -130 -347t-334 -127t-334 126t-130 348v764q0 66 52 66t52 -64v-764q0 -176 94 -274t266 -98t266 98t94 274v764zM639 1272q-91 0 -165 71t-74 191h106q0 -86 41 -120t93 -34t93 34t41 120h106q0 -122 -75 -192t-166 -70z" />
    <glyph glyph-name="ubreve" unicode="&#x16d;" horiz-adv-x="1288" 
d="M641 1058q-91 0 -165 71t-74 191h106q0 -86 41 -120t93 -34t93 34t41 120h106q0 -122 -75 -192t-166 -70zM672 104q170 0 256 91t86 265v408q0 68 52 68t52 -68v-812q0 -70 -48 -70q-56 0 -56 72v68q-118 -126 -342 -126h-58q-230 0 -337 71t-107 281v516q0 68 52 68
t52 -68v-514q0 -86 17 -136t64 -75t102 -32t157 -7h58z" />
    <glyph glyph-name="Uring" unicode="&#x16e;" 
d="M994 1222q0 64 52 64t52 -66v-764q0 -220 -130 -347t-334 -127t-334 126t-130 348v764q0 66 52 66t52 -64v-764q0 -176 94 -274t266 -98t266 98t94 274v764zM646 1594q68 0 115 -47t47 -115t-47 -115t-115 -47t-115 47t-47 115t47 115t115 47zM558 1431q0 -35 26 -61
t61 -26t62 26t27 62t-27 62t-62 26t-61 -27t-26 -62z" />
    <glyph glyph-name="uring" unicode="&#x16f;" horiz-adv-x="1288" 
d="M672 104q170 0 256 91t86 265v408q0 68 52 68t52 -68v-812q0 -70 -48 -70q-56 0 -56 72v68q-118 -126 -342 -126h-58q-230 0 -337 71t-107 281v516q0 68 52 68t52 -68v-514q0 -86 17 -136t64 -75t102 -32t157 -7h58zM634 1358q68 0 115 -47t47 -115t-47 -115t-115 -47
t-115 47t-47 115t47 115t115 47zM546 1195q0 -35 26 -61t61 -26t62 26t27 62t-27 62t-62 26t-61 -27t-26 -62z" />
    <glyph glyph-name="Uhungarumlaut" unicode="&#x170;" 
d="M994 1222q0 64 52 64t52 -66v-764q0 -220 -130 -347t-334 -127t-334 126t-130 348v764q0 66 52 66t52 -64v-764q0 -176 94 -274t266 -98t266 98t94 274v764zM723 1262q-19 0 -36 15t-17 37t18 44l192 230q28 30 48 30t36 -15t16 -37t-18 -44l-192 -230q-28 -30 -47 -30z
M483 1262q-19 0 -36 15t-17 37t18 44l192 230q28 30 48 30t36 -15t16 -37t-18 -44l-192 -230q-28 -30 -47 -30z" />
    <glyph glyph-name="uhungarumlaut" unicode="&#x171;" horiz-adv-x="1288" 
d="M672 104q170 0 256 91t86 265v408q0 68 52 68t52 -68v-812q0 -70 -48 -70q-56 0 -56 72v68q-118 -126 -342 -126h-58q-230 0 -337 71t-107 281v516q0 68 52 68t52 -68v-514q0 -86 17 -136t64 -75t102 -32t157 -7h58zM719 1048q-19 0 -36 15t-17 37t18 44l192 230
q28 30 48 30t36 -15t16 -37t-18 -44l-192 -230q-28 -30 -47 -30zM479 1048q-19 0 -36 15t-17 37t18 44l192 230q28 30 48 30t36 -15t16 -37t-18 -44l-192 -230q-28 -30 -47 -30z" />
    <glyph glyph-name="Uogonek" unicode="&#x172;" 
d="M662 -310q32 0 76 17t56 17q30 0 30 -43t-54 -67t-120 -24t-121 58t-55 138t86 200q-176 24 -283 147t-107 323v764q0 66 52 66t52 -64v-764q0 -176 94 -274t266 -98t266 98t94 274v764q0 64 52 64t52 -66v-764q0 -206 -114 -331t-298 -141q-42 -36 -75 -98t-33 -88
q0 -108 84 -108z" />
    <glyph glyph-name="uogonek" unicode="&#x173;" horiz-adv-x="1288" 
d="M1056 -310q32 0 76 17t56 17q30 0 30 -43t-54 -67t-120 -24t-121 58t-55 150q0 50 48 129t98 135v64q-118 -126 -342 -126h-58q-230 0 -337 71t-107 281v516q0 68 52 68t52 -68v-514q0 -86 17 -136t64 -75t102 -32t157 -7h58q170 0 256 91t86 265v408q0 68 52 68t52 -68
v-812q0 -60 -34 -68q-44 -36 -78 -99t-34 -91q0 -108 84 -108z" />
    <glyph glyph-name="Wcircumflex" unicode="&#x174;" horiz-adv-x="1974" 
d="M1270 1338q0 -46 -46 -46q-20 0 -27 7t-17 19t-12 14l-182 192l-180 -192q-4 -4 -10 -12t-10 -11t-11 -10t-25 -7q-46 0 -46 46q0 20 12 36l210 264h118l214 -264q12 -16 12 -36zM1804 1298q44 0 44 -38q0 -12 -8 -36l-384 -1224h-116l-354 1106l-352 -1106h-114
l-386 1232q-8 24 -8 36q0 38 44 38t60 -44l348 -1118l350 1108q18 52 61 52t59 -52l352 -1108l344 1110q16 44 60 44z" />
    <glyph glyph-name="wcircumflex" unicode="&#x175;" horiz-adv-x="1674" 
d="M1120 1114q0 -46 -46 -46q-20 0 -27 7t-17 19t-12 14l-182 192l-180 -192q-4 -4 -10 -12t-10 -11t-11 -10t-25 -7q-46 0 -46 46q0 20 12 36l210 264h118l214 -264q12 -16 12 -36zM106 908q0 38 44 38t60 -44l280 -806l292 796q16 42 57 42t55 -42l280 -796l290 806
q16 44 60 44t44 -38q0 -12 -8 -36l-310 -872h-158l-254 748l-274 -748h-158l-292 872q-8 24 -8 36z" />
    <glyph glyph-name="Ycircumflex" unicode="&#x176;" horiz-adv-x="1230" 
d="M898 1338q0 -46 -46 -46q-20 0 -27 7t-17 19t-12 14l-182 192l-180 -192q-4 -4 -10 -12t-10 -11t-11 -10t-25 -7q-46 0 -46 46q0 20 12 36l210 264h118l214 -264q12 -16 12 -36zM130 1238q0 20 16 34t36 14t48 -36l386 -534l384 534q26 36 47 36t38 -15t17 -34t-16 -43
l-416 -578v-568q0 -62 -53 -62t-53 62v568l-418 578q-16 24 -16 44z" />
    <glyph glyph-name="ycircumflex" unicode="&#x177;" horiz-adv-x="1288" 
d="M926 1104q0 -46 -46 -46q-20 0 -27 7t-17 19t-12 14l-182 192l-180 -192q-4 -4 -10 -12t-10 -11t-11 -10t-25 -7q-46 0 -46 46q0 20 12 36l210 264h118l214 -264q12 -16 12 -36zM1118 -174q0 -130 -38 -183t-144 -53h-566q-130 0 -169 74q-31 59 -31 139q0 81 52 81
t52 -68t24 -95t86 -27h538q58 0 75 20t17 80v332q-118 -126 -342 -126h-58q-230 0 -337 71t-107 281v516q0 68 52 68t52 -68v-514q0 -86 17 -136t64 -75t102 -32t157 -7h58q170 0 256 91t86 265v408q0 68 52 68t52 -68v-1042z" />
    <glyph glyph-name="Ydieresis" unicode="&#x178;" horiz-adv-x="1230" 
d="M130 1238q0 20 16 34t36 14t48 -36l386 -534l384 534q26 36 47 36t38 -15t17 -34t-16 -43l-416 -578v-568q0 -62 -53 -62t-53 62v568l-418 578q-16 24 -16 44zM471 1568q33 0 68 -24t35 -58t-35 -58t-68 -24t-67 24t-34 58t34 58t67 24zM763 1568q33 0 68 -24t35 -58
t-35 -58t-68 -24t-67 24t-34 58t34 58t67 24z" />
    <glyph glyph-name="Zacute" unicode="&#x179;" 
d="M172 0v102l802 1086h-732q-72 0 -72 52t72 52h856v-106l-798 -1082h728q70 0 70 -52t-70 -52h-856zM608 1376q-22 0 -38 15t-16 35t26 50l138 136q24 26 48 26t38 -17t14 -35t-24 -46l-140 -138q-24 -26 -46 -26z" />
    <glyph glyph-name="zacute" unicode="&#x17a;" horiz-adv-x="1222" 
d="M838 104q72 0 92 36t20 113t52 77t52 -72q0 -140 -42 -199t-158 -59h-684v128l714 690h-500q-70 0 -90 -36t-20 -113t-52 -77t-52 72q0 142 42 200t158 58h642v-134l-708 -684h534zM615 1010q-19 0 -36 15t-17 37t18 44l192 230q28 30 48 30t36 -15t16 -37t-18 -44
l-192 -230q-28 -30 -47 -30z" />
    <glyph glyph-name="Zdotaccent" unicode="&#x17b;" 
d="M172 0v102l802 1086h-732q-72 0 -72 52t72 52h856v-106l-798 -1082h728q70 0 70 -52t-70 -52h-856zM613 1566q33 0 68 -24t35 -58t-35 -58t-68 -24t-67 24t-34 58t34 58t67 24z" />
    <glyph glyph-name="zdotaccent" unicode="&#x17c;" horiz-adv-x="1222" 
d="M838 104q72 0 92 36t20 113t52 77t52 -72q0 -140 -42 -199t-158 -59h-684v128l714 690h-500q-70 0 -90 -36t-20 -113t-52 -77t-52 72q0 142 42 200t158 58h642v-134l-708 -684h534zM597 1198q33 0 68 -24t35 -58t-35 -58t-68 -24t-67 24t-34 58t34 58t67 24z" />
    <glyph glyph-name="Zcaron" unicode="&#x17d;" 
d="M172 0v102l802 1086h-732q-72 0 -72 52t72 52h856v-106l-798 -1082h728q70 0 70 -52t-70 -52h-856zM364 1598q0 40 46 40q24 0 64 -34l168 -140l168 140q40 34 64 34q46 0 46 -40q0 -16 -14 -30l-208 -218h-112l-208 218q-14 14 -14 30z" />
    <glyph glyph-name="zcaron" unicode="&#x17e;" horiz-adv-x="1222" 
d="M304 1292q0 40 46 40q24 0 64 -34l168 -140l168 140q40 34 64 34q46 0 46 -40q0 -16 -14 -30l-208 -218h-112l-208 218q-14 14 -14 30zM838 104q72 0 92 36t20 113t52 77t52 -72q0 -140 -42 -199t-158 -59h-684v128l714 690h-500q-70 0 -90 -36t-20 -113t-52 -77t-52 72
q0 142 42 200t158 58h642v-134l-708 -684h534z" />
    <glyph glyph-name="florin" unicode="&#x192;" horiz-adv-x="856" 
d="M282 92q0 -186 -68 -244t-230 -58q-72 0 -72 52t72 52t104 5t54 34t25 72t3 141v674q-62 4 -62 51t62 51q4 221 122 286q118 64 324 64q72 0 72 -56q0 -48 -72 -48q-186 0 -259 -44t-75 -202h288q72 0 72 -56q0 -48 -72 -48h-288v-726z" />
    <glyph glyph-name="Ohorn" unicode="&#x1a0;" horiz-adv-x="1340" 
d="M634 -18q-204 0 -334 126t-130 348v360q0 222 130 348t334 126q122 0 222 -48t162 -138h80q64 0 101 38t37 103t52 65t52 -66q0 -100 -71 -171t-171 -71h-30q30 -84 30 -186v-360q0 -220 -130 -347t-334 -127zM634 1186q-172 0 -266 -98t-94 -274v-356q0 -176 94 -274
t266 -98t266 98t94 274v356q0 176 -94 274t-266 98z" />
    <glyph glyph-name="ohorn" unicode="&#x1a1;" horiz-adv-x="1388" 
d="M674 0h-58q-230 0 -338 71t-108 281v218q0 210 108 281t338 71h58q182 0 284 -41t138 -155h50q64 0 101 38t37 103t52 65t52 -66q0 -100 -71 -171t-171 -71h-30q2 -26 2 -54v-218q0 -210 -107 -281t-337 -71zM616 104h58q102 0 157 7t102 32t64 75t17 136v214
q0 86 -17 136t-64 75t-102 32t-157 7h-58q-102 0 -157 -7t-103 -32t-65 -75t-17 -136v-214q0 -86 17 -136t65 -75t103 -32t157 -7z" />
    <glyph glyph-name="Uhorn" unicode="&#x1af;" horiz-adv-x="1364" 
d="M994 1222q0 64 52 64t52 -66v-126h24q64 0 101 38t37 103t52 65t52 -66q0 -100 -71 -171t-171 -71h-24v-536q0 -220 -130 -347t-334 -127t-334 126t-130 348v764q0 66 52 66t52 -64v-764q0 -176 94 -274t266 -98t266 98t94 274v764z" />
    <glyph glyph-name="uhorn" unicode="&#x1b0;" horiz-adv-x="1390" 
d="M672 104q170 0 256 91t86 265v408q0 68 52 68t52 -68v-128h30q64 0 101 38t37 103t52 65t52 -66q0 -100 -71 -171t-171 -71h-30v-582q0 -70 -48 -70q-56 0 -56 72v68q-118 -126 -342 -126h-58q-230 0 -337 71t-107 281v516q0 68 52 68t52 -68v-514q0 -86 17 -136t64 -75
t102 -32t157 -7h58z" />
    <glyph glyph-name="Scommaaccent" unicode="&#x218;" horiz-adv-x="1232" 
d="M712 -155q0 -23 -10 -41l-82 -166q-20 -48 -50 -48q-44 0 -44 50q0 8 6 32l48 174q14 46 50 46q22 0 52 -12t30 -35zM274 963q0 -81 35 -138t85 -67l474 -102q134 -30 194 -124t60 -224t-79 -227t-261 -97h-166q-114 0 -188 13t-137 50q-121 71 -121 297q0 66 56 66
q50 0 50 -66q0 -166 71 -211t269 -45h204q106 0 152 72t46 162t-39 151t-81 71l-470 104q-140 30 -199 105t-59 210t82 230t272 95h152q114 0 187 -13t137 -49q122 -69 122 -294q0 -66 -53 -66t-53 66q0 166 -70 209t-270 43h-196q-108 0 -157 -70t-49 -151z" />
    <glyph glyph-name="scommaaccent" unicode="&#x219;" 
d="M720 -155q0 -23 -10 -41l-82 -166q-20 -48 -50 -48q-44 0 -44 50q0 8 6 32l48 174q14 46 50 46q22 0 52 -12t30 -35zM370 0q-129 0 -169 73q-31 57 -31 139t52 82t52 -67t23 -95t87 -28h496q118 0 118 148q0 74 -33 121t-85 47h-452q-258 0 -258 260q0 120 62 181t216 61
h450q130 0 169 -74q31 -59 31 -139q0 -81 -52 -81t-52 68t-24 95t-86 27h-492q-118 0 -118 -138q0 -76 33 -116t85 -40h454q140 0 198 -78t58 -198t-63 -184t-213 -64h-456z" />
    <glyph glyph-name="uni021A" unicode="&#x21a;" horiz-adv-x="1070" 
d="M628 -155q0 -23 -10 -41l-82 -166q-20 -48 -50 -48q-44 0 -44 50q0 8 6 32l48 174q14 46 50 46q22 0 52 -12t30 -35zM896 1292q66 0 66 -52t-66 -52h-304v-1138q0 -64 -58 -64q-52 0 -52 64v1138h-308q-66 0 -66 52t66 52h722z" />
    <glyph glyph-name="uni021B" unicode="&#x21b;" horiz-adv-x="774" 
d="M450 -155q0 -23 -10 -41l-82 -166q-20 -48 -50 -48q-44 0 -44 50q0 8 6 32l48 174q14 46 50 46q22 0 52 -12t30 -35zM264 354q0 -162 69 -206t253 -44q70 0 70 -48q0 -56 -70 -56q-216 0 -321 72t-105 280v468q-62 4 -62 54q0 44 62 48v208q0 72 48 72q56 0 56 -72v-208
h276q72 0 72 -56q0 -48 -72 -48h-276v-464z" />
    <glyph glyph-name="uni0237" unicode="&#x237;" horiz-adv-x="436" 
d="M268 0q0 -220 -119 -290q-61 -36 -131 -48t-176 -12q-72 0 -72 52t72 52q184 0 253 44t69 202v864q0 72 52 72t52 -72v-864z" />
    <glyph glyph-name="circumflex" unicode="&#x2c6;" horiz-adv-x="804" 
d="M686 1056q0 -46 -46 -46q-20 0 -27 7t-17 19t-12 14l-182 192l-180 -192q-4 -4 -10 -12t-10 -11t-11 -10t-25 -7q-46 0 -46 46q0 20 12 36l210 264h118l214 -264q12 -16 12 -36z" />
    <glyph glyph-name="caron" unicode="&#x2c7;" horiz-adv-x="746" 
d="M100 1292q0 40 46 40q24 0 64 -34l168 -140l168 140q40 34 64 34q46 0 46 -40q0 -16 -14 -30l-208 -218h-112l-208 218q-14 14 -14 30z" />
    <glyph glyph-name="breve" unicode="&#x2d8;" horiz-adv-x="852" 
d="M425 1202q-91 0 -165 71t-74 191h106q0 -86 41 -120t93 -34t93 34t41 120h106q0 -122 -75 -192t-166 -70z" />
    <glyph glyph-name="dotaccent" unicode="&#x2d9;" horiz-adv-x="442" 
d="M221 1342q33 0 68 -24t35 -58t-35 -58t-68 -24t-67 24t-34 58t34 58t67 24z" />
    <glyph glyph-name="ring" unicode="&#x2da;" horiz-adv-x="564" 
d="M282 1358q68 0 115 -47t47 -115t-47 -115t-115 -47t-115 47t-47 115t47 115t115 47zM194 1195q0 -35 26 -61t61 -26t62 26t27 62t-27 62t-62 26t-61 -27t-26 -62z" />
    <glyph glyph-name="ogonek" unicode="&#x2db;" horiz-adv-x="468" 
d="M268 -302q32 0 76 17t56 17q30 0 30 -43t-54 -67t-120 -24t-121 58t-55 150q0 54 55 142t105 136l76 -74q-50 -30 -91 -101t-41 -103q0 -108 84 -108z" />
    <glyph glyph-name="tilde" unicode="&#x2dc;" horiz-adv-x="802" 
d="M633 550q19 0 35 -12t16 -37t-28 -51l-94 -78q-16 -16 -38 -16l-15 2q-3 0 -5 2h-4l-196 72q-4 4 -11 4t-17 -8l-62 -56q-26 -18 -44 -18t-34 13t-16 39t28 48l92 76q14 18 38 18l26 -4l196 -72l10 -4q6 0 16 8l62 56q26 18 45 18z" />
    <glyph glyph-name="hungarumlaut" unicode="&#x2dd;" horiz-adv-x="666" 
d="M111 1010q-19 0 -36 15t-17 37t18 44l192 230q28 30 48 30t36 -15t16 -37t-18 -44l-192 -230q-28 -30 -47 -30zM351 1010q-19 0 -36 15t-17 37t18 44l192 230q28 30 48 30t36 -15t16 -37t-18 -44l-192 -230q-28 -30 -47 -30z" />
    <glyph glyph-name="gravecomb" unicode="&#x300;" horiz-adv-x="0" 
d="M-696 1272q22 0 46 -26l140 -138q24 -28 24 -47t-14 -35t-38 -16t-48 26l-138 136q-26 30 -26 48t16 35t38 17z" />
    <glyph glyph-name="acutecomb" unicode="&#x301;" horiz-adv-x="0" 
d="M-696 1010q-22 0 -38 15t-16 35t26 50l138 136q24 26 48 26t38 -17t14 -35t-24 -46l-140 -138q-24 -26 -46 -26z" />
    <glyph glyph-name="uni0302" unicode="&#x302;" horiz-adv-x="0" 
d="M-320 1056q0 -46 -46 -46q-20 0 -27 7t-17 19t-12 14l-182 192l-180 -192q-4 -4 -10 -12t-10 -11t-11 -10t-25 -7q-46 0 -46 46q0 20 12 36l210 264h118l214 -264q12 -16 12 -36z" />
    <glyph glyph-name="tildecomb" unicode="&#x303;" horiz-adv-x="0" 
d="M-359 1174q19 0 35 -12t16 -37t-28 -51l-94 -78q-16 -16 -38 -16l-15 2q-3 0 -5 2h-4l-196 72q-4 4 -11 4t-17 -8l-62 -56q-26 -18 -44 -18t-34 13t-16 39t28 48l92 76q14 18 38 18l26 -4l196 -72l10 -4q6 0 16 8l62 56q26 18 45 18z" />
    <glyph glyph-name="uni0304" unicode="&#x304;" horiz-adv-x="0" 
d="M-850 1024q-62 0 -62 53t62 53h490q68 0 68 -56q0 -22 -19 -36t-49 -14h-490z" />
    <glyph glyph-name="uni0306" unicode="&#x306;" horiz-adv-x="0" 
d="M-611 998q-91 0 -165 71t-74 191h106q0 -86 41 -120t93 -34t93 34t41 120h106q0 -122 -75 -192t-166 -70z" />
    <glyph glyph-name="uni0307" unicode="&#x307;" horiz-adv-x="0" 
d="M-615 1198q33 0 68 -24t35 -58t-35 -58t-68 -24t-67 24t-34 58t34 58t67 24z" />
    <glyph glyph-name="uni0308" unicode="&#x308;" horiz-adv-x="0" 
d="M-763 1174q33 0 68 -24t35 -58t-35 -58t-68 -24t-67 24t-34 58t34 58t67 24zM-471 1174q33 0 68 -24t35 -58t-35 -58t-68 -24t-67 24t-34 58t34 58t67 24z" />
    <glyph glyph-name="hookabovecomb" unicode="&#x309;" horiz-adv-x="0" 
d="M-526 1158q0 54 -108 54v82q86 0 140 -27t54 -109q0 -50 -29 -82t-71 -38v-56h-94v122q108 0 108 54z" />
    <glyph glyph-name="uni030A" unicode="&#x30a;" horiz-adv-x="0" 
d="M-614 1334q68 0 115 -47t47 -115t-47 -115t-115 -47t-115 47t-47 115t47 115t115 47zM-702 1171q0 -35 26 -61t61 -26t62 26t27 62t-27 62t-62 26t-61 -27t-26 -62z" />
    <glyph glyph-name="uni030B" unicode="&#x30b;" horiz-adv-x="0" 
d="M-776 1010q-22 0 -38 15t-16 35t26 50l138 136q24 26 48 26t38 -17t14 -35t-24 -46l-140 -138q-24 -26 -46 -26zM-576 1010q-22 0 -38 15t-16 35t26 50l138 136q24 26 48 26t38 -17t14 -35t-24 -46l-140 -138q-24 -26 -46 -26z" />
    <glyph glyph-name="uni030C" unicode="&#x30c;" horiz-adv-x="0" 
d="M-876 1292q0 40 46 40q24 0 64 -34l168 -140l168 140q40 34 64 34q46 0 46 -40q0 -16 -14 -30l-208 -218h-112l-208 218q-14 14 -14 30z" />
    <glyph glyph-name="commaturnedabovecmb" unicode="&#x312;" horiz-adv-x="0" 
d="M-534 1089q0 23 10 41l82 166q20 48 50 48q44 0 44 -50q0 -8 -6 -32l-48 -172q-14 -48 -50 -48q-22 0 -52 12t-30 35z" />
    <glyph glyph-name="uni031B" unicode="&#x31b;" horiz-adv-x="422" 
d="M-40 1002h-84v102h84q64 0 101 38t37 103t52 65t52 -66q0 -100 -71 -171t-171 -71z" />
    <glyph glyph-name="dotbelowcomb" unicode="&#x323;" horiz-adv-x="0" 
d="M-615 -114q33 0 68 -24t35 -58t-35 -58t-68 -24t-67 24t-34 58t34 58t67 24z" />
    <glyph glyph-name="uni0327" unicode="&#x327;" horiz-adv-x="0" 
d="M-484 -178q0 42 -26 68t-114 46v98h62v-50q86 -30 113 -65t27 -97q0 -120 -142 -120t-142 96q0 36 31 36t31 -35t80 -35t80 58z" />
    <glyph glyph-name="uni0328" unicode="&#x328;" horiz-adv-x="0" 
d="M-380 -302q32 0 76 17t56 17q30 0 30 -43t-54 -67t-120 -24t-121 58t-55 150q0 54 55 142t105 136l76 -74q-50 -30 -91 -101t-41 -103q0 -108 84 -108z" />
    <glyph glyph-name="uni0334" unicode="&#x334;" horiz-adv-x="802" 
d="M-303 550q27 0 49 -12t22 -34q0 -40 -81 -94t-134 -54t-172 40t-153 40t-83 -41t-75 -41t-47 12t-21 36q0 40 80 93t132 53t172 -40t154 -40t82 41t75 41z" />
    <glyph glyph-name="uni0335" unicode="&#x335;" horiz-adv-x="0" 
d="M-850 424q-62 0 -62 53t62 53h490q68 0 68 -56q0 -22 -19 -36t-49 -14h-490z" />
    <glyph glyph-name="uni0337" unicode="&#x337;" horiz-adv-x="0" 
d="M-366 561q0 -25 -50 -51l-340 -168q-16 -6 -37 -6t-33 18t-12 41t44 45l340 170q30 6 44 6t29 -15t15 -40z" />
    <glyph glyph-name="uni037A" unicode="&#x37a;" horiz-adv-x="532" 
d="M384 -358h-14q-116 0 -158 58t-42 200v78q0 60 52 60t52 -60v-114q0 -66 23 -92t90 -26t67 -52t-70 -52z" />
    <glyph glyph-name="questiongreek" unicode="&#x37e;" horiz-adv-x="462" 
d="M320 187q0 -23 -10 -41l-82 -166q-20 -48 -50 -48q-44 0 -44 50q0 8 6 32l48 174q14 46 50 46q22 0 52 -12t30 -35zM221 948q33 0 68 -24t35 -58t-35 -58t-68 -24t-67 24t-34 58t34 58t67 24z" />
    <glyph glyph-name="tonos" unicode="&#x384;" horiz-adv-x="498" 
d="M298 1296q50 0 50 -54q0 -14 -2 -22l-90 -314q-14 -70 -50 -70q-24 0 -40 20t-16 42t4 34l88 314q16 50 56 50z" />
    <glyph glyph-name="dieresistonos" unicode="&#x385;" horiz-adv-x="766" 
d="M197 1174q33 0 68 -24t35 -58t-35 -58t-68 -24t-67 24t-34 58t34 58t67 24zM489 1174q33 0 68 -24t35 -58t-35 -58t-68 -24t-67 24t-34 58t34 58t67 24zM454 1628q50 0 50 -54q0 -14 -2 -22l-90 -314q-14 -70 -50 -70q-24 0 -40 20t-16 42t4 34l88 314q16 50 56 50z" />
    <glyph glyph-name="Alphatonos" unicode="&#x386;" horiz-adv-x="1176" 
d="M568 1120l-232 -618h468zM100 -32q-16 0 -34 12t-18 32t6 38l462 1242h108l462 -1242q6 -18 6 -38t-18 -32t-34 -12q-34 0 -54 46l-142 384h-548l-142 -384q-20 -46 -54 -46zM358 1500q50 0 50 -54q0 -14 -2 -22l-90 -314q-14 -70 -50 -70q-24 0 -40 20t-16 42t4 34
l88 314q16 50 56 50z" />
    <glyph glyph-name="anoteleia" unicode="&#x387;" horiz-adv-x="462" 
d="M221 856q33 0 68 -24t35 -58t-35 -58t-68 -24t-67 24t-34 58t34 58t67 24z" />
    <glyph glyph-name="Epsilontonos" unicode="&#x388;" horiz-adv-x="1248" 
d="M274 664v-560h756q68 0 68 -56q0 -48 -68 -48h-812q-48 0 -48 72v1138q0 72 48 72h812q68 0 68 -56q0 -48 -68 -48h-756v-410h518q72 0 72 -56q0 -48 -72 -48h-518zM102 1500q50 0 50 -54q0 -14 -2 -22l-90 -314q-14 -70 -50 -70q-24 0 -40 20t-16 42t4 34l88 314
q16 50 56 50z" />
    <glyph glyph-name="Etatonos" unicode="&#x389;" horiz-adv-x="1248" 
d="M274 54q0 -68 -52 -68t-52 68v1162q0 70 48 70q56 0 56 -70v-478h720v478q0 70 52 70t52 -70v-1162q0 -68 -52 -68t-52 68v580h-720v-580zM94 1492q50 0 50 -54q0 -14 -2 -22l-90 -314q-14 -70 -50 -70q-24 0 -40 20t-16 42t4 34l88 314q16 50 56 50z" />
    <glyph glyph-name="Iotatonos" unicode="&#x38a;" horiz-adv-x="442" 
d="M274 50q0 -64 -52 -64t-52 64v1170q0 66 52 66t52 -66v-1170zM86 1500q50 0 50 -54q0 -14 -2 -22l-90 -314q-14 -70 -50 -70q-24 0 -40 20t-16 42t4 34l88 314q16 50 56 50z" />
    <glyph glyph-name="Omicrontonos" unicode="&#x38c;" horiz-adv-x="1248" 
d="M634 1186q-172 0 -266 -98t-94 -274v-356q0 -176 94 -274t266 -98t266 98t94 274v356q0 176 -94 274t-266 98zM634 -18q-204 0 -334 126t-130 348v360q0 222 130 348t334 126t334 -127t130 -347v-360q0 -220 -130 -347t-334 -127zM190 1500q50 0 50 -54q0 -14 -2 -22
l-90 -314q-14 -70 -50 -70q-24 0 -40 20t-16 42t4 34l88 314q16 50 56 50z" />
    <glyph glyph-name="Upsilontonos" unicode="&#x38e;" horiz-adv-x="1210" 
d="M130 1238q0 20 16 34t36 14t48 -36l386 -534l384 534q26 36 47 36t38 -15t17 -34t-16 -43l-416 -578v-568q0 -62 -53 -62t-53 62v568l-418 578q-16 24 -16 44zM70 1492q50 0 50 -54q0 -14 -2 -22l-90 -314q-14 -70 -50 -70q-24 0 -40 20t-16 42t4 34l88 314q16 50 56 50z
" />
    <glyph glyph-name="Omegatonos" unicode="&#x38f;" 
d="M274 652q0 -296 266 -364v-90q0 -138 -31 -168t-155 -30h-114q-70 0 -70 52t70 52h100q66 0 79 9t13 55v52q-122 52 -192 163t-70 271v162q0 222 130 348t334 126t334 -127t130 -347v-162q0 -160 -70 -271t-192 -163v-54q0 -46 12 -54t80 -8h100q70 0 70 -52t-70 -52
h-114q-124 0 -155 30t-31 168v92q266 60 266 362v162q0 174 -95 273t-265 99t-265 -99t-95 -273v-162zM206 1500q50 0 50 -54q0 -14 -2 -22l-90 -314q-14 -70 -50 -70q-24 0 -40 20t-16 42t4 34l88 314q16 50 56 50z" />
    <glyph glyph-name="iotadieresistonos" unicode="&#x390;" horiz-adv-x="532" 
d="M75 1186q33 0 68 -24t35 -58t-35 -58t-68 -24t-67 24t-34 58t34 58t67 24zM367 1186q33 0 68 -24t35 -58t-35 -58t-68 -24t-67 24t-34 58t34 58t67 24zM332 1640q50 0 50 -54q0 -14 -2 -22l-90 -314q-14 -70 -50 -70q-24 0 -40 20t-16 42t4 34l88 314q16 50 56 50zM384 0
h-14q-116 0 -158 56t-42 196v616q0 68 52 68t52 -68v-648q0 -64 23 -90t90 -26t67 -52t-70 -52z" />
    <glyph glyph-name="Alpha" unicode="&#x391;" horiz-adv-x="1176" 
d="M568 1120l-232 -618h468zM100 -32q-16 0 -34 12t-18 32t6 38l462 1242h108l462 -1242q6 -18 6 -38t-18 -32t-34 -12q-34 0 -54 46l-142 384h-548l-142 -384q-20 -46 -54 -46z" />
    <glyph glyph-name="Beta" unicode="&#x392;" horiz-adv-x="1248" 
d="M578 768q186 0 259 40t73 166t-75 165t-257 39h-304v-410h304zM170 72v1148q0 72 48 72h360q218 0 327 -66t109 -236t-98 -242q92 -34 137 -111t45 -219v-58q0 -216 -107 -288t-337 -72h-436q-48 0 -48 72zM274 664v-560h380q196 0 268 45t72 207v56q0 162 -70 207
t-258 45h-392z" />
    <glyph glyph-name="Gamma" unicode="&#x393;" horiz-adv-x="1220" 
d="M384 1168q-64 0 -87 -27t-23 -91v-996q0 -68 -52 -68t-52 68v964q0 140 42 197t158 57h630q70 0 70 -52t-70 -52h-616z" />
    <glyph glyph-name="Delta" unicode="&#x394;" horiz-adv-x="1156" 
d="M174 106h752l-376 1002zM998 0h-896q-24 0 -39 14t-15 32t6 34l438 1162q16 46 58 46t58 -46l438 -1162q6 -16 6 -34t-15 -32t-39 -14z" />
    <glyph glyph-name="Epsilon" unicode="&#x395;" horiz-adv-x="1248" 
d="M274 664v-560h756q68 0 68 -56q0 -48 -68 -48h-812q-48 0 -48 72v1138q0 72 48 72h812q68 0 68 -56q0 -48 -68 -48h-756v-410h518q72 0 72 -56q0 -48 -72 -48h-518z" />
    <glyph glyph-name="Zeta" unicode="&#x396;" horiz-adv-x="1248" 
d="M172 0v102l802 1086h-732q-72 0 -72 52t72 52h856v-106l-798 -1082h728q70 0 70 -52t-70 -52h-856z" />
    <glyph glyph-name="Eta" unicode="&#x397;" horiz-adv-x="1248" 
d="M274 54q0 -68 -52 -68t-52 68v1162q0 70 48 70q56 0 56 -70v-478h720v478q0 70 52 70t52 -70v-1162q0 -68 -52 -68t-52 68v580h-720v-580z" />
    <glyph glyph-name="Theta" unicode="&#x398;" 
d="M634 1186q-172 0 -266 -98t-94 -274v-356q0 -176 94 -274t266 -98t266 98t94 274v356q0 176 -94 274t-266 98zM634 -18q-204 0 -334 126t-130 348v360q0 222 130 348t334 126t334 -127t130 -347v-360q0 -220 -130 -347t-334 -127zM458 582q-32 0 -48 16t-16 38
q0 52 64 52h346q70 0 70 -52q0 -24 -20 -39t-50 -15h-346z" />
    <glyph glyph-name="Iota" unicode="&#x399;" horiz-adv-x="442" 
d="M274 50q0 -64 -52 -64t-52 64v1170q0 66 52 66t52 -66v-1170z" />
    <glyph glyph-name="Kappa" unicode="&#x39a;" horiz-adv-x="1138" 
d="M1030 36q0 -20 -17 -35t-39 -15t-46 30l-548 628l-106 -128v-466q0 -64 -52 -64t-52 64v1170q0 66 52 66t52 -66v-560l522 596q22 30 44 30t39 -14t17 -35t-20 -47l-426 -478l558 -630q22 -26 22 -46z" />
    <glyph glyph-name="Lambda" unicode="&#x39b;" horiz-adv-x="1196" 
d="M48 9q0 15 6 35l462 1228h108l462 -1228q6 -20 6 -35t-14 -28t-43 -13t-49 40l-418 1110l-414 -1110q-16 -40 -47 -40t-45 13t-14 28z" />
    <glyph glyph-name="Mu" unicode="&#x39c;" horiz-adv-x="1288" 
d="M655 558q-23 0 -35 16l-346 516v-1034q0 -70 -52 -70t-52 68v1162q0 70 48 70q36 0 60 -38l376 -556l378 556q26 38 58 38q50 0 50 -70v-1162q0 -68 -52 -68t-52 70v1034l-346 -516q-12 -16 -35 -16z" />
    <glyph glyph-name="Nu" unicode="&#x39d;" horiz-adv-x="1248" 
d="M1048 -14q-28 0 -40 14l-734 1086v-1034q0 -66 -52 -66t-52 68v1162q0 70 48 70q36 0 60 -38l716 -1056v1022q0 72 52 72t52 -70v-1162q0 -68 -50 -68z" />
    <glyph glyph-name="Xi" unicode="&#x39e;" 
d="M192 0q-62 0 -62 52t62 52h880q68 0 68 -56q0 -48 -68 -48h-880zM192 1190q-62 0 -62 52t62 52h880q68 0 68 -56q0 -48 -68 -48h-880zM428 582q-32 0 -48 16t-16 38q0 52 64 52h406q70 0 70 -52q0 -24 -20 -39t-50 -15h-406z" />
    <glyph glyph-name="Omicron" unicode="&#x39f;" horiz-adv-x="1248" 
d="M634 1186q-172 0 -266 -98t-94 -274v-356q0 -176 94 -274t266 -98t266 98t94 274v356q0 176 -94 274t-266 98zM634 -18q-204 0 -334 126t-130 348v360q0 222 130 348t334 126t334 -127t130 -347v-360q0 -220 -130 -347t-334 -127z" />
    <glyph glyph-name="Pi" unicode="&#x3a0;" horiz-adv-x="1220" 
d="M166 1272h908v-1218q0 -68 -52 -68t-52 68v1114h-700v-1114q0 -68 -52 -68t-52 68v1218z" />
    <glyph glyph-name="Rho" unicode="&#x3a1;" horiz-adv-x="1120" 
d="M580 768q184 0 257 40t73 166t-74 165t-256 39h-306v-410h306zM274 50q0 -64 -52 -64t-52 64v1160q0 72 48 72h362q216 0 325 -66t109 -230t-91 -243t-255 -79h-394v-614z" />
    <glyph glyph-name="Sigma" unicode="&#x3a3;" 
d="M130 1244q0 50 62 50h880q68 0 68 -56q0 -48 -68 -48h-778l446 -500q22 -28 22 -46t-20 -42l-448 -498h778q68 0 68 -56q0 -48 -68 -48h-892q-20 0 -35 14t-15 36t20 46l486 550l-486 552q-20 20 -20 46z" />
    <glyph glyph-name="Tau" unicode="&#x3a4;" horiz-adv-x="1050" 
d="M896 1292q66 0 66 -52t-66 -52h-304v-1138q0 -64 -58 -64q-52 0 -52 64v1138h-308q-66 0 -66 52t66 52h722z" />
    <glyph glyph-name="Upsilon" unicode="&#x3a5;" horiz-adv-x="1210" 
d="M130 1238q0 20 16 34t36 14t48 -36l386 -534l384 534q26 36 47 36t38 -15t17 -34t-16 -43l-416 -578v-568q0 -62 -53 -62t-53 62v568l-418 578q-16 24 -16 44z" />
    <glyph glyph-name="Phi" unicode="&#x3a6;" horiz-adv-x="1248" 
d="M274 624q0 -166 81 -264t229 -112v776q-148 -14 -229 -113t-81 -263v-24zM994 624v24q0 160 -79 259t-223 115v-772q144 14 223 113t79 261zM692 50q0 -64 -54 -64t-54 64v102q-186 16 -300 140t-114 332v24q0 208 114 332t300 140v100q0 66 54 66t54 -66v-100
q182 -18 294 -142t112 -330v-24q0 -206 -112 -330t-294 -142v-102z" />
    <glyph glyph-name="Chi" unicode="&#x3a7;" horiz-adv-x="1292" 
d="M1089 1286q19 0 37 -12t18 -38t-16 -44l-406 -558l406 -556q16 -22 16 -44t-17 -35t-39 -13t-46 32l-386 536l-384 -536q-24 -32 -47 -32t-39 14t-16 35t16 43l406 556l-406 558q-16 18 -16 44t18 38t38 12t46 -36l384 -534l386 534q28 36 47 36z" />
    <glyph glyph-name="Psi" unicode="&#x3a8;" 
d="M994 1220q0 66 52 66t52 -66v-306q0 -206 -113 -330t-295 -142v-392q0 -64 -54 -64t-54 64v392q-186 16 -299 140t-113 332v306q0 66 52 66t52 -66v-312q0 -164 80 -262t228 -114v688q0 66 54 66t54 -66v-686q146 14 225 112t79 262v312z" />
    <glyph glyph-name="Omega" unicode="&#x3a9;" 
d="M274 652q0 -296 266 -364v-90q0 -138 -31 -168t-155 -30h-114q-70 0 -70 52t70 52h100q66 0 79 9t13 55v52q-122 52 -192 163t-70 271v162q0 222 130 348t334 126t334 -127t130 -347v-162q0 -160 -70 -271t-192 -163v-54q0 -46 12 -54t80 -8h100q70 0 70 -52t-70 -52
h-114q-124 0 -155 30t-31 168v92q266 60 266 362v162q0 174 -95 273t-265 99t-265 -99t-95 -273v-162z" />
    <glyph glyph-name="Iotadieresis" unicode="&#x3aa;" horiz-adv-x="442" 
d="M274 50q0 -64 -52 -64t-52 64v1170q0 66 52 66t52 -66v-1170zM77 1568q33 0 68 -24t35 -58t-35 -58t-68 -24t-67 24t-34 58t34 58t67 24zM369 1568q33 0 68 -24t35 -58t-35 -58t-68 -24t-67 24t-34 58t34 58t67 24z" />
    <glyph glyph-name="Upsilondieresis" unicode="&#x3ab;" horiz-adv-x="1210" 
d="M130 1238q0 20 16 34t36 14t48 -36l386 -534l384 534q26 36 47 36t38 -15t17 -34t-16 -43l-416 -578v-568q0 -62 -53 -62t-53 62v568l-418 578q-16 24 -16 44zM471 1568q33 0 68 -24t35 -58t-35 -58t-68 -24t-67 24t-34 58t34 58t67 24zM763 1568q33 0 68 -24t35 -58
t-35 -58t-68 -24t-67 24t-34 58t34 58t67 24z" />
    <glyph glyph-name="alphatonos" unicode="&#x3ac;" horiz-adv-x="1302" 
d="M566 818q-170 0 -233 -59t-63 -229v-138q0 -170 63 -229t233 -59q304 0 304 288v138q0 288 -304 288zM1086 0h-14q-82 0 -126 28t-62 92q-110 -120 -317 -120t-304 88t-97 304v138q0 216 97 304t296 88t311 -106v50q0 70 53 70t53 -68v-648q0 -64 23 -90t90 -26t67 -52
t-70 -52zM662 1498q50 0 50 -54q0 -14 -2 -22l-90 -314q-14 -70 -50 -70q-24 0 -40 20t-16 42t4 34l88 314q16 50 56 50z" />
    <glyph glyph-name="epsilontonos" unicode="&#x3ad;" horiz-adv-x="1288" 
d="M682 424h-172q-236 0 -236 -196q0 -124 244 -124h246q58 0 123 18q127 35 127 136q0 70 52 70t52 -70q0 -134 -97 -196t-243 -62h-274q-144 0 -239 60t-95 200t118 214q-118 52 -118 190t95 198t239 60h274q146 0 243 -62t97 -196q0 -70 -52 -70t-52 60q0 111 -107 141
q-83 23 -143 23h-246q-246 0 -246 -124q0 -96 54 -131t184 -35h172q72 0 72 -56q0 -48 -72 -48zM700 1484q50 0 50 -54q0 -14 -2 -22l-90 -314q-14 -70 -50 -70q-24 0 -40 20t-16 42t4 34l88 314q16 50 56 50z" />
    <glyph glyph-name="etatonos" unicode="&#x3ae;" horiz-adv-x="1288" 
d="M616 818q-170 0 -256 -91t-86 -265v-408q0 -68 -52 -68t-52 68v812q0 70 48 70q56 0 56 -72v-68q118 126 342 126h58q230 0 337 -71t107 -283v-908q0 -70 -52 -70t-52 70v906q0 162 -72 207t-268 45h-58zM754 1498q50 0 50 -54q0 -14 -2 -22l-90 -314q-14 -70 -50 -70
q-24 0 -40 20t-16 42t4 34l88 314q16 50 56 50z" />
    <glyph glyph-name="iotatonos" unicode="&#x3af;" horiz-adv-x="532" 
d="M384 0h-14q-116 0 -158 56t-42 196v616q0 68 52 68t52 -68v-648q0 -64 23 -90t90 -26t67 -52t-70 -52zM338 1498q50 0 50 -54q0 -14 -2 -22l-90 -314q-14 -70 -50 -70q-24 0 -40 20t-16 42t4 34l88 314q16 50 56 50z" />
    <glyph glyph-name="upsilondieresistonos" unicode="&#x3b0;" 
d="M485 1222q33 0 68 -24t35 -58t-35 -58t-68 -24t-67 24t-34 58t34 58t67 24zM777 1222q33 0 68 -24t35 -58t-35 -58t-68 -24t-67 24t-34 58t34 58t67 24zM742 1676q50 0 50 -54q0 -14 -2 -22l-90 -314q-14 -70 -50 -70q-24 0 -40 20t-16 42t4 34l88 314q16 50 56 50z
M672 0h-56q-230 0 -338 71t-108 281v516q0 68 52 68t52 -68v-514q0 -162 72 -206t270 -44h56q194 0 258 44t64 206v514q0 68 52 68t52 -68v-516q0 -212 -99 -282t-327 -70z" />
    <glyph glyph-name="alpha" unicode="&#x3b1;" horiz-adv-x="1302" 
d="M566 818q-170 0 -233 -59t-63 -229v-138q0 -170 63 -229t233 -59q304 0 304 288v138q0 288 -304 288zM1086 0h-14q-82 0 -126 28t-62 92q-110 -120 -317 -120t-304 88t-97 304v138q0 216 97 304t296 88t311 -106v50q0 70 53 70t53 -68v-648q0 -64 23 -90t90 -26t67 -52
t-70 -52z" />
    <glyph glyph-name="beta" unicode="&#x3b2;" horiz-adv-x="1122" 
d="M336 922v-674q134 -162 276 -162q42 0 71 5t75 28q96 48 96 241q0 128 -86 210t-292 82v102q288 0 288 234q0 84 -63 132t-163 48t-151 -45t-51 -201zM336 -222q0 -72 -56 -72q-48 0 -48 72v1144q2 204 91 277t229 73t228 -80t88 -208q0 -178 -146 -274q94 -28 151 -98
t71 -130t14 -124q0 -372 -342 -372q-168 0 -280 108v-316z" />
    <glyph glyph-name="gamma" unicode="&#x3b3;" 
d="M174 818q-66 0 -66 52t66 52q118 0 171 -101q71 -136 243 -729l366 802q22 42 48 42t41 -13t15 -28t-6 -29l-420 -918v-242q0 -70 -58 -70q-50 0 -50 70v240q-162 534 -227 703t-123 169z" />
    <glyph glyph-name="delta" unicode="&#x3b4;" 
d="M646 92q172 0 262 87t90 252t-91 276t-251 111q-196 0 -317 -153q-67 -85 -67 -219t101 -244t273 -110zM266 1222q0 52 62 52h646q68 0 68 -56q0 -50 -68 -50h-406q536 -200 536 -758q0 -196 -126 -310t-338 -114q-118 0 -212 44t-149 117t-84 157t-29 172t32 164
q56 134 190 208t245 74t183 -30q-112 126 -340 212l-178 68q-32 14 -32 50z" />
    <glyph glyph-name="epsilon" unicode="&#x3b5;" horiz-adv-x="1288" 
d="M682 424h-172q-236 0 -236 -196q0 -124 244 -124h246q58 0 123 18q127 35 127 136q0 70 52 70t52 -70q0 -134 -97 -196t-243 -62h-274q-144 0 -239 60t-95 200t118 214q-118 52 -118 190t95 198t239 60h274q146 0 243 -62t97 -196q0 -70 -52 -70t-52 60q0 111 -107 141
q-83 23 -143 23h-246q-246 0 -246 -124q0 -96 54 -131t184 -35h172q72 0 72 -56q0 -48 -72 -48z" />
    <glyph glyph-name="zeta" unicode="&#x3b6;" 
d="M620 -14q-200 0 -327 114t-127 310q0 556 540 758h-410q-68 0 -68 50q0 56 68 56h646q62 0 62 -50t-32 -62q-8 -4 -75 -27t-105 -38t-112 -52t-121 -72q-142 -106 -202 -215q-85 -155 -85 -323q0 -167 91 -255t263 -88t244 -17t103 -44q71 -62 71 -195q0 -80 -51 -137
t-99 -57q-20 0 -33 16t-13 38t46 58t46 74q0 104 -60 131t-260 27z" />
    <glyph glyph-name="eta" unicode="&#x3b7;" horiz-adv-x="1288" 
d="M616 818q-170 0 -256 -91t-86 -265v-408q0 -68 -52 -68t-52 68v812q0 70 48 70q56 0 56 -72v-68q118 126 342 126h58q230 0 337 -71t107 -283v-908q0 -70 -52 -70t-52 70v906q0 162 -72 207t-268 45h-58z" />
    <glyph glyph-name="theta" unicode="&#x3b8;" horiz-adv-x="1128" 
d="M854 456v126h-580v-126q0 -370 290 -370t290 370zM564 -18q-394 0 -394 474v360q0 474 394 474q196 0 295 -122t99 -352v-360q0 -230 -99 -352t-295 -122zM564 1186q-290 0 -290 -370v-128h580v128q0 370 -290 370z" />
    <glyph glyph-name="iota" unicode="&#x3b9;" horiz-adv-x="532" 
d="M384 0h-14q-116 0 -158 56t-42 196v616q0 68 52 68t52 -68v-648q0 -64 23 -90t90 -26t67 -52t-70 -52z" />
    <glyph glyph-name="kappa" unicode="&#x3ba;" horiz-adv-x="1048" 
d="M878 42q0 -22 -14 -39t-36 -17t-44 18l-510 410v-366q0 -62 -52 -62t-52 62v824q0 64 52 64t52 -64v-358l508 408q24 20 46 20t36 -18t14 -40t-30 -42l-480 -378l482 -380q28 -20 28 -42z" />
    <glyph glyph-name="lambda" unicode="&#x3bb;" horiz-adv-x="1414" 
d="M218 -14q-18 0 -33 13t-15 27t6 30l406 892l-42 102q-24 54 -68 86t-88 32q-68 0 -68 50q0 56 72 56t137 -42t95 -114l406 -908q22 -52 64 -84t86 -32q68 0 68 -50q0 -56 -71 -56t-135 42t-94 114l-302 692l-368 -808q-18 -42 -56 -42z" />
    <glyph glyph-name="mu" unicode="&#x3bc;" horiz-adv-x="1190" 
d="M908 456v420q0 70 52 70t52 -70v-828q0 -72 -52 -72t-52 72v68q-118 -126 -322 -126t-322 126v-454q0 -72 -56 -72q-48 0 -48 72v1214q0 70 52 70t52 -70v-420q0 -176 83 -269t238 -93t239 93t84 269z" />
    <glyph glyph-name="nu" unicode="&#x3bd;" horiz-adv-x="1166" 
d="M985 946q43 0 43 -40q0 -16 -8 -34l-388 -882h-140l-364 882q-8 18 -8 32q0 42 48 42q36 0 56 -44l344 -800l356 802q18 42 61 42z" />
    <glyph glyph-name="xi" unicode="&#x3be;" horiz-adv-x="1244" 
d="M679 92q71 0 125 -3q146 -8 210 -64t64 -189q0 -80 -51 -137t-99 -57q-20 0 -33 16t-13 38t46 58t46 74q0 104 -60 131t-193 27t-191 6t-123 28t-106 59t-69 105t-28 158t44 180t96 128q-52 30 -96 113t-44 171q0 150 122 234h-98q-62 0 -62 52t62 52h642q68 0 68 -52
t-68 -52q-564 0 -564 -234q0 -106 59 -163t165 -57h180q76 0 76 -56q0 -46 -76 -46h-180q-98 0 -160 -87t-62 -182t38 -145t100 -71t112 -28t121 -7z" />
    <glyph glyph-name="omicron" unicode="&#x3bf;" horiz-adv-x="1248" 
d="M616 104h58q102 0 157 7t102 32t64 75t17 136v214q0 86 -17 136t-64 75t-102 32t-157 7h-58q-102 0 -157 -7t-103 -32t-65 -75t-17 -136v-214q0 -86 17 -136t65 -75t103 -32t157 -7zM674 0h-58q-230 0 -338 71t-108 281v218q0 210 108 281t338 71h58q230 0 337 -71
t107 -281v-218q0 -210 -107 -281t-337 -71z" />
    <glyph glyph-name="pi" unicode="&#x3c0;" 
d="M886 818h-578v-764q0 -68 -52 -68t-52 68v764h-30q-66 0 -66 52t66 52h848q66 0 66 -52t-66 -52h-30v-600q0 -64 23 -89t90 -25t67 -52t-70 -52h-16q-116 0 -158 56t-42 196v566z" />
    <glyph glyph-name="rho" unicode="&#x3c1;" horiz-adv-x="1288" 
d="M616 922h58q230 0 337 -71t107 -281v-218q0 -210 -107 -281t-335 -71h-402v-294q0 -70 -56 -70q-48 0 -48 70v724q0 492 446 492zM1014 568q0 86 -17 136t-64 75t-102 32t-157 7h-58q-342 0 -342 -354v-360h402q196 0 267 44t71 206v214z" />
    <glyph glyph-name="sigma1" unicode="&#x3c2;" 
d="M338 458q0 -366 286 -366q279 0 349 -61q71 -61 71 -195q0 -80 -51 -137t-99 -57q-20 0 -33 16t-13 38t46 58t46 74q0 104 -61 131t-255 27t-293 129t-99 344t188 346t554 131q68 0 68 -50q0 -56 -68 -56q-372 0 -514 -123q-122 -105 -122 -249z" />
    <glyph glyph-name="sigma" unicode="&#x3c3;" horiz-adv-x="1352" 
d="M616 818q-102 0 -157 -7t-103 -32t-65 -75t-17 -136v-214q0 -86 17 -136t65 -75t103 -32t157 -7h58q190 0 255 43t65 207v150q0 152 -94 233t-270 81h-14zM1152 922q70 0 70 -52t-70 -52h-180q126 -114 126 -314v-152q0 -212 -100 -282t-324 -70h-58q-230 0 -338 71
t-108 281v218q0 210 108 281t338 71h536z" />
    <glyph glyph-name="tau" unicode="&#x3c4;" horiz-adv-x="1070" 
d="M592 218q0 -64 24 -89t82 -25t79 -11t21 -43q0 -50 -90 -50h-16q-122 0 -166 56t-44 196v566h-308q-66 0 -66 52t66 52h722q66 0 66 -52t-66 -52h-304v-600z" />
    <glyph glyph-name="upsilon" unicode="&#x3c5;" 
d="M672 0h-56q-230 0 -338 71t-108 281v516q0 68 52 68t52 -68v-514q0 -162 72 -206t270 -44h56q194 0 258 44t64 206v514q0 68 52 68t52 -68v-516q0 -212 -99 -282t-327 -70z" />
    <glyph glyph-name="phi" unicode="&#x3c6;" horiz-adv-x="1216" 
d="M834 818q-100 0 -137 -83t-37 -281v-370q100 0 153 6t103 31t70 78t20 141v222q0 172 -45 217q-25 25 -52 32t-75 7zM1110 570v-218q0 -94 -27 -162t-66 -104q-93 -86 -357 -86v-294q0 -70 -54 -70t-54 70v294q-216 4 -331 78t-115 274v262q0 132 59 220t199 88
q74 0 74 -52t-74 -52h-36q-58 0 -88 -64t-30 -160v-254q0 -156 80 -205t262 -51v338q0 228 16 284q35 124 94 170q58 46 183 46t195 -71t70 -281z" />
    <glyph glyph-name="chi" unicode="&#x3c7;" horiz-adv-x="1414" 
d="M1102 936q22 0 40 -15t18 -34t-14 -41l-318 -530l198 -442q22 -54 64 -86t86 -32q68 0 68 -50q0 -56 -71 -56t-135 42t-94 114l-182 410l-318 -534q-18 -38 -42 -38q-62 0 -62 50q0 20 14 40l354 594l-174 386q-22 52 -64 84t-86 32q-68 0 -68 50q0 56 71 56t135 -42
t94 -114l158 -356l282 474q24 38 46 38z" />
    <glyph glyph-name="psi" unicode="&#x3c8;" 
d="M994 870q0 66 52 66t52 -64v-416q0 -204 -113 -329t-295 -141v-202q0 -64 -54 -64t-54 64v202q-184 16 -298 140t-114 330v416q0 64 52 64t52 -66v-424q0 -164 80 -262t228 -114v1052q0 66 54 66t54 -66v-1050q146 14 225 112t79 262v424z" />
    <glyph glyph-name="omega" unicode="&#x3c9;" horiz-adv-x="1334" 
d="M440 -14q-150 0 -232 93t-82 215v330q0 128 63 220t195 92q72 0 72 -52t-72 -52q-48 0 -82 -28t-53 -85t-19 -111v-298q0 -102 50 -161t120 -59q208 0 208 218v202q0 70 59 70t59 -70v-202q0 -218 208 -218q70 0 120 59t50 161v298q0 54 -19 111q-38 113 -135 113
q-72 0 -72 52t72 52q132 0 195 -92t63 -220v-330q0 -122 -82 -215t-231 -93t-227 122q-78 -122 -228 -122z" />
    <glyph glyph-name="iotadieresis" unicode="&#x3ca;" horiz-adv-x="532" 
d="M384 0h-14q-116 0 -158 56t-42 196v616q0 68 52 68t52 -68v-648q0 -64 23 -90t90 -26t67 -52t-70 -52zM75 1212q33 0 68 -24t35 -58t-35 -58t-68 -24t-67 24t-34 58t34 58t67 24zM367 1212q33 0 68 -24t35 -58t-35 -58t-68 -24t-67 24t-34 58t34 58t67 24z" />
    <glyph glyph-name="upsilondieresis" unicode="&#x3cb;" 
d="M485 1222q33 0 68 -24t35 -58t-35 -58t-68 -24t-67 24t-34 58t34 58t67 24zM777 1222q33 0 68 -24t35 -58t-35 -58t-68 -24t-67 24t-34 58t34 58t67 24zM672 0h-56q-230 0 -338 71t-108 281v516q0 68 52 68t52 -68v-514q0 -162 72 -206t270 -44h56q194 0 258 44t64 206
v514q0 68 52 68t52 -68v-516q0 -212 -99 -282t-327 -70z" />
    <glyph glyph-name="omicrontonos" unicode="&#x3cc;" horiz-adv-x="1248" 
d="M694 1504q50 0 50 -54q0 -14 -2 -22l-90 -314q-14 -70 -50 -70q-24 0 -40 20t-16 42t4 34l88 314q16 50 56 50zM616 104h58q102 0 157 7t102 32t64 75t17 136v214q0 86 -17 136t-64 75t-102 32t-157 7h-58q-102 0 -157 -7t-103 -32t-65 -75t-17 -136v-214q0 -86 17 -136
t65 -75t103 -32t157 -7zM674 0h-58q-230 0 -338 71t-108 281v218q0 210 108 281t338 71h58q230 0 337 -71t107 -281v-218q0 -210 -107 -281t-337 -71z" />
    <glyph glyph-name="upsilontonos" unicode="&#x3cd;" 
d="M682 1518q50 0 50 -54q0 -14 -2 -22l-90 -314q-14 -70 -50 -70q-24 0 -40 20t-16 42t4 34l88 314q16 50 56 50zM672 0h-56q-230 0 -338 71t-108 281v516q0 68 52 68t52 -68v-514q0 -162 72 -206t270 -44h56q194 0 258 44t64 206v514q0 68 52 68t52 -68v-516
q0 -212 -99 -282t-327 -70z" />
    <glyph glyph-name="omegatonos" unicode="&#x3ce;" horiz-adv-x="1334" 
d="M716 1518q50 0 50 -54q0 -14 -2 -22l-90 -314q-14 -70 -50 -70q-24 0 -40 20t-16 42t4 34l88 314q16 50 56 50zM440 -14q-150 0 -232 93t-82 215v330q0 128 63 220t195 92q72 0 72 -52t-72 -52q-48 0 -82 -28t-53 -85t-19 -111v-298q0 -102 50 -161t120 -59
q208 0 208 218v202q0 70 59 70t59 -70v-202q0 -218 208 -218q70 0 120 59t50 161v298q0 54 -19 111q-38 113 -135 113q-72 0 -72 52t72 52q132 0 195 -92t63 -220v-330q0 -122 -82 -215t-231 -93t-227 122q-78 -122 -228 -122z" />
    <glyph glyph-name="uni0400" unicode="&#x400;" horiz-adv-x="1248" 
d="M274 664v-560h756q68 0 68 -56q0 -48 -68 -48h-812q-48 0 -48 72v1138q0 72 48 72h812q68 0 68 -56q0 -48 -68 -48h-756v-410h518q72 0 72 -56q0 -48 -72 -48h-518zM464 1638q22 0 46 -26l140 -138q24 -28 24 -47t-14 -35t-38 -16t-48 26l-138 136q-26 30 -26 48t16 35
t38 17z" />
    <glyph glyph-name="Iocyrillic" unicode="&#x401;" horiz-adv-x="1248" 
d="M274 664v-560h756q68 0 68 -56q0 -48 -68 -48h-812q-48 0 -48 72v1138q0 72 48 72h812q68 0 68 -56q0 -48 -68 -48h-756v-410h518q72 0 72 -56q0 -48 -72 -48h-518zM479 1568q33 0 68 -24t35 -58t-35 -58t-68 -24t-67 24t-34 58t34 58t67 24zM771 1568q33 0 68 -24
t35 -58t-35 -58t-68 -24t-67 24t-34 58t34 58t67 24z" />
    <glyph glyph-name="Djecyrillic" unicode="&#x402;" horiz-adv-x="1428" 
d="M806 1272q68 0 68 -52t-68 -52h-304v-362q120 126 335 126t320 -72t105 -284v-728q0 -170 -59 -214t-144 -44t-85 52t69 52t92 27t23 93v760q0 164 -70 209t-242 45q-344 0 -344 -360v-412q0 -70 -53 -70t-53 68v1114h-304q-66 0 -66 52t66 52h714z" />
    <glyph glyph-name="Gjecyrillic" unicode="&#x403;" horiz-adv-x="1240" 
d="M384 1168q-64 0 -87 -27t-23 -91v-996q0 -68 -52 -68t-52 68v964q0 140 42 197t158 57h630q70 0 70 -52t-70 -52h-616zM608 1376q-22 0 -38 15t-16 35t26 50l138 136q24 26 48 26t38 -17t14 -35t-24 -46l-140 -138q-24 -26 -46 -26z" />
    <glyph glyph-name="Ie.ukran" unicode="&#x404;" 
d="M898 1272q129 0 169 -73q31 -57 31 -139t-52 -82t-52 67t-23 95t-87 28h-268q-198 0 -270 -44t-72 -206v-200h518q70 0 70 -48q0 -56 -70 -56h-518v-258q0 -162 72 -207t270 -45h268q62 0 86 27t24 95t52 68t52 -70q0 -164 -93 -205q-43 -19 -107 -19h-282
q-230 0 -338 71t-108 283v564q0 212 108 283t338 71h282z" />
    <glyph glyph-name="Dzecyrillic" unicode="&#x405;" horiz-adv-x="1192" 
d="M274 963q0 -81 35 -138t85 -67l474 -102q134 -30 194 -124t60 -224t-79 -227t-261 -97h-166q-114 0 -188 13t-137 50q-121 71 -121 297q0 66 56 66q50 0 50 -66q0 -166 71 -211t269 -45h204q106 0 152 72t46 162t-39 151t-81 71l-470 104q-140 30 -199 105t-59 210
t82 230t272 95h152q114 0 187 -13t137 -49q122 -69 122 -294q0 -66 -53 -66t-53 66q0 166 -70 209t-270 43h-196q-108 0 -157 -70t-49 -151z" />
    <glyph glyph-name="Icyrillic" unicode="&#x406;" 
d="M274 50q0 -64 -52 -64t-52 64v1170q0 66 52 66t52 -66v-1170z" />
    <glyph glyph-name="Yicyrillic" unicode="&#x407;" horiz-adv-x="442" 
d="M274 50q0 -64 -52 -64t-52 64v1170q0 66 52 66t52 -66v-1170zM77 1568q33 0 68 -24t35 -58t-35 -58t-68 -24t-67 24t-34 58t34 58t67 24zM369 1568q33 0 68 -24t35 -58t-35 -58t-68 -24t-67 24t-34 58t34 58t67 24z" />
    <glyph glyph-name="Jecyrillic" unicode="&#x408;" horiz-adv-x="1192" 
d="M607 88q191 0 262 45t71 207v882q0 64 52 64t52 -66v-882q0 -222 -119 -292q-61 -36 -134 -49t-183 -13t-183 13t-135 50q-120 72 -120 297q0 66 56 66q50 0 50 -66q0 -166 70 -211t261 -45z" />
    <glyph glyph-name="Ljecyrillic" unicode="&#x409;" horiz-adv-x="1984" 
d="M1102 812h284q196 0 314 -113t118 -299t-117 -300t-313 -114h-336q-54 0 -54 70v1112h-416q-72 0 -101 -28t-29 -90v-796q0 -158 -54 -206t-160 -48q-72 0 -72 54q0 48 68 48t91 26t23 90v800q0 140 45 197t175 57h534v-460zM1102 708v-618h286q162 0 244 84t82 224
t-83 225t-245 85h-284z" />
    <glyph glyph-name="Njecyrillic" unicode="&#x40a;" horiz-adv-x="1956" 
d="M1084 812h278q194 0 311 -114t117 -299t-117 -299t-311 -114h-330q-52 0 -52 72v650h-710v-652q0 -70 -52 -70t-52 68v1162q0 70 48 70q56 0 56 -70v-404h710v404q0 70 52 70t52 -70v-404zM1084 708v-618h278q160 0 242 84t82 224t-82 225t-242 85h-278z" />
    <glyph glyph-name="Tshecyrillic" unicode="&#x40b;" horiz-adv-x="1070" 
d="M806 1168h-304v-362q120 126 335 126t320 -72t105 -284v-520q0 -70 -52 -70t-52 70v520q0 162 -70 207t-242 45q-344 0 -344 -360v-412q0 -70 -53 -70t-53 68v1114h-304q-66 0 -66 52t66 52h714q68 0 68 -52t-68 -52z" />
    <glyph glyph-name="Kjecyrillic" unicode="&#x40c;" horiz-adv-x="1260" 
d="M274 540v-492q0 -62 -52 -62t-52 64v1090q0 66 52 66t52 -66v-496h246q114 0 189 40t75 100v166q0 170 59 214t155 44q72 0 72 -52t-68 -52t-91 -27t-23 -93v-186q0 -146 -108 -210q108 -64 108 -198v-182q0 -66 23 -92t91 -26t68 -52t-72 -52q-106 0 -160 48t-54 206
v162q0 60 -74 99t-190 39h-246zM521 1178q-19 0 -36 15t-17 37t18 44l192 230q28 30 48 30t36 -15t16 -37t-18 -44l-192 -230q-28 -30 -47 -30z" />
    <glyph glyph-name="Iicyrillic_grave" unicode="&#x40d;" 
d="M220 -14q-50 0 -50 68v1162q0 70 52 70t52 -72v-1022l716 1056q24 38 60 38q48 0 48 -70v-1162q0 -68 -52 -68t-52 66v1034l-734 -1086q-12 -14 -40 -14zM475 1618q21 0 47 -30l192 -230q18 -22 18 -45t-16 -37t-36 -14t-48 30l-192 230q-18 22 -18 44t16 37t37 15z" />
    <glyph glyph-name="Ushortcyrillic" unicode="&#x40e;" horiz-adv-x="1288" 
d="M1010 1272q18 0 33 -13t15 -28t-6 -31l-512 -1116q-20 -44 -66 -70t-107 -26q-127 0 -166 74q-31 59 -31 139q0 81 52 81t52 -69t21 -95t74 -26t79 56l74 154l-384 896q-8 18 -8 32q0 42 48 42q36 0 56 -44l354 -802l366 804q18 42 56 42zM892 1496q0 -130 -38 -182
t-144 -52h-234q-106 0 -144 53t-38 181v54h104v-86q0 -58 19 -78t75 -20h204q56 0 74 19t18 79v86h104v-54z" />
    <glyph glyph-name="Dzhecyrillic" unicode="&#x40f;" horiz-adv-x="1240" 
d="M566 -114v114h-400v1152q0 70 52 70t52 -70v-1048h700v1048q0 70 52 70t52 -70v-1152h-400v-114q0 -70 -54 -70t-54 70z" />
    <glyph glyph-name="Acyrillic" unicode="&#x410;" horiz-adv-x="1176" 
d="M568 1120l-232 -618h468zM100 -32q-16 0 -34 12t-18 32t6 38l462 1242h108l462 -1242q6 -18 6 -38t-18 -32t-34 -12q-34 0 -54 46l-142 384h-548l-142 -384q-20 -46 -54 -46z" />
    <glyph glyph-name="Becyrillic" unicode="&#x411;" horiz-adv-x="1140" 
d="M580 828h-306v-738h306q158 0 244 110t86 259t-86 259t-244 110zM878 1272q70 0 70 -52t-70 -52h-604v-236h306q192 0 313 -140t121 -333t-121 -333t-313 -140h-362q-48 0 -48 70v1216h708z" />
    <glyph glyph-name="Vecyrillic" unicode="&#x412;" horiz-adv-x="1248" 
d="M578 768q186 0 259 40t73 166t-75 165t-257 39h-304v-410h304zM170 72v1148q0 72 48 72h360q218 0 327 -66t109 -236t-98 -242q92 -34 137 -111t45 -219v-58q0 -216 -107 -288t-337 -72h-436q-48 0 -48 72zM274 664v-560h380q196 0 268 45t72 207v56q0 162 -70 207
t-258 45h-392z" />
    <glyph glyph-name="Gecyrillic" unicode="&#x413;" horiz-adv-x="1240" 
d="M384 1168q-64 0 -87 -27t-23 -91v-996q0 -68 -52 -68t-52 68v964q0 140 42 197t158 57h630q70 0 70 -52t-70 -52h-616z" />
    <glyph glyph-name="Decyrillic" unicode="&#x414;" horiz-adv-x="1372" 
d="M982 104v1064h-388q-2 -246 -67 -595t-125 -469h580zM270 -114q0 -70 -52 -70t-52 70v104q0 114 102 114h20q60 108 130 487t70 681h598v-1168h18q102 0 102 -114v-104q0 -70 -52 -70t-52 70v114h-832v-114z" />
    <glyph glyph-name="Iecyrillic" unicode="&#x415;" horiz-adv-x="1248" 
d="M274 664v-560h756q68 0 68 -56q0 -48 -68 -48h-812q-48 0 -48 72v1138q0 72 48 72h812q68 0 68 -56q0 -48 -68 -48h-756v-410h518q72 0 72 -56q0 -48 -72 -48h-518z" />
    <glyph glyph-name="Zhecyrillic" unicode="&#x416;" horiz-adv-x="1432" 
d="M666 1150q0 66 52 66t52 -66v-496q114 2 182 40t68 100v166q0 170 59 214t155 44q72 0 72 -52t-68 -52t-91 -27t-23 -93v-186q0 -148 -106 -210q106 -66 106 -202v-186q0 -66 23 -93t91 -27t68 -52t-62 -52t-95 8t-65 32q-64 48 -64 218v166q0 52 -83 93t-167 47v-500
q0 -64 -52 -64t-52 64v500q-114 -2 -184 -40t-70 -100v-166q0 -170 -59 -214t-155 -44q-72 0 -72 52t68 52t91 27t23 93v186q0 140 116 206q-116 66 -116 206v186q0 66 -23 93t-91 27t-68 52t62 52t95 -8t65 -32q64 -48 64 -218v-166q0 -62 70 -100t184 -40v496z" />
    <glyph glyph-name="Zecyrillic" unicode="&#x417;" 
d="M586 708h172q104 0 170 64t66 154t-67 166t-177 76h-366q-64 0 -87 -26t-23 -92v-36q0 -70 -52 -70t-52 70q0 142 42 200t158 58h394q146 0 240 -95t94 -237q0 -192 -150 -286q70 -50 110 -129t40 -173q0 -144 -95 -248t-239 -104h-394q-116 0 -158 58t-42 200
q0 70 52 70t52 -70v-36q0 -66 23 -92t87 -26h366q110 0 177 85t67 177t-67 165t-169 73h-172q-72 0 -72 52t72 52z" />
    <glyph glyph-name="Iicyrillic" unicode="&#x418;" 
d="M220 -14q-50 0 -50 68v1162q0 70 52 70t52 -72v-1022l716 1056q24 38 60 38q48 0 48 -70v-1162q0 -68 -52 -68t-52 66v1034l-734 -1086q-12 -14 -40 -14z" />
    <glyph glyph-name="Iishortcyrillic" unicode="&#x419;" horiz-adv-x="1288" 
d="M930 1496q0 -130 -38 -182t-144 -52h-234q-106 0 -144 53t-38 181v54h104v-86q0 -58 19 -78t75 -20h204q56 0 74 19t18 79v86h104v-54zM220 -14q-50 0 -50 68v1162q0 70 52 70t52 -72v-1022l716 1056q24 38 60 38q48 0 48 -70v-1162q0 -68 -52 -68t-52 66v1034
l-734 -1086q-12 -14 -40 -14z" />
    <glyph glyph-name="Kacyrillic" unicode="&#x41a;" horiz-adv-x="1240" 
d="M274 540v-492q0 -62 -52 -62t-52 64v1090q0 66 52 66t52 -66v-496h246q114 0 189 40t75 100v166q0 170 59 214t155 44q72 0 72 -52t-68 -52t-91 -27t-23 -93v-186q0 -146 -108 -210q108 -64 108 -198v-182q0 -66 23 -92t91 -26t68 -52t-72 -52q-106 0 -160 48t-54 206
v162q0 60 -74 99t-190 39h-246z" />
    <glyph glyph-name="Elcyrillic" unicode="&#x41b;" 
d="M1102 56q0 -70 -52 -70t-52 70v1112h-416q-72 0 -98 -27t-26 -91v-796q0 -156 -56 -205t-164 -49q-72 0 -72 52t68 52t91 26t23 90v798q0 140 45 197t175 57h534v-1216z" />
    <glyph glyph-name="Emcyrillic" unicode="&#x41c;" horiz-adv-x="1288" 
d="M655 558q-23 0 -35 16l-346 516v-1034q0 -70 -52 -70t-52 68v1162q0 70 48 70q36 0 60 -38l376 -556l378 556q26 38 58 38q50 0 50 -70v-1162q0 -68 -52 -68t-52 70v1034l-346 -516q-12 -16 -35 -16z" />
    <glyph glyph-name="Encyrillic" unicode="&#x41d;" horiz-adv-x="1248" 
d="M274 54q0 -68 -52 -68t-52 68v1162q0 70 48 70q56 0 56 -70v-478h720v478q0 70 52 70t52 -70v-1162q0 -68 -52 -68t-52 68v580h-720v-580z" />
    <glyph glyph-name="Ocyrillic" unicode="&#x41e;" horiz-adv-x="1248" 
d="M634 1186q-172 0 -266 -98t-94 -274v-356q0 -176 94 -274t266 -98t266 98t94 274v356q0 176 -94 274t-266 98zM634 -18q-204 0 -334 126t-130 348v360q0 222 130 348t334 126t334 -127t130 -347v-360q0 -220 -130 -347t-334 -127z" />
    <glyph glyph-name="Pecyrillic" unicode="&#x41f;" horiz-adv-x="1240" 
d="M166 1272h908v-1218q0 -68 -52 -68t-52 68v1114h-700v-1114q0 -68 -52 -68t-52 68v1218z" />
    <glyph glyph-name="Ercyrillic" unicode="&#x420;" horiz-adv-x="1120" 
d="M580 768q184 0 257 40t73 166t-74 165t-256 39h-306v-410h306zM274 50q0 -64 -52 -64t-52 64v1160q0 72 48 72h362q216 0 325 -66t109 -230t-91 -243t-255 -79h-394v-614z" />
    <glyph glyph-name="Escyrillic" unicode="&#x421;" horiz-adv-x="1248" 
d="M898 0h-282q-232 0 -339 72t-107 288v572q0 216 106 288t328 72h294q129 0 169 -73q31 -57 31 -139t-52 -82t-52 68t-24 95t-86 27h-280q-96 0 -150 -7t-100 -33t-63 -78t-17 -138v-572q0 -166 72 -211t270 -45h268q64 0 87 28t23 95t52 67t52 -72q0 -162 -93 -203
q-43 -19 -107 -19z" />
    <glyph glyph-name="Tecyrillic" unicode="&#x422;" horiz-adv-x="1050" 
d="M896 1292q66 0 66 -52t-66 -52h-304v-1138q0 -64 -58 -64q-52 0 -52 64v1138h-308q-66 0 -66 52t66 52h722z" />
    <glyph glyph-name="Ucyrillic" unicode="&#x423;" horiz-adv-x="1228" 
d="M1010 1272q18 0 33 -13t15 -28t-6 -31l-512 -1116q-20 -44 -66 -70t-107 -26q-127 0 -166 74q-31 59 -31 139q0 81 52 81t52 -69t21 -95t74 -26t79 56l74 154l-384 896q-8 18 -8 32q0 42 48 42q36 0 56 -44l354 -802l366 804q18 42 56 42z" />
    <glyph glyph-name="Efcyrillic" unicode="&#x424;" 
d="M274 624q0 -166 81 -264t229 -112v776q-148 -14 -229 -113t-81 -263v-24zM994 624v24q0 160 -79 259t-223 115v-772q144 14 223 113t79 261zM692 50q0 -64 -54 -64t-54 64v102q-186 16 -300 140t-114 332v24q0 208 114 332t300 140v100q0 66 54 66t54 -66v-100
q182 -18 294 -142t112 -330v-24q0 -206 -112 -330t-294 -142v-102z" />
    <glyph glyph-name="Khacyrillic" unicode="&#x425;" horiz-adv-x="1292" 
d="M1089 1286q19 0 37 -12t18 -38t-16 -44l-406 -558l406 -556q16 -22 16 -44t-17 -35t-39 -13t-46 32l-386 536l-384 -536q-24 -32 -47 -32t-39 14t-16 35t16 43l406 556l-406 558q-16 18 -16 44t18 38t38 12t46 -36l384 -534l386 534q28 36 47 36z" />
    <glyph glyph-name="Tsecyrillic" unicode="&#x426;" horiz-adv-x="1240" 
d="M1074 -114q0 -70 -52 -70t-52 70v114h-804v1152q0 70 52 70t52 -70v-1048h584v1048q0 70 52 70t52 -70v-1048h14q102 0 102 -114v-104z" />
    <glyph glyph-name="Checyrillic" unicode="&#x427;" 
d="M664 444q162 0 246 92t84 268v412q0 70 52 70t52 -68v-1162q0 -70 -48 -70q-56 0 -56 70v410q-118 -126 -330 -126h-62q-108 0 -180 13t-133 50q-119 72 -119 293v520q0 70 52 70t52 -70v-520q0 -162 70 -207t258 -45h62z" />
    <glyph glyph-name="Shacyrillic" unicode="&#x428;" horiz-adv-x="1304" 
d="M126 0v1152q0 70 52 70t52 -70v-1048h370v1048q0 70 52 70t52 -70v-1048h370v1048q0 70 52 70t52 -70v-1152h-1052z" />
    <glyph glyph-name="Shchacyrillic" unicode="&#x429;" horiz-adv-x="1420" 
d="M598 1152q0 70 52 70t52 -70v-1048h372v1048q0 70 52 70t52 -70v-1048h14q102 0 102 -114v-104q0 -70 -52 -70t-52 70v114h-1064v1152q0 70 52 70t52 -70v-1048h368v1048z" />
    <glyph glyph-name="Hardsigncyrillic" unicode="&#x42a;" horiz-adv-x="1300" 
d="M742 828h-308v-738h310q156 0 241 110t85 258t-86 259t-242 111zM330 1168h-192q-72 0 -72 56q0 48 72 48h296v-340h308q190 0 311 -140t121 -333t-120 -333t-310 -140h-364q-50 0 -50 70v1112z" />
    <glyph glyph-name="Yericyrillic" unicode="&#x42b;" horiz-adv-x="1350" 
d="M1180 50q0 -64 -52 -64t-52 64v1170q0 66 52 66t52 -66v-1170zM580 828h-306v-738h306q158 0 244 110t86 259t-86 259t-244 110zM580 932q192 0 313 -140t121 -333t-121 -333t-313 -140h-362q-48 0 -48 70v1152q0 64 52 64t52 -62v-278h306z" />
    <glyph glyph-name="Softsigncyrillic" unicode="&#x42c;" horiz-adv-x="1140" 
d="M580 828h-306v-738h306q158 0 244 110t86 259t-86 259t-244 110zM580 932q192 0 313 -140t121 -333t-121 -333t-313 -140h-362q-48 0 -48 70v1152q0 64 52 64t52 -62v-278h306z" />
    <glyph glyph-name="Ereversedcyrillic" unicode="&#x42d;" 
d="M370 1272h282q230 0 338 -71t108 -283v-564q0 -212 -108 -283t-338 -71h-282q-129 0 -169 73q-31 57 -31 139t52 82t52 -68t24 -95t86 -27h268q198 0 270 45t72 207v258h-518q-70 0 -70 56q0 48 70 48h518v200q0 162 -72 206t-270 44h-268q-64 0 -87 -28t-23 -95t-52 -67
t-52 72q0 162 93 203q43 19 107 19z" />
    <glyph glyph-name="IUcyrillic" unicode="&#x42e;" horiz-adv-x="1482" 
d="M850 -18q-204 0 -334 126t-130 348v138h-112v-546q0 -62 -52 -62t-52 64v1170q0 66 52 66t52 -64v-524h112v118q0 222 130 348t334 126t333 -127t129 -347v-360q0 -220 -129 -347t-333 -127zM851 1186q-169 0 -265 -99t-96 -273v-356q0 -176 96 -274t266 -98t263 98
t93 274v356q0 174 -94 273t-263 99z" />
    <glyph glyph-name="IAcyrillic" unicode="&#x42f;" horiz-adv-x="1240" 
d="M1010 48v540h-332q-120 0 -192 -37t-72 -99v-212q0 -158 -55 -206t-161 -48q-72 0 -72 52t68 52t91 27t23 91v232q0 140 124 204q-148 90 -148 286q0 342 444 342h338q48 0 48 -70v-1152q0 -64 -52 -64t-52 62zM728 692h282v476h-282q-176 0 -258 -55t-82 -183t82 -183
t258 -55z" />
    <glyph glyph-name="acyrillic" unicode="&#x430;" horiz-adv-x="1248" 
d="M616 590h294v114q0 62 -23 88t-87 26h-282q-244 0 -244 -120q0 -70 -52 -70t-52 70q0 116 92 170t242 54h310q116 0 158 -56t42 -196v-616q0 -68 -52 -68t-52 70v70q-114 -126 -340 -126h-186q-94 0 -154 67t-60 179q0 202 109 273t337 71zM616 486q-102 0 -157 -7
t-103 -32t-65 -75t-17 -119t34 -109t76 -40h186q168 0 254 91t86 261v30h-294z" />
    <glyph glyph-name="becyrillic" unicode="&#x431;" horiz-adv-x="1288" 
d="M686 922q220 0 326 -71t106 -281v-218q0 -210 -107 -281t-337 -71h-60q-230 0 -337 71t-107 283v556q0 186 120 273q98 71 371 84q105 5 281 5q72 0 72 -56q0 -48 -72 -48q-428 0 -528 -38t-123 -107q-13 -41 -15 -101h410zM686 818h-412v-464q0 -86 17 -136t64 -75
t102 -32t157 -7h60q102 0 157 7t102 32t64 75t17 136v214q0 162 -70 206t-258 44z" />
    <glyph glyph-name="vecyrillic" unicode="&#x432;" 
d="M274 818v-290h500q122 0 172 30t50 124q0 62 -59 99t-171 37h-492zM274 424v-320h492q96 0 162 33t66 103q0 102 -56 143t-164 41h-500zM170 922h610q134 0 226 -61t92 -198t-118 -189q118 -74 118 -213t-92 -200t-226 -61h-610v922z" />
    <glyph glyph-name="gecyrillic" unicode="&#x433;" horiz-adv-x="1118" 
d="M384 818q-64 0 -87 -26t-23 -92v-646q0 -68 -52 -68t-52 68v616q0 140 42 196t158 56h508q70 0 70 -52t-70 -52h-494z" />
    <glyph glyph-name="decyrillic" unicode="&#x434;" horiz-adv-x="1372" 
d="M912 104v714h-318q-2 -390 -190 -714h508zM270 -114q0 -70 -52 -70t-52 70v104q0 114 102 114h20q200 336 200 818h530v-818h86q102 0 102 -114v-104q0 -70 -52 -70t-52 70v114h-832v-114z" />
    <glyph glyph-name="iecyrillic" unicode="&#x435;" horiz-adv-x="1248" 
d="M674 818h-58q-194 0 -267 -41t-75 -183h740q-2 142 -75 183t-265 41zM1118 570v-80h-844v-136q0 -86 17 -136t65 -75t103 -32t157 -7h268q64 0 87 28t23 95t52 67t52 -72q0 -162 -93 -203q-43 -19 -107 -19h-282q-230 0 -338 71t-108 281v218q0 210 108 281t338 71h58
q230 0 337 -71t107 -281z" />
    <glyph glyph-name="zhecyrillic" unicode="&#x436;" horiz-adv-x="1432" 
d="M664 870q0 66 54 66t54 -66v-366q246 4 246 120v56q0 171 60 214q60 44 144 44t84 -52t-68 -52t-91 -26t-23 -90v-56q0 -142 -106 -204q106 -64 106 -196v-56q0 -64 23 -90t91 -26t68 -52t-62 -52t-95 8t-66 32q-65 47 -65 218v56q0 52 -78 84t-168 36v-370
q0 -64 -54 -64t-54 64v370q-250 -4 -250 -120v-56q0 -171 -60 -214q-60 -44 -144 -44t-84 52t68 52t91 26t23 90v56q0 136 116 200q-116 64 -116 200v56q0 64 -23 90t-91 26t-68 52t62 52t95 -8t66 -32q65 -47 65 -218v-56q0 -116 250 -120v366z" />
    <glyph glyph-name="zecyrillic" unicode="&#x437;" 
d="M586 424q-72 0 -72 48q0 56 72 56h172q130 0 184 35t54 131q0 124 -246 124h-366q-64 0 -87 -26t-23 -92v-36q0 -70 -52 -70t-52 70q0 142 42 200t158 58h394q144 0 239 -60t95 -198t-118 -190q118 -74 118 -214t-95 -200t-239 -60h-394q-116 0 -158 58t-42 200
q0 70 52 70t52 -70v-36q0 -66 23 -92t87 -26h366q244 0 244 124q0 196 -236 196h-172z" />
    <glyph glyph-name="iicyrillic" unicode="&#x438;" horiz-adv-x="1240" 
d="M1074 922v-866q0 -70 -52 -70t-52 72v730l-692 -788h-112v866q0 70 52 70t52 -72v-738l698 796h106z" />
    <glyph glyph-name="iishortcyrillic" unicode="&#x439;" horiz-adv-x="1260" 
d="M930 1228q0 -130 -38 -182t-144 -52h-234q-106 0 -144 53t-38 181v54h104v-86q0 -58 19 -78t75 -20h204q56 0 74 19t18 79v86h104v-54zM1074 922v-866q0 -70 -52 -70t-52 72v730l-692 -788h-112v866q0 70 52 70t52 -72v-738l698 796h106z" />
    <glyph glyph-name="kacyrillic" unicode="&#x43a;" horiz-adv-x="1234" 
d="M398 410h-128v-362q0 -62 -52 -62t-52 62v824q0 64 52 64t52 -64v-358h128q124 0 253 59t129 133q0 138 55 185t161 47q72 0 72 -52t-68 -52t-91 -26t-23 -90v-40q0 -68 -73 -131t-153 -89q80 -28 153 -87t73 -125v-40q0 -64 23 -90t91 -26t68 -52t-72 -52
q-106 0 -161 47t-55 185q0 74 -130 133t-252 59z" />
    <glyph glyph-name="elcyrillic" unicode="&#x43b;" 
d="M1102 58q0 -72 -52 -72t-52 70v762h-428q-68 0 -92 -26t-24 -92v-448q0 -156 -54 -204t-162 -48q-72 0 -72 52t68 52t91 26t23 90v450q0 140 43 196t163 56h548v-864z" />
    <glyph glyph-name="emcyrillic" unicode="&#x43c;" horiz-adv-x="1308" 
d="M656 208q-24 0 -36 16l-346 516v-684q0 -70 -52 -70t-52 68v812q0 70 48 70q36 0 60 -38l376 -556l378 556q26 38 58 38q50 0 50 -70v-812q0 -68 -52 -68t-52 70v684l-346 -516q-10 -16 -34 -16z" />
    <glyph glyph-name="encyrillic" unicode="&#x43d;" horiz-adv-x="1240" 
d="M270 54q0 -68 -52 -68t-52 68v812q0 70 48 70q56 0 56 -70v-326h700v326q0 70 52 70t52 -70v-812q0 -68 -52 -68t-52 68v382h-700v-382z" />
    <glyph glyph-name="ocyrillic" unicode="&#x43e;" horiz-adv-x="1248" 
d="M616 104h58q102 0 157 7t102 32t64 75t17 136v214q0 86 -17 136t-64 75t-102 32t-157 7h-58q-102 0 -157 -7t-103 -32t-65 -75t-17 -136v-214q0 -86 17 -136t65 -75t103 -32t157 -7zM674 0h-58q-230 0 -338 71t-108 281v218q0 210 108 281t338 71h58q230 0 337 -71
t107 -281v-218q0 -210 -107 -281t-337 -71z" />
    <glyph glyph-name="pecyrillic" unicode="&#x43f;" horiz-adv-x="1240" 
d="M166 922h908v-868q0 -68 -52 -68t-52 68v764h-700v-764q0 -68 -52 -68t-52 68v868z" />
    <glyph glyph-name="ercyrillic" unicode="&#x440;" horiz-adv-x="1248" 
d="M1118 352q0 -210 -107 -281t-335 -71h-402v-294q0 -70 -56 -70q-48 0 -48 70v1162q0 68 52 68t52 -70v-70q118 126 342 126h58q230 0 337 -71t107 -281v-218zM1014 568q0 86 -17 136t-64 75t-102 32t-157 7h-58q-342 0 -342 -354v-360h402q196 0 267 44t71 206v214z" />
    <glyph glyph-name="escyrillic" unicode="&#x441;" horiz-adv-x="1248" 
d="M898 0h-282q-230 0 -338 71t-108 281v218q0 210 108 281t338 71h282q130 0 169 -74q31 -59 31 -139q0 -81 -52 -81t-52 68t-24 95t-86 27h-268q-102 0 -157 -7t-103 -32t-65 -75t-17 -136v-214q0 -86 17 -136t65 -75t103 -32t157 -7h268q64 0 87 28t23 95t52 67t52 -72
q0 -162 -93 -203q-43 -19 -107 -19z" />
    <glyph glyph-name="tecyrillic" unicode="&#x442;" horiz-adv-x="1070" 
d="M896 922q66 0 66 -52t-66 -52h-304v-770q0 -62 -58 -62q-52 0 -52 62v770h-308q-66 0 -66 52t66 52h722z" />
    <glyph glyph-name="ucyrillic" unicode="&#x443;" horiz-adv-x="1248" 
d="M1118 -174q0 -130 -38 -183t-144 -53h-566q-130 0 -169 74q-31 59 -31 139q0 81 52 81t52 -68t24 -95t86 -27h538q58 0 75 20t17 80v332q-118 -126 -342 -126h-58q-230 0 -337 71t-107 281v516q0 68 52 68t52 -68v-514q0 -86 17 -136t64 -75t102 -32t157 -7h58
q170 0 256 91t86 265v408q0 68 52 68t52 -68v-1042z" />
    <glyph glyph-name="efcyrillic" unicode="&#x444;" horiz-adv-x="1588" 
d="M848 -294q0 -70 -54 -70t-54 70v418q-56 -66 -113 -95t-147 -29q-334 0 -334 392v138q0 392 334 392q90 0 147 -29t113 -95v418q0 70 54 70t54 -70v-418q56 66 113 95t147 29q334 0 334 -392v-138q0 -392 -334 -392q-90 0 -147 29t-113 95v-418zM250 392q0 -210 103 -263
q49 -25 137 -25t149 59t81 133t20 165t-20 166t-81 133t-149 58q-164 0 -207 -98q-33 -75 -33 -190v-138zM1338 392v138q0 210 -103 263q-49 25 -137 25t-149 -58t-81 -133t-20 -166t20 -165t81 -133t149 -59q164 0 207 98q33 75 33 190z" />
    <glyph glyph-name="khacyrillic" unicode="&#x445;" horiz-adv-x="1156" 
d="M1020 23q0 -19 -16 -32t-37 -13t-45 24l-332 386l-334 -386q-28 -24 -48 -24t-36 13t-16 27t20 54l342 388l-342 390q-20 24 -20 45t16 35t36 14t48 -24l334 -386l332 386q24 24 45 24t37 -14t16 -35t-20 -45l-342 -390l342 -388q20 -30 20 -49z" />
    <glyph glyph-name="tsecyrillic" unicode="&#x446;" horiz-adv-x="1240" 
d="M1074 -114q0 -70 -52 -70t-52 70v114h-804v868q0 68 52 68t52 -68v-764h584v764q0 68 52 68t52 -68v-764h14q102 0 102 -114v-104z" />
    <glyph glyph-name="checyrillic" unicode="&#x447;" 
d="M664 360q162 0 246 92t84 266v150q0 68 52 68t52 -68v-812q0 -70 -48 -70q-56 0 -56 70v326q-118 -126 -330 -126h-62q-220 0 -326 71t-106 283v258q0 68 52 68t52 -68v-256q0 -162 70 -207t258 -45h62z" />
    <glyph glyph-name="shacyrillic" unicode="&#x448;" horiz-adv-x="1224" 
d="M126 0v868q0 68 52 68t52 -68v-764h330v764q0 68 52 68t52 -68v-764h330v764q0 68 52 68t52 -68v-868h-972z" />
    <glyph glyph-name="shchacyrillic" unicode="&#x449;" horiz-adv-x="1340" 
d="M558 868q0 68 52 68t52 -68v-764h332v764q0 68 52 68t52 -68v-764h14q102 0 102 -114v-104q0 -70 -52 -70t-52 70v114h-984v868q0 68 52 68t52 -68v-764h328v764z" />
    <glyph glyph-name="hardsigncyrillic" unicode="&#x44a;" horiz-adv-x="1298" 
d="M382 0v818h-192q-72 0 -72 56q0 48 72 48h296v-394h348q134 0 236 -61t102 -204t-95 -203t-239 -60h-456zM824 104q165 0 211 63q33 46 33 87q0 42 -6 63t-27 49q-44 58 -211 58h-338v-320h338z" />
    <glyph glyph-name="yericyrillic" unicode="&#x44b;" horiz-adv-x="1378" 
d="M1202 40q0 -64 -52 -64t-52 64v840q0 66 52 66t52 -66v-840zM166 0v866q0 70 52 70t52 -70v-338h430q132 0 225 -60t93 -204t-93 -204t-225 -60h-534zM686 104q156 0 197 63q31 47 31 88t-6 63t-26 49q-42 57 -196 57h-416v-320h416z" />
    <glyph glyph-name="softsigncyrillic" unicode="&#x44c;" horiz-adv-x="1184" 
d="M166 0v866q0 70 52 70t52 -70v-338h430q132 0 225 -60t93 -204t-93 -204t-225 -60h-534zM686 104q156 0 197 63q31 47 31 88t-6 63t-26 49q-42 57 -196 57h-416v-320h416z" />
    <glyph glyph-name="ereversedcyrillic" unicode="&#x44d;" 
d="M370 922h282q230 0 338 -71t108 -281v-218q0 -210 -108 -281t-338 -71h-282q-130 0 -169 74q-31 59 -31 139q0 81 52 81t52 -68t24 -95t86 -27h268q152 0 211 18t82 45q49 58 49 185v72h-408q-72 0 -72 48q0 56 72 56h408v42q0 127 -45 181q-45 53 -167 63q-48 4 -130 4
h-268q-64 0 -87 -28t-23 -95t-52 -67t-52 72q0 162 93 203q43 19 107 19z" />
    <glyph glyph-name="iucyrillic" unicode="&#x44e;" horiz-adv-x="1444" 
d="M842 104q188 0 258 44t70 206v214q0 162 -70 206t-258 44t-260 -44t-72 -206v-214q0 -162 72 -206t260 -44zM274 48q0 -62 -52 -62t-52 62v824q0 64 52 64t52 -64v-344h132v42q0 210 108 281t329 71t326 -71t105 -281v-218q0 -210 -105 -281t-326 -71t-329 71t-108 281
v72h-132v-376z" />
    <glyph glyph-name="iacyrillic" unicode="&#x44f;" horiz-adv-x="1240" 
d="M388 658q0 -106 57 -133t217 -27h308v320h-308q-162 0 -218 -27t-56 -133zM728 922h298q48 0 48 -70v-804q0 -62 -52 -62t-52 62v346h-250q-266 0 -266 -118v-38q0 -156 -55 -204t-161 -48q-72 0 -72 52t68 52t91 26t23 92v38q0 112 80 176q-144 48 -144 230
q0 137 77 205q57 50 214 61q57 4 153 4z" />
    <glyph glyph-name="uni0450" unicode="&#x450;" horiz-adv-x="1248" 
d="M674 818h-58q-194 0 -267 -41t-75 -183h740q-2 142 -75 183t-265 41zM1118 570v-80h-844v-136q0 -86 17 -136t65 -75t103 -32t157 -7h268q64 0 87 28t23 95t52 67t52 -72q0 -162 -93 -203q-43 -19 -107 -19h-282q-230 0 -338 71t-108 281v218q0 210 108 281t338 71h58
q230 0 337 -71t107 -281zM481 1366q21 0 47 -30l192 -230q18 -22 18 -45t-16 -37t-36 -14t-48 30l-192 230q-18 22 -18 44t16 37t37 15z" />
    <glyph glyph-name="iocyrillic" unicode="&#x451;" horiz-adv-x="1248" 
d="M674 818h-58q-194 0 -267 -41t-75 -183h740q-2 142 -75 183t-265 41zM1118 570v-80h-844v-136q0 -86 17 -136t65 -75t103 -32t157 -7h268q64 0 87 28t23 95t52 67t52 -72q0 -162 -93 -203q-43 -19 -107 -19h-282q-230 0 -338 71t-108 281v218q0 210 108 281t338 71h58
q230 0 337 -71t107 -281zM499 1198q33 0 68 -24t35 -58t-35 -58t-68 -24t-67 24t-34 58t34 58t67 24zM791 1198q33 0 68 -24t35 -58t-35 -58t-68 -24t-67 24t-34 58t34 58t67 24z" />
    <glyph glyph-name="djecyrillic" unicode="&#x452;" horiz-adv-x="1288" 
d="M170 1106v108q0 72 48 72q56 0 56 -72v-108h420q76 0 76 -56q0 -50 -76 -50h-420v-204q118 126 342 126h58q230 0 337 -71t107 -283v-720q0 -170 -59 -214t-145 -44t-86 52t70 52t93 27t23 93v754q0 162 -72 206t-268 44h-58q-168 0 -255 -91t-87 -265v-408
q0 -68 -52 -68t-52 68v946q-76 0 -76 56q0 50 76 50z" />
    <glyph glyph-name="gjecyrillic" unicode="&#x453;" horiz-adv-x="1118" 
d="M549 1010q-19 0 -36 15t-17 37t18 44l192 230q28 30 48 30t36 -15t16 -37t-18 -44l-192 -230q-28 -30 -47 -30zM384 818q-64 0 -87 -26t-23 -92v-646q0 -68 -52 -68t-52 68v616q0 140 42 196t158 56h508q70 0 70 -52t-70 -52h-494z" />
    <glyph glyph-name="ecyrillic" unicode="&#x454;" 
d="M898 922q129 0 169 -73q31 -57 31 -139t-52 -82t-52 67t-23 95t-87 28h-268q-152 0 -211 -18t-82 -45q-49 -58 -49 -185v-42h408q72 0 72 -56q0 -48 -72 -48h-408v-72q0 -127 45 -181q45 -53 167 -63q48 -4 130 -4h268q62 0 86 27t24 95t52 68t52 -70q0 -164 -93 -205
q-43 -19 -107 -19h-282q-230 0 -338 71t-108 281v218q0 210 108 281t338 71h282z" />
    <glyph glyph-name="dzecyrillic" unicode="&#x455;" horiz-adv-x="1248" 
d="M370 0q-129 0 -169 73q-31 57 -31 139t52 82t52 -67t23 -95t87 -28h496q118 0 118 148q0 74 -33 121t-85 47h-452q-258 0 -258 260q0 120 62 181t216 61h450q130 0 169 -74q31 -59 31 -139q0 -81 -52 -81t-52 68t-24 95t-86 27h-492q-118 0 -118 -138q0 -76 33 -116
t85 -40h454q140 0 198 -78t58 -198t-63 -184t-213 -64h-456z" />
    <glyph glyph-name="icyrillic" unicode="&#x456;" horiz-adv-x="440" 
d="M264 40q0 -64 -52 -64t-52 64v840q0 66 52 66t52 -66v-840zM211 1284q33 0 68 -24t35 -58t-35 -58t-68 -24t-67 24t-34 58t34 58t67 24z" />
    <glyph glyph-name="yicyrillic" unicode="&#x457;" horiz-adv-x="440" 
d="M264 40q0 -64 -52 -64t-52 64v840q0 66 52 66t52 -66v-840zM65 1212q33 0 68 -24t35 -58t-35 -58t-68 -24t-67 24t-34 58t34 58t67 24zM357 1212q33 0 68 -24t35 -58t-35 -58t-68 -24t-67 24t-34 58t34 58t67 24z" />
    <glyph glyph-name="jecyrillic" unicode="&#x458;" horiz-adv-x="436" 
d="M268 0q0 -220 -119 -290q-61 -36 -131 -48t-176 -12q-72 0 -72 52t72 52q184 0 253 44t69 202v864q0 72 52 72t52 -72v-864zM114 1192q0 34 35 58t68 24t67 -24t34 -58t-34 -58t-67 -24t-68 24t-35 58z" />
    <glyph glyph-name="ljecyrillic" unicode="&#x459;" horiz-adv-x="1708" 
d="M1016 528h206q134 0 227 -60t93 -204t-95 -204t-239 -60h-296v818h-330q-72 0 -98 -27t-26 -91l-4 -448q0 -156 -54 -204t-162 -48q-72 0 -72 52t68 52t91 26t23 90v450q0 140 45 196t175 56h448v-394zM1016 424v-320h178q165 0 211 63q33 46 33 87q0 42 -6 63t-27 49
q-44 58 -211 58h-178z" />
    <glyph glyph-name="njecyrillic" unicode="&#x45a;" horiz-adv-x="1708" 
d="M1010 528h196q82 0 152 -20t127 -83t57 -161q0 -144 -95 -204t-239 -60h-296v424h-642v-370q0 -68 -52 -68t-52 68v812q0 70 48 70q56 0 56 -70v-338h634v338q0 70 50 70q56 0 56 -70v-338zM1016 424v-320h178q165 0 211 63q33 46 33 87q0 42 -6 63t-27 49
q-44 58 -211 58h-178z" />
    <glyph glyph-name="tshecyrillic" unicode="&#x45b;" horiz-adv-x="1288" 
d="M170 1106v108q0 72 48 72q56 0 56 -72v-108h420q76 0 76 -56q0 -50 -76 -50h-420v-204q118 126 342 126h58q230 0 337 -71t107 -281v-516q0 -68 -52 -68t-52 68v514q0 86 -17 136t-64 75t-102 32t-157 7h-58q-168 0 -255 -91t-87 -265v-408q0 -68 -52 -68t-52 68v946
q-76 0 -76 56q0 50 76 50z" />
    <glyph glyph-name="kjecyrillic" unicode="&#x45c;" horiz-adv-x="1234" 
d="M521 1010q-19 0 -36 15t-17 37t18 44l192 230q28 30 48 30t36 -15t16 -37t-18 -44l-192 -230q-28 -30 -47 -30zM398 410h-128v-362q0 -62 -52 -62t-52 62v824q0 64 52 64t52 -64v-358h128q124 0 253 59t129 133q0 138 55 185t161 47q72 0 72 -52t-68 -52t-91 -26t-23 -90
v-40q0 -68 -73 -131t-153 -89q80 -28 153 -87t73 -125v-40q0 -64 23 -90t91 -26t68 -52t-72 -52q-106 0 -161 47t-55 185q0 74 -130 133t-252 59z" />
    <glyph glyph-name="iicyrillic_grave" unicode="&#x45d;" horiz-adv-x="1260" 
d="M1074 922v-866q0 -70 -52 -70t-52 72v730l-692 -788h-112v866q0 70 52 70t52 -72v-738l698 796h106zM473 1366q21 0 47 -30l192 -230q18 -22 18 -45t-16 -37t-36 -14t-48 30l-192 230q-18 22 -18 44t16 37t37 15z" />
    <glyph glyph-name="ushortcyrillic" unicode="&#x45e;" 
d="M946 1228q0 -130 -38 -182t-144 -52h-234q-106 0 -144 53t-38 181v54h104v-86q0 -58 19 -78t75 -20h204q56 0 74 19t18 79v86h104v-54zM1118 -174q0 -130 -38 -183t-144 -53h-566q-130 0 -169 74q-31 59 -31 139q0 81 52 81t52 -68t24 -95t86 -27h538q58 0 75 20t17 80
v332q-118 -126 -342 -126h-58q-230 0 -337 71t-107 281v516q0 68 52 68t52 -68v-514q0 -86 17 -136t64 -75t102 -32t157 -7h58q170 0 256 91t86 265v408q0 68 52 68t52 -68v-1042z" />
    <glyph glyph-name="dzhecyrillic" unicode="&#x45f;" horiz-adv-x="1240" 
d="M568 -114v114h-402v868q0 68 52 68t52 -68v-764h700v764q0 68 52 68t52 -68v-868h-402v-114q0 -70 -52 -70t-52 70z" />
    <glyph glyph-name="Yatcyrillic" unicode="&#x462;" horiz-adv-x="1484" 
d="M608 708v-618h280q162 0 244 84t82 224t-82 225t-244 85h-280zM502 1216q0 70 50 70q56 0 56 -70v-204h300q68 0 68 -54q0 -48 -68 -48h-300v-98h280q194 0 312 -113t118 -299t-117 -300t-313 -114h-334q-52 0 -52 70v852h-288q-66 0 -66 51t66 51h288v206z" />
    <glyph glyph-name="yatcyrillic" unicode="&#x463;" horiz-adv-x="1456" 
d="M846 104q190 0 265 38t75 161t-79 162t-267 39h-306v-400h312zM484 0q-54 0 -54 70v748h-278q-66 0 -66 52t66 52h278v300q0 64 52 64t52 -64v-300h284q68 0 68 -52t-68 -52h-284v-210h394q164 0 263 -80t99 -240t-110 -224t-334 -64h-362z" />
    <glyph glyph-name="Fitacyrillic" unicode="&#x472;" 
d="M994 464v132q-62 -46 -132 -46t-236 40t-211 40t-119 -50l-22 -16v-100q0 -180 94 -279t266 -99t266 99t94 279zM1098 456q0 -220 -130 -347t-334 -127t-334 126t-130 348v360q0 222 130 348t334 126t334 -127t130 -347v-360zM638 694q166 -40 211 -40t121 50l24 18v86
q0 178 -94 278t-266 100t-266 -100t-94 -278v-120q58 46 128 46t236 -40z" />
    <glyph glyph-name="fitacyrillic" unicode="&#x473;" horiz-adv-x="1264" 
d="M858 370q-70 0 -234 40t-209 40t-119 -50l-22 -16v-30q0 -86 17 -136t65 -75t103 -32t157 -7h34q102 0 157 7t102 32t64 75t17 136v62q-62 -46 -132 -46zM402 554q70 0 234 -40t210 -40t120 50l24 18v26q0 86 -17 136t-64 75t-102 32t-157 7h-34q-102 0 -157 -7t-103 -32
t-65 -75t-17 -136v-60q58 46 128 46zM650 0h-34q-230 0 -338 71t-108 281v218q0 210 108 281t338 71h34q230 0 337 -71t107 -281v-218q0 -210 -107 -281t-337 -71z" />
    <glyph glyph-name="Gheupturncyrillic" unicode="&#x490;" horiz-adv-x="1240" 
d="M1070 1168h-686q-64 0 -87 -27t-23 -91v-996q0 -68 -52 -68t-52 68v964q0 140 42 197t158 57h596v154q0 70 52 70t52 -70v-258z" />
    <glyph glyph-name="gheupturncyrillic" unicode="&#x491;" horiz-adv-x="1118" 
d="M384 818q-64 0 -87 -26t-23 -92v-646q0 -68 -52 -68t-52 68v616q0 140 42 196t158 56h474v154q0 70 52 70t52 -70v-258h-564z" />
    <glyph glyph-name="uni1E02" unicode="&#x1e02;" 
d="M549 1578q33 0 68 -24t35 -58t-35 -58t-68 -24t-67 24t-34 58t34 58t67 24zM578 768q186 0 259 40t73 166t-75 165t-257 39h-304v-410h304zM170 72v1148q0 72 48 72h360q218 0 327 -66t109 -236t-98 -242q92 -34 137 -111t45 -219v-58q0 -216 -107 -288t-337 -72h-436
q-48 0 -48 72zM274 664v-560h380q196 0 268 45t72 207v56q0 162 -70 207t-258 45h-392z" />
    <glyph glyph-name="uni1E03" unicode="&#x1e03;" horiz-adv-x="1288" 
d="M643 1188q33 0 68 -24t35 -58t-35 -58t-68 -24t-67 24t-34 58t34 58t67 24zM616 818q-342 0 -342 -354v-8q0 -352 342 -352h58q102 0 157 7t102 32t64 75t17 136v214q0 86 -17 136t-64 75t-102 32t-157 7h-58zM616 922h58q230 0 337 -71t107 -281v-218q0 -210 -107 -281
t-337 -71h-58q-224 0 -342 126v-70q0 -70 -52 -70t-52 68v1160q0 72 48 72q56 0 56 -72v-418q118 126 342 126z" />
    <glyph glyph-name="uni1E0A" unicode="&#x1e0a;" 
d="M601 1578q33 0 68 -24t35 -58t-35 -58t-68 -24t-67 24t-34 58t34 58t67 24zM994 360v572q0 164 -70 210t-258 46h-392v-1084h380q196 0 268 45t72 211zM1098 932v-572q0 -216 -107 -288t-337 -72h-436q-48 0 -48 72v1148q0 72 48 72h448q108 0 180 -13t133 -51
q119 -74 119 -296z" />
    <glyph glyph-name="uni1E0B" unicode="&#x1e0b;" horiz-adv-x="1288" 
d="M643 1188q33 0 68 -24t35 -58t-35 -58t-68 -24t-67 24t-34 58t34 58t67 24zM1014 818h-400q-102 0 -157 -7t-102 -32t-64 -75t-17 -136v-214q0 -86 17 -136t64 -75t102 -32t157 -7h58q342 0 342 352v362zM1014 922v292q0 72 56 72q48 0 48 -72v-1160q0 -68 -52 -68
t-52 70v70q-118 -126 -342 -126h-58q-230 0 -337 71t-107 281v218q0 210 107 281t337 71h400z" />
    <glyph glyph-name="uni1E1E" unicode="&#x1e1e;" 
d="M623 1576q33 0 68 -24t35 -58t-35 -58t-68 -24t-67 24t-34 58t34 58t67 24zM274 54q0 -68 -52 -68t-52 70v1154q0 72 48 72h812q68 0 68 -56q0 -48 -68 -48h-756v-410h518q72 0 72 -56q0 -48 -72 -48h-518v-610z" />
    <glyph glyph-name="uni1E1F" unicode="&#x1e1f;" horiz-adv-x="764" 
d="M435 1518q33 0 68 -24t35 -58t-35 -58t-68 -24t-67 24t-34 58t34 58t67 24zM668 1216q0 -48 -83 -48t-134 -7t-96 -31t-63 -74t-18 -134h276q72 0 72 -56q0 -48 -72 -48h-276v-762q0 -70 -56 -70q-48 0 -48 70v764q-62 4 -62 54q0 44 62 48q4 221 121 290q61 36 130 48
t175 12q72 0 72 -56z" />
    <glyph glyph-name="uni1E40" unicode="&#x1e40;" horiz-adv-x="1308" 
d="M653 1436q33 0 68 -24t35 -58t-35 -58t-68 -24t-67 24t-34 58t34 58t67 24zM655 558q-23 0 -35 16l-346 516v-1034q0 -70 -52 -70t-52 68v1162q0 70 48 70q36 0 60 -38l376 -556l378 556q26 38 58 38q50 0 50 -70v-1162q0 -68 -52 -68t-52 70v1034l-346 -516
q-12 -16 -35 -16z" />
    <glyph glyph-name="uni1E41" unicode="&#x1e41;" horiz-adv-x="1710" 
d="M851 1222q33 0 68 -24t35 -58t-35 -58t-68 -24t-67 24t-34 58t34 58t67 24zM552 818q-278 0 -278 -356v-408q0 -68 -52 -68t-52 68v812q0 70 48 70q56 0 56 -72v-68q56 68 114 97t171 29t197 -33t122 -127q102 160 290 160t280 -72t92 -280v-516q0 -68 -52 -68t-52 68
v514q0 86 -13 136t-49 75t-79 32t-123 7q-126 0 -196 -92t-70 -264v-408q0 -68 -52 -68t-52 68v514q0 162 -55 206t-195 44z" />
    <glyph glyph-name="uni1E56" unicode="&#x1e56;" horiz-adv-x="1140" 
d="M513 1576q33 0 68 -24t35 -58t-35 -58t-68 -24t-67 24t-34 58t34 58t67 24zM580 768q184 0 257 40t73 166t-74 165t-256 39h-306v-410h306zM274 50q0 -64 -52 -64t-52 64v1160q0 72 48 72h362q216 0 325 -66t109 -230t-91 -243t-255 -79h-394v-614z" />
    <glyph glyph-name="uni1E57" unicode="&#x1e57;" horiz-adv-x="1288" 
d="M685 1222q33 0 68 -24t35 -58t-35 -58t-68 -24t-67 24t-34 58t34 58t67 24zM1118 352q0 -210 -107 -281t-335 -71h-402v-294q0 -70 -56 -70q-48 0 -48 70v1162q0 68 52 68t52 -70v-70q118 126 342 126h58q230 0 337 -71t107 -281v-218zM1014 568q0 86 -17 136t-64 75
t-102 32t-157 7h-58q-342 0 -342 -354v-360h402q196 0 267 44t71 206v214z" />
    <glyph glyph-name="uni1E60" unicode="&#x1e60;" horiz-adv-x="1232" 
d="M647 1576q33 0 68 -24t35 -58t-35 -58t-68 -24t-67 24t-34 58t34 58t67 24zM274 963q0 -81 35 -138t85 -67l474 -102q134 -30 194 -124t60 -224t-79 -227t-261 -97h-166q-114 0 -188 13t-137 50q-121 71 -121 297q0 66 56 66q50 0 50 -66q0 -166 71 -211t269 -45h204
q106 0 152 72t46 162t-39 151t-81 71l-470 104q-140 30 -199 105t-59 210t82 230t272 95h152q114 0 187 -13t137 -49q122 -69 122 -294q0 -66 -53 -66t-53 66q0 166 -70 209t-270 43h-196q-108 0 -157 -70t-49 -151z" />
    <glyph glyph-name="uni1E61" unicode="&#x1e61;" 
d="M645 1208q33 0 68 -24t35 -58t-35 -58t-68 -24t-67 24t-34 58t34 58t67 24zM370 0q-129 0 -169 73q-31 57 -31 139t52 82t52 -67t23 -95t87 -28h496q118 0 118 148q0 74 -33 121t-85 47h-452q-258 0 -258 260q0 120 62 181t216 61h450q130 0 169 -74q31 -59 31 -139
q0 -81 -52 -81t-52 68t-24 95t-86 27h-492q-118 0 -118 -138q0 -76 33 -116t85 -40h454q140 0 198 -78t58 -198t-63 -184t-213 -64h-456z" />
    <glyph glyph-name="uni1E6A" unicode="&#x1e6a;" horiz-adv-x="1070" 
d="M533 1578q33 0 68 -24t35 -58t-35 -58t-68 -24t-67 24t-34 58t34 58t67 24zM896 1292q66 0 66 -52t-66 -52h-304v-1138q0 -64 -58 -64q-52 0 -52 64v1138h-308q-66 0 -66 52t66 52h722z" />
    <glyph glyph-name="uni1E6B" unicode="&#x1e6b;" horiz-adv-x="774" 
d="M211 1488q33 0 68 -24t35 -58t-35 -58t-68 -24t-67 24t-34 58t34 58t67 24zM264 354q0 -162 69 -206t253 -44q70 0 70 -48q0 -56 -70 -56q-216 0 -321 72t-105 280v468q-62 4 -62 54q0 44 62 48v208q0 72 48 72q56 0 56 -72v-208h276q72 0 72 -56q0 -48 -72 -48h-276
v-464z" />
    <glyph glyph-name="Wgrave" unicode="&#x1e80;" horiz-adv-x="1974" 
d="M810 1638q22 0 46 -26l140 -138q24 -28 24 -47t-14 -35t-38 -16t-48 26l-138 136q-26 30 -26 48t16 35t38 17zM1804 1298q44 0 44 -38q0 -12 -8 -36l-384 -1224h-116l-354 1106l-352 -1106h-114l-386 1232q-8 24 -8 36q0 38 44 38t60 -44l348 -1118l350 1108q18 52 61 52
t59 -52l352 -1108l344 1110q16 44 60 44z" />
    <glyph glyph-name="wgrave" unicode="&#x1e81;" horiz-adv-x="1674" 
d="M627 1368q21 0 47 -30l192 -230q18 -22 18 -45t-16 -37t-36 -14t-48 30l-192 230q-18 22 -18 44t16 37t37 15zM106 908q0 38 44 38t60 -44l280 -806l292 796q16 42 57 42t55 -42l280 -796l290 806q16 44 60 44t44 -38q0 -12 -8 -36l-310 -872h-158l-254 748l-274 -748
h-158l-292 872q-8 24 -8 36z" />
    <glyph glyph-name="Wacute" unicode="&#x1e82;" horiz-adv-x="1974" 
d="M1000 1376q-22 0 -38 15t-16 35t26 50l138 136q24 26 48 26t38 -17t14 -35t-24 -46l-140 -138q-24 -26 -46 -26zM1804 1298q44 0 44 -38q0 -12 -8 -36l-384 -1224h-116l-354 1106l-352 -1106h-114l-386 1232q-8 24 -8 36q0 38 44 38t60 -44l348 -1118l350 1108
q18 52 61 52t59 -52l352 -1108l344 1110q16 44 60 44z" />
    <glyph glyph-name="wacute" unicode="&#x1e83;" horiz-adv-x="1674" 
d="M861 1010q-19 0 -36 15t-17 37t18 44l192 230q28 30 48 30t36 -15t16 -37t-18 -44l-192 -230q-28 -30 -47 -30zM106 908q0 38 44 38t60 -44l280 -806l292 796q16 42 57 42t55 -42l280 -796l290 806q16 44 60 44t44 -38q0 -12 -8 -36l-310 -872h-158l-254 748l-274 -748
h-158l-292 872q-8 24 -8 36z" />
    <glyph glyph-name="Wdieresis" unicode="&#x1e84;" horiz-adv-x="1974" 
d="M837 1592q33 0 68 -24t35 -58t-35 -58t-68 -24t-67 24t-34 58t34 58t67 24zM1129 1592q33 0 68 -24t35 -58t-35 -58t-68 -24t-67 24t-34 58t34 58t67 24zM1804 1298q44 0 44 -38q0 -12 -8 -36l-384 -1224h-116l-354 1106l-352 -1106h-114l-386 1232q-8 24 -8 36
q0 38 44 38t60 -44l348 -1118l350 1108q18 52 61 52t59 -52l352 -1108l344 1110q16 44 60 44z" />
    <glyph glyph-name="wdieresis" unicode="&#x1e85;" horiz-adv-x="1674" 
d="M689 1232q33 0 68 -24t35 -58t-35 -58t-68 -24t-67 24t-34 58t34 58t67 24zM981 1232q33 0 68 -24t35 -58t-35 -58t-68 -24t-67 24t-34 58t34 58t67 24zM106 908q0 38 44 38t60 -44l280 -806l292 796q16 42 57 42t55 -42l280 -796l290 806q16 44 60 44t44 -38
q0 -12 -8 -36l-310 -872h-158l-254 748l-274 -748h-158l-292 872q-8 24 -8 36z" />
    <glyph glyph-name="uni1EA0" unicode="&#x1ea0;" horiz-adv-x="1196" 
d="M569 -154q33 0 68 -24t35 -58t-35 -58t-68 -24t-67 24t-34 58t34 58t67 24zM568 1120l-232 -618h468zM100 -32q-16 0 -34 12t-18 32t6 38l462 1242h108l462 -1242q6 -18 6 -38t-18 -32t-34 -12q-34 0 -54 46l-142 384h-548l-142 -384q-20 -46 -54 -46z" />
    <glyph glyph-name="uni1EA1" unicode="&#x1ea1;" horiz-adv-x="1184" 
d="M616 590h294v114q0 62 -23 88t-87 26h-282q-244 0 -244 -120q0 -70 -52 -70t-52 70q0 116 92 170t242 54h310q116 0 158 -56t42 -196v-616q0 -68 -52 -68t-52 70v70q-114 -126 -340 -126h-186q-94 0 -154 67t-60 179q0 202 109 273t337 71zM616 486q-102 0 -157 -7
t-103 -32t-65 -75t-17 -119t34 -109t76 -40h186q168 0 254 91t86 261v30h-294zM587 -126q33 0 68 -24t35 -58t-35 -58t-68 -24t-67 24t-34 58t34 58t67 24z" />
    <glyph glyph-name="uni1EA2" unicode="&#x1ea2;" horiz-adv-x="1196" 
d="M568 1120l-232 -618h468zM100 -32q-16 0 -34 12t-18 32t6 38l462 1242h108l462 -1242q6 -18 6 -38t-18 -32t-34 -12q-34 0 -54 46l-142 384h-548l-142 -384q-20 -46 -54 -46zM630 1502q0 54 -108 54v82q86 0 140 -27t54 -109q0 -50 -29 -82t-71 -38v-56h-94v122
q108 0 108 54z" />
    <glyph glyph-name="uni1EA3" unicode="&#x1ea3;" horiz-adv-x="1184" 
d="M616 590h294v114q0 62 -23 88t-87 26h-282q-244 0 -244 -120q0 -70 -52 -70t-52 70q0 116 92 170t242 54h310q116 0 158 -56t42 -196v-616q0 -68 -52 -68t-52 70v70q-114 -126 -340 -126h-186q-94 0 -154 67t-60 179q0 202 109 273t337 71zM616 486q-102 0 -157 -7
t-103 -32t-65 -75t-17 -119t34 -109t76 -40h186q168 0 254 91t86 261v30h-294zM672 1210q0 54 -108 54v82q86 0 140 -27t54 -109q0 -50 -29 -82t-71 -38v-56h-94v122q108 0 108 54z" />
    <glyph glyph-name="uni1EA4" unicode="&#x1ea4;" horiz-adv-x="1176" 
d="M346 458h428l-216 500zM48 20q0 16 6 28l454 1056h104l454 -1056q6 -12 6 -28q0 -44 -47 -44t-65 40l-140 338h-520l-140 -338q-18 -40 -65 -40t-47 44zM780 1318q-22 0 -38 15t-16 35t26 50l138 136q24 26 48 26t38 -17t14 -35t-24 -46l-140 -138q-24 -26 -46 -26z
M842 1162q0 -46 -46 -46q-20 0 -27 7t-17 19t-12 14l-182 192l-180 -192q-4 -4 -10 -12t-10 -11t-11 -10t-25 -7q-46 0 -46 46q0 20 12 36l210 264h118l214 -264q12 -16 12 -36z" />
    <glyph glyph-name="uni1EA5" unicode="&#x1ea5;" horiz-adv-x="1228" 
d="M616 590h294v114q0 62 -23 88t-87 26h-282q-244 0 -244 -120q0 -70 -52 -70t-52 70q0 116 92 170t242 54h310q116 0 158 -56t42 -196v-616q0 -68 -52 -68t-52 70v70q-114 -126 -340 -126h-186q-94 0 -154 67t-60 179q0 202 109 273t337 71zM616 486q-102 0 -157 -7
t-103 -32t-65 -75t-17 -119t34 -109t76 -40h186q168 0 254 91t86 261v30h-294zM804 1228q-22 0 -38 15t-16 35t26 50l138 136q24 26 48 26t38 -17t14 -35t-24 -46l-140 -138q-24 -26 -46 -26zM866 1072q0 -46 -46 -46q-20 0 -27 7t-17 19t-12 14l-182 192l-180 -192
q-4 -4 -10 -12t-10 -11t-11 -10t-25 -7q-46 0 -46 46q0 20 12 36l210 264h118l214 -264q12 -16 12 -36z" />
    <glyph glyph-name="uni1EA6" unicode="&#x1ea6;" horiz-adv-x="1176" 
d="M346 458h428l-216 500zM48 20q0 16 6 28l454 1056h104l454 -1056q6 -12 6 -28q0 -44 -47 -44t-65 40l-140 338h-520l-140 -338q-18 -40 -65 -40t-47 44zM180 1564q22 0 46 -26l140 -138q24 -28 24 -47t-14 -35t-38 -16t-48 26l-138 136q-26 30 -26 48t16 35t38 17z
M842 1146q0 -46 -46 -46q-20 0 -27 7t-17 19t-12 14l-182 192l-180 -192q-4 -4 -10 -12t-10 -11t-11 -10t-25 -7q-46 0 -46 46q0 20 12 36l210 264h118l214 -264q12 -16 12 -36z" />
    <glyph glyph-name="uni1EA7" unicode="&#x1ea7;" horiz-adv-x="1228" 
d="M616 590h294v114q0 62 -23 88t-87 26h-282q-244 0 -244 -120q0 -70 -52 -70t-52 70q0 116 92 170t242 54h310q116 0 158 -56t42 -196v-616q0 -68 -52 -68t-52 70v70q-114 -126 -340 -126h-186q-94 0 -154 67t-60 179q0 202 109 273t337 71zM616 486q-102 0 -157 -7
t-103 -32t-65 -75t-17 -119t34 -109t76 -40h186q168 0 254 91t86 261v30h-294zM204 1490q22 0 46 -26l140 -138q24 -28 24 -47t-14 -35t-38 -16t-48 26l-138 136q-26 30 -26 48t16 35t38 17zM866 1072q0 -46 -46 -46q-20 0 -27 7t-17 19t-12 14l-182 192l-180 -192
q-4 -4 -10 -12t-10 -11t-11 -10t-25 -7q-46 0 -46 46q0 20 12 36l210 264h118l214 -264q12 -16 12 -36z" />
    <glyph glyph-name="uni1EA8" unicode="&#x1ea8;" horiz-adv-x="1176" 
d="M346 458h428l-216 500zM48 20q0 16 6 28l454 1056h104l454 -1056q6 -12 6 -28q0 -44 -47 -44t-65 40l-140 338h-520l-140 -338q-18 -40 -65 -40t-47 44zM906 1502q0 54 -108 54v82q86 0 140 -27t54 -109q0 -50 -29 -82t-71 -38v-56h-94v122q108 0 108 54zM852 1162
q0 -46 -46 -46q-20 0 -27 7t-17 19t-12 14l-182 192l-180 -192q-4 -4 -10 -12t-10 -11t-11 -10t-25 -7q-46 0 -46 46q0 20 12 36l210 264h118l214 -264q12 -16 12 -36z" />
    <glyph glyph-name="uni1EA9" unicode="&#x1ea9;" horiz-adv-x="1228" 
d="M616 590h294v114q0 62 -23 88t-87 26h-282q-244 0 -244 -120q0 -70 -52 -70t-52 70q0 116 92 170t242 54h310q116 0 158 -56t42 -196v-616q0 -68 -52 -68t-52 70v70q-114 -126 -340 -126h-186q-94 0 -154 67t-60 179q0 202 109 273t337 71zM616 486q-102 0 -157 -7
t-103 -32t-65 -75t-17 -119t34 -109t76 -40h186q168 0 254 91t86 261v30h-294zM920 1412q0 54 -108 54v82q86 0 140 -27t54 -109q0 -50 -29 -82t-71 -38v-56h-94v122q108 0 108 54zM866 1072q0 -46 -46 -46q-20 0 -27 7t-17 19t-12 14l-182 192l-180 -192q-4 -4 -10 -12
t-10 -11t-11 -10t-25 -7q-46 0 -46 46q0 20 12 36l210 264h118l214 -264q12 -16 12 -36z" />
    <glyph glyph-name="uni1EAA" unicode="&#x1eaa;" horiz-adv-x="1176" 
d="M346 458h428l-216 500zM48 20q0 16 6 28l454 1056h104l454 -1056q6 -12 6 -28q0 -44 -47 -44t-65 40l-140 338h-520l-140 -338q-18 -40 -65 -40t-47 44zM852 1162q0 -46 -46 -46q-26 0 -66 40l-172 162l-170 -162q-40 -40 -66 -40q-46 0 -46 46q0 24 12 36l210 234h118
l214 -234q12 -12 12 -36zM799 1638q19 0 35 -12t16 -37t-28 -51l-94 -78q-16 -16 -38 -16l-15 2q-3 0 -7 2h-2l-196 72q-4 4 -11 4t-17 -8l-62 -56q-26 -18 -44 -18t-34 13t-16 39t28 48l92 76q14 18 38 18l26 -4l196 -72l10 -4q6 0 16 8l62 56q26 18 45 18z" />
    <glyph glyph-name="uni1EAB" unicode="&#x1eab;" horiz-adv-x="1228" 
d="M616 590h294v114q0 62 -23 88t-87 26h-282q-244 0 -244 -120q0 -70 -52 -70t-52 70q0 116 92 170t242 54h310q116 0 158 -56t42 -196v-616q0 -68 -52 -68t-52 70v70q-114 -126 -340 -126h-186q-94 0 -154 67t-60 179q0 202 109 273t337 71zM616 486q-102 0 -157 -7
t-103 -32t-65 -75t-17 -119t34 -109t76 -40h186q168 0 254 91t86 261v30h-294zM866 1072q0 -46 -46 -46q-26 0 -66 40l-172 162l-170 -162q-40 -40 -66 -40q-46 0 -46 46q0 24 12 36l210 234h118l214 -234q12 -12 12 -36zM813 1548q19 0 35 -12t16 -37t-28 -51l-94 -78
q-16 -16 -38 -16l-15 2q-3 0 -7 2h-2l-196 72q-4 4 -11 4t-17 -8l-62 -56q-26 -18 -44 -18t-34 13t-16 39t28 48l92 76q14 18 38 18l26 -4l196 -72l10 -4q6 0 16 8l62 56q26 18 45 18z" />
    <glyph glyph-name="uni1EAC" unicode="&#x1eac;" horiz-adv-x="1196" 
d="M569 -154q33 0 68 -24t35 -58t-35 -58t-68 -24t-67 24t-34 58t34 58t67 24zM568 1120l-232 -618h468zM100 -32q-16 0 -34 12t-18 32t6 38l462 1242h108l462 -1242q6 -18 6 -38t-18 -32t-34 -12q-34 0 -54 46l-142 384h-548l-142 -384q-20 -46 -54 -46zM854 1338
q0 -46 -46 -46q-20 0 -27 7t-17 19t-12 14l-182 192l-180 -192q-4 -4 -10 -12t-10 -11t-11 -10t-25 -7q-46 0 -46 46q0 20 12 36l210 264h118l214 -264q12 -16 12 -36z" />
    <glyph glyph-name="uni1EAD" unicode="&#x1ead;" horiz-adv-x="1184" 
d="M616 590h294v114q0 62 -23 88t-87 26h-282q-244 0 -244 -120q0 -70 -52 -70t-52 70q0 116 92 170t242 54h310q116 0 158 -56t42 -196v-616q0 -68 -52 -68t-52 70v70q-114 -126 -340 -126h-186q-94 0 -154 67t-60 179q0 202 109 273t337 71zM616 486q-102 0 -157 -7
t-103 -32t-65 -75t-17 -119t34 -109t76 -40h186q168 0 254 91t86 261v30h-294zM587 -126q33 0 68 -24t35 -58t-35 -58t-68 -24t-67 24t-34 58t34 58t67 24zM878 1072q0 -46 -46 -46q-20 0 -27 7t-17 19t-12 14l-182 192l-180 -192q-4 -4 -10 -12t-10 -11t-11 -10t-25 -7
q-46 0 -46 46q0 20 12 36l210 264h118l214 -264q12 -16 12 -36z" />
    <glyph glyph-name="uni1EAE" unicode="&#x1eae;" horiz-adv-x="1176" 
d="M346 458h428l-216 500zM48 20q0 16 6 28l454 1056h104l454 -1056q6 -12 6 -28q0 -44 -47 -44t-65 40l-140 338h-520l-140 -338q-18 -40 -65 -40t-47 44zM555 1144q-91 0 -165 71t-74 191h106q0 -86 41 -120t93 -34t93 34t41 120h106q0 -122 -75 -192t-166 -70zM564 1348
q-22 0 -38 15t-16 35t26 50l138 136q24 26 48 26t38 -17t14 -35t-24 -46l-140 -138q-24 -26 -46 -26z" />
    <glyph glyph-name="uni1EAF" unicode="&#x1eaf;" horiz-adv-x="1228" 
d="M616 590h294v114q0 62 -23 88t-87 26h-282q-244 0 -244 -120q0 -70 -52 -70t-52 70q0 116 92 170t242 54h310q116 0 158 -56t42 -196v-616q0 -68 -52 -68t-52 70v70q-114 -126 -340 -126h-186q-94 0 -154 67t-60 179q0 202 109 273t337 71zM616 486q-102 0 -157 -7
t-103 -32t-65 -75t-17 -119t34 -109t76 -40h186q168 0 254 91t86 261v30h-294zM579 1030q-91 0 -165 71t-74 191h106q0 -86 41 -120t93 -34t93 34t41 120h106q0 -122 -75 -192t-166 -70zM588 1234q-22 0 -38 15t-16 35t26 50l138 136q24 26 48 26t38 -17t14 -35t-24 -46
l-140 -138q-24 -26 -46 -26z" />
    <glyph glyph-name="uni1EB0" unicode="&#x1eb0;" horiz-adv-x="1176" 
d="M346 458h428l-216 500zM48 20q0 16 6 28l454 1056h104l454 -1056q6 -12 6 -28q0 -44 -47 -44t-65 40l-140 338h-520l-140 -338q-18 -40 -65 -40t-47 44zM555 1144q-91 0 -165 71t-74 191h106q0 -86 41 -120t93 -34t93 34t41 120h106q0 -122 -75 -192t-166 -70zM394 1610
q22 0 46 -26l140 -138q24 -28 24 -47t-14 -35t-38 -16t-48 26l-138 136q-26 30 -26 48t16 35t38 17z" />
    <glyph glyph-name="uni1EB1" unicode="&#x1eb1;" horiz-adv-x="1228" 
d="M616 590h294v114q0 62 -23 88t-87 26h-282q-244 0 -244 -120q0 -70 -52 -70t-52 70q0 116 92 170t242 54h310q116 0 158 -56t42 -196v-616q0 -68 -52 -68t-52 70v70q-114 -126 -340 -126h-186q-94 0 -154 67t-60 179q0 202 109 273t337 71zM616 486q-102 0 -157 -7
t-103 -32t-65 -75t-17 -119t34 -109t76 -40h186q168 0 254 91t86 261v30h-294zM579 1030q-91 0 -165 71t-74 191h106q0 -86 41 -120t93 -34t93 34t41 120h106q0 -122 -75 -192t-166 -70zM418 1496q22 0 46 -26l140 -138q24 -28 24 -47t-14 -35t-38 -16t-48 26l-138 136
q-26 30 -26 48t16 35t38 17z" />
    <glyph glyph-name="uni1EB2" unicode="&#x1eb2;" horiz-adv-x="1176" 
d="M346 458h428l-216 500zM48 20q0 16 6 28l454 1056h104l454 -1056q6 -12 6 -28q0 -44 -47 -44t-65 40l-140 338h-520l-140 -338q-18 -40 -65 -40t-47 44zM555 1132q-91 0 -165 71t-74 191h106q0 -86 41 -120t93 -34t93 34t41 120h106q0 -122 -75 -192t-166 -70zM616 1502
q0 54 -108 54v82q86 0 140 -27t54 -109q0 -50 -29 -82t-71 -38v-56h-94v122q108 0 108 54z" />
    <glyph glyph-name="uni1EB3" unicode="&#x1eb3;" horiz-adv-x="1228" 
d="M616 590h294v114q0 62 -23 88t-87 26h-282q-244 0 -244 -120q0 -70 -52 -70t-52 70q0 116 92 170t242 54h310q116 0 158 -56t42 -196v-616q0 -68 -52 -68t-52 70v70q-114 -126 -340 -126h-186q-94 0 -154 67t-60 179q0 202 109 273t337 71zM616 486q-102 0 -157 -7
t-103 -32t-65 -75t-17 -119t34 -109t76 -40h186q168 0 254 91t86 261v30h-294zM579 1030q-91 0 -165 71t-74 191h106q0 -86 41 -120t93 -34t93 34t41 120h106q0 -122 -75 -192t-166 -70zM640 1400q0 54 -108 54v82q86 0 140 -27t54 -109q0 -50 -29 -82t-71 -38v-56h-94v122
q108 0 108 54z" />
    <glyph glyph-name="uni1EB4" unicode="&#x1eb4;" horiz-adv-x="1176" 
d="M346 458h428l-216 500zM48 20q0 16 6 28l454 1056h104l454 -1056q6 -12 6 -28q0 -44 -47 -44t-65 40l-140 338h-520l-140 -338q-18 -40 -65 -40t-47 44zM557 1134q-91 0 -165 71t-74 191h106q0 -86 41 -120t93 -34t93 34t41 120h106q0 -122 -75 -192t-166 -70zM795 1638
q19 0 35 -12t16 -37t-28 -51l-94 -78q-16 -16 -38 -16l-15 2q-3 0 -5 2h-4l-196 72q-4 4 -11 4t-17 -8l-62 -56q-26 -18 -44 -18t-34 13t-16 39t28 48l92 76q14 18 38 18l26 -4l196 -72l10 -4q6 0 16 8l62 56q26 18 45 18z" />
    <glyph glyph-name="uni1EB5" unicode="&#x1eb5;" horiz-adv-x="1228" 
d="M616 590h294v114q0 62 -23 88t-87 26h-282q-244 0 -244 -120q0 -70 -52 -70t-52 70q0 116 92 170t242 54h310q116 0 158 -56t42 -196v-616q0 -68 -52 -68t-52 70v70q-114 -126 -340 -126h-186q-94 0 -154 67t-60 179q0 202 109 273t337 71zM616 486q-102 0 -157 -7
t-103 -32t-65 -75t-17 -119t34 -109t76 -40h186q168 0 254 91t86 261v30h-294zM617 1030q-91 0 -165 71t-74 191h106q0 -86 41 -120t93 -34t93 34t41 120h106q0 -122 -75 -192t-166 -70zM855 1534q19 0 35 -12t16 -37t-28 -51l-94 -78q-16 -16 -38 -16l-15 2q-3 0 -5 2h-4
l-196 72q-4 4 -11 4t-17 -8l-62 -56q-26 -18 -44 -18t-34 13t-16 39t28 48l92 76q14 18 38 18l26 -4l196 -72l10 -4q6 0 16 8l62 56q26 18 45 18z" />
    <glyph glyph-name="uni1EB6" unicode="&#x1eb6;" horiz-adv-x="1196" 
d="M569 -154q33 0 68 -24t35 -58t-35 -58t-68 -24t-67 24t-34 58t34 58t67 24zM568 1120l-232 -618h468zM100 -32q-16 0 -34 12t-18 32t6 38l462 1242h108l462 -1242q6 -18 6 -38t-18 -32t-34 -12q-34 0 -54 46l-142 384h-548l-142 -384q-20 -46 -54 -46zM563 1376
q-91 0 -165 71t-74 191h106q0 -86 41 -120t93 -34t93 34t41 120h106q0 -122 -75 -192t-166 -70z" />
    <glyph glyph-name="uni1EB7" unicode="&#x1eb7;" horiz-adv-x="1184" 
d="M616 590h294v114q0 62 -23 88t-87 26h-282q-244 0 -244 -120q0 -70 -52 -70t-52 70q0 116 92 170t242 54h310q116 0 158 -56t42 -196v-616q0 -68 -52 -68t-52 70v70q-114 -126 -340 -126h-186q-94 0 -154 67t-60 179q0 202 109 273t337 71zM616 486q-102 0 -157 -7
t-103 -32t-65 -75t-17 -119t34 -109t76 -40h186q168 0 254 91t86 261v30h-294zM587 -126q33 0 68 -24t35 -58t-35 -58t-68 -24t-67 24t-34 58t34 58t67 24zM585 1030q-91 0 -165 71t-74 191h106q0 -86 41 -120t93 -34t93 34t41 120h106q0 -122 -75 -192t-166 -70z" />
    <glyph glyph-name="uni1EB8" unicode="&#x1eb8;" 
d="M274 664v-560h756q68 0 68 -56q0 -48 -68 -48h-812q-48 0 -48 72v1138q0 72 48 72h812q68 0 68 -56q0 -48 -68 -48h-756v-410h518q72 0 72 -56q0 -48 -72 -48h-518zM603 -112q33 0 68 -24t35 -58t-35 -58t-68 -24t-67 24t-34 58t34 58t67 24z" />
    <glyph glyph-name="uni1EB9" unicode="&#x1eb9;" horiz-adv-x="1288" 
d="M674 818h-58q-194 0 -267 -41t-75 -183h740q-2 142 -75 183t-265 41zM1118 570v-80h-844v-136q0 -86 17 -136t65 -75t103 -32t157 -7h268q64 0 87 28t23 95t52 67t52 -72q0 -162 -93 -203q-43 -19 -107 -19h-282q-230 0 -338 71t-108 281v218q0 210 108 281t338 71h58
q230 0 337 -71t107 -281zM613 -112q33 0 68 -24t35 -58t-35 -58t-68 -24t-67 24t-34 58t34 58t67 24z" />
    <glyph glyph-name="uni1EBA" unicode="&#x1eba;" 
d="M274 664v-560h756q68 0 68 -56q0 -48 -68 -48h-812q-48 0 -48 72v1138q0 72 48 72h812q68 0 68 -56q0 -48 -68 -48h-756v-410h518q72 0 72 -56q0 -48 -72 -48h-518zM666 1502q0 54 -108 54v82q86 0 140 -27t54 -109q0 -50 -29 -82t-71 -38v-56h-94v122q108 0 108 54z" />
    <glyph glyph-name="uni1EBB" unicode="&#x1ebb;" horiz-adv-x="1288" 
d="M706 1220q0 54 -108 54v82q86 0 140 -27t54 -109q0 -50 -29 -82t-71 -38v-56h-94v122q108 0 108 54zM674 818h-58q-194 0 -267 -41t-75 -183h740q-2 142 -75 183t-265 41zM1118 570v-80h-844v-136q0 -86 17 -136t65 -75t103 -32t157 -7h268q64 0 87 28t23 95t52 67
t52 -72q0 -162 -93 -203q-43 -19 -107 -19h-282q-230 0 -338 71t-108 281v218q0 210 108 281t338 71h58q230 0 337 -71t107 -281z" />
    <glyph glyph-name="uni1EBC" unicode="&#x1ebc;" 
d="M855 1608q19 0 35 -12t16 -37t-28 -51l-94 -78q-16 -16 -38 -16l-15 2q-3 0 -5 2h-4l-196 72q-4 4 -11 4t-17 -8l-62 -56q-26 -18 -44 -18t-34 13t-16 39t28 48l92 76q14 18 38 18l26 -4l196 -72l10 -4q6 0 16 8l62 56q26 18 45 18zM274 664v-560h756q68 0 68 -56
q0 -48 -68 -48h-812q-48 0 -48 72v1138q0 72 48 72h812q68 0 68 -56q0 -48 -68 -48h-756v-410h518q72 0 72 -56q0 -48 -72 -48h-518z" />
    <glyph glyph-name="uni1EBD" unicode="&#x1ebd;" horiz-adv-x="1288" 
d="M877 1240q19 0 35 -12t16 -37t-28 -51l-94 -78q-16 -16 -38 -16l-15 2q-3 0 -5 2h-4l-196 72q-4 4 -11 4t-17 -8l-62 -56q-26 -18 -44 -18t-34 13t-16 39t28 48l92 76q14 18 38 18l26 -4l196 -72l10 -4q6 0 16 8l62 56q26 18 45 18zM674 818h-58q-194 0 -267 -41
t-75 -183h740q-2 142 -75 183t-265 41zM1118 570v-80h-844v-136q0 -86 17 -136t65 -75t103 -32t157 -7h268q64 0 87 28t23 95t52 67t52 -72q0 -162 -93 -203q-43 -19 -107 -19h-282q-230 0 -338 71t-108 281v218q0 210 108 281t338 71h58q230 0 337 -71t107 -281z" />
    <glyph glyph-name="uni1EBE" unicode="&#x1ebe;" horiz-adv-x="1228" 
d="M274 540v-436h756q68 0 68 -56q0 -48 -68 -48h-812q-48 0 -48 72v960q0 72 48 72h812q68 0 68 -56q0 -48 -68 -48h-756v-356h518q72 0 72 -56q0 -48 -72 -48h-518zM820 1378q-22 0 -38 15t-16 35t26 50l138 136q24 26 48 26t38 -17t14 -35t-24 -46l-140 -138
q-24 -26 -46 -26zM882 1222q0 -46 -46 -46q-20 0 -27 7t-17 19t-12 14l-182 192l-180 -192q-4 -4 -10 -12t-10 -11t-11 -10t-25 -7q-46 0 -46 46q0 20 12 36l210 264h118l214 -264q12 -16 12 -36z" />
    <glyph glyph-name="uni1EBF" unicode="&#x1ebf;" horiz-adv-x="1228" 
d="M674 818h-58q-194 0 -267 -41t-75 -183h740q-2 142 -75 183t-265 41zM1118 570v-80h-844v-136q0 -86 17 -136t65 -75t103 -32t157 -7h268q64 0 87 28t23 95t52 67t52 -72q0 -162 -93 -203q-43 -19 -107 -19h-282q-230 0 -338 71t-108 281v218q0 210 108 281t338 71h58
q230 0 337 -71t107 -281zM860 1228q-22 0 -38 15t-16 35t26 50l138 136q24 26 48 26t38 -17t14 -35t-24 -46l-140 -138q-24 -26 -46 -26zM922 1072q0 -46 -46 -46q-20 0 -27 7t-17 19t-12 14l-182 192l-180 -192q-4 -4 -10 -12t-10 -11t-11 -10t-25 -7q-46 0 -46 46
q0 20 12 36l210 264h118l214 -264q12 -16 12 -36z" />
    <glyph glyph-name="uni1EC0" unicode="&#x1ec0;" horiz-adv-x="1228" 
d="M274 540v-436h756q68 0 68 -56q0 -48 -68 -48h-812q-48 0 -48 72v960q0 72 48 72h812q68 0 68 -56q0 -48 -68 -48h-756v-356h518q72 0 72 -56q0 -48 -72 -48h-518zM236 1638q22 0 46 -26l140 -138q24 -28 24 -47t-14 -35t-38 -16t-48 26l-138 136q-26 30 -26 48t16 35
t38 17zM898 1220q0 -46 -46 -46q-20 0 -27 7t-17 19t-12 14l-182 192l-180 -192q-4 -4 -10 -12t-10 -11t-11 -10t-25 -7q-46 0 -46 46q0 20 12 36l210 264h118l214 -264q12 -16 12 -36z" />
    <glyph glyph-name="uni1EC1" unicode="&#x1ec1;" horiz-adv-x="1228" 
d="M674 818h-58q-194 0 -267 -41t-75 -183h740q-2 142 -75 183t-265 41zM1118 570v-80h-844v-136q0 -86 17 -136t65 -75t103 -32t157 -7h268q64 0 87 28t23 95t52 67t52 -72q0 -162 -93 -203q-43 -19 -107 -19h-282q-230 0 -338 71t-108 281v218q0 210 108 281t338 71h58
q230 0 337 -71t107 -281zM260 1490q22 0 46 -26l140 -138q24 -28 24 -47t-14 -35t-38 -16t-48 26l-138 136q-26 30 -26 48t16 35t38 17zM922 1072q0 -46 -46 -46q-20 0 -27 7t-17 19t-12 14l-182 192l-180 -192q-4 -4 -10 -12t-10 -11t-11 -10t-25 -7q-46 0 -46 46
q0 20 12 36l210 264h118l214 -264q12 -16 12 -36z" />
    <glyph glyph-name="uni1EC2" unicode="&#x1ec2;" horiz-adv-x="1228" 
d="M274 540v-436h756q68 0 68 -56q0 -48 -68 -48h-812q-48 0 -48 72v960q0 72 48 72h812q68 0 68 -56q0 -48 -68 -48h-756v-356h518q72 0 72 -56q0 -48 -72 -48h-518zM936 1502q0 54 -108 54v82q86 0 140 -27t54 -109q0 -50 -29 -82t-71 -38v-56h-94v122q108 0 108 54z
M882 1162q0 -46 -46 -46q-20 0 -27 7t-17 19t-12 14l-182 192l-180 -192q-4 -4 -10 -12t-10 -11t-11 -10t-25 -7q-46 0 -46 46q0 20 12 36l210 264h118l214 -264q12 -16 12 -36z" />
    <glyph glyph-name="uni1EC3" unicode="&#x1ec3;" horiz-adv-x="1228" 
d="M674 818h-58q-194 0 -267 -41t-75 -183h740q-2 142 -75 183t-265 41zM1118 570v-80h-844v-136q0 -86 17 -136t65 -75t103 -32t157 -7h268q64 0 87 28t23 95t52 67t52 -72q0 -162 -93 -203q-43 -19 -107 -19h-282q-230 0 -338 71t-108 281v218q0 210 108 281t338 71h58
q230 0 337 -71t107 -281zM960 1412q0 54 -108 54v82q86 0 140 -27t54 -109q0 -50 -29 -82t-71 -38v-56h-94v122q108 0 108 54zM906 1072q0 -46 -46 -46q-20 0 -27 7t-17 19t-12 14l-182 192l-180 -192q-4 -4 -10 -12t-10 -11t-11 -10t-25 -7q-46 0 -46 46q0 20 12 36
l210 264h118l214 -264q12 -16 12 -36z" />
    <glyph glyph-name="uni1EC4" unicode="&#x1ec4;" horiz-adv-x="1228" 
d="M274 540v-436h756q68 0 68 -56q0 -48 -68 -48h-812q-48 0 -48 72v960q0 72 48 72h812q68 0 68 -56q0 -48 -68 -48h-756v-356h518q72 0 72 -56q0 -48 -72 -48h-518zM898 1162q0 -46 -46 -46q-26 0 -66 40l-172 162l-170 -162q-40 -40 -66 -40q-46 0 -46 46q0 24 12 36
l210 234h118l214 -234q12 -12 12 -36zM845 1638q19 0 35 -12t16 -37t-28 -51l-94 -78q-16 -16 -38 -16l-15 2q-3 0 -7 2h-2l-196 72q-4 4 -11 4t-17 -8l-62 -56q-26 -18 -44 -18t-34 13t-16 39t28 48l92 76q14 18 38 18l26 -4l196 -72l10 -4q6 0 16 8l62 56q26 18 45 18z
" />
    <glyph glyph-name="uni1EC5" unicode="&#x1ec5;" horiz-adv-x="1228" 
d="M674 818h-58q-194 0 -267 -41t-75 -183h740q-2 142 -75 183t-265 41zM1118 570v-80h-844v-136q0 -86 17 -136t65 -75t103 -32t157 -7h268q64 0 87 28t23 95t52 67t52 -72q0 -162 -93 -203q-43 -19 -107 -19h-282q-230 0 -338 71t-108 281v218q0 210 108 281t338 71h58
q230 0 337 -71t107 -281zM906 1072q0 -46 -46 -46q-26 0 -66 40l-172 162l-170 -162q-40 -40 -66 -40q-46 0 -46 46q0 24 12 36l210 234h118l214 -234q12 -12 12 -36zM853 1548q19 0 35 -12t16 -37t-28 -51l-94 -78q-16 -16 -38 -16l-15 2q-3 0 -7 2h-2l-196 72q-4 4 -11 4
t-17 -8l-62 -56q-26 -18 -44 -18t-34 13t-16 39t28 48l92 76q14 18 38 18l26 -4l196 -72l10 -4q6 0 16 8l62 56q26 18 45 18z" />
    <glyph glyph-name="uni1EC6" unicode="&#x1ec6;" 
d="M274 664v-560h756q68 0 68 -56q0 -48 -68 -48h-812q-48 0 -48 72v1138q0 72 48 72h812q68 0 68 -56q0 -48 -68 -48h-756v-410h518q72 0 72 -56q0 -48 -72 -48h-518zM603 -112q33 0 68 -24t35 -58t-35 -58t-68 -24t-67 24t-34 58t34 58t67 24zM902 1338q0 -46 -46 -46
q-20 0 -27 7t-17 19t-12 14l-182 192l-180 -192q-4 -4 -10 -12t-10 -11t-11 -10t-25 -7q-46 0 -46 46q0 20 12 36l210 264h118l214 -264q12 -16 12 -36z" />
    <glyph glyph-name="uni1EC7" unicode="&#x1ec7;" horiz-adv-x="1288" 
d="M674 818h-58q-194 0 -267 -41t-75 -183h740q-2 142 -75 183t-265 41zM1118 570v-80h-844v-136q0 -86 17 -136t65 -75t103 -32t157 -7h268q64 0 87 28t23 95t52 67t52 -72q0 -162 -93 -203q-43 -19 -107 -19h-282q-230 0 -338 71t-108 281v218q0 210 108 281t338 71h58
q230 0 337 -71t107 -281zM613 -112q33 0 68 -24t35 -58t-35 -58t-68 -24t-67 24t-34 58t34 58t67 24zM908 1080q0 -46 -46 -46q-20 0 -27 7t-17 19t-12 14l-182 192l-180 -192q-4 -4 -10 -12t-10 -11t-11 -10t-25 -7q-46 0 -46 46q0 20 12 36l210 264h118l214 -264
q12 -16 12 -36z" />
    <glyph glyph-name="uni1EC8" unicode="&#x1ec8;" horiz-adv-x="442" 
d="M274 50q0 -64 -52 -64t-52 64v1170q0 66 52 66t52 -66v-1170zM282 1502q0 54 -108 54v82q86 0 140 -27t54 -109q0 -50 -29 -82t-71 -38v-56h-94v122q108 0 108 54z" />
    <glyph glyph-name="uni1EC9" unicode="&#x1ec9;" horiz-adv-x="440" 
d="M264 40q0 -64 -52 -64t-52 64v840q0 66 52 66t52 -66v-840zM274 1224q0 54 -108 54v82q86 0 140 -27t54 -109q0 -50 -29 -82t-71 -38v-56h-94v122q108 0 108 54z" />
    <glyph glyph-name="uni1ECA" unicode="&#x1eca;" horiz-adv-x="442" 
d="M219 -136q33 0 68 -24t35 -58t-35 -58t-68 -24t-67 24t-34 58t34 58t67 24zM274 50q0 -64 -52 -64t-52 64v1170q0 66 52 66t52 -66v-1170z" />
    <glyph glyph-name="uni1ECB" unicode="&#x1ecb;" horiz-adv-x="440" 
d="M209 -146q33 0 68 -24t35 -58t-35 -58t-68 -24t-67 24t-34 58t34 58t67 24zM264 40q0 -64 -52 -64t-52 64v840q0 66 52 66t52 -66v-840zM211 1284q33 0 68 -24t35 -58t-35 -58t-68 -24t-67 24t-34 58t34 58t67 24z" />
    <glyph glyph-name="uni1ECC" unicode="&#x1ecc;" 
d="M633 -140q33 0 68 -24t35 -58t-35 -58t-68 -24t-67 24t-34 58t34 58t67 24zM634 1186q-172 0 -266 -98t-94 -274v-356q0 -176 94 -274t266 -98t266 98t94 274v356q0 176 -94 274t-266 98zM634 -18q-204 0 -334 126t-130 348v360q0 222 130 348t334 126t334 -127t130 -347
v-360q0 -220 -130 -347t-334 -127z" />
    </font>
</defs>
</svg>
