<?xml version="1.0" standalone="no"?>
<!DOCTYPE svg PUBLIC "-//W3C//DTD SVG 1.1//EN" "http://www.w3.org/Graphics/SVG/1.1/DTD/svg11.dtd" >
<svg xmlns="http://www.w3.org/2000/svg">
<metadata>
Created by FontPrep 20130207 at Sat Nov  1 09:39:44 2014
 By ExcentricGrey
Copyright 2009 by Daniel Johnson.  Released under the terms of the Open Font License. Kayah Li glyphs are released under the GPL version 3.
</metadata>
<defs>
<font id="7c6a90e7cfd8f2c5c63b11c4a6e04a2a" horiz-adv-x='1024' >
  <font-face 
    font-family="JuraLight"
    font-weight="300"
    font-stretch="normal"
    units-per-em="2048"
    panose-1="2 0 3 3 0 0 0 0 0 0"
    ascent="1638"
    descent="-410"
    x-height="922"
    cap-height="1272"
    bbox="-1058 -410 1808 1666"
    underline-thickness="102"
    underline-position="-204"
    unicode-range="U+0020-FB02"
  />
<missing-glyph horiz-adv-x="748" 
d="M136 68h408v1228h-408v-1228zM68 0v1364h544v-1364h-544z" />
    <glyph glyph-name=".notdef" horiz-adv-x="748" 
d="M136 68h408v1228h-408v-1228zM68 0v1364h544v-1364h-544z" />
    <glyph glyph-name=".null" horiz-adv-x="0" 
 />
    <glyph glyph-name="nonmarkingreturn" horiz-adv-x="682" 
 />
    <glyph glyph-name="space" unicode=" " horiz-adv-x="818" 
 />
    <glyph glyph-name="exclam" unicode="!" horiz-adv-x="420" 
d="M168 1232q0 56 42 56t42 -56v-838q0 -56 -42 -56t-42 56v838zM304 58q0 -28 -31 -50t-62 -22t-62 22t-31 50t31 50t62 22t62 -22t31 -50z" />
    <glyph glyph-name="quotedbl" unicode="&#x22;" horiz-adv-x="544" 
d="M212 932q0 -56 -41 -56t-41 56v298q0 56 41 56t41 -56v-298zM416 932q0 -56 -42 -56t-42 56v298q0 56 42 56t42 -56v-298z" />
    <glyph glyph-name="numbersign" unicode="#" horiz-adv-x="1008" 
d="M424 778l-102 -284h268l102 284h-268zM536 1250q42 0 42 -40q0 -12 -6 -30l-118 -318h268l128 346q14 42 44 42q18 0 30 -12t12 -27t-6 -31l-116 -318h140q56 0 56 -42t-56 -42h-172l-102 -284h212q56 0 56 -42t-56 -42h-242l-128 -346q-14 -42 -44 -42q-42 0 -42 42
q0 12 6 28l118 318h-270l-126 -346q-14 -42 -44 -42q-40 0 -40 40q0 12 6 30l116 318h-146q-56 0 -56 42t56 42h178l102 284h-220q-54 0 -54 42t54 42h250l128 346q14 42 42 42z" />
    <glyph glyph-name="dollar" unicode="$" 
d="M582 696v324h-200q-128 0 -128 -152q0 -82 36 -127t92 -45h200zM666 612v-346h184q128 0 128 162q0 84 -36 134t-92 50h-184zM360 182q-126 0 -158 64t-32 137t42 73t42 -64t26 -95t94 -31h208v346h-164q-248 0 -248 256q0 116 57 176t191 60h164v126q0 56 42 56t42 -56
v-126h202q126 0 158 -64t32 -137t-42 -73t-42 64t-26 95t-94 31h-188v-324h150q246 0 246 -268q0 -246 -246 -246h-150v-142q0 -54 -42 -54t-42 54v142h-222z" />
    <glyph glyph-name="percent" unicode="%" horiz-adv-x="964" 
d="M843 1056q15 0 28 -12t13 -28t-22 -42l-700 -700q-22 -22 -39 -22t-30 12t-13 30t22 40l700 700q26 22 41 22zM104 942q0 64 46 109t109 45t108 -45t45 -109t-45 -109t-108 -45t-109 45t-46 109zM190 942q0 -28 21 -49t49 -21t49 21t21 49t-21 49t-49 21t-49 -21t-21 -49
zM552 366q0 62 46 108t108 46t108 -46t46 -108t-46 -108t-108 -46t-108 46t-46 108zM636 367q0 -29 21 -50t50 -21t49 21t20 50t-20 49t-49 20t-50 -20t-21 -49z" />
    <glyph glyph-name="ampersand" unicode="&#x26;" horiz-adv-x="1172" 
d="M254 364q0 -154 100 -226t226 -72t234 102l-416 482q-74 -42 -109 -122t-35 -164zM844 1057q0 -17 -12 -29t-31 -12t-41 30t-41 67t-60 67t-93 30q-98 0 -178 -71t-80 -187q0 -74 78 -164l480 -554q68 94 68 220q0 62 44 62q38 0 38 -62q0 -160 -92 -286l96 -110
q12 -14 12 -36q0 -36 -34 -36q-26 0 -52 28l-78 90q-132 -122 -282 -122t-273 82q-63 42 -103 120t-40 178t43 196t129 154l-28 34q-94 108 -94 206q0 148 111 245t239 97q78 0 146 -57t98 -110t30 -70z" />
    <glyph glyph-name="quotesingle" unicode="'" horiz-adv-x="342" 
d="M212 932q0 -56 -41 -56t-41 56v298q0 56 41 56t41 -56v-298z" />
    <glyph glyph-name="parenleft" unicode="(" horiz-adv-x="538" 
d="M410 1272q-108 0 -132 -41t-24 -225v-740q0 -184 24 -225t132 -41v-84q-90 0 -138 24q-102 51 -102 326v740q0 275 102 326q48 24 138 24v-84z" />
    <glyph glyph-name="parenright" unicode=")" horiz-adv-x="538" 
d="M130 0q106 0 130 41t24 225v740q0 184 -24 225t-130 41v84q134 0 186 -67t52 -283v-740q0 -216 -52 -283t-186 -67v84z" />
    <glyph glyph-name="asterisk" unicode="*" horiz-adv-x="772" 
d="M644 864q0 -16 -10 -31t-26 -15t-40 10l-140 82v-162q0 -56 -42 -56t-42 56v162l-140 -82q-24 -10 -38 -10t-25 13t-11 32t32 39l140 82l-140 78q-32 20 -32 37q0 47 38 47q12 0 36 -10l140 -82v162q0 56 42 56t42 -56v-162l140 82q24 10 38 10t26 -13t12 -31t-34 -40
l-138 -78l138 -82q34 -22 34 -38z" />
    <glyph glyph-name="plus" unicode="+" horiz-adv-x="1124" 
d="M604 40q0 -54 -42 -54t-42 54v378h-338q-52 0 -52 43t52 43h338v376q0 56 42 56t42 -56v-376h334q58 0 58 -46q0 -40 -58 -40h-334v-378z" />
    <glyph glyph-name="comma" unicode="," horiz-adv-x="370" 
d="M202 122q20 0 46 -10t26 -29t-8 -35l-84 -166q-18 -42 -40 -42q-34 0 -34 40q0 12 6 30l48 172q12 40 40 40z" />
    <glyph glyph-name="hyphen" unicode="-" horiz-adv-x="858" 
d="M182 418q-52 0 -52 43t52 43h490q58 0 58 -46q0 -40 -58 -40h-490z" />
    <glyph glyph-name="period" unicode="." horiz-adv-x="442" 
d="M130 58q0 28 30 50t61 22t62 -22t31 -50t-31 -50t-62 -22t-61 22t-30 50z" />
    <glyph glyph-name="slash" unicode="/" horiz-adv-x="660" 
d="M550 1290q44 0 44 -38q0 -14 -6 -32l-436 -1196q-12 -40 -42 -40q-42 0 -42 38q0 10 6 32l436 1196q12 40 40 40z" />
    <glyph glyph-name="zero" unicode="0" 
d="M1058 308q0 -136 -98 -222t-242 -86h-208q-144 0 -242 86t-98 222v656q0 136 98 222t242 86h208q144 0 242 -86t98 -222v-656zM254 994v-718q0 -74 70 -133t170 -59h240q100 0 170 59t70 133v718q0 74 -70 133t-170 59h-240q-100 0 -170 -59t-70 -133z" />
    <glyph glyph-name="one" unicode="1" horiz-adv-x="588" 
d="M296 1370q52 0 52 -46v-1284q0 -54 -42 -54t-42 54v1192l-68 -66q-24 -26 -50 -26q-38 0 -38 36q0 22 24 44l124 126q24 24 40 24z" />
    <glyph glyph-name="two" unicode="2" 
d="M1058 926q0 -104 -83 -184t-201 -142t-235 -127t-200 -165t-83 -224h742q60 0 60 -42t-60 -42h-826v88q0 102 44 188t115 143t156 107t171 92t157 85q159 96 159 217q0 172 -72 220t-258 48h-270q-68 0 -94 -30t-26 -95t-42 -65t-42 60q0 116 44 165t146 49h284
q102 0 171 -13t128 -49t87 -108t28 -176z" />
    <glyph glyph-name="three" unicode="3" 
d="M694 1188h-160q-90 0 -185 -35t-95 -95t-42 -60t-42 60q0 84 94 149t256 65h154q208 0 296 -82t88 -288q0 -70 -97 -153t-163 -97q64 -12 162 -110t98 -172q0 -206 -88 -288t-296 -82h-154q-162 0 -256 65t-94 137t42 72t42 -60t95 -95t185 -35h160q160 0 221 65t61 174
t-131 197t-241 88q-64 0 -64 43t64 43q114 0 243 75t129 171q0 118 -61 183t-221 65z" />
    <glyph glyph-name="four" unicode="4" 
d="M802 434v754l-562 -754h562zM1008 350h-122v-310q0 -54 -42 -54t-42 54v310h-636v112l606 810h114v-838h122q54 0 54 -42t-54 -42z" />
    <glyph glyph-name="five" unicode="5" 
d="M598 -18q-124 0 -274 69t-150 129q0 16 12 29t22 13t65 -39t144 -78t181 -39q170 0 265 103t95 285q0 88 -32 156t-81 104q-95 70 -197 70h-462l18 240q12 138 60 193t158 55h482q54 0 54 -42t-54 -42h-494q-56 0 -84 -30t-34 -100l-12 -190h350q160 0 286 -113t126 -317
t-125 -330t-319 -126z" />
    <glyph glyph-name="six" unicode="6" 
d="M254 414q0 -156 97 -252t263 -96t263 96t97 252t-97 252t-263 96t-263 -96t-97 -252zM170 409q0 183 43 337t103 249t128 165t117 99t69 29q44 0 44 -36q0 -26 -36 -46q-106 -58 -203 -182t-145 -306q128 128 321 128t320 -122t127 -310t-127 -310t-317 -122t-317 122
t-127 305z" />
    <glyph glyph-name="seven" unicode="7" 
d="M564 -20q-44 0 -44 38q0 16 8 38l412 1132h-546q-68 0 -95 -30t-27 -95t-42 -65t-42 60q0 116 44 165t146 49h620q42 0 42 -36q0 -16 -8 -38l-426 -1172q-16 -46 -42 -46z" />
    <glyph glyph-name="eight" unicode="8" 
d="M974 950q0 66 -15 113t-35 72q-42 53 -280 53h-58q-240 0 -286 -58t-46 -185t38 -174q22 -27 43 -42q43 -31 251 -31h58q209 0 250 31q59 45 70 100q10 55 10 121zM644 0h-58q-212 0 -314 69t-102 289t140 294q-140 64 -140 292q0 165 73 247q55 62 203 76q54 5 140 5h58
q269 0 342 -82q72 -82 72 -246q0 -230 -138 -292q138 -72 138 -297t-115 -295q-59 -36 -128 -48t-171 -12zM254 357q0 -81 14 -130t37 -77t80 -47t201 -19h58q94 0 147 7t100 33t65 80t18 144t-19 144t-65 81t-99 34t-147 7h-58q-96 0 -149 -7t-99 -34t-65 -81t-19 -135z
" />
    <glyph glyph-name="nine" unicode="9" 
d="M644 1188q-390 0 -390 -246q0 -64 26 -111t63 -72q90 -61 301 -61q330 0 330 242q0 248 -330 248zM170 942q0 106 51 178t135 102q140 50 288 50q414 0 414 -332q0 -214 -61 -400t-159 -309t-220 -193t-246 -70q-52 0 -52 43t61 43t144 37t169 110t156 201t102 288
q-100 -76 -308 -76q-474 0 -474 328z" />
    <glyph glyph-name="colon" unicode=":" horiz-adv-x="442" 
d="M130 866q0 28 30 50t61 22t62 -22t31 -50t-31 -50t-62 -22t-61 22t-30 50zM130 160q0 28 30 50t61 22t62 -22t31 -50t-31 -50t-62 -22t-61 22t-30 50z" />
    <glyph glyph-name="semicolon" unicode=";" horiz-adv-x="442" 
d="M130 866q0 28 30 50t61 22t62 -22t31 -50t-31 -50t-62 -22t-61 22t-30 50zM238 224q20 0 46 -10t26 -29t-8 -35l-84 -166q-18 -42 -40 -42q-34 0 -34 40q0 12 6 30l48 172q12 40 40 40z" />
    <glyph glyph-name="less" unicode="&#x3c;" horiz-adv-x="1092" 
d="M964 238q0 -50 -38 -50q-14 0 -38 12l-726 420q-32 22 -32 46t32 42l726 420q18 10 36 10q40 0 40 -36q0 -24 -32 -48l-678 -388l676 -392q34 -18 34 -36z" />
    <glyph glyph-name="equal" unicode="=" horiz-adv-x="858" 
d="M182 518q-52 0 -52 43t52 43h490q58 0 58 -46q0 -40 -58 -40h-490zM182 724q-52 0 -52 43t52 43h490q58 0 58 -46q0 -40 -58 -40h-490z" />
    <glyph glyph-name="greater" unicode="&#x3e;" horiz-adv-x="1092" 
d="M130 1089q0 49 38 49q16 0 36 -12l728 -420q32 -22 32 -46t-32 -42l-728 -420q-16 -10 -34 -10q-40 0 -40 38q0 26 32 46l678 390l-676 390q-34 18 -34 37z" />
    <glyph glyph-name="question" unicode="?" 
d="M626 388q0 -56 -42 -56t-42 56v280l306 84q56 16 92 74t36 144t-49 160t-155 74h-186q-96 0 -149 -7t-100 -32t-65 -79t-18 -144q0 -56 -43 -56t-43 56q0 220 117 287q61 35 129 47t172 12h152q172 0 247 -94t75 -226t-55 -202t-191 -108l-188 -52v-218zM492 58
q0 28 30 50t61 22t62 -22t31 -50t-31 -50t-62 -22t-61 22t-30 50z" />
    <glyph glyph-name="at" unicode="@" 
d="M635 464q103 0 131 41t28 158t-28 158t-131 41t-131 -41t-28 -158t28 -158t131 -41zM598 0q-190 0 -303 128t-113 354v308q0 226 113 354t303 128h58q190 0 303 -128t113 -340t-44 -285q-44 -74 -135 -107q-92 -32 -246 -32q-153 0 -204 65t-51 218t51 218t192 65
t192 -65t51 -198t-26 -197q56 12 82 36q54 50 54 253t-84 308t-248 105h-58q-164 0 -248 -105t-84 -293v-308q0 -188 84 -293t248 -105h268q68 0 95 30t27 95t42 65t42 -53q0 -94 -34 -158q-34 -63 -158 -63h-282z" />
    <glyph glyph-name="A" unicode="A" horiz-adv-x="1156" 
d="M310 492h480l-242 658zM90 -32q-42 0 -42 40q0 14 6 28l450 1236h92l450 -1236q6 -14 6 -28q0 -40 -42 -40q-28 0 -44 40l-144 400h-544l-144 -400q-18 -40 -44 -40z" />
    <glyph glyph-name="B" unicode="B" 
d="M560 758q180 0 255 42t75 173t-75 173t-255 42h-306v-430h306zM170 62v1148q0 62 38 62h352q206 0 310 -64t104 -234t-110 -240q98 -30 146 -106t48 -220v-58q0 -210 -102 -280t-312 -70h-436q-38 0 -38 62zM254 84h390q94 0 147 7t99 34t65 81t19 144v58q0 90 -19 144
t-65 81t-99 34t-147 7h-390v-590z" />
    <glyph glyph-name="C" unicode="C" 
d="M868 0h-282q-212 0 -314 70t-102 280v572q0 210 102 280t314 70h282q126 0 158 -64t32 -137t-42 -73t-42 64t-26 95t-94 31h-268q-96 0 -149 -7t-99 -34t-65 -81t-19 -144v-572q0 -90 19 -144t65 -81t99 -34t149 -7h268q68 0 94 30t26 95t42 65t42 -53q0 -93 -32 -157
t-158 -64z" />
    <glyph glyph-name="D" unicode="D" 
d="M974 350v572q0 90 -19 144t-65 81t-99 34t-147 7h-390v-1104h390q94 0 147 7t99 34t65 81t19 144zM1058 922v-572q0 -210 -102 -280t-312 -70h-436q-38 0 -38 62v1148q0 62 38 62h436q210 0 312 -70t102 -280z" />
    <glyph glyph-name="E" unicode="E" 
d="M254 674v-590h746q58 0 58 -46q0 -38 -58 -38h-792q-38 0 -38 62v1148q0 62 38 62h792q58 0 58 -46q0 -38 -58 -38h-746v-430h510q60 0 60 -46q0 -38 -60 -38h-510z" />
    <glyph glyph-name="F" unicode="F" 
d="M254 46q0 -60 -42 -60t-42 60v1164q0 62 38 62h792q58 0 58 -46q0 -38 -58 -38h-746v-430h510q60 0 60 -46q0 -38 -60 -38h-510v-628z" />
    <glyph glyph-name="G" unicode="G" 
d="M974 502h-266q-60 0 -60 42t60 42h350v-390q0 -156 -87 -194q-41 -18 -103 -18h-282q-104 0 -172 12t-128 48q-116 70 -116 290v604q0 220 116 290q60 36 128 48t172 12h282q126 0 158 -64t32 -137t-42 -73t-42 65t-26 95t-94 30h-268q-96 0 -149 -7t-99 -34t-65 -81
t-19 -144v-604q0 -90 19 -144t65 -81t99 -34t149 -7h268q68 0 94 30t26 102v302z" />
    <glyph glyph-name="H" unicode="H" 
d="M254 46q0 -60 -42 -60t-42 60v1178q0 62 38 62q46 0 46 -62v-496h720v496q0 62 42 62t42 -62v-1178q0 -60 -42 -60t-42 60v598h-720v-598z" />
    <glyph glyph-name="I" unicode="I" horiz-adv-x="422" 
d="M254 40q0 -54 -42 -54t-42 54v1190q0 56 42 56t42 -56v-1190z" />
    <glyph glyph-name="J" unicode="J" horiz-adv-x="1172" 
d="M588 68q96 0 149 7t99 34t65 81t19 144v896q0 56 42 56t42 -56v-896q0 -220 -116 -290q-60 -36 -128 -48t-172 -12t-173 12t-129 48q-116 70 -116 290q0 56 46 56q40 0 40 -56q0 -172 72 -219t260 -47z" />
    <glyph glyph-name="K" unicode="K" horiz-adv-x="1118" 
d="M990 28q0 -18 -14 -30t-32 -12t-38 26l-536 638l-116 -140v-470q0 -54 -42 -54t-42 54v1190q0 56 42 56t42 -56v-588l520 618q20 26 38 26t31 -11t13 -29t-18 -40l-412 -492l544 -648q20 -20 20 -38z" />
    <glyph glyph-name="L" unicode="L" horiz-adv-x="1116" 
d="M208 0q-38 0 -38 62v1168q0 56 42 56t42 -56v-1146h636q56 0 56 -42t-56 -42h-682z" />
    <glyph glyph-name="M" unicode="M" horiz-adv-x="1268" 
d="M636 558q-16 0 -26 12l-356 544v-1068q0 -60 -42 -60t-42 60v1178q0 62 38 62q30 0 52 -34l374 -568l376 568q22 34 50 34q40 0 40 -62v-1178q0 -60 -42 -60t-42 60v1068l-356 -544q-8 -12 -24 -12z" />
    <glyph glyph-name="N" unicode="N" 
d="M1018 -14q-24 0 -32 14l-732 1114v-1068q0 -60 -42 -60t-42 60v1178q0 62 38 62q30 0 52 -34l714 -1084v1056q0 62 42 62t42 -62v-1178q0 -60 -40 -60z" />
    <glyph glyph-name="O" unicode="O" 
d="M614 1206q-168 0 -264 -103t-96 -285v-364q0 -182 96 -285t264 -103t264 103t96 285v364q0 182 -96 285t-264 103zM614 -18q-194 0 -319 126t-125 346v364q0 220 125 346t319 126t319 -126t125 -346v-364q0 -220 -125 -346t-319 -126z" />
    <glyph glyph-name="P" unicode="P" horiz-adv-x="1100" 
d="M560 758q180 0 255 42t75 173t-75 173t-255 42h-306v-430h306zM254 40q0 -54 -42 -54t-42 54v1170q0 62 38 62h352q206 0 310 -64t104 -223t-87 -235t-243 -76h-390v-634z" />
    <glyph glyph-name="Q" unicode="Q" 
d="M599 -18q-179 0 -304 126t-125 346v364q0 220 125 346t319 126t319 -126t125 -346v-364q0 -198 -102 -320l76 -76q20 -20 20 -38t-11 -31t-27 -13t-42 22l-74 76q-120 -92 -299 -92zM614 1206q-168 0 -264 -103t-96 -285v-364q0 -182 96 -285t249 -103t239 68l-116 114
q-22 22 -22 38t12 30t30 14t40 -22l116 -118q76 100 76 264v364q0 182 -96 285t-264 103z" />
    <glyph glyph-name="R" unicode="R" horiz-adv-x="1134" 
d="M254 40q0 -54 -42 -54t-42 54v1170q0 62 38 62h352q206 0 310 -64t104 -236q0 -126 -64 -200t-182 -92q66 -52 131 -209t98 -282t33 -149q0 -54 -44 -54q-18 0 -29 16t-11 41t-28 139t-96 270t-152 222h-376v-634zM560 758q180 0 255 42t75 173t-75 173t-255 42h-306
v-430h306z" />
    <glyph glyph-name="S" unicode="S" horiz-adv-x="1172" 
d="M254 969q0 -85 37 -144t91 -73l434 -104q246 -62 246 -340q0 -132 -75 -228t-247 -96h-152q-104 0 -173 12t-129 48q-116 70 -116 290q0 56 46 56q40 0 40 -56q0 -172 72 -219t260 -47h186q106 0 155 76t49 171t-41 161t-87 76l-432 106q-136 32 -192 104t-56 205t76 227
t248 94h152q104 0 172 -12t128 -47q116 -68 116 -287q0 -56 -43 -56t-43 56q0 90 -18 144t-65 79t-99 32t-148 7h-188q-106 0 -155 -75t-49 -160z" />
    <glyph glyph-name="T" unicode="T" horiz-adv-x="1030" 
d="M866 1272q56 0 56 -42t-56 -42h-308v-1148q0 -54 -42 -54t-42 54v1148h-310q-56 0 -56 42t56 42h702z" />
    <glyph glyph-name="U" unicode="U" 
d="M974 1230q0 56 42 56t42 -56v-776q0 -220 -125 -346t-319 -126t-319 126t-125 346v776q0 56 42 56t42 -56v-776q0 -182 96 -285t264 -103t264 103t96 285v776z" />
    <glyph glyph-name="V" unicode="V" horiz-adv-x="1156" 
d="M48 1265q0 13 12 26t34 13t40 -40l416 -1144l416 1144q16 40 44 40q19 0 30 -13q12 -13 12 -26t-6 -31l-450 -1234h-92l-450 1234q-6 18 -6 31z" />
    <glyph glyph-name="W" unicode="W" horiz-adv-x="1934" 
d="M968 1304q34 0 48 -44l354 -1140l352 1144q16 40 38 40t35 -13t13 -26t-6 -31l-384 -1234h-100l-352 1130l-350 -1130h-98l-376 1234q-2 6 -9 16t-7 19t14 22t34 13q26 0 38 -40l356 -1144l352 1140q14 44 48 44z" />
    <glyph glyph-name="X" unicode="X" horiz-adv-x="1272" 
d="M1059 1286q17 0 31 -12t14 -31t-14 -35l-402 -574l402 -570q14 -22 14 -39t-13 -28t-31 -11t-40 28l-384 548l-382 -548q-22 -28 -40 -28t-31 11t-13 28t14 39l402 570l-402 574q-14 16 -14 35t13 31t31 12t40 -32l382 -546l384 546q22 32 39 32z" />
    <glyph glyph-name="Y" unicode="Y" horiz-adv-x="1190" 
d="M130 1245q0 17 13 29t30 12t39 -32l384 -546l382 546q26 32 42 32t29 -12t13 -29t-14 -37l-410 -588v-580q0 -54 -41 -54t-41 54v580l-412 588q-14 20 -14 37z" />
    <glyph glyph-name="Z" unicode="Z" 
d="M172 0v88l792 1100h-732q-62 0 -62 42t62 42h826v-92l-788 -1096h728q60 0 60 -42t-60 -42h-826z" />
    <glyph glyph-name="bracketleft" unicode="[" horiz-adv-x="538" 
d="M410 1272h-156v-1272h156v-84h-240v1440h240v-84z" />
    <glyph glyph-name="backslash" unicode="\" horiz-adv-x="660" 
d="M110 1290q30 0 42 -40l436 -1196q6 -20 6 -32q0 -38 -44 -38q-28 0 -40 40l-436 1196q-6 18 -6 32q0 38 42 38z" />
    <glyph glyph-name="bracketright" unicode="]" horiz-adv-x="538" 
d="M170 0h156v1272h-156v84h240v-1440h-240v84z" />
    <glyph glyph-name="asciicircum" unicode="^" horiz-adv-x="886" 
d="M206 730q-36 0 -36 36q0 4 4 20l216 486h108l214 -486q4 -8 4 -20q0 -36 -36 -36q-30 0 -48 36l-186 414h-6l-186 -414q-18 -36 -48 -36z" />
    <glyph glyph-name="underscore" unicode="_" horiz-adv-x="950" 
d="M56 -84q-56 0 -56 42t56 42h838q56 0 56 -42t-56 -42h-838z" />
    <glyph glyph-name="grave" unicode="`" horiz-adv-x="424" 
d="M68 1313q0 19 13 31t29 12t40 -26l192 -230q16 -18 16 -37t-13 -31t-29 -12t-40 26l-192 230q-16 18 -16 37z" />
    <glyph glyph-name="a" unicode="a" 
d="M586 580h304v128q0 70 -26 100t-94 30h-282q-234 0 -234 -130q0 -60 -42 -60t-42 60q0 108 85 161t219 53h310q110 0 150 -54t40 -194v-628q0 -60 -42 -60t-42 60v98q-108 -144 -330 -144h-186q-90 0 -147 65t-57 162t20 159q38 116 137 155q100 39 259 39zM586 496
q-96 0 -149 -7t-99 -34t-65 -81t-19 -127t37 -118t83 -45h186q158 0 244 96t86 276v40h-304z" />
    <glyph glyph-name="b" unicode="b" 
d="M586 838q-160 0 -246 -97t-86 -277v-8q0 -180 86 -276t246 -96h58q94 0 147 7t99 34t65 81t19 144v222q0 90 -19 144t-65 81t-99 34t-147 7h-58zM586 922h58q210 0 312 -70t102 -280v-222q0 -210 -102 -280t-312 -70h-58q-220 0 -332 144v-98q0 -60 -42 -60t-42 60v1178
q0 62 38 62q46 0 46 -62v-446q112 144 332 144z" />
    <glyph glyph-name="c" unicode="c" 
d="M868 0h-282q-212 0 -314 70t-102 280v222q0 210 102 280t314 70h282q127 0 158 -65q32 -65 32 -137t-42 -72t-42 64t-26 95t-94 31h-268q-96 0 -149 -7t-99 -34t-65 -81t-19 -144v-222q0 -90 19 -144t65 -81t99 -34t149 -7h268q68 0 94 30t26 95t42 65t42 -53
q0 -93 -32 -157t-158 -64z" />
    <glyph glyph-name="d" unicode="d" 
d="M170 572q0 210 102 280t314 70h388v302q0 62 46 62q38 0 38 -62v-1178q0 -60 -42 -60t-42 60v98q-108 -144 -330 -144h-58q-212 0 -314 70t-102 280v222zM254 350q0 -90 19 -144t65 -81t99 -34t149 -7h58q158 0 244 96t86 276v382h-388q-96 0 -149 -7t-99 -34t-65 -81
t-19 -144v-222z" />
    <glyph glyph-name="e" unicode="e" 
d="M644 838h-58q-184 0 -258 -46t-74 -208h720q0 162 -74 208t-256 46zM1058 572v-72h-804v-150q0 -90 19 -144t65 -81t99 -34t149 -7h268q68 0 94 30t26 95t42 65t42 -53q0 -93 -32 -157t-158 -64h-282q-212 0 -314 70t-102 280v222q0 210 102 280t314 70h58q210 0 312 -70
t102 -280z" />
    <glyph glyph-name="f" unicode="f" horiz-adv-x="744" 
d="M586 1188q-96 0 -149 -7t-99 -34t-65 -81t-19 -144h286q62 0 62 -46q0 -38 -62 -38h-286v-790q0 -62 -46 -62q-38 0 -38 62v790q-62 0 -62 42t62 42q0 220 116 290q60 36 128 48t172 12q62 0 62 -46q0 -38 -62 -38z" />
    <glyph glyph-name="g" unicode="g" 
d="M254 350q0 -90 19 -144t65 -81t99 -34t149 -7h268q68 0 94 29t26 99v252q0 180 -86 277t-244 97h-58q-96 0 -149 -7t-99 -34t-65 -81t-19 -144v-222zM170 572q0 210 102 280t314 70h58q222 0 330 -144v98q0 60 42 60t42 -60v-1060q0 -128 -36 -177t-136 -49h-526
q-127 0 -158 65q-32 65 -32 137t42 72t42 -64t26 -95t94 -31h498q62 0 82 23t20 87v234q-38 -18 -106 -18h-282q-212 0 -314 70t-102 280v222z" />
    <glyph glyph-name="h" unicode="h" 
d="M586 838q-160 0 -246 -97t-86 -277v-418q0 -60 -42 -60t-42 60v1178q0 62 38 62q46 0 46 -62v-446q112 144 332 144h58q210 0 312 -70t102 -280v-526q0 -60 -42 -60t-42 60v526q0 90 -19 144t-65 81t-99 34t-147 7h-58z" />
    <glyph glyph-name="i" unicode="i" horiz-adv-x="420" 
d="M120 1202q0 28 30 50t61 22t62 -22t31 -50t-31 -50t-62 -22t-61 22t-30 50zM254 40q0 -54 -42 -54t-42 54v840q0 56 42 56t42 -56v-840z" />
    <glyph glyph-name="j" unicode="j" horiz-adv-x="416" 
d="M248 0q0 -223 -116 -291q-60 -35 -128 -47t-172 -12q-62 0 -62 42t62 42q96 0 149 7t99 34t65 81t19 144v874q0 62 42 62t42 -62v-874zM114 1202q0 28 31 50t62 22t61 -22t30 -50t-30 -50t-61 -22t-62 22t-31 50z" />
    <glyph glyph-name="k" unicode="k" horiz-adv-x="956" 
d="M864 32q0 -18 -11 -31t-29 -13t-40 22l-462 464l-68 -68v-366q0 -54 -42 -54t-42 54v1190q0 56 42 56t42 -56v-706l384 386q26 22 41 22t28 -12t13 -30t-22 -40l-318 -318l464 -462q20 -20 20 -38z" />
    <glyph glyph-name="l" unicode="l" horiz-adv-x="512" 
d="M374 0h-14q-110 0 -150 54t-40 194v978q0 60 42 60t42 -60v-1014q0 -70 26 -99t90 -29t64 -42t-60 -42z" />
    <glyph glyph-name="m" unicode="m" horiz-adv-x="1672" 
d="M524 838q-128 0 -199 -97t-71 -277v-418q0 -60 -42 -60t-42 60v828q0 62 38 62q46 0 46 -62v-96q60 78 118 111t172 33t196 -36t116 -138q94 174 282 174t277 -70t89 -280v-526q0 -60 -42 -60t-42 60v526q0 90 -14 144t-52 81t-82 34t-124 7q-128 0 -199 -97t-71 -277
v-418q0 -60 -42 -60t-42 60v526q0 90 -14 144t-52 81t-81 34t-123 7z" />
    <glyph glyph-name="n" unicode="n" 
d="M586 838q-160 0 -246 -97t-86 -277v-418q0 -60 -42 -60t-42 60v828q0 62 38 62q46 0 46 -62v-96q112 144 332 144h58q210 0 312 -70t102 -280v-526q0 -60 -42 -60t-42 60v526q0 90 -19 144t-65 81t-99 34t-147 7h-58z" />
    <glyph glyph-name="o" unicode="o" 
d="M586 84h58q94 0 147 7t99 34t65 81t19 144v222q0 90 -19 144t-65 81t-99 34t-147 7h-58q-96 0 -149 -7t-99 -34t-65 -81t-19 -144v-222q0 -90 19 -144t65 -81t99 -34t149 -7zM644 0h-58q-212 0 -314 70t-102 280v222q0 210 102 280t314 70h58q210 0 312 -70t102 -280
v-222q0 -210 -102 -280t-312 -70z" />
    <glyph glyph-name="p" unicode="p" 
d="M1058 350q0 -210 -102 -280t-312 -70h-390v-304q0 -60 -46 -60q-38 0 -38 60v1180q0 60 42 60t42 -60v-98q112 144 332 144h58q210 0 312 -70t102 -280v-222zM974 572q0 90 -19 144t-65 81t-99 34t-147 7h-58q-160 0 -246 -97t-86 -277v-380h390q94 0 147 7t99 34t65 81
t19 144v222z" />
    <glyph glyph-name="q" unicode="q" 
d="M170 350v222q0 210 102 280t314 70h58q222 0 330 -144v98q0 60 42 60t42 -60v-1180q0 -60 -38 -60q-46 0 -46 60v304h-388q-212 0 -314 70t-102 280zM254 572v-222q0 -90 19 -144t65 -81t99 -34t149 -7h388v380q0 180 -86 277t-244 97h-58q-96 0 -149 -7t-99 -34t-65 -81
t-19 -144z" />
    <glyph glyph-name="r" unicode="r" horiz-adv-x="844" 
d="M586 838q-160 0 -246 -97t-86 -277v-418q0 -60 -42 -60t-42 60v828q0 62 38 62q46 0 46 -62v-96q112 144 332 144h92q60 0 60 -42t-60 -42h-92z" />
    <glyph glyph-name="s" unicode="s" 
d="M360 0q-126 0 -158 64t-32 137t42 73t42 -65t26 -95t94 -30h476q128 0 128 162q0 84 -36 134t-92 50h-432q-248 0 -248 256q0 116 57 176t191 60h450q127 0 158 -65q32 -65 32 -137t-42 -72t-42 64t-26 95t-94 31h-472q-128 0 -128 -152q0 -82 36 -127t92 -45h434
q246 0 246 -268q0 -246 -246 -246h-456z" />
    <glyph glyph-name="t" unicode="t" horiz-adv-x="754" 
d="M244 350q0 -90 19 -144t65 -81t99 -34t149 -7q60 0 60 -38q0 -46 -60 -46q-199 0 -308 66q-108 66 -108 284v488q-62 0 -62 42t62 42v218q0 62 38 62q46 0 46 -62v-218h286q62 0 62 -46q0 -38 -62 -38h-286v-488z" />
    <glyph glyph-name="u" unicode="u" 
d="M644 84q158 0 244 96t86 276v420q0 60 42 60t42 -60v-828q0 -62 -38 -62q-46 0 -46 62v96q-108 -144 -330 -144h-58q-212 0 -314 70t-102 280v526q0 60 42 60t42 -60v-526q0 -90 19 -144t65 -81t99 -34t149 -7h58z" />
    <glyph glyph-name="v" unicode="v" horiz-adv-x="1146" 
d="M130 898q0 38 45 38q23 0 39 -38l346 -806h14l360 808q18 36 46 36q38 0 38 -36q0 -16 -6 -22l-386 -878h-128l-362 878q-6 4 -6 20z" />
    <glyph glyph-name="w" unicode="w" horiz-adv-x="1636" 
d="M1474 936q16 0 35 -11t19 -26t-6 -21l-310 -878h-142l-252 768l-272 -768h-142l-290 878q-6 4 -6 19t20 27t34 12q20 0 34 -38l278 -806h12l288 808q6 34 42 34t46 -34l276 -808h12l290 808q12 36 34 36z" />
    <glyph glyph-name="x" unicode="x" horiz-adv-x="1136" 
d="M980 16q0 -16 -13 -27t-29 -11t-38 24l-330 394l-332 -394q-22 -24 -39 -24t-30 11t-13 27t18 42l340 402l-340 406q-18 22 -18 39t13 28t30 11t39 -24l332 -394l330 394q22 24 38 24t29 -11t13 -28t-18 -39l-340 -406l340 -402q18 -26 18 -42z" />
    <glyph glyph-name="y" unicode="y" 
d="M1058 -184q0 -128 -36 -177t-136 -49h-526q-127 0 -158 65q-32 65 -32 137t42 72t42 -64t26 -95t94 -31h498q62 0 82 23t20 87v360q-108 -144 -330 -144h-58q-212 0 -314 70t-102 280v522q0 64 42 64t42 -64v-522q0 -90 19 -144t65 -81t99 -34t149 -7h58q158 0 244 96
t86 276v416q0 64 42 64t42 -64v-1056z" />
    <glyph glyph-name="z" unicode="z" horiz-adv-x="1182" 
d="M808 84q56 0 84 25t33 54t5 88t42 59t42 -62q0 -140 -41 -194t-149 -54h-654v118l708 720h-504q-78 0 -99 -41t-21 -113t-42 -72t-42 62q0 140 40 194t150 54h612v-124l-702 -714h538z" />
    <glyph glyph-name="braceleft" unicode="{" horiz-adv-x="538" 
d="M310 465q0 -45 -28 -135t-28 -114q0 -138 26 -177t130 -39v-84q-132 0 -186 61t-54 239q0 36 28 127t28 129t-38 79t-76 61l-38 22q52 23 102 76q50 52 50 90t-28 129t-28 127q0 178 54 239t186 61v-84q-104 0 -130 -40t-26 -176q0 -24 28 -115t28 -135t-38 -86t-76 -64
l-38 -22q55 -24 103 -74q49 -50 49 -95z" />
    <glyph glyph-name="bar" unicode="|" horiz-adv-x="422" 
d="M254 40q0 -54 -42 -54t-42 54v1190q0 56 42 56t42 -56v-1190z" />
    <glyph glyph-name="braceright" unicode="}" horiz-adv-x="538" 
d="M174 806q0 44 28 135t28 115q0 136 -26 176t-130 40v84q132 0 186 -61t54 -239q0 -36 -28 -127t-28 -129t38 -79t76 -63l38 -22q-51 -23 -102 -74q-50 -52 -50 -90t28 -129t28 -127q0 -178 -54 -239t-186 -61v84q104 0 130 39t26 177q0 24 -28 114t-28 135t38 86t76 63
l38 22q-51 23 -102 74q-50 52 -50 96z" />
    <glyph glyph-name="asciitilde" unicode="~" horiz-adv-x="802" 
d="M511 458q7 0 21 10l62 56q22 16 38 16t29 -10t13 -30t-24 -42l-94 -78q-14 -14 -27 -14t-25 4l-196 72q-8 4 -16 4t-22 -10l-62 -56q-22 -16 -37 -16t-28 11t-13 32t24 39l94 78q10 14 23 14t29 -4l196 -72q8 -4 15 -4z" />
    <glyph glyph-name="exclamdown" unicode="&#xa1;" horiz-adv-x="420" 
d="M118 900q0 28 31 50t62 22t62 -22t31 -50t-31 -50t-62 -22t-62 22t-31 50zM254 -276q0 -54 -42 -54t-42 54v840q0 56 42 56t42 -56v-840z" />
    <glyph glyph-name="cent" unicode="&#xa2;" horiz-adv-x="1070" 
d="M258 680v-84q0 -154 57 -207t197 -57v612q-136 -4 -195 -59t-59 -205zM596 40q0 -54 -42 -54t-42 54v208q-170 8 -254 82t-84 266v84q0 190 85 265t253 83v202q0 56 42 56t42 -56v-200h114q116 0 154 -58t38 -154q0 -62 -42 -62t-42 65t-27 95t-95 30h-100v-616h96
q68 0 95 30t27 95t42 65t42 -53q0 -94 -34 -158q-34 -63 -158 -63h-110v-206z" />
    <glyph glyph-name="sterling" unicode="&#xa3;" horiz-adv-x="1074" 
d="M204 0q-34 0 -34 46q0 10 2 16l76 874q20 221 120 286q100 64 238 64t217 -59t79 -225q0 -56 -42 -56t-42 62q0 132 -61 163t-170 31t-175 -50t-80 -216l-18 -208h78q54 0 54 -42t-54 -42h-86l-48 -560h592q56 0 56 -42t-56 -42h-646z" />
    <glyph glyph-name="currency" unicode="&#xa4;" horiz-adv-x="956" 
d="M192 461q0 97 56 169l-96 98q-22 22 -22 38t13 29t29 13t38 -22l98 -96q74 58 171 58t171 -58l96 96q22 22 38 22t30 -11t14 -30t-24 -39l-96 -98q58 -70 58 -168t-58 -172l96 -96q24 -20 24 -37t-14 -31t-30 -14t-38 24l-96 96q-74 -58 -171 -58t-171 58l-98 -96
q-22 -24 -38 -24t-29 11t-13 30t22 41l96 96q-56 74 -56 171zM260 461q0 -91 64 -155t155 -64t155 64t64 155t-64 155t-155 64t-155 -64t-64 -155z" />
    <glyph glyph-name="yen" unicode="&#xa5;" horiz-adv-x="1190" 
d="M130 1245q0 17 13 29t30 12t39 -32l384 -546l382 546q26 32 42 32t29 -12t13 -29t-14 -37l-410 -588v-76h198q56 0 56 -43t-56 -43h-198v-92h198q56 0 56 -43t-56 -43h-198v-240q0 -54 -41 -54t-41 54v240h-210q-54 0 -54 46q0 40 54 40h210v92h-210q-54 0 -54 46
q0 40 54 40h210v76l-412 588q-14 20 -14 37z" />
    <glyph glyph-name="brokenbar" unicode="&#xa6;" horiz-adv-x="342" 
d="M130 474q0 52 41 52t41 -52v-430q0 -58 -44 -58q-38 0 -38 58v430zM130 1232q0 54 41 54t41 -54v-430q0 -56 -44 -56q-38 0 -38 56v430z" />
    <glyph glyph-name="section" unicode="&#xa7;" 
d="M340 614q0 -88 110 -130t243 -42t166 22t33 111t-110 130t-243 41t-166 -22t-33 -110zM256 172q0 50 42 50t42 -64q0 -40 17 -57t73 -17h368q54 0 74 27t20 87q0 138 -86 150l-350 50q-200 28 -200 214q0 152 106 186q-106 50 -106 192q0 198 200 198h370q100 0 125 -50
t25 -122q0 -50 -42 -50t-42 52t-17 69t-73 17h-368q-54 0 -74 -28t-20 -86q0 -138 86 -150l350 -50q200 -28 200 -212q0 -154 -106 -188q106 -50 106 -192q0 -198 -200 -198h-368q-66 0 -101 28t-43 61t-8 83z" />
    <glyph glyph-name="dieresis" unicode="&#xa8;" horiz-adv-x="734" 
d="M422 1260q0 28 30 50t61 22t62 -22t31 -50t-31 -50t-62 -22t-61 22t-30 50zM130 1260q0 28 30 50t61 22t62 -22t31 -50t-31 -50t-62 -22t-61 22t-30 50z" />
    <glyph glyph-name="copyright" unicode="&#xa9;" 
d="M586 258h58q94 0 147 7t99 34t65 81t19 144v222q0 90 -19 144t-65 81t-99 34t-147 7h-58q-96 0 -149 -7t-99 -34t-65 -81t-19 -144v-222q0 -90 19 -144t65 -81t99 -34t149 -7zM644 174h-58q-212 0 -314 70t-102 280v222q0 210 102 280t314 70h58q210 0 312 -70t102 -280
v-222q0 -210 -102 -280t-312 -70zM704 438h-100q-74 0 -127 40t-53 118v78q0 78 53 118t127 40h100q40 0 70 -26t30 -82q0 -22 -29 -22t-29 20q0 48 -46 48h-96q-52 0 -86 -25t-34 -71v-78q0 -46 34 -71t86 -25h96q46 0 46 46q0 22 29 22t29 -23t-6 -44t-30 -42t-64 -21z
" />
    <glyph glyph-name="ordfeminine" unicode="&#xaa;" horiz-adv-x="738" 
d="M290 860q-48 0 -48 -50q0 -26 -31 -26t-31 24q0 48 29 81t75 33h170q106 0 106 -128v-278q0 -24 -31 -24t-31 24v68q-16 -44 -44 -65t-90 -21h-74q-48 0 -79 38t-31 86q0 84 47 116t147 32h124v38q0 28 -11 40t-39 12h-158zM498 708h-124q-74 0 -103 -17t-29 -56t14 -57
t34 -18h74q64 0 99 38t35 110zM172 328q-42 0 -42 35t42 35h392q46 0 46 -38q0 -32 -46 -32h-392z" />
    <glyph glyph-name="guillemotleft" unicode="&#xab;" horiz-adv-x="1032" 
d="M596 300q0 -30 -29 -30t-41 12l-364 338q-32 28 -32 44t32 44l364 338q10 10 40 10t30 -28t-26 -56l-316 -306l316 -310q26 -26 26 -56zM904 300q0 -30 -29 -30t-41 12l-364 338q-32 28 -32 44t32 44l364 338q10 10 40 10t30 -28t-26 -56l-316 -306l316 -310
q26 -26 26 -56z" />
    <glyph glyph-name="logicalnot" unicode="&#xac;" horiz-adv-x="964" 
d="M836 450v-168q0 -56 -46 -56q-40 0 -40 56v136h-568q-52 0 -52 43t52 43h596q58 0 58 -54z" />
    <glyph glyph-name="uni00AD" unicode="&#xad;" horiz-adv-x="858" 
d="M182 418q-52 0 -52 43t52 43h490q58 0 58 -46q0 -40 -58 -40h-490z" />
    <glyph glyph-name="registered" unicode="&#xae;" 
d="M586 258h58q94 0 147 7t99 34t65 81t19 144v222q0 90 -19 144t-65 81t-99 34t-147 7h-58q-96 0 -149 -7t-99 -34t-65 -81t-19 -144v-222q0 -90 19 -144t65 -81t99 -34t149 -7zM644 174h-58q-212 0 -314 70t-102 280v222q0 210 102 280t314 70h58q210 0 312 -70t102 -280
v-222q0 -210 -102 -280t-312 -70zM826 434q0 -18 -31 -18t-31 18q0 6 -15 36t-48 72t-69 64h-154v-172q0 -18 -31 -18t-31 18v388q0 20 28 20h168q208 0 208 -120q0 -42 -30 -75t-80 -39q30 -18 59 -60t43 -75t14 -39zM612 668q80 0 113 10t33 45t-33 46t-113 11h-134v-112
h134z" />
    <glyph glyph-name="macron" unicode="&#xaf;" horiz-adv-x="858" 
d="M182 1356q-52 0 -52 43t52 43h490q58 0 58 -46q0 -40 -58 -40h-490z" />
    <glyph glyph-name="degree" unicode="&#xb0;" horiz-adv-x="912" 
d="M170 1070q0 118 85 202t202 84t202 -84t85 -202t-85 -203t-203 -85t-202 85t-84 203zM252 1069q0 -85 60 -145t145 -60t145 60t60 145t-60 145t-145 60t-145 -60t-60 -145z" />
    <glyph glyph-name="plusminus" unicode="&#xb1;" horiz-adv-x="1124" 
d="M604 286q0 -54 -42 -54t-42 54v254h-338q-52 0 -52 46q0 40 52 40h338v254q0 56 42 56t42 -56v-254h334q58 0 58 -43t-58 -43h-334v-254zM938 86q58 0 58 -46q0 -40 -58 -40h-756q-52 0 -52 46q0 40 52 40h756z" />
    <glyph glyph-name="twosuperior" unicode="&#xb2;" horiz-adv-x="622" 
d="M536 1364q0 -56 -59 -105t-129 -81t-129 -83t-59 -107h332q16 0 30 -11t14 -22t-14 -22t-30 -11h-406v44q0 70 40 125t96 89t112 62t96 58t40 64q0 70 -36 87t-138 17h-52q-86 0 -86 -62q0 -14 -11 -25t-24 -11t-25 11t-12 25q0 54 45 91t105 37h60q122 0 181 -32
t59 -138z" />
    <glyph glyph-name="threesuperior" unicode="&#xb3;" horiz-adv-x="598" 
d="M312 1468h-24q-46 0 -88 -17t-42 -49q0 -26 -36 -26t-36 36t53 79t141 43h24q114 0 161 -38t47 -128q0 -48 -50 -86t-90 -46q42 -6 91 -51t49 -117t-47 -109t-161 -37h-24q-88 0 -141 43t-53 79t36 36t36 -26q0 -32 42 -49t88 -17h24q93 0 114 27q22 27 22 71t-61 80
t-123 36q-36 0 -36 33t36 33q64 0 124 30t60 76q0 72 -61 87q-29 7 -75 7z" />
    <glyph glyph-name="acute" unicode="&#xb4;" horiz-adv-x="424" 
d="M358 1313q0 -19 -16 -37l-192 -230q-24 -26 -40 -26t-29 12t-13 31t16 37l192 230q24 26 40 26t29 -12t13 -31z" />
    <glyph glyph-name="uni00B5" unicode="&#xb5;" horiz-adv-x="1170" 
d="M585 84q159 0 246 96t87 276v420q0 60 42 60t42 -60v-828q0 -62 -42 -62t-42 62v96q-112 -144 -332 -144t-332 144v-488q0 -62 -46 -62q-38 0 -38 62v1220q0 60 42 60t42 -60v-420q0 -180 86 -276t245 -96z" />
    <glyph glyph-name="paragraph" unicode="&#xb6;" horiz-adv-x="976" 
d="M810 40q0 -54 -42 -54t-42 54v1148h-62v-1148q0 -54 -42 -54t-42 54v634h-84q-156 0 -243 76t-87 235t104 223t310 64h230v-1232z" />
    <glyph glyph-name="periodcentered" unicode="&#xb7;" horiz-adv-x="442" 
d="M130 774q0 28 30 50t61 22t62 -22t31 -50t-31 -50t-62 -22t-61 22t-30 50z" />
    <glyph glyph-name="cedilla" unicode="&#xb8;" horiz-adv-x="418" 
d="M208 24v-48q88 -28 114 -61t26 -93q0 -110 -132 -110t-132 86q0 26 21 26t21 -26q0 -44 90 -44t90 68q0 26 -6 44t-39 41t-95 37v80h42z" />
    <glyph glyph-name="onesuperior" unicode="&#xb9;" horiz-adv-x="588" 
d="M162 1356q-30 0 -30 28q0 18 20 36l98 100q20 20 38 20q36 0 36 -38v-542q0 -44 -34 -44t-34 44v470l-54 -54q-18 -20 -40 -20z" />
    <glyph glyph-name="ordmasculine" unicode="&#xba;" horiz-adv-x="738" 
d="M172 328q-42 0 -42 35t42 35h392q46 0 46 -38q0 -32 -46 -32h-392zM378 498h-18q-102 0 -141 34t-39 134v88q0 98 39 133t141 35h18q104 0 143 -35t39 -133v-88q0 -100 -39 -134t-143 -34zM360 560h18q72 0 96 18t24 88v88q0 70 -24 88t-96 18h-18q-72 0 -95 -18t-23 -88
v-88q0 -70 23 -88t95 -18z" />
    <glyph glyph-name="guillemotright" unicode="&#xbb;" horiz-adv-x="1032" 
d="M130 1028q0 28 29 28t39 -10l366 -338q32 -28 32 -44t-32 -44l-366 -338q-12 -12 -40 -12t-28 30t26 56l316 310l-316 306q-26 28 -26 56zM438 1028q0 28 29 28t39 -10l366 -338q32 -28 32 -44t-32 -44l-366 -338q-12 -12 -40 -12t-28 30t26 56l316 310l-316 306
q-26 28 -26 56z" />
    <glyph glyph-name="onequarter" unicode="&#xbc;" horiz-adv-x="1248" 
d="M914 266v276l-206 -276h206zM1080 200h-98v-164q0 -44 -34 -44t-34 44v164h-264v90l240 320h92v-344h98q42 0 42 -33t-42 -33zM1008 1068q30 0 30 -30q0 -16 -22 -42l-818 -818q-22 -22 -42 -22q-30 0 -30 30q0 20 22 42l818 818q26 22 42 22zM270 1088q-30 0 -30 28
q0 18 20 36l98 100q20 20 38 20q36 0 36 -38v-542q0 -44 -34 -44t-34 44v470l-54 -54q-18 -20 -40 -20z" />
    <glyph glyph-name="onehalf" unicode="&#xbd;" horiz-adv-x="1274" 
d="M270 1088q-30 0 -30 28q0 18 20 36l98 100q20 20 38 20q36 0 36 -38v-542q0 -44 -34 -44t-34 44v470l-54 -54q-18 -20 -40 -20zM1144 440q0 -56 -59 -105t-129 -81t-129 -83t-59 -107h332q16 0 30 -11t14 -22t-14 -22t-30 -11h-406v44q0 70 40 125t96 89t112 62t96 58
t40 64q0 70 -36 87t-138 17h-52q-86 0 -86 -62q0 -14 -11 -25t-24 -11t-25 11t-12 25q0 54 45 91t105 37h60q122 0 181 -32t59 -138zM1008 1068q30 0 30 -30q0 -16 -22 -42l-818 -818q-22 -22 -42 -22q-30 0 -30 30q0 20 22 42l818 818q26 22 42 22z" />
    <glyph glyph-name="threequarters" unicode="&#xbe;" horiz-adv-x="1248" 
d="M322 1206h-24q-46 0 -88 -17t-42 -49q0 -26 -36 -26t-36 36t53 79t141 43h24q114 0 161 -38t47 -128q0 -48 -50 -86t-90 -46q42 -6 91 -51t49 -117t-47 -109t-161 -37h-24q-88 0 -141 43t-53 79t36 36t36 -26q0 -32 42 -49t88 -17h24q93 0 114 27q22 27 22 71t-61 80
t-123 36q-36 0 -36 33t36 33q64 0 124 30t60 76q0 72 -61 87q-29 7 -75 7zM1026 1068q30 0 30 -30q0 -16 -22 -42l-818 -818q-22 -22 -42 -22q-30 0 -30 30q0 20 22 42l818 818q26 22 42 22zM914 266v276l-206 -276h206zM1080 200h-98v-164q0 -44 -34 -44t-34 44v164h-264
v90l240 320h92v-344h98q42 0 42 -33t-42 -33z" />
    <glyph glyph-name="questiondown" unicode="&#xbf;" 
d="M602 570q0 56 42 56t42 -56v-280l-306 -84q-54 -16 -91 -75t-37 -144t49 -159t155 -74h188q96 0 148 7t99 32t65 79t18 144q0 56 43 56t43 -56q0 -219 -116 -287q-60 -35 -128 -47t-172 -12h-152q-172 0 -248 94t-76 226t56 202t192 108l186 52v218zM738 900
q0 -28 -31 -50t-62 -22t-62 22t-31 50t31 50t62 22t62 -22t31 -50z" />
    <glyph glyph-name="Agrave" unicode="&#xc0;" horiz-adv-x="1156" 
d="M344 1595q0 15 13 29t31 14t38 -22l140 -138q22 -26 22 -41t-12 -28t-31 -13t-39 22l-138 138q-24 24 -24 39zM310 492h480l-242 658zM90 -32q-42 0 -42 40q0 14 6 28l450 1236h92l450 -1236q6 -14 6 -28q0 -40 -42 -40q-28 0 -44 40l-144 400h-544l-144 -400
q-18 -40 -44 -40z" />
    <glyph glyph-name="Aacute" unicode="&#xc1;" horiz-adv-x="1156" 
d="M716 1596q0 -14 -22 -40l-140 -138q-20 -22 -38 -22t-31 13t-13 29t24 40l138 138q20 22 39 22t31 -14t12 -28zM310 492h480l-242 658zM90 -32q-42 0 -42 40q0 14 6 28l450 1236h92l450 -1236q6 -14 6 -28q0 -40 -42 -40q-28 0 -44 40l-144 400h-544l-144 -400
q-18 -40 -44 -40z" />
    <glyph glyph-name="Acircumflex" unicode="&#xc2;" horiz-adv-x="1156" 
d="M314 1302q-36 0 -36 36q0 18 8 26l208 274h110l212 -274q8 -10 8 -26q0 -36 -36 -36q-16 0 -22 6t-14 16t-12 14l-188 208h-6l-184 -208q-32 -36 -48 -36zM310 492h480l-242 658zM90 -32q-42 0 -42 40q0 14 6 28l450 1236h92l450 -1236q6 -14 6 -28q0 -40 -42 -40
q-28 0 -44 40l-144 400h-544l-144 -400q-18 -40 -44 -40z" />
    <glyph glyph-name="Atilde" unicode="&#xc3;" horiz-adv-x="1156" 
d="M659 1506q7 0 21 10l62 56q22 16 38 16t29 -10t13 -30t-24 -42l-94 -78q-14 -14 -27 -14t-25 4l-196 72q-8 4 -16 4t-22 -10l-62 -56q-22 -16 -37 -16t-28 11t-13 32t24 39l94 78q10 14 23 14t29 -4l196 -72q8 -4 15 -4zM310 492h480l-242 658zM90 -32q-42 0 -42 40
q0 14 6 28l450 1236h92l450 -1236q6 -14 6 -28q0 -40 -42 -40q-28 0 -44 40l-144 400h-544l-144 -400q-18 -40 -44 -40z" />
    <glyph glyph-name="Adieresis" unicode="&#xc4;" horiz-adv-x="1156" 
d="M604 1486q0 28 30 50t61 22t62 -22t31 -50t-31 -50t-62 -22t-61 22t-30 50zM312 1486q0 28 30 50t61 22t62 -22t31 -50t-31 -50t-62 -22t-61 22t-30 50zM310 492h480l-242 658zM90 -32q-42 0 -42 40q0 14 6 28l450 1236h92l450 -1236q6 -14 6 -28q0 -40 -42 -40
q-28 0 -44 40l-144 400h-544l-144 -400q-18 -40 -44 -40z" />
    <glyph glyph-name="Aring" unicode="&#xc5;" horiz-adv-x="1156" 
d="M398 1432q0 64 45 108t107 44t107 -44t45 -108t-45 -108t-107 -44t-107 44t-45 108zM452 1432q0 -40 29 -69t69 -29t69 29t29 69t-30 69t-69 29t-68 -29t-29 -69zM310 492h480l-242 658zM90 -32q-42 0 -42 40q0 14 6 28l450 1236h92l450 -1236q6 -14 6 -28q0 -40 -42 -40
q-28 0 -44 40l-144 400h-544l-144 -400q-18 -40 -44 -40z" />
    <glyph glyph-name="AE" unicode="&#xc6;" horiz-adv-x="1686" 
d="M772 492v608l-382 -608h382zM854 674v-590h668q58 0 58 -46q0 -38 -58 -38h-712q-38 0 -38 62v346h-438l-246 -398q-26 -42 -57 -42t-31 26q0 14 14 42l766 1220q10 16 30 16h712q58 0 58 -46q0 -38 -58 -38h-668v-430h430q62 0 62 -46q0 -38 -62 -38h-430z" />
    <glyph glyph-name="Ccedilla" unicode="&#xc7;" 
d="M604 0h-18q-212 0 -314 70t-102 280v572q0 210 102 280t314 70h282q126 0 158 -64t32 -137t-42 -73t-42 64t-26 95t-94 31h-268q-96 0 -149 -7t-99 -34t-65 -81t-19 -144v-572q0 -90 19 -144t65 -81t99 -34t149 -7h268q68 0 94 30t26 95t42 65t42 -53q0 -93 -32 -157
t-158 -64h-222v-38q88 -28 114 -61t26 -93q0 -110 -132 -110t-132 86q0 26 21 26t21 -26q0 -44 90 -44t90 68q0 26 -6 44t-39 41t-95 37v70z" />
    <glyph glyph-name="Egrave" unicode="&#xc8;" 
d="M400 1595q0 15 13 29t31 14t38 -22l140 -138q22 -26 22 -41t-12 -28t-31 -13t-39 22l-138 138q-24 24 -24 39zM254 674v-590h746q58 0 58 -46q0 -38 -58 -38h-792q-38 0 -38 62v1148q0 62 38 62h792q58 0 58 -46q0 -38 -58 -38h-746v-430h510q60 0 60 -46q0 -38 -60 -38
h-510z" />
    <glyph glyph-name="Eacute" unicode="&#xc9;" 
d="M746 1596q0 -14 -22 -40l-140 -138q-20 -22 -38 -22t-31 13t-13 29t24 40l138 138q20 22 39 22t31 -14t12 -28zM254 674v-590h746q58 0 58 -46q0 -38 -58 -38h-792q-38 0 -38 62v1148q0 62 38 62h792q58 0 58 -46q0 -38 -58 -38h-746v-430h510q60 0 60 -46q0 -38 -60 -38
h-510z" />
    <glyph glyph-name="Ecircumflex" unicode="&#xca;" 
d="M368 1302q-36 0 -36 36q0 18 8 26l208 274h110l212 -274q8 -10 8 -26q0 -36 -36 -36q-16 0 -22 6t-14 16t-12 14l-188 208h-6l-184 -208q-32 -36 -48 -36zM254 674v-590h746q58 0 58 -46q0 -38 -58 -38h-792q-38 0 -38 62v1148q0 62 38 62h792q58 0 58 -46q0 -38 -58 -38
h-746v-430h510q60 0 60 -46q0 -38 -60 -38h-510z" />
    <glyph glyph-name="Edieresis" unicode="&#xcb;" 
d="M660 1486q0 28 30 50t61 22t62 -22t31 -50t-31 -50t-62 -22t-61 22t-30 50zM368 1486q0 28 30 50t61 22t62 -22t31 -50t-31 -50t-62 -22t-61 22t-30 50zM254 674v-590h746q58 0 58 -46q0 -38 -58 -38h-792q-38 0 -38 62v1148q0 62 38 62h792q58 0 58 -46q0 -38 -58 -38
h-746v-430h510q60 0 60 -46q0 -38 -60 -38h-510z" />
    <glyph glyph-name="Igrave" unicode="&#xcc;" horiz-adv-x="422" 
d="M10 1595q0 15 13 29t31 14t38 -22l140 -138q22 -26 22 -41t-12 -28t-31 -13t-39 22l-138 138q-24 24 -24 39zM254 40q0 -54 -42 -54t-42 54v1190q0 56 42 56t42 -56v-1190z" />
    <glyph glyph-name="Iacute" unicode="&#xcd;" horiz-adv-x="422" 
d="M416 1596q0 -14 -22 -40l-140 -138q-20 -22 -38 -22t-31 13t-13 29t24 40l138 138q20 22 39 22t31 -14t12 -28zM254 40q0 -54 -42 -54t-42 54v1190q0 56 42 56t42 -56v-1190z" />
    <glyph glyph-name="Icircumflex" unicode="&#xce;" horiz-adv-x="422" 
d="M-22 1302q-36 0 -36 36q0 18 8 26l208 274h110l212 -274q8 -10 8 -26q0 -36 -36 -36q-16 0 -22 6t-14 16t-12 14l-188 208h-6l-184 -208q-32 -36 -48 -36zM254 40q0 -54 -42 -54t-42 54v1190q0 56 42 56t42 -56v-1190z" />
    <glyph glyph-name="Idieresis" unicode="&#xcf;" horiz-adv-x="422" 
d="M268 1486q0 28 30 50t61 22t62 -22t31 -50t-31 -50t-62 -22t-61 22t-30 50zM-24 1486q0 28 30 50t61 22t62 -22t31 -50t-31 -50t-62 -22t-61 22t-30 50zM254 40q0 -54 -42 -54t-42 54v1190q0 56 42 56t42 -56v-1190z" />
    <glyph glyph-name="Eth" unicode="&#xd0;" 
d="M974 350v572q0 90 -19 144t-65 81t-99 34t-147 7h-390v-496h212q58 0 58 -43t-58 -43h-212v-522h390q94 0 147 7t99 34t65 81t19 144zM154 606q-54 0 -54 46q0 40 54 40h16v518q0 62 38 62h436q210 0 312 -70t102 -280v-572q0 -210 -102 -280t-312 -70h-436q-38 0 -38 62
v544h-16z" />
    <glyph glyph-name="Ntilde" unicode="&#xd1;" 
d="M721 1506q7 0 21 10l62 56q22 16 38 16t29 -10t13 -30t-24 -42l-94 -78q-14 -14 -27 -14t-25 4l-196 72q-8 4 -16 4t-22 -10l-62 -56q-22 -16 -37 -16t-28 11t-13 32t24 39l94 78q10 14 23 14t29 -4l196 -72q8 -4 15 -4zM1018 -14q-24 0 -32 14l-732 1114v-1068
q0 -60 -42 -60t-42 60v1178q0 62 38 62q30 0 52 -34l714 -1084v1056q0 62 42 62t42 -62v-1178q0 -60 -40 -60z" />
    <glyph glyph-name="Ograve" unicode="&#xd2;" 
d="M410 1595q0 15 13 29t31 14t38 -22l140 -138q22 -26 22 -41t-12 -28t-31 -13t-39 22l-138 138q-24 24 -24 39zM614 1206q-168 0 -264 -103t-96 -285v-364q0 -182 96 -285t264 -103t264 103t96 285v364q0 182 -96 285t-264 103zM614 -18q-194 0 -319 126t-125 346v364
q0 220 125 346t319 126t319 -126t125 -346v-364q0 -220 -125 -346t-319 -126z" />
    <glyph glyph-name="Oacute" unicode="&#xd3;" 
d="M816 1596q0 -14 -22 -40l-140 -138q-20 -22 -38 -22t-31 13t-13 29t24 40l138 138q20 22 39 22t31 -14t12 -28zM614 1206q-168 0 -264 -103t-96 -285v-364q0 -182 96 -285t264 -103t264 103t96 285v364q0 182 -96 285t-264 103zM614 -18q-194 0 -319 126t-125 346v364
q0 220 125 346t319 126t319 -126t125 -346v-364q0 -220 -125 -346t-319 -126z" />
    <glyph glyph-name="Ocircumflex" unicode="&#xd4;" 
d="M378 1302q-36 0 -36 36q0 18 8 26l208 274h110l212 -274q8 -10 8 -26q0 -36 -36 -36q-16 0 -22 6t-14 16t-12 14l-188 208h-6l-184 -208q-32 -36 -48 -36zM614 1206q-168 0 -264 -103t-96 -285v-364q0 -182 96 -285t264 -103t264 103t96 285v364q0 182 -96 285t-264 103z
M614 -18q-194 0 -319 126t-125 346v364q0 220 125 346t319 126t319 -126t125 -346v-364q0 -220 -125 -346t-319 -126z" />
    <glyph glyph-name="Otilde" unicode="&#xd5;" 
d="M723 1506q7 0 21 10l62 56q22 16 38 16t29 -10t13 -30t-24 -42l-94 -78q-14 -14 -27 -14t-25 4l-196 72q-8 4 -16 4t-22 -10l-62 -56q-22 -16 -37 -16t-28 11t-13 32t24 39l94 78q10 14 23 14t29 -4l196 -72q8 -4 15 -4zM614 1206q-168 0 -264 -103t-96 -285v-364
q0 -182 96 -285t264 -103t264 103t96 285v364q0 182 -96 285t-264 103zM614 -18q-194 0 -319 126t-125 346v364q0 220 125 346t319 126t319 -126t125 -346v-364q0 -220 -125 -346t-319 -126z" />
    <glyph glyph-name="Odieresis" unicode="&#xd6;" 
d="M670 1486q0 28 30 50t61 22t62 -22t31 -50t-31 -50t-62 -22t-61 22t-30 50zM378 1486q0 28 30 50t61 22t62 -22t31 -50t-31 -50t-62 -22t-61 22t-30 50zM614 1206q-168 0 -264 -103t-96 -285v-364q0 -182 96 -285t264 -103t264 103t96 285v364q0 182 -96 285t-264 103z
M614 -18q-194 0 -319 126t-125 346v364q0 220 125 346t319 126t319 -126t125 -346v-364q0 -220 -125 -346t-319 -126z" />
    <glyph glyph-name="multiply" unicode="&#xd7;" horiz-adv-x="956" 
d="M130 766q0 16 13 29t29 13t38 -22l270 -266l266 266q22 22 38 22t30 -11t14 -30t-24 -39l-266 -268l266 -266q24 -20 24 -37t-14 -31t-30 -14t-38 24l-266 266l-270 -266q-22 -24 -38 -24t-29 11t-13 30t22 41l266 266l-266 268q-22 22 -22 38z" />
    <glyph glyph-name="Oslash" unicode="&#xd8;" 
d="M626 66q156 0 252 103t96 285v364q0 150 -64 244l-532 -920q92 -76 248 -76zM1002 1237q0 -13 -10 -37l-38 -60q104 -126 104 -322v-364q0 -220 -125 -346t-304 -126t-291 88l-24 -42q-18 -32 -36 -32q-48 0 -48 38q0 14 10 38l34 58q-104 122 -104 324v364
q0 220 125 346t305 126t292 -90l26 44q18 32 39 32t33 -13t12 -26zM602 1206q-156 0 -252 -103t-96 -285v-364q0 -152 66 -248l532 922q-94 78 -250 78z" />
    <glyph glyph-name="Ugrave" unicode="&#xd9;" 
d="M412 1565q0 19 13 31t29 12t40 -26l192 -230q16 -18 16 -37t-13 -31t-29 -12t-40 26l-192 230q-16 18 -16 37zM974 1230q0 56 42 56t42 -56v-776q0 -220 -125 -346t-319 -126t-319 126t-125 346v776q0 56 42 56t42 -56v-776q0 -182 96 -285t264 -103t264 103t96 285v776z
" />
    <glyph glyph-name="Uacute" unicode="&#xda;" 
d="M864 1565q0 -19 -16 -37l-192 -230q-24 -26 -40 -26t-29 12t-13 31t16 37l192 230q24 26 40 26t29 -12t13 -31zM974 1230q0 56 42 56t42 -56v-776q0 -220 -125 -346t-319 -126t-319 126t-125 346v776q0 56 42 56t42 -56v-776q0 -182 96 -285t264 -103t264 103t96 285v776
z" />
    <glyph glyph-name="Ucircumflex" unicode="&#xdb;" 
d="M378 1302q-36 0 -36 36q0 18 8 26l208 274h110l212 -274q8 -10 8 -26q0 -36 -36 -36q-16 0 -22 6t-14 16t-12 14l-188 208h-6l-184 -208q-32 -36 -48 -36zM974 1230q0 56 42 56t42 -56v-776q0 -220 -125 -346t-319 -126t-319 126t-125 346v776q0 56 42 56t42 -56v-776
q0 -182 96 -285t264 -103t264 103t96 285v776z" />
    <glyph glyph-name="Udieresis" unicode="&#xdc;" 
d="M670 1486q0 28 30 50t61 22t62 -22t31 -50t-31 -50t-62 -22t-61 22t-30 50zM378 1486q0 28 30 50t61 22t62 -22t31 -50t-31 -50t-62 -22t-61 22t-30 50zM974 1230q0 56 42 56t42 -56v-776q0 -220 -125 -346t-319 -126t-319 126t-125 346v776q0 56 42 56t42 -56v-776
q0 -182 96 -285t264 -103t264 103t96 285v776z" />
    <glyph glyph-name="Yacute" unicode="&#xdd;" horiz-adv-x="1190" 
d="M846 1565q0 -19 -16 -37l-192 -230q-24 -26 -40 -26t-29 12t-13 31t16 37l192 230q24 26 40 26t29 -12t13 -31zM130 1245q0 17 13 29t30 12t39 -32l384 -546l382 546q26 32 42 32t29 -12t13 -29t-14 -37l-410 -588v-580q0 -54 -41 -54t-41 54v580l-412 588q-14 20 -14 37
z" />
    <glyph glyph-name="Thorn" unicode="&#xde;" horiz-adv-x="1100" 
d="M254 838v-432h260q182 0 256 41t76 173q0 132 -75 175t-255 43h-262zM254 922h346q156 0 244 -76t88 -223t-89 -224t-245 -77h-344v-282q0 -54 -42 -54t-42 54v1106q0 56 42 56t42 -56v-224z" />
    <glyph glyph-name="germandbls" unicode="&#xdf;" horiz-adv-x="1082" 
d="M430 720v84q120 0 194 62t74 188q0 60 -43 97t-108 37t-99 -8t-68 -33q-64 -47 -64 -225v-874q0 -62 -46 -62q-38 0 -38 62v790q-62 0 -62 42t62 42q0 218 102 290q85 60 202 60q118 0 182 -66t64 -156q0 -188 -160 -282q296 -76 296 -378q0 -248 -91 -339t-184 -91
t-163 55t-70 157q0 62 42 62t42 -63t45 -95t113 -32t125 74t57 272q0 142 -105 236t-299 94z" />
    <glyph glyph-name="agrave" unicode="&#xe0;" 
d="M370 1307q0 19 13 31t29 12t40 -26l192 -230q16 -18 16 -37t-13 -31t-29 -12t-40 26l-192 230q-16 18 -16 37zM586 580h304v128q0 70 -26 100t-94 30h-282q-234 0 -234 -130q0 -60 -42 -60t-42 60q0 108 85 161t219 53h310q110 0 150 -54t40 -194v-628q0 -60 -42 -60
t-42 60v98q-108 -144 -330 -144h-186q-90 0 -147 65t-57 162t20 159q38 116 137 155q100 39 259 39zM586 496q-96 0 -149 -7t-99 -34t-65 -81t-19 -127t37 -118t83 -45h186q158 0 244 96t86 276v40h-304z" />
    <glyph glyph-name="aacute" unicode="&#xe1;" 
d="M822 1313q0 -19 -16 -37l-192 -230q-24 -26 -40 -26t-29 12t-13 31t16 37l192 230q24 26 40 26t29 -12t13 -31zM586 580h304v128q0 70 -26 100t-94 30h-282q-234 0 -234 -130q0 -60 -42 -60t-42 60q0 108 85 161t219 53h310q110 0 150 -54t40 -194v-628q0 -60 -42 -60
t-42 60v98q-108 -144 -330 -144h-186q-90 0 -147 65t-57 162t20 159q38 116 137 155q100 39 259 39zM586 496q-96 0 -149 -7t-99 -34t-65 -81t-19 -127t37 -118t83 -45h186q158 0 244 96t86 276v40h-304z" />
    <glyph glyph-name="acircumflex" unicode="&#xe2;" 
d="M336 1044q-36 0 -36 36q0 18 8 26l208 274h110l212 -274q8 -10 8 -26q0 -36 -36 -36q-16 0 -22 6t-14 16t-12 14l-188 208h-6l-184 -208q-32 -36 -48 -36zM586 580h304v128q0 70 -26 100t-94 30h-282q-234 0 -234 -130q0 -60 -42 -60t-42 60q0 108 85 161t219 53h310
q110 0 150 -54t40 -194v-628q0 -60 -42 -60t-42 60v98q-108 -144 -330 -144h-186q-90 0 -147 65t-57 162t20 159q38 116 137 155q100 39 259 39zM586 496q-96 0 -149 -7t-99 -34t-65 -81t-19 -127t37 -118t83 -45h186q158 0 244 96t86 276v40h-304z" />
    <glyph glyph-name="atilde" unicode="&#xe3;" 
d="M683 1138q7 0 21 10l62 56q22 16 38 16t29 -10t13 -30t-24 -42l-94 -78q-14 -14 -27 -14t-25 4l-196 72q-8 4 -16 4t-22 -10l-62 -56q-22 -16 -37 -16t-28 11t-13 32t24 39l94 78q10 14 23 14t29 -4l196 -72q8 -4 15 -4zM586 580h304v128q0 70 -26 100t-94 30h-282
q-234 0 -234 -130q0 -60 -42 -60t-42 60q0 108 85 161t219 53h310q110 0 150 -54t40 -194v-628q0 -60 -42 -60t-42 60v98q-108 -144 -330 -144h-186q-90 0 -147 65t-57 162t20 159q38 116 137 155q100 39 259 39zM586 496q-96 0 -149 -7t-99 -34t-65 -81t-19 -127t37 -118
t83 -45h186q158 0 244 96t86 276v40h-304z" />
    <glyph glyph-name="adieresis" unicode="&#xe4;" 
d="M626 1116q0 28 30 50t61 22t62 -22t31 -50t-31 -50t-62 -22t-61 22t-30 50zM334 1116q0 28 30 50t61 22t62 -22t31 -50t-31 -50t-62 -22t-61 22t-30 50zM586 580h304v128q0 70 -26 100t-94 30h-282q-234 0 -234 -130q0 -60 -42 -60t-42 60q0 108 85 161t219 53h310
q110 0 150 -54t40 -194v-628q0 -60 -42 -60t-42 60v98q-108 -144 -330 -144h-186q-90 0 -147 65t-57 162t20 159q38 116 137 155q100 39 259 39zM586 496q-96 0 -149 -7t-99 -34t-65 -81t-19 -127t37 -118t83 -45h186q158 0 244 96t86 276v40h-304z" />
    <glyph glyph-name="aring" unicode="&#xe5;" 
d="M422 1196q0 64 45 108t107 44t107 -44t45 -108t-45 -108t-107 -44t-107 44t-45 108zM476 1196q0 -40 29 -69t69 -29t69 29t29 69t-30 69t-69 29t-68 -29t-29 -69zM586 580h304v128q0 70 -26 100t-94 30h-282q-234 0 -234 -130q0 -60 -42 -60t-42 60q0 108 85 161t219 53
h310q110 0 150 -54t40 -194v-628q0 -60 -42 -60t-42 60v98q-108 -144 -330 -144h-186q-90 0 -147 65t-57 162t20 159q38 116 137 155q100 39 259 39zM586 496q-96 0 -149 -7t-99 -34t-65 -81t-19 -127t37 -118t83 -45h186q158 0 244 96t86 276v40h-304z" />
    <glyph glyph-name="ae" unicode="&#xe6;" horiz-adv-x="1948" 
d="M1332 922h16q228 0 329 -70t101 -272v-74h-792v-162q0 -90 18 -142t67 -78t104 -33t157 -7h242q70 0 95 31t25 95t42 64t42 -62q0 -102 -39 -157t-151 -55h-256q-220 0 -302 53q-42 27 -61 50t-39 61l-10 -12q-50 -70 -158 -111t-204 -41h-184q-88 0 -146 64t-58 172
q0 200 109 277t323 77h300v124q0 66 -25 95t-93 29h-278q-252 0 -252 -130q0 -60 -42 -60t-42 70t52 121t119 67t151 16h306q119 0 156 -67q6 -11 16 -35q32 32 58 49t106 35t198 18zM1348 838h-16q-204 0 -274 -47t-72 -201h708q-2 152 -73 200t-273 48zM602 506
q-192 0 -270 -55t-78 -225q0 -56 37 -99t83 -43h184q166 0 255 102t89 280v40h-300z" />
    <glyph glyph-name="ccedilla" unicode="&#xe7;" 
d="M600 0h-14q-212 0 -314 70t-102 280v222q0 210 102 280t314 70h282q127 0 158 -65q32 -65 32 -137t-42 -72t-42 64t-26 95t-94 31h-268q-96 0 -149 -7t-99 -34t-65 -81t-19 -144v-222q0 -90 19 -144t65 -81t99 -34t149 -7h268q68 0 94 30t26 95t42 65t42 -53
q0 -93 -32 -157t-158 -64h-226v-38q88 -28 114 -61t26 -93q0 -110 -132 -110t-132 86q0 26 21 26t21 -26q0 -44 90 -44t90 68q0 26 -6 44t-39 41t-95 37v70z" />
    <glyph glyph-name="egrave" unicode="&#xe8;" 
d="M408 1313q0 19 13 31t29 12t40 -26l192 -230q16 -18 16 -37t-13 -31t-29 -12t-40 26l-192 230q-16 18 -16 37zM644 838h-58q-184 0 -258 -46t-74 -208h720q0 162 -74 208t-256 46zM1058 572v-72h-804v-150q0 -90 19 -144t65 -81t99 -34t149 -7h268q68 0 94 30t26 95
t42 65t42 -53q0 -93 -32 -157t-158 -64h-282q-212 0 -314 70t-102 280v222q0 210 102 280t314 70h58q210 0 312 -70t102 -280z" />
    <glyph glyph-name="eacute" unicode="&#xe9;" 
d="M866 1313q0 -19 -16 -37l-192 -230q-24 -26 -40 -26t-29 12t-13 31t16 37l192 230q24 26 40 26t29 -12t13 -31zM644 838h-58q-184 0 -258 -46t-74 -208h720q0 162 -74 208t-256 46zM1058 572v-72h-804v-150q0 -90 19 -144t65 -81t99 -34t149 -7h268q68 0 94 30t26 95
t42 65t42 -53q0 -93 -32 -157t-158 -64h-282q-212 0 -314 70t-102 280v222q0 210 102 280t314 70h58q210 0 312 -70t102 -280z" />
    <glyph glyph-name="ecircumflex" unicode="&#xea;" 
d="M378 1044q-36 0 -36 36q0 18 8 26l208 274h110l212 -274q8 -10 8 -26q0 -36 -36 -36q-16 0 -22 6t-14 16t-12 14l-188 208h-6l-184 -208q-32 -36 -48 -36zM644 838h-58q-184 0 -258 -46t-74 -208h720q0 162 -74 208t-256 46zM1058 572v-72h-804v-150q0 -90 19 -144
t65 -81t99 -34t149 -7h268q68 0 94 30t26 95t42 65t42 -53q0 -93 -32 -157t-158 -64h-282q-212 0 -314 70t-102 280v222q0 210 102 280t314 70h58q210 0 312 -70t102 -280z" />
    <glyph glyph-name="edieresis" unicode="&#xeb;" 
d="M670 1116q0 28 30 50t61 22t62 -22t31 -50t-31 -50t-62 -22t-61 22t-30 50zM378 1116q0 28 30 50t61 22t62 -22t31 -50t-31 -50t-62 -22t-61 22t-30 50zM644 838h-58q-184 0 -258 -46t-74 -208h720q0 162 -74 208t-256 46zM1058 572v-72h-804v-150q0 -90 19 -144t65 -81
t99 -34t149 -7h268q68 0 94 30t26 95t42 65t42 -53q0 -93 -32 -157t-158 -64h-282q-212 0 -314 70t-102 280v222q0 210 102 280t314 70h58q210 0 312 -70t102 -280z" />
    <glyph glyph-name="igrave" unicode="&#xec;" horiz-adv-x="420" 
d="M-36 1315q0 19 13 31t29 12t40 -26l192 -230q16 -18 16 -37t-13 -31t-29 -12t-40 26l-192 230q-16 18 -16 37zM254 40q0 -54 -42 -54t-42 54v840q0 56 42 56t42 -56v-840z" />
    <glyph glyph-name="iacute" unicode="&#xed;" horiz-adv-x="420" 
d="M460 1313q0 -19 -16 -37l-192 -230q-24 -26 -40 -26t-29 12t-13 31t16 37l192 230q24 26 40 26t29 -12t13 -31zM254 40q0 -54 -42 -54t-42 54v840q0 56 42 56t42 -56v-840z" />
    <glyph glyph-name="icircumflex" unicode="&#xee;" horiz-adv-x="420" 
d="M-24 1058q-36 0 -36 36q0 18 8 26l208 274h110l212 -274q8 -10 8 -26q0 -36 -36 -36q-16 0 -22 6t-14 16t-12 14l-188 208h-6l-184 -208q-32 -36 -48 -36zM254 40q0 -54 -42 -54t-42 54v840q0 56 42 56t42 -56v-840z" />
    <glyph glyph-name="idieresis" unicode="&#xef;" horiz-adv-x="420" 
d="M266 1130q0 28 30 50t61 22t62 -22t31 -50t-31 -50t-62 -22t-61 22t-30 50zM-26 1130q0 28 30 50t61 22t62 -22t31 -50t-31 -50t-62 -22t-61 22t-30 50zM254 40q0 -54 -42 -54t-42 54v840q0 56 42 56t42 -56v-840z" />
    <glyph glyph-name="eth" unicode="&#xf0;" 
d="M974 450q0 152 -83 265t-253 113t-277 -108t-107 -279t107 -280t275 -109t253 123t85 275zM372 1186q-52 0 -52 40q0 46 52 46q142 0 262 -54l68 68q22 22 39 22t30 -11t13 -29t-22 -42l-50 -48q346 -212 346 -736q0 -196 -112 -335t-311 -139t-332 126t-133 347t133 346
t341 125q164 0 270 -106q-84 212 -264 308l-100 -98q-22 -22 -38 -22t-30 12t-14 27t24 43l76 74q-96 36 -196 36z" />
    <glyph glyph-name="ntilde" unicode="&#xf1;" 
d="M723 1152q7 0 21 10l62 56q22 16 38 16t29 -10t13 -30t-24 -42l-94 -78q-14 -14 -27 -14t-25 4l-196 72q-8 4 -16 4t-22 -10l-62 -56q-22 -16 -37 -16t-28 11t-13 32t24 39l94 78q10 14 23 14t29 -4l196 -72q8 -4 15 -4zM586 838q-160 0 -246 -97t-86 -277v-418
q0 -60 -42 -60t-42 60v828q0 62 38 62q46 0 46 -62v-96q112 144 332 144h58q210 0 312 -70t102 -280v-526q0 -60 -42 -60t-42 60v526q0 90 -19 144t-65 81t-99 34t-147 7h-58z" />
    <glyph glyph-name="ograve" unicode="&#xf2;" 
d="M412 1313q0 19 13 31t29 12t40 -26l192 -230q16 -18 16 -37t-13 -31t-29 -12t-40 26l-192 230q-16 18 -16 37zM586 84h58q94 0 147 7t99 34t65 81t19 144v222q0 90 -19 144t-65 81t-99 34t-147 7h-58q-96 0 -149 -7t-99 -34t-65 -81t-19 -144v-222q0 -90 19 -144t65 -81
t99 -34t149 -7zM644 0h-58q-212 0 -314 70t-102 280v222q0 210 102 280t314 70h58q210 0 312 -70t102 -280v-222q0 -210 -102 -280t-312 -70z" />
    <glyph glyph-name="oacute" unicode="&#xf3;" 
d="M862 1313q0 -19 -16 -37l-192 -230q-24 -26 -40 -26t-29 12t-13 31t16 37l192 230q24 26 40 26t29 -12t13 -31zM586 84h58q94 0 147 7t99 34t65 81t19 144v222q0 90 -19 144t-65 81t-99 34t-147 7h-58q-96 0 -149 -7t-99 -34t-65 -81t-19 -144v-222q0 -90 19 -144t65 -81
t99 -34t149 -7zM644 0h-58q-212 0 -314 70t-102 280v222q0 210 102 280t314 70h58q210 0 312 -70t102 -280v-222q0 -210 -102 -280t-312 -70z" />
    <glyph glyph-name="ocircumflex" unicode="&#xf4;" 
d="M378 1044q-36 0 -36 36q0 18 8 26l208 274h110l212 -274q8 -10 8 -26q0 -36 -36 -36q-16 0 -22 6t-14 16t-12 14l-188 208h-6l-184 -208q-32 -36 -48 -36zM586 84h58q94 0 147 7t99 34t65 81t19 144v222q0 90 -19 144t-65 81t-99 34t-147 7h-58q-96 0 -149 -7t-99 -34
t-65 -81t-19 -144v-222q0 -90 19 -144t65 -81t99 -34t149 -7zM644 0h-58q-212 0 -314 70t-102 280v222q0 210 102 280t314 70h58q210 0 312 -70t102 -280v-222q0 -210 -102 -280t-312 -70z" />
    <glyph glyph-name="otilde" unicode="&#xf5;" 
d="M723 1138q7 0 21 10l62 56q22 16 38 16t29 -10t13 -30t-24 -42l-94 -78q-14 -14 -27 -14t-25 4l-196 72q-8 4 -16 4t-22 -10l-62 -56q-22 -16 -37 -16t-28 11t-13 32t24 39l94 78q10 14 23 14t29 -4l196 -72q8 -4 15 -4zM586 84h58q94 0 147 7t99 34t65 81t19 144v222
q0 90 -19 144t-65 81t-99 34t-147 7h-58q-96 0 -149 -7t-99 -34t-65 -81t-19 -144v-222q0 -90 19 -144t65 -81t99 -34t149 -7zM644 0h-58q-212 0 -314 70t-102 280v222q0 210 102 280t314 70h58q210 0 312 -70t102 -280v-222q0 -210 -102 -280t-312 -70z" />
    <glyph glyph-name="odieresis" unicode="&#xf6;" 
d="M670 1116q0 28 30 50t61 22t62 -22t31 -50t-31 -50t-62 -22t-61 22t-30 50zM378 1116q0 28 30 50t61 22t62 -22t31 -50t-31 -50t-62 -22t-61 22t-30 50zM586 84h58q94 0 147 7t99 34t65 81t19 144v222q0 90 -19 144t-65 81t-99 34t-147 7h-58q-96 0 -149 -7t-99 -34
t-65 -81t-19 -144v-222q0 -90 19 -144t65 -81t99 -34t149 -7zM644 0h-58q-212 0 -314 70t-102 280v222q0 210 102 280t314 70h58q210 0 312 -70t102 -280v-222q0 -210 -102 -280t-312 -70z" />
    <glyph glyph-name="divide" unicode="&#xf7;" horiz-adv-x="858" 
d="M330 666q0 28 30 50t61 22t62 -22t31 -50t-31 -50t-62 -22t-61 22t-30 50zM330 256q0 28 30 50t61 22t62 -22t31 -50t-31 -50t-62 -22t-61 22t-30 50zM182 418q-52 0 -52 43t52 43h490q58 0 58 -46q0 -40 -58 -40h-490z" />
    <glyph glyph-name="oslash" unicode="&#xf8;" 
d="M644 838h-58q-96 0 -149 -7t-99 -34t-65 -81t-19 -144v-222q0 -138 50 -196l552 660q-64 24 -212 24zM586 84h58q94 0 147 7t99 34t65 81t19 144v222q0 136 -48 194l-552 -660q64 -22 212 -22zM977 938q17 0 31 -12t14 -29t-18 -39l-24 -28q78 -82 78 -258v-222
q0 -210 -102 -280t-312 -70h-58q-178 0 -266 40l-28 -30q-22 -26 -39 -26t-31 12t-14 28t20 40l22 26q-80 84 -80 260v222q0 210 102 280t314 70h58q182 0 268 -44l26 34q22 26 39 26z" />
    <glyph glyph-name="ugrave" unicode="&#xf9;" 
d="M410 1313q0 19 13 31t29 12t40 -26l192 -230q16 -18 16 -37t-13 -31t-29 -12t-40 26l-192 230q-16 18 -16 37zM644 84q158 0 244 96t86 276v420q0 60 42 60t42 -60v-828q0 -62 -38 -62q-46 0 -46 62v96q-108 -144 -330 -144h-58q-212 0 -314 70t-102 280v526q0 60 42 60
t42 -60v-526q0 -90 19 -144t65 -81t99 -34t149 -7h58z" />
    <glyph glyph-name="uacute" unicode="&#xfa;" 
d="M864 1313q0 -19 -16 -37l-192 -230q-24 -26 -40 -26t-29 12t-13 31t16 37l192 230q24 26 40 26t29 -12t13 -31zM644 84q158 0 244 96t86 276v420q0 60 42 60t42 -60v-828q0 -62 -38 -62q-46 0 -46 62v96q-108 -144 -330 -144h-58q-212 0 -314 70t-102 280v526q0 60 42 60
t42 -60v-526q0 -90 19 -144t65 -81t99 -34t149 -7h58z" />
    <glyph glyph-name="ucircumflex" unicode="&#xfb;" 
d="M376 1058q-36 0 -36 36q0 18 8 26l208 274h110l212 -274q8 -10 8 -26q0 -36 -36 -36q-16 0 -22 6t-14 16t-12 14l-188 208h-6l-184 -208q-32 -36 -48 -36zM644 84q158 0 244 96t86 276v420q0 60 42 60t42 -60v-828q0 -62 -38 -62q-46 0 -46 62v96q-108 -144 -330 -144
h-58q-212 0 -314 70t-102 280v526q0 60 42 60t42 -60v-526q0 -90 19 -144t65 -81t99 -34t149 -7h58z" />
    <glyph glyph-name="udieresis" unicode="&#xfc;" 
d="M668 1130q0 28 30 50t61 22t62 -22t31 -50t-31 -50t-62 -22t-61 22t-30 50zM376 1130q0 28 30 50t61 22t62 -22t31 -50t-31 -50t-62 -22t-61 22t-30 50zM644 84q158 0 244 96t86 276v420q0 60 42 60t42 -60v-828q0 -62 -38 -62q-46 0 -46 62v96q-108 -144 -330 -144h-58
q-212 0 -314 70t-102 280v526q0 60 42 60t42 -60v-526q0 -90 19 -144t65 -81t99 -34t149 -7h58z" />
    <glyph glyph-name="yacute" unicode="&#xfd;" 
d="M866 1313q0 -19 -16 -37l-192 -230q-24 -26 -40 -26t-29 12t-13 31t16 37l192 230q24 26 40 26t29 -12t13 -31zM1058 -184q0 -128 -36 -177t-136 -49h-526q-127 0 -158 65q-32 65 -32 137t42 72t42 -64t26 -95t94 -31h498q62 0 82 23t20 87v360q-108 -144 -330 -144h-58
q-212 0 -314 70t-102 280v522q0 64 42 64t42 -64v-522q0 -90 19 -144t65 -81t99 -34t149 -7h58q158 0 244 96t86 276v416q0 64 42 64t42 -64v-1056z" />
    <glyph glyph-name="thorn" unicode="&#xfe;" 
d="M1058 350q0 -210 -102 -280t-312 -70h-390v-304q0 -60 -46 -60q-38 0 -38 60v1530q0 60 42 60t42 -60v-448q112 144 332 144h58q210 0 312 -70t102 -280v-222zM974 572q0 90 -19 144t-65 81t-99 34t-147 7h-58q-160 0 -246 -97t-86 -277v-380h390q94 0 147 7t99 34t65 81
t19 144v222z" />
    <glyph glyph-name="ydieresis" unicode="&#xff;" 
d="M670 1130q0 28 30 50t61 22t62 -22t31 -50t-31 -50t-62 -22t-61 22t-30 50zM378 1130q0 28 30 50t61 22t62 -22t31 -50t-31 -50t-62 -22t-61 22t-30 50zM1058 -184q0 -128 -36 -177t-136 -49h-526q-127 0 -158 65q-32 65 -32 137t42 72t42 -64t26 -95t94 -31h498
q62 0 82 23t20 87v360q-108 -144 -330 -144h-58q-212 0 -314 70t-102 280v522q0 64 42 64t42 -64v-522q0 -90 19 -144t65 -81t99 -34t149 -7h58q158 0 244 96t86 276v416q0 64 42 64t42 -64v-1056z" />
    <glyph glyph-name="Amacron" unicode="&#x100;" horiz-adv-x="1156" 
d="M302 1412q-52 0 -52 43t52 43h490q58 0 58 -46q0 -40 -58 -40h-490zM310 492h480l-242 658zM90 -32q-42 0 -42 40q0 14 6 28l450 1236h92l450 -1236q6 -14 6 -28q0 -40 -42 -40q-28 0 -44 40l-144 400h-544l-144 -400q-18 -40 -44 -40z" />
    <glyph glyph-name="amacron" unicode="&#x101;" 
d="M332 1044q-52 0 -52 43t52 43h490q58 0 58 -46q0 -40 -58 -40h-490zM586 580h304v128q0 70 -26 100t-94 30h-282q-234 0 -234 -130q0 -60 -42 -60t-42 60q0 108 85 161t219 53h310q110 0 150 -54t40 -194v-628q0 -60 -42 -60t-42 60v98q-108 -144 -330 -144h-186
q-90 0 -147 65t-57 162t20 159q38 116 137 155q100 39 259 39zM586 496q-96 0 -149 -7t-99 -34t-65 -81t-19 -127t37 -118t83 -45h186q158 0 244 96t86 276v40h-304z" />
    <glyph glyph-name="Abreve" unicode="&#x102;" horiz-adv-x="1156" 
d="M780 1638q0 -96 -68 -169t-162 -73t-162 73t-68 169h86q0 -68 39 -111t105 -43t105 43t39 111h86zM310 492h480l-242 658zM90 -32q-42 0 -42 40q0 14 6 28l450 1236h92l450 -1236q6 -14 6 -28q0 -40 -42 -40q-28 0 -44 40l-144 400h-544l-144 -400q-18 -40 -44 -40z" />
    <glyph glyph-name="abreve" unicode="&#x103;" 
d="M824 1286q0 -96 -68 -169t-162 -73t-162 73t-68 169h86q0 -68 39 -111t105 -43t105 43t39 111h86zM586 580h304v128q0 70 -26 100t-94 30h-282q-234 0 -234 -130q0 -60 -42 -60t-42 60q0 108 85 161t219 53h310q110 0 150 -54t40 -194v-628q0 -60 -42 -60t-42 60v98
q-108 -144 -330 -144h-186q-90 0 -147 65t-57 162t20 159q38 116 137 155q100 39 259 39zM586 496q-96 0 -149 -7t-99 -34t-65 -81t-19 -127t37 -118t83 -45h186q158 0 244 96t86 276v40h-304z" />
    <glyph glyph-name="Aogonek" unicode="&#x104;" horiz-adv-x="1156" 
d="M310 492h480l-242 658zM1156 -320q0 -48 -51 -69t-97 -21q-80 0 -131 55t-51 143q0 44 42 118t90 126l-136 376h-544l-144 -400q-18 -40 -44 -40q-42 0 -42 40q0 14 6 28l450 1236h92l450 -1236q6 -14 6 -28q0 -40 -42 -40h-2q-36 -36 -67 -93t-31 -87q0 -118 94 -118
q34 0 80 18t52 18q20 0 20 -26z" />
    <glyph glyph-name="aogonek" unicode="&#x105;" 
d="M586 496q-96 0 -149 -7t-99 -34t-65 -81t-19 -127t37 -118t83 -45h186q158 0 244 96t86 276v40h-304zM1078 -318q0 -48 -51 -69t-97 -21q-80 0 -131 55t-51 143q0 48 48 128t94 128v98q-108 -144 -330 -144h-186q-90 0 -147 65t-57 162t20 159q38 116 137 155
q100 39 259 39h304v128q0 70 -26 100t-94 30h-282q-234 0 -234 -130q0 -60 -42 -60t-42 60q0 108 85 161t219 53h310q110 0 150 -54t40 -194v-628q0 -45 -22 -56q-36 -26 -78 -96t-42 -104q0 -118 94 -118q34 0 80 18t52 18q20 0 20 -26z" />
    <glyph glyph-name="Cacute" unicode="&#x106;" 
d="M852 1598q0 -14 -22 -40l-140 -138q-20 -22 -38 -22t-31 13t-13 29t24 40l138 138q20 22 39 22t31 -14t12 -28zM868 0h-282q-212 0 -314 70t-102 280v572q0 210 102 280t314 70h282q126 0 158 -64t32 -137t-42 -73t-42 64t-26 95t-94 31h-268q-96 0 -149 -7t-99 -34
t-65 -81t-19 -144v-572q0 -90 19 -144t65 -81t99 -34t149 -7h268q68 0 94 30t26 95t42 65t42 -53q0 -93 -32 -157t-158 -64z" />
    <glyph glyph-name="cacute" unicode="&#x107;" 
d="M862 1313q0 -19 -16 -37l-192 -230q-24 -26 -40 -26t-29 12t-13 31t16 37l192 230q24 26 40 26t29 -12t13 -31zM868 0h-282q-212 0 -314 70t-102 280v222q0 210 102 280t314 70h282q127 0 158 -65q32 -65 32 -137t-42 -72t-42 64t-26 95t-94 31h-268q-96 0 -149 -7
t-99 -34t-65 -81t-19 -144v-222q0 -90 19 -144t65 -81t99 -34t149 -7h268q68 0 94 30t26 95t42 65t42 -53q0 -93 -32 -157t-158 -64z" />
    <glyph glyph-name="Ccircumflex" unicode="&#x108;" 
d="M402 1302q-36 0 -36 36q0 18 8 26l208 274h110l212 -274q8 -10 8 -26q0 -36 -36 -36q-16 0 -22 6t-14 16t-12 14l-188 208h-6l-184 -208q-32 -36 -48 -36zM868 0h-282q-212 0 -314 70t-102 280v572q0 210 102 280t314 70h282q126 0 158 -64t32 -137t-42 -73t-42 64
t-26 95t-94 31h-268q-96 0 -149 -7t-99 -34t-65 -81t-19 -144v-572q0 -90 19 -144t65 -81t99 -34t149 -7h268q68 0 94 30t26 95t42 65t42 -53q0 -93 -32 -157t-158 -64z" />
    <glyph glyph-name="ccircumflex" unicode="&#x109;" 
d="M386 1044q-36 0 -36 36q0 18 8 26l208 274h110l212 -274q8 -10 8 -26q0 -36 -36 -36q-16 0 -22 6t-14 16t-12 14l-188 208h-6l-184 -208q-32 -36 -48 -36zM868 0h-282q-212 0 -314 70t-102 280v222q0 210 102 280t314 70h282q127 0 158 -65q32 -65 32 -137t-42 -72
t-42 64t-26 95t-94 31h-268q-96 0 -149 -7t-99 -34t-65 -81t-19 -144v-222q0 -90 19 -144t65 -81t99 -34t149 -7h268q68 0 94 30t26 95t42 65t42 -53q0 -93 -32 -157t-158 -64z" />
    <glyph glyph-name="Cdotaccent" unicode="&#x10a;" 
d="M516 1484q0 28 30 50t61 22t62 -22t31 -50t-31 -50t-62 -22t-61 22t-30 50zM868 0h-282q-212 0 -314 70t-102 280v572q0 210 102 280t314 70h282q126 0 158 -64t32 -137t-42 -73t-42 64t-26 95t-94 31h-268q-96 0 -149 -7t-99 -34t-65 -81t-19 -144v-572q0 -90 19 -144
t65 -81t99 -34t149 -7h268q68 0 94 30t26 95t42 65t42 -53q0 -93 -32 -157t-158 -64z" />
    <glyph glyph-name="cdotaccent" unicode="&#x10b;" 
d="M524 1116q0 28 30 50t61 22t62 -22t31 -50t-31 -50t-62 -22t-61 22t-30 50zM868 0h-282q-212 0 -314 70t-102 280v222q0 210 102 280t314 70h282q127 0 158 -65q32 -65 32 -137t-42 -72t-42 64t-26 95t-94 31h-268q-96 0 -149 -7t-99 -34t-65 -81t-19 -144v-222
q0 -90 19 -144t65 -81t99 -34t149 -7h268q68 0 94 30t26 95t42 65t42 -53q0 -93 -32 -157t-158 -64z" />
    <glyph glyph-name="Ccaron" unicode="&#x10c;" 
d="M352 1594q0 30 36 30q20 0 58 -32l174 -144l174 144q38 32 58 32q36 0 36 -30q0 -12 -12 -24l-204 -214h-104l-204 214q-12 12 -12 24zM868 0h-282q-212 0 -314 70t-102 280v572q0 210 102 280t314 70h282q126 0 158 -64t32 -137t-42 -73t-42 64t-26 95t-94 31h-268
q-96 0 -149 -7t-99 -34t-65 -81t-19 -144v-572q0 -90 19 -144t65 -81t99 -34t149 -7h268q68 0 94 30t26 95t42 65t42 -53q0 -93 -32 -157t-158 -64z" />
    <glyph glyph-name="ccaron" unicode="&#x10d;" 
d="M356 1282q0 30 36 30q20 0 58 -32l174 -144l174 144q38 32 58 32q36 0 36 -30q0 -12 -12 -24l-204 -214h-104l-204 214q-12 12 -12 24zM868 0h-282q-212 0 -314 70t-102 280v222q0 210 102 280t314 70h282q127 0 158 -65q32 -65 32 -137t-42 -72t-42 64t-26 95t-94 31
h-268q-96 0 -149 -7t-99 -34t-65 -81t-19 -144v-222q0 -90 19 -144t65 -81t99 -34t149 -7h268q68 0 94 30t26 95t42 65t42 -53q0 -93 -32 -157t-158 -64z" />
    <glyph glyph-name="Dcaron" unicode="&#x10e;" 
d="M308 1594q0 30 36 30q20 0 58 -32l174 -144l174 144q38 32 58 32q36 0 36 -30q0 -12 -12 -24l-204 -214h-104l-204 214q-12 12 -12 24zM974 350v572q0 90 -19 144t-65 81t-99 34t-147 7h-390v-1104h390q94 0 147 7t99 34t65 81t19 144zM1058 922v-572q0 -210 -102 -280
t-312 -70h-436q-38 0 -38 62v1148q0 62 38 62h436q210 0 312 -70t102 -280z" />
    <glyph glyph-name="dcaron" unicode="&#x10f;" horiz-adv-x="1310" 
d="M1212 1286q20 0 46 -10t26 -29t-8 -35l-84 -166q-18 -42 -40 -42q-34 0 -34 40q0 12 6 30l48 172q12 40 40 40zM170 572q0 210 102 280t314 70h388v302q0 62 46 62q38 0 38 -62v-1178q0 -60 -42 -60t-42 60v98q-108 -144 -330 -144h-58q-212 0 -314 70t-102 280v222z
M254 350q0 -90 19 -144t65 -81t99 -34t149 -7h58q158 0 244 96t86 276v382h-388q-96 0 -149 -7t-99 -34t-65 -81t-19 -144v-222z" />
    <glyph glyph-name="Dcroat" unicode="&#x110;" 
d="M1058 922v-572q0 -210 -102 -280t-312 -70h-436q-38 0 -38 62v544h-16q-54 0 -54 46q0 40 54 40h16v518q0 62 38 62h436q210 0 312 -70t102 -280zM974 350v572q0 90 -19 144t-65 81t-99 34t-147 7h-390v-496h212q58 0 58 -43t-58 -43h-212v-522h390q94 0 147 7t99 34
t65 81t19 144z" />
    <glyph glyph-name="dcroat" unicode="&#x111;" 
d="M254 350q0 -90 19 -144t65 -81t99 -34t149 -7h58q158 0 244 96t86 276v382h-388q-96 0 -149 -7t-99 -34t-65 -81t-19 -144v-222zM590 1034q-52 0 -52 43t52 43h384v104q0 62 46 62q38 0 38 -62v-104h22q58 0 58 -46q0 -40 -58 -40h-22v-988q0 -60 -42 -60t-42 60v98
q-108 -144 -330 -144h-58q-212 0 -314 70t-102 280v222q0 210 102 280t314 70h388v112h-384z" />
    <glyph glyph-name="Emacron" unicode="&#x112;" 
d="M356 1412q-52 0 -52 43t52 43h490q58 0 58 -46q0 -40 -58 -40h-490zM254 674v-590h746q58 0 58 -46q0 -38 -58 -38h-792q-38 0 -38 62v1148q0 62 38 62h792q58 0 58 -46q0 -38 -58 -38h-746v-430h510q60 0 60 -46q0 -38 -60 -38h-510z" />
    <glyph glyph-name="emacron" unicode="&#x113;" 
d="M368 1044q-52 0 -52 43t52 43h490q58 0 58 -46q0 -40 -58 -40h-490zM644 838h-58q-184 0 -258 -46t-74 -208h720q0 162 -74 208t-256 46zM1058 572v-72h-804v-150q0 -90 19 -144t65 -81t99 -34t149 -7h268q68 0 94 30t26 95t42 65t42 -53q0 -93 -32 -157t-158 -64h-282
q-212 0 -314 70t-102 280v222q0 210 102 280t314 70h58q210 0 312 -70t102 -280z" />
    <glyph glyph-name="Edotaccent" unicode="&#x116;" 
d="M512 1484q0 28 30 50t61 22t62 -22t31 -50t-31 -50t-62 -22t-61 22t-30 50zM254 674v-590h746q58 0 58 -46q0 -38 -58 -38h-792q-38 0 -38 62v1148q0 62 38 62h792q58 0 58 -46q0 -38 -58 -38h-746v-430h510q60 0 60 -46q0 -38 -60 -38h-510z" />
    <glyph glyph-name="edotaccent" unicode="&#x117;" 
d="M524 1116q0 28 30 50t61 22t62 -22t31 -50t-31 -50t-62 -22t-61 22t-30 50zM644 838h-58q-184 0 -258 -46t-74 -208h720q0 162 -74 208t-256 46zM1058 572v-72h-804v-150q0 -90 19 -144t65 -81t99 -34t149 -7h268q68 0 94 30t26 95t42 65t42 -53q0 -93 -32 -157t-158 -64
h-282q-212 0 -314 70t-102 280v222q0 210 102 280t314 70h58q210 0 312 -70t102 -280z" />
    <glyph glyph-name="Eogonek" unicode="&#x118;" 
d="M804 -312q0 -48 -51 -69t-97 -21q-80 0 -131 55t-51 135t98 212h-364q-38 0 -38 62v1148q0 62 38 62h792q58 0 58 -46q0 -38 -58 -38h-746v-430h510q60 0 60 -46q0 -38 -60 -38h-510v-590h746q58 0 58 -46q0 -38 -58 -38h-316q-38 -22 -82 -95t-44 -109q0 -118 94 -118
q34 0 80 18t52 18q20 0 20 -26z" />
    <glyph glyph-name="eogonek" unicode="&#x119;" 
d="M644 838h-58q-184 0 -258 -46t-74 -208h720q0 162 -74 208t-256 46zM908 -312q0 -48 -51 -69t-97 -21q-80 0 -131 55t-51 135t98 212h-90q-212 0 -314 70t-102 280v222q0 210 102 280t314 70h58q210 0 312 -70t102 -280v-72h-804v-150q0 -90 19 -144t65 -81t99 -34
t149 -7h268q68 0 94 30t26 95t42 65t42 -53q0 -93 -32 -157t-158 -64h-80q-38 -22 -82 -95t-44 -109q0 -118 94 -118q34 0 80 18t52 18q20 0 20 -26z" />
    <glyph glyph-name="Ecaron" unicode="&#x11a;" 
d="M330 1594q0 30 36 30q20 0 58 -32l174 -144l174 144q38 32 58 32q36 0 36 -30q0 -12 -12 -24l-204 -214h-104l-204 214q-12 12 -12 24zM254 674v-590h746q58 0 58 -46q0 -38 -58 -38h-792q-38 0 -38 62v1148q0 62 38 62h792q58 0 58 -46q0 -38 -58 -38h-746v-430h510
q60 0 60 -46q0 -38 -60 -38h-510z" />
    <glyph glyph-name="ecaron" unicode="&#x11b;" 
d="M346 1282q0 30 36 30q20 0 58 -32l174 -144l174 144q38 32 58 32q36 0 36 -30q0 -12 -12 -24l-204 -214h-104l-204 214q-12 12 -12 24zM644 838h-58q-184 0 -258 -46t-74 -208h720q0 162 -74 208t-256 46zM1058 572v-72h-804v-150q0 -90 19 -144t65 -81t99 -34t149 -7
h268q68 0 94 30t26 95t42 65t42 -53q0 -93 -32 -157t-158 -64h-282q-212 0 -314 70t-102 280v222q0 210 102 280t314 70h58q210 0 312 -70t102 -280z" />
    <glyph glyph-name="Gcircumflex" unicode="&#x11c;" 
d="M396 1302q-36 0 -36 36q0 18 8 26l208 274h110l212 -274q8 -10 8 -26q0 -36 -36 -36q-16 0 -22 6t-14 16t-12 14l-188 208h-6l-184 -208q-32 -36 -48 -36zM974 502h-266q-60 0 -60 42t60 42h350v-390q0 -156 -87 -194q-41 -18 -103 -18h-282q-104 0 -172 12t-128 48
q-116 70 -116 290v604q0 220 116 290q60 36 128 48t172 12h282q126 0 158 -64t32 -137t-42 -73t-42 65t-26 95t-94 30h-268q-96 0 -149 -7t-99 -34t-65 -81t-19 -144v-604q0 -90 19 -144t65 -81t99 -34t149 -7h268q68 0 94 30t26 102v302z" />
    <glyph glyph-name="gcircumflex" unicode="&#x11d;" 
d="M376 1058q-36 0 -36 36q0 18 8 26l208 274h110l212 -274q8 -10 8 -26q0 -36 -36 -36q-16 0 -22 6t-14 16t-12 14l-188 208h-6l-184 -208q-32 -36 -48 -36zM254 350q0 -90 19 -144t65 -81t99 -34t149 -7h268q68 0 94 29t26 99v252q0 180 -86 277t-244 97h-58
q-96 0 -149 -7t-99 -34t-65 -81t-19 -144v-222zM170 572q0 210 102 280t314 70h58q222 0 330 -144v98q0 60 42 60t42 -60v-1060q0 -128 -36 -177t-136 -49h-526q-127 0 -158 65q-32 65 -32 137t42 72t42 -64t26 -95t94 -31h498q62 0 82 23t20 87v234q-38 -18 -106 -18h-282
q-212 0 -314 70t-102 280v222z" />
    <glyph glyph-name="Gbreve" unicode="&#x11e;" 
d="M866 1638q0 -96 -68 -169t-162 -73t-162 73t-68 169h86q0 -68 39 -111t105 -43t105 43t39 111h86zM974 502h-266q-60 0 -60 42t60 42h350v-390q0 -156 -87 -194q-41 -18 -103 -18h-282q-104 0 -172 12t-128 48q-116 70 -116 290v604q0 220 116 290q60 36 128 48t172 12
h282q126 0 158 -64t32 -137t-42 -73t-42 65t-26 95t-94 30h-268q-96 0 -149 -7t-99 -34t-65 -81t-19 -144v-604q0 -90 19 -144t65 -81t99 -34t149 -7h268q68 0 94 30t26 102v302z" />
    <glyph glyph-name="gbreve" unicode="&#x11f;" 
d="M842 1300q0 -96 -68 -169t-162 -73t-162 73t-68 169h86q0 -68 39 -111t105 -43t105 43t39 111h86zM254 350q0 -90 19 -144t65 -81t99 -34t149 -7h268q68 0 94 29t26 99v252q0 180 -86 277t-244 97h-58q-96 0 -149 -7t-99 -34t-65 -81t-19 -144v-222zM170 572
q0 210 102 280t314 70h58q222 0 330 -144v98q0 60 42 60t42 -60v-1060q0 -128 -36 -177t-136 -49h-526q-127 0 -158 65q-32 65 -32 137t42 72t42 -64t26 -95t94 -31h498q62 0 82 23t20 87v234q-38 -18 -106 -18h-282q-212 0 -314 70t-102 280v222z" />
    <glyph glyph-name="Gdotaccent" unicode="&#x120;" 
d="M512 1484q0 28 30 50t61 22t62 -22t31 -50t-31 -50t-62 -22t-61 22t-30 50zM974 502h-266q-60 0 -60 42t60 42h350v-390q0 -156 -87 -194q-41 -18 -103 -18h-282q-104 0 -172 12t-128 48q-116 70 -116 290v604q0 220 116 290q60 36 128 48t172 12h282q126 0 158 -64
t32 -137t-42 -73t-42 65t-26 95t-94 30h-268q-96 0 -149 -7t-99 -34t-65 -81t-19 -144v-604q0 -90 19 -144t65 -81t99 -34t149 -7h268q68 0 94 30t26 102v302z" />
    <glyph glyph-name="gdotaccent" unicode="&#x121;" 
d="M516 1130q0 28 30 50t61 22t62 -22t31 -50t-31 -50t-62 -22t-61 22t-30 50zM254 350q0 -90 19 -144t65 -81t99 -34t149 -7h268q68 0 94 29t26 99v252q0 180 -86 277t-244 97h-58q-96 0 -149 -7t-99 -34t-65 -81t-19 -144v-222zM170 572q0 210 102 280t314 70h58
q222 0 330 -144v98q0 60 42 60t42 -60v-1060q0 -128 -36 -177t-136 -49h-526q-127 0 -158 65q-32 65 -32 137t42 72t42 -64t26 -95t94 -31h498q62 0 82 23t20 87v234q-38 -18 -106 -18h-282q-212 0 -314 70t-102 280v222z" />
    <glyph glyph-name="Gcommaaccent" unicode="&#x122;" 
d="M642 -128q20 0 46 -10t26 -29t-8 -35l-84 -166q-18 -42 -40 -42q-34 0 -34 40q0 12 6 30l48 172q12 40 40 40zM974 502h-266q-60 0 -60 42t60 42h350v-390q0 -156 -87 -194q-41 -18 -103 -18h-282q-104 0 -172 12t-128 48q-116 70 -116 290v604q0 220 116 290
q60 36 128 48t172 12h282q126 0 158 -64t32 -137t-42 -73t-42 65t-26 95t-94 30h-268q-96 0 -149 -7t-99 -34t-65 -81t-19 -144v-604q0 -90 19 -144t65 -81t99 -34t149 -7h268q68 0 94 30t26 102v302z" />
    <glyph glyph-name="gcommaaccent" unicode="&#x123;" 
d="M620 1058q-20 0 -46 10t-26 29t8 35l84 166q18 42 40 42q34 0 34 -40q0 -12 -6 -30l-48 -172q-12 -40 -40 -40zM254 350q0 -90 19 -144t65 -81t99 -34t149 -7h268q68 0 94 29t26 99v252q0 180 -86 277t-244 97h-58q-96 0 -149 -7t-99 -34t-65 -81t-19 -144v-222zM170 572
q0 210 102 280t314 70h58q222 0 330 -144v98q0 60 42 60t42 -60v-1060q0 -128 -36 -177t-136 -49h-526q-127 0 -158 65q-32 65 -32 137t42 72t42 -64t26 -95t94 -31h498q62 0 82 23t20 87v234q-38 -18 -106 -18h-282q-212 0 -314 70t-102 280v222z" />
    <glyph glyph-name="Hcircumflex" unicode="&#x124;" 
d="M374 1302q-36 0 -36 36q0 18 8 26l208 274h110l212 -274q8 -10 8 -26q0 -36 -36 -36q-16 0 -22 6t-14 16t-12 14l-188 208h-6l-184 -208q-32 -36 -48 -36zM254 46q0 -60 -42 -60t-42 60v1178q0 62 38 62q46 0 46 -62v-496h720v496q0 62 42 62t42 -62v-1178q0 -60 -42 -60
t-42 60v598h-720v-598z" />
    <glyph glyph-name="hcircumflex" unicode="&#x125;" 
d="M378 1302q-36 0 -36 36q0 18 8 26l208 274h110l212 -274q8 -10 8 -26q0 -36 -36 -36q-16 0 -22 6t-14 16t-12 14l-188 208h-6l-184 -208q-32 -36 -48 -36zM586 838q-160 0 -246 -97t-86 -277v-418q0 -60 -42 -60t-42 60v1178q0 62 38 62q46 0 46 -62v-446
q112 144 332 144h58q210 0 312 -70t102 -280v-526q0 -60 -42 -60t-42 60v526q0 90 -19 144t-65 81t-99 34t-147 7h-58z" />
    <glyph glyph-name="Hbar" unicode="&#x126;" 
d="M974 1016h-720v-288h720v288zM106 1016q-52 0 -52 43t52 43h64v122q0 62 38 62q46 0 46 -62v-122h720v122q0 62 42 62t42 -62v-122h58q58 0 58 -46q0 -40 -58 -40h-58v-970q0 -60 -42 -60t-42 60v598h-720v-598q0 -60 -42 -60t-42 60v970h-64z" />
    <glyph glyph-name="hbar" unicode="&#x127;" 
d="M1058 46q0 -60 -42 -60t-42 60v526q0 90 -19 144t-65 81t-99 34t-147 7h-58q-160 0 -246 -97t-86 -277v-418q0 -60 -42 -60t-42 60v974q-50 0 -50 43t50 43v118q0 62 38 62q46 0 46 -62v-118h408q58 0 58 -46q0 -40 -58 -40h-408v-242q112 144 332 144h58q210 0 312 -70
t102 -280v-526z" />
    <glyph glyph-name="Itilde" unicode="&#x128;" horiz-adv-x="422" 
d="M321 1506q7 0 21 10l62 56q22 16 38 16t29 -10t13 -30t-24 -42l-94 -78q-14 -14 -27 -14t-25 4l-196 72q-8 4 -16 4t-22 -10l-62 -56q-22 -16 -37 -16t-28 11t-13 32t24 39l94 78q10 14 23 14t29 -4l196 -72q8 -4 15 -4zM254 40q0 -54 -42 -54t-42 54v1190q0 56 42 56
t42 -56v-1190z" />
    <glyph glyph-name="itilde" unicode="&#x129;" horiz-adv-x="420" 
d="M321 1152q7 0 21 10l62 56q22 16 38 16t29 -10t13 -30t-24 -42l-94 -78q-14 -14 -27 -14t-25 4l-196 72q-8 4 -16 4t-22 -10l-62 -56q-22 -16 -37 -16t-28 11t-13 32t24 39l94 78q10 14 23 14t29 -4l196 -72q8 -4 15 -4zM254 40q0 -54 -42 -54t-42 54v840q0 56 42 56
t42 -56v-840z" />
    <glyph glyph-name="Imacron" unicode="&#x12a;" horiz-adv-x="422" 
d="M-36 1412q-52 0 -52 43t52 43h490q58 0 58 -46q0 -40 -58 -40h-490zM254 40q0 -54 -42 -54t-42 54v1190q0 56 42 56t42 -56v-1190z" />
    <glyph glyph-name="imacron" unicode="&#x12b;" horiz-adv-x="420" 
d="M-36 1058q-52 0 -52 43t52 43h490q58 0 58 -46q0 -40 -58 -40h-490zM254 40q0 -54 -42 -54t-42 54v840q0 56 42 56t42 -56v-840z" />
    <glyph glyph-name="Iogonek" unicode="&#x12e;" horiz-adv-x="422" 
d="M368 -302q0 -48 -51 -69t-97 -21q-80 0 -131 55t-51 143q0 44 43 118t89 128v1178q0 56 42 56t42 -56v-1190q0 -48 -34 -54q-34 -36 -66 -93t-32 -87q0 -118 94 -118q34 0 80 18t52 18q20 0 20 -26z" />
    <glyph glyph-name="iogonek" unicode="&#x12f;" horiz-adv-x="420" 
d="M120 1202q0 28 30 50t61 22t62 -22t31 -50t-31 -50t-62 -22t-61 22t-30 50zM364 -310q0 -48 -51 -69t-97 -21q-80 0 -131 55t-51 143q0 46 45 122t91 128v832q0 56 42 56t42 -56v-840q0 -44 -28 -52q-36 -34 -72 -96t-36 -94q0 -118 94 -118q34 0 80 18t52 18
q20 0 20 -26z" />
    <glyph glyph-name="Idotaccent" unicode="&#x130;" horiz-adv-x="422" 
d="M120 1484q0 28 30 50t61 22t62 -22t31 -50t-31 -50t-62 -22t-61 22t-30 50zM254 40q0 -54 -42 -54t-42 54v1190q0 56 42 56t42 -56v-1190z" />
    <glyph glyph-name="dotlessi" unicode="&#x131;" horiz-adv-x="420" 
d="M254 40q0 -54 -42 -54t-42 54v840q0 56 42 56t42 -56v-840z" />
    <glyph glyph-name="Jcircumflex" unicode="&#x134;" horiz-adv-x="1172" 
d="M726 1304q-36 0 -36 36q0 18 8 26l208 274h110l212 -274q8 -10 8 -26q0 -36 -36 -36q-16 0 -22 6t-14 16t-12 14l-188 208h-6l-184 -208q-32 -36 -48 -36zM588 68q96 0 149 7t99 34t65 81t19 144v896q0 56 42 56t42 -56v-896q0 -220 -116 -290q-60 -36 -128 -48t-172 -12
t-173 12t-129 48q-116 70 -116 290q0 56 46 56q40 0 40 -56q0 -172 72 -219t260 -47z" />
    <glyph glyph-name="jcircumflex" unicode="&#x135;" horiz-adv-x="416" 
d="M-30 1058q-36 0 -36 36q0 18 8 26l208 274h110l212 -274q8 -10 8 -26q0 -36 -36 -36q-16 0 -22 6t-14 16t-12 14l-188 208h-6l-184 -208q-32 -36 -48 -36zM248 0q0 -223 -116 -291q-60 -35 -128 -47t-172 -12q-62 0 -62 42t62 42q96 0 149 7t99 34t65 81t19 144v874
q0 62 42 62t42 -62v-874z" />
    <glyph glyph-name="Kcommaaccent" unicode="&#x136;" horiz-adv-x="1118" 
d="M590 0q20 0 46 -10t26 -29t-8 -35l-84 -166q-18 -42 -40 -42q-34 0 -34 40q0 12 6 30l48 172q12 40 40 40zM990 28q0 -18 -14 -30t-32 -12t-38 26l-536 638l-116 -140v-470q0 -54 -42 -54t-42 54v1190q0 56 42 56t42 -56v-588l520 618q20 26 38 26t31 -11t13 -29t-18 -40
l-412 -492l544 -648q20 -20 20 -38z" />
    <glyph glyph-name="kcommaaccent" unicode="&#x137;" horiz-adv-x="956" 
d="M510 0q20 0 46 -10t26 -29t-8 -35l-84 -166q-18 -42 -40 -42q-34 0 -34 40q0 12 6 30l48 172q12 40 40 40zM864 32q0 -18 -11 -31t-29 -13t-40 22l-462 464l-68 -68v-366q0 -54 -42 -54t-42 54v1190q0 56 42 56t42 -56v-706l384 386q26 22 41 22t28 -12t13 -30t-22 -40
l-318 -318l464 -462q20 -20 20 -38z" />
    <glyph glyph-name="kgreenlandic" unicode="&#x138;" horiz-adv-x="1008" 
d="M838 31q0 -17 -11 -31t-29 -14t-38 18l-506 424v-388q0 -54 -42 -54t-42 54v840q0 56 42 56t42 -56v-380l504 422q22 20 40 20t29 -14t11 -32t-26 -38l-470 -394l472 -396q24 -20 24 -37z" />
    <glyph glyph-name="Lacute" unicode="&#x139;" horiz-adv-x="1116" 
d="M414 1596q0 -14 -22 -40l-140 -138q-20 -22 -38 -22t-31 13t-13 29t24 40l138 138q20 22 39 22t31 -14t12 -28zM208 0q-38 0 -38 62v1168q0 56 42 56t42 -56v-1146h636q56 0 56 -42t-56 -42h-682z" />
    <glyph glyph-name="lacute" unicode="&#x13a;" horiz-adv-x="512" 
d="M414 1608q0 -14 -22 -40l-140 -138q-20 -22 -38 -22t-31 13t-13 29t24 40l138 138q20 22 39 22t31 -14t12 -28zM374 0h-14q-110 0 -150 54t-40 194v978q0 60 42 60t42 -60v-1014q0 -70 26 -99t90 -29t64 -42t-60 -42z" />
    <glyph glyph-name="Lcommaaccent" unicode="&#x13b;" horiz-adv-x="1116" 
d="M560 -122q20 0 46 -10t26 -29t-8 -35l-84 -166q-18 -42 -40 -42q-34 0 -34 40q0 12 6 30l48 172q12 40 40 40zM208 0q-38 0 -38 62v1168q0 56 42 56t42 -56v-1146h636q56 0 56 -42t-56 -42h-682z" />
    <glyph glyph-name="lcommaaccent" unicode="&#x13c;" horiz-adv-x="512" 
d="M290 -128q20 0 46 -10t26 -29t-8 -35l-84 -166q-18 -42 -40 -42q-34 0 -34 40q0 12 6 30l48 172q12 40 40 40zM374 0h-14q-110 0 -150 54t-40 194v978q0 60 42 60t42 -60v-1014q0 -70 26 -99t90 -29t64 -42t-60 -42z" />
    <glyph glyph-name="Lcaron" unicode="&#x13d;" horiz-adv-x="1116" 
d="M474 1290q20 0 46 -10t26 -29t-8 -35l-84 -166q-18 -42 -40 -42q-34 0 -34 40q0 12 6 30l48 172q12 40 40 40zM208 0q-38 0 -38 62v1168q0 56 42 56t42 -56v-1146h636q56 0 56 -42t-56 -42h-682z" />
    <glyph glyph-name="lcaron" unicode="&#x13e;" horiz-adv-x="512" 
d="M488 1286q20 0 46 -10t26 -29t-8 -35l-84 -166q-18 -42 -40 -42q-34 0 -34 40q0 12 6 30l48 172q12 40 40 40zM374 0h-14q-110 0 -150 54t-40 194v978q0 60 42 60t42 -60v-1014q0 -70 26 -99t90 -29t64 -42t-60 -42z" />
    <glyph glyph-name="Lslash" unicode="&#x141;" horiz-adv-x="1246" 
d="M537 826q15 0 28 -13t13 -29q0 -26 -44 -44l-146 -72v-584h636q56 0 56 -42t-56 -42h-682q-38 0 -38 62v564l-110 -54q-14 -6 -26 -6q-42 0 -42 46q0 20 38 40l140 70v508q0 56 42 56t42 -56v-468l116 58q18 6 33 6z" />
    <glyph glyph-name="lslash" unicode="&#x142;" horiz-adv-x="684" 
d="M477 826q15 0 28 -13t13 -29q0 -26 -44 -44l-140 -70v-458q0 -70 26 -99t90 -29t64 -42t-60 -42h-14q-110 0 -150 54t-40 194v382l-116 -58q-16 -6 -26 -6q-42 0 -42 46q0 20 38 40l146 72v502q0 60 42 60t42 -60v-460l110 54q18 6 33 6z" />
    <glyph glyph-name="Nacute" unicode="&#x143;" 
d="M804 1565q0 -19 -16 -37l-192 -230q-24 -26 -40 -26t-29 12t-13 31t16 37l192 230q24 26 40 26t29 -12t13 -31zM1018 -14q-24 0 -32 14l-732 1114v-1068q0 -60 -42 -60t-42 60v1178q0 62 38 62q30 0 52 -34l714 -1084v1056q0 62 42 62t42 -62v-1178q0 -60 -40 -60z" />
    <glyph glyph-name="nacute" unicode="&#x144;" 
d="M822 1313q0 -19 -16 -37l-192 -230q-24 -26 -40 -26t-29 12t-13 31t16 37l192 230q24 26 40 26t29 -12t13 -31zM586 838q-160 0 -246 -97t-86 -277v-418q0 -60 -42 -60t-42 60v828q0 62 38 62q46 0 46 -62v-96q112 144 332 144h58q210 0 312 -70t102 -280v-526
q0 -60 -42 -60t-42 60v526q0 90 -19 144t-65 81t-99 34t-147 7h-58z" />
    <glyph glyph-name="Ncommaaccent" unicode="&#x145;" 
d="M626 0q20 0 46 -10t26 -29t-8 -35l-84 -166q-18 -42 -40 -42q-34 0 -34 40q0 12 6 30l48 172q12 40 40 40zM1018 -14q-24 0 -32 14l-732 1114v-1068q0 -60 -42 -60t-42 60v1178q0 62 38 62q30 0 52 -34l714 -1084v1056q0 62 42 62t42 -62v-1178q0 -60 -40 -60z" />
    <glyph glyph-name="ncommaaccent" unicode="&#x146;" 
d="M626 0q20 0 46 -10t26 -29t-8 -35l-84 -166q-18 -42 -40 -42q-34 0 -34 40q0 12 6 30l48 172q12 40 40 40zM586 838q-160 0 -246 -97t-86 -277v-418q0 -60 -42 -60t-42 60v828q0 62 38 62q46 0 46 -62v-96q112 144 332 144h58q210 0 312 -70t102 -280v-526q0 -60 -42 -60
t-42 60v526q0 90 -19 144t-65 81t-99 34t-147 7h-58z" />
    <glyph glyph-name="Ncaron" unicode="&#x147;" 
d="M352 1512q0 30 36 30q20 0 58 -32l174 -144l174 144q38 32 58 32q36 0 36 -30q0 -12 -12 -24l-204 -214h-104l-204 214q-12 12 -12 24zM1018 -14q-24 0 -32 14l-732 1114v-1068q0 -60 -42 -60t-42 60v1178q0 62 38 62q30 0 52 -34l714 -1084v1056q0 62 42 62t42 -62
v-1178q0 -60 -40 -60z" />
    <glyph glyph-name="ncaron" unicode="&#x148;" 
d="M346 1296q0 30 36 30q20 0 58 -32l174 -144l174 144q38 32 58 32q36 0 36 -30q0 -12 -12 -24l-204 -214h-104l-204 214q-12 12 -12 24zM586 838q-160 0 -246 -97t-86 -277v-418q0 -60 -42 -60t-42 60v828q0 62 38 62q46 0 46 -62v-96q112 144 332 144h58q210 0 312 -70
t102 -280v-526q0 -60 -42 -60t-42 60v526q0 90 -19 144t-65 81t-99 34t-147 7h-58z" />
    <glyph glyph-name="Eng" unicode="&#x14a;" 
d="M974 1224q0 62 42 62t42 -62v-1224q0 -223 -116 -291q-60 -35 -128 -47t-172 -12q-62 0 -62 42t62 42q96 0 149 7t99 34t65 81t19 144v18l-720 1096v-1068q0 -60 -42 -60t-42 60v1178q0 62 38 62q30 0 52 -34l714 -1084v1056z" />
    <glyph glyph-name="eng" unicode="&#x14b;" 
d="M586 838q-160 0 -246 -97t-86 -277v-418q0 -60 -42 -60t-42 60v828q0 62 38 62q46 0 46 -62v-96q112 144 332 144h58q210 0 312 -70t102 -280v-572q0 -223 -116 -291q-60 -35 -128 -47t-172 -12q-62 0 -62 42t62 42q96 0 149 7t99 34t65 81t19 144v572q0 90 -19 144
t-65 81t-99 34t-147 7h-58z" />
    <glyph glyph-name="Omacron" unicode="&#x14c;" 
d="M366 1412q-52 0 -52 43t52 43h490q58 0 58 -46q0 -40 -58 -40h-490zM614 1206q-168 0 -264 -103t-96 -285v-364q0 -182 96 -285t264 -103t264 103t96 285v364q0 182 -96 285t-264 103zM614 -18q-194 0 -319 126t-125 346v364q0 220 125 346t319 126t319 -126t125 -346
v-364q0 -220 -125 -346t-319 -126z" />
    <glyph glyph-name="omacron" unicode="&#x14d;" 
d="M368 1044q-52 0 -52 43t52 43h490q58 0 58 -46q0 -40 -58 -40h-490zM586 84h58q94 0 147 7t99 34t65 81t19 144v222q0 90 -19 144t-65 81t-99 34t-147 7h-58q-96 0 -149 -7t-99 -34t-65 -81t-19 -144v-222q0 -90 19 -144t65 -81t99 -34t149 -7zM644 0h-58q-212 0 -314 70
t-102 280v222q0 210 102 280t314 70h58q210 0 312 -70t102 -280v-222q0 -210 -102 -280t-312 -70z" />
    <glyph glyph-name="Ohungarumlaut" unicode="&#x150;" 
d="M730 1596q0 -14 -22 -40l-140 -138q-20 -22 -38 -22t-31 13t-13 29t24 40l138 138q20 22 39 22t31 -14t12 -28zM930 1596q0 -14 -22 -40l-140 -138q-20 -22 -38 -22t-31 13t-13 29t24 40l138 138q20 22 39 22t31 -14t12 -28zM614 1206q-168 0 -264 -103t-96 -285v-364
q0 -182 96 -285t264 -103t264 103t96 285v364q0 182 -96 285t-264 103zM614 -18q-194 0 -319 126t-125 346v364q0 220 125 346t319 126t319 -126t125 -346v-364q0 -220 -125 -346t-319 -126z" />
    <glyph glyph-name="ohungarumlaut" unicode="&#x151;" 
d="M744 1337q0 -19 -16 -37l-192 -230q-24 -26 -40 -26t-29 12t-13 31t16 37l192 230q24 26 40 26t29 -12t13 -31zM984 1337q0 -19 -16 -37l-192 -230q-24 -26 -40 -26t-29 12t-13 31t16 37l192 230q24 26 40 26t29 -12t13 -31zM586 84h58q94 0 147 7t99 34t65 81t19 144
v222q0 90 -19 144t-65 81t-99 34t-147 7h-58q-96 0 -149 -7t-99 -34t-65 -81t-19 -144v-222q0 -90 19 -144t65 -81t99 -34t149 -7zM644 0h-58q-212 0 -314 70t-102 280v222q0 210 102 280t314 70h58q210 0 312 -70t102 -280v-222q0 -210 -102 -280t-312 -70z" />
    <glyph glyph-name="OE" unicode="&#x152;" horiz-adv-x="1454" 
d="M545 1206q-131 0 -232 -108t-101 -280v-364q0 -172 101 -280t232 -108t205 74v992q-74 74 -205 74zM788 1272h478q60 0 60 -42t-60 -42h-432v-430h196q60 0 60 -46q0 -38 -60 -38h-196v-590h432q60 0 60 -46q0 -38 -60 -38h-478q-30 0 -36 36q-90 -54 -226 -54t-266 131
t-130 341v364q0 210 130 341t267 131t225 -56q6 38 36 38z" />
    <glyph glyph-name="oe" unicode="&#x153;" horiz-adv-x="1468" 
d="M462 0q-182 0 -257 84t-75 266v222q0 182 75 266t257 84q114 0 182 -34t110 -106q68 140 272 140q146 0 230 -72t84 -278v-72h-544v-150q0 -172 94 -225q72 -41 174 -41q192 0 192 134q0 56 42 56t42 -65q0 -134 -93 -175q-76 -34 -183 -34q-238 0 -306 148
q-40 -76 -108 -112t-188 -36zM463 838q-155 0 -203 -63t-48 -203v-222q0 -140 48 -203t203 -63t202 63t47 203v222q0 140 -47 203t-202 63zM1026 838q-118 0 -174 -47t-56 -207h460q0 160 -56 207t-174 47z" />
    <glyph glyph-name="Racute" unicode="&#x154;" horiz-adv-x="1134" 
d="M662 1596q0 -14 -22 -40l-140 -138q-20 -22 -38 -22t-31 13t-13 29t24 40l138 138q20 22 39 22t31 -14t12 -28zM254 40q0 -54 -42 -54t-42 54v1170q0 62 38 62h352q206 0 310 -64t104 -236q0 -126 -64 -200t-182 -92q66 -52 131 -209t98 -282t33 -149q0 -54 -44 -54
q-18 0 -29 16t-11 41t-28 139t-96 270t-152 222h-376v-634zM560 758q180 0 255 42t75 173t-75 173t-255 42h-306v-430h306z" />
    <glyph glyph-name="racute" unicode="&#x155;" horiz-adv-x="844" 
d="M628 1313q0 -19 -16 -37l-192 -230q-24 -26 -40 -26t-29 12t-13 31t16 37l192 230q24 26 40 26t29 -12t13 -31zM586 838q-160 0 -246 -97t-86 -277v-418q0 -60 -42 -60t-42 60v828q0 62 38 62q46 0 46 -62v-96q112 144 332 144h92q60 0 60 -42t-60 -42h-92z" />
    <glyph glyph-name="Rcommaaccent" unicode="&#x156;" horiz-adv-x="1134" 
d="M590 0q20 0 46 -10t26 -29t-8 -35l-84 -166q-18 -42 -40 -42q-34 0 -34 40q0 12 6 30l48 172q12 40 40 40zM254 40q0 -54 -42 -54t-42 54v1170q0 62 38 62h352q206 0 310 -64t104 -236q0 -126 -64 -200t-182 -92q66 -52 131 -209t98 -282t33 -149q0 -54 -44 -54
q-18 0 -29 16t-11 41t-28 139t-96 270t-152 222h-376v-634zM560 758q180 0 255 42t75 173t-75 173t-255 42h-306v-430h306z" />
    <glyph glyph-name="rcommaaccent" unicode="&#x157;" horiz-adv-x="844" 
d="M224 -128q20 0 46 -10t26 -29t-8 -35l-84 -166q-18 -42 -40 -42q-34 0 -34 40q0 12 6 30l48 172q12 40 40 40zM586 838q-160 0 -246 -97t-86 -277v-418q0 -60 -42 -60t-42 60v828q0 62 38 62q46 0 46 -62v-96q112 144 332 144h92q60 0 60 -42t-60 -42h-92z" />
    <glyph glyph-name="Rcaron" unicode="&#x158;" horiz-adv-x="1134" 
d="M274 1594q0 30 36 30q20 0 58 -32l174 -144l174 144q38 32 58 32q36 0 36 -30q0 -12 -12 -24l-204 -214h-104l-204 214q-12 12 -12 24zM254 40q0 -54 -42 -54t-42 54v1170q0 62 38 62h352q206 0 310 -64t104 -236q0 -126 -64 -200t-182 -92q66 -52 131 -209t98 -282
t33 -149q0 -54 -44 -54q-18 0 -29 16t-11 41t-28 139t-96 270t-152 222h-376v-634zM560 758q180 0 255 42t75 173t-75 173t-255 42h-306v-430h306z" />
    <glyph glyph-name="rcaron" unicode="&#x159;" horiz-adv-x="844" 
d="M186 1296q0 30 36 30q20 0 58 -32l174 -144l174 144q38 32 58 32q36 0 36 -30q0 -12 -12 -24l-204 -214h-104l-204 214q-12 12 -12 24zM586 838q-160 0 -246 -97t-86 -277v-418q0 -60 -42 -60t-42 60v828q0 62 38 62q46 0 46 -62v-96q112 144 332 144h92q60 0 60 -42
t-60 -42h-92z" />
    <glyph glyph-name="Sacute" unicode="&#x15a;" horiz-adv-x="1172" 
d="M772 1596q0 -14 -22 -40l-140 -138q-20 -22 -38 -22t-31 13t-13 29t24 40l138 138q20 22 39 22t31 -14t12 -28zM254 969q0 -85 37 -144t91 -73l434 -104q246 -62 246 -340q0 -132 -75 -228t-247 -96h-152q-104 0 -173 12t-129 48q-116 70 -116 290q0 56 46 56
q40 0 40 -56q0 -172 72 -219t260 -47h186q106 0 155 76t49 171t-41 161t-87 76l-432 106q-136 32 -192 104t-56 205t76 227t248 94h152q104 0 172 -12t128 -47q116 -68 116 -287q0 -56 -43 -56t-43 56q0 90 -18 144t-65 79t-99 32t-148 7h-188q-106 0 -155 -75t-49 -160z
" />
    <glyph glyph-name="sacute" unicode="&#x15b;" 
d="M862 1313q0 -19 -16 -37l-192 -230q-24 -26 -40 -26t-29 12t-13 31t16 37l192 230q24 26 40 26t29 -12t13 -31zM360 0q-126 0 -158 64t-32 137t42 73t42 -65t26 -95t94 -30h476q128 0 128 162q0 84 -36 134t-92 50h-432q-248 0 -248 256q0 116 57 176t191 60h450
q127 0 158 -65q32 -65 32 -137t-42 -72t-42 64t-26 95t-94 31h-472q-128 0 -128 -152q0 -82 36 -127t92 -45h434q246 0 246 -268q0 -246 -246 -246h-456z" />
    <glyph glyph-name="Scircumflex" unicode="&#x15c;" horiz-adv-x="1172" 
d="M342 1302q-36 0 -36 36q0 18 8 26l208 274h110l212 -274q8 -10 8 -26q0 -36 -36 -36q-16 0 -22 6t-14 16t-12 14l-188 208h-6l-184 -208q-32 -36 -48 -36zM254 969q0 -85 37 -144t91 -73l434 -104q246 -62 246 -340q0 -132 -75 -228t-247 -96h-152q-104 0 -173 12
t-129 48q-116 70 -116 290q0 56 46 56q40 0 40 -56q0 -172 72 -219t260 -47h186q106 0 155 76t49 171t-41 161t-87 76l-432 106q-136 32 -192 104t-56 205t76 227t248 94h152q104 0 172 -12t128 -47q116 -68 116 -287q0 -56 -43 -56t-43 56q0 90 -18 144t-65 79t-99 32
t-148 7h-188q-106 0 -155 -75t-49 -160z" />
    <glyph glyph-name="scircumflex" unicode="&#x15d;" 
d="M406 1044q-36 0 -36 36q0 18 8 26l208 274h110l212 -274q8 -10 8 -26q0 -36 -36 -36q-16 0 -22 6t-14 16t-12 14l-188 208h-6l-184 -208q-32 -36 -48 -36zM360 0q-126 0 -158 64t-32 137t42 73t42 -65t26 -95t94 -30h476q128 0 128 162q0 84 -36 134t-92 50h-432
q-248 0 -248 256q0 116 57 176t191 60h450q127 0 158 -65q32 -65 32 -137t-42 -72t-42 64t-26 95t-94 31h-472q-128 0 -128 -152q0 -82 36 -127t92 -45h434q246 0 246 -268q0 -246 -246 -246h-456z" />
    <glyph glyph-name="Scedilla" unicode="&#x15e;" horiz-adv-x="1172" 
d="M254 969q0 -85 37 -144t91 -73l434 -104q246 -62 246 -340q0 -132 -75 -228t-247 -96h-112v-38q88 -28 114 -61t26 -93q0 -110 -132 -110t-132 86q0 26 21 26t21 -26q0 -44 90 -44t90 68q0 26 -6 44t-39 41t-95 37v70q-164 0 -236 29t-106 67q-74 83 -74 254q0 56 46 56
q40 0 40 -56q0 -172 72 -219t260 -47h186q106 0 155 76t49 171t-41 161t-87 76l-432 106q-136 34 -192 105t-56 204t76 227t248 94h152q104 0 172 -12t128 -47q116 -68 116 -287q0 -56 -43 -56t-43 56q0 90 -18 144t-65 79t-99 32t-148 7h-188q-106 0 -155 -75t-49 -160z
" />
    <glyph glyph-name="scedilla" unicode="&#x15f;" 
d="M360 0q-126 0 -158 64t-32 137t42 73t42 -65t26 -95t94 -30h476q128 0 128 162q0 84 -36 134t-92 50h-432q-248 0 -248 256q0 116 57 176t191 60h450q127 0 158 -65q32 -65 32 -137t-42 -72t-42 64t-26 95t-94 31h-472q-128 0 -128 -152q0 -82 36 -127t92 -45h434
q246 0 246 -268q0 -246 -246 -246h-208v-38q88 -28 114 -61t26 -93q0 -110 -132 -110t-132 86q0 26 21 26t21 -26q0 -44 90 -44t90 68q0 26 -6 44t-39 41t-95 37v70h-206z" />
    <glyph glyph-name="Scaron" unicode="&#x160;" horiz-adv-x="1172" 
d="M346 1594q0 30 36 30q20 0 58 -32l174 -144l174 144q38 32 58 32q36 0 36 -30q0 -12 -12 -24l-204 -214h-104l-204 214q-12 12 -12 24zM254 969q0 -85 37 -144t91 -73l434 -104q246 -62 246 -340q0 -132 -75 -228t-247 -96h-152q-104 0 -173 12t-129 48q-116 70 -116 290
q0 56 46 56q40 0 40 -56q0 -172 72 -219t260 -47h186q106 0 155 76t49 171t-41 161t-87 76l-432 106q-136 32 -192 104t-56 205t76 227t248 94h152q104 0 172 -12t128 -47q116 -68 116 -287q0 -56 -43 -56t-43 56q0 90 -18 144t-65 79t-99 32t-148 7h-188q-106 0 -155 -75
t-49 -160z" />
    <glyph glyph-name="scaron" unicode="&#x161;" 
d="M376 1282q0 30 36 30q20 0 58 -32l174 -144l174 144q38 32 58 32q36 0 36 -30q0 -12 -12 -24l-204 -214h-104l-204 214q-12 12 -12 24zM360 0q-126 0 -158 64t-32 137t42 73t42 -65t26 -95t94 -30h476q128 0 128 162q0 84 -36 134t-92 50h-432q-248 0 -248 256
q0 116 57 176t191 60h450q127 0 158 -65q32 -65 32 -137t-42 -72t-42 64t-26 95t-94 31h-472q-128 0 -128 -152q0 -82 36 -127t92 -45h434q246 0 246 -268q0 -246 -246 -246h-456z" />
    <glyph glyph-name="Tcommaaccent" unicode="&#x162;" horiz-adv-x="1030" 
d="M866 1272q56 0 56 -42t-56 -42h-308v-1148q0 -40 -24 -50v-42q88 -28 114 -61t26 -93q0 -110 -132 -110t-132 86q0 26 21 26t21 -26q0 -44 90 -44t90 68q0 26 -6 44t-39 41t-95 37v76q-18 12 -18 48v1148h-310q-56 0 -56 42t56 42h702z" />
    <glyph glyph-name="tcommaaccent" unicode="&#x163;" horiz-adv-x="754" 
d="M244 350q0 -90 19 -144t65 -81t99 -34t149 -7q60 0 60 -38q0 -46 -63 -46t-113 4v-42q88 -28 114 -61t26 -93q0 -110 -132 -110t-132 86q0 26 21 26t21 -26q0 -44 90 -44t90 68q0 26 -6 44t-39 41t-95 37v80q-126 20 -192 97t-66 243v488q-62 0 -62 42t62 42v218
q0 62 38 62q46 0 46 -62v-218h286q62 0 62 -46q0 -38 -62 -38h-286v-488z" />
    <glyph glyph-name="Tcaron" unicode="&#x164;" horiz-adv-x="1030" 
d="M252 1594q0 30 36 30q20 0 58 -32l174 -144l174 144q38 32 58 32q36 0 36 -30q0 -12 -12 -24l-204 -214h-104l-204 214q-12 12 -12 24zM866 1272q56 0 56 -42t-56 -42h-308v-1148q0 -54 -42 -54t-42 54v1148h-310q-56 0 -56 42t56 42h702z" />
    <glyph glyph-name="tcaron" unicode="&#x165;" horiz-adv-x="754" 
d="M422 1254q20 0 46 -10t26 -29t-8 -35l-84 -166q-18 -42 -40 -42q-34 0 -34 40q0 12 6 30l48 172q12 40 40 40zM244 350q0 -90 19 -144t65 -81t99 -34t149 -7q60 0 60 -38q0 -46 -60 -46q-199 0 -308 66q-108 66 -108 284v488q-62 0 -62 42t62 42v218q0 62 38 62
q46 0 46 -62v-218h286q62 0 62 -46q0 -38 -62 -38h-286v-488z" />
    <glyph glyph-name="Tbar" unicode="&#x166;" horiz-adv-x="1030" 
d="M268 636q-52 0 -52 43t52 43h206v466h-310q-56 0 -56 42t56 42h702q56 0 56 -42t-56 -42h-308v-466h200q58 0 58 -46q0 -40 -58 -40h-200v-596q0 -54 -42 -54t-42 54v596h-206z" />
    <glyph glyph-name="tbar" unicode="&#x167;" horiz-adv-x="754" 
d="M150 550q-52 0 -52 43t52 43h10v202q-62 0 -62 42t62 42v218q0 62 38 62q46 0 46 -62v-218h286q62 0 62 -46q0 -38 -62 -38h-286v-202h396q58 0 58 -46q0 -40 -58 -40h-396v-200q0 -90 19 -144t65 -81t99 -34t149 -7q60 0 60 -38q0 -46 -60 -46q-199 0 -308 66
q-108 66 -108 284v200h-10z" />
    <glyph glyph-name="Utilde" unicode="&#x168;" 
d="M725 1506q7 0 21 10l62 56q22 16 38 16t29 -10t13 -30t-24 -42l-94 -78q-14 -14 -27 -14t-25 4l-196 72q-8 4 -16 4t-22 -10l-62 -56q-22 -16 -37 -16t-28 11t-13 32t24 39l94 78q10 14 23 14t29 -4l196 -72q8 -4 15 -4zM974 1230q0 56 42 56t42 -56v-776
q0 -220 -125 -346t-319 -126t-319 126t-125 346v776q0 56 42 56t42 -56v-776q0 -182 96 -285t264 -103t264 103t96 285v776z" />
    <glyph glyph-name="utilde" unicode="&#x169;" 
d="M723 1152q7 0 21 10l62 56q22 16 38 16t29 -10t13 -30t-24 -42l-94 -78q-14 -14 -27 -14t-25 4l-196 72q-8 4 -16 4t-22 -10l-62 -56q-22 -16 -37 -16t-28 11t-13 32t24 39l94 78q10 14 23 14t29 -4l196 -72q8 -4 15 -4zM644 84q158 0 244 96t86 276v420q0 60 42 60
t42 -60v-828q0 -62 -38 -62q-46 0 -46 62v96q-108 -144 -330 -144h-58q-212 0 -314 70t-102 280v526q0 60 42 60t42 -60v-526q0 -90 19 -144t65 -81t99 -34t149 -7h58z" />
    <glyph glyph-name="Umacron" unicode="&#x16a;" 
d="M368 1412q-52 0 -52 43t52 43h490q58 0 58 -46q0 -40 -58 -40h-490zM974 1230q0 56 42 56t42 -56v-776q0 -220 -125 -346t-319 -126t-319 126t-125 346v776q0 56 42 56t42 -56v-776q0 -182 96 -285t264 -103t264 103t96 285v776z" />
    <glyph glyph-name="umacron" unicode="&#x16b;" 
d="M366 1058q-52 0 -52 43t52 43h490q58 0 58 -46q0 -40 -58 -40h-490zM644 84q158 0 244 96t86 276v420q0 60 42 60t42 -60v-828q0 -62 -38 -62q-46 0 -46 62v96q-108 -144 -330 -144h-58q-212 0 -314 70t-102 280v526q0 60 42 60t42 -60v-526q0 -90 19 -144t65 -81t99 -34
t149 -7h58z" />
    <glyph glyph-name="Ubreve" unicode="&#x16c;" 
d="M846 1514q0 -96 -68 -169t-162 -73t-162 73t-68 169h86q0 -68 39 -111t105 -43t105 43t39 111h86zM974 1230q0 56 42 56t42 -56v-776q0 -220 -125 -346t-319 -126t-319 126t-125 346v776q0 56 42 56t42 -56v-776q0 -182 96 -285t264 -103t264 103t96 285v776z" />
    <glyph glyph-name="ubreve" unicode="&#x16d;" 
d="M842 1300q0 -96 -68 -169t-162 -73t-162 73t-68 169h86q0 -68 39 -111t105 -43t105 43t39 111h86zM644 84q158 0 244 96t86 276v420q0 60 42 60t42 -60v-828q0 -62 -38 -62q-46 0 -46 62v96q-108 -144 -330 -144h-58q-212 0 -314 70t-102 280v526q0 60 42 60t42 -60v-526
q0 -90 19 -144t65 -81t99 -34t149 -7h58z" />
    <glyph glyph-name="Uring" unicode="&#x16e;" 
d="M466 1432q0 64 45 108t107 44t107 -44t45 -108t-45 -108t-107 -44t-107 44t-45 108zM520 1432q0 -40 29 -69t69 -29t69 29t29 69t-30 69t-69 29t-68 -29t-29 -69zM974 1230q0 56 42 56t42 -56v-776q0 -220 -125 -346t-319 -126t-319 126t-125 346v776q0 56 42 56t42 -56
v-776q0 -182 96 -285t264 -103t264 103t96 285v776z" />
    <glyph glyph-name="uring" unicode="&#x16f;" 
d="M450 1196q0 64 45 108t107 44t107 -44t45 -108t-45 -108t-107 -44t-107 44t-45 108zM504 1196q0 -40 29 -69t69 -29t69 29t29 69t-30 69t-69 29t-68 -29t-29 -69zM644 84q158 0 244 96t86 276v420q0 60 42 60t42 -60v-828q0 -62 -38 -62q-46 0 -46 62v96
q-108 -144 -330 -144h-58q-212 0 -314 70t-102 280v526q0 60 42 60t42 -60v-526q0 -90 19 -144t65 -81t99 -34t149 -7h58z" />
    <glyph glyph-name="Uhungarumlaut" unicode="&#x170;" 
d="M730 1565q0 -19 -16 -37l-192 -230q-24 -26 -40 -26t-29 12t-13 31t16 37l192 230q24 26 40 26t29 -12t13 -31zM970 1565q0 -19 -16 -37l-192 -230q-24 -26 -40 -26t-29 12t-13 31t16 37l192 230q24 26 40 26t29 -12t13 -31zM974 1230q0 56 42 56t42 -56v-776
q0 -220 -125 -346t-319 -126t-319 126t-125 346v776q0 56 42 56t42 -56v-776q0 -182 96 -285t264 -103t264 103t96 285v776z" />
    <glyph glyph-name="uhungarumlaut" unicode="&#x171;" 
d="M726 1351q0 -19 -16 -37l-192 -230q-24 -26 -40 -26t-29 12t-13 31t16 37l192 230q24 26 40 26t29 -12t13 -31zM966 1351q0 -19 -16 -37l-192 -230q-24 -26 -40 -26t-29 12t-13 31t16 37l192 230q24 26 40 26t29 -12t13 -31zM644 84q158 0 244 96t86 276v420q0 60 42 60
t42 -60v-828q0 -62 -38 -62q-46 0 -46 62v96q-108 -144 -330 -144h-58q-212 0 -314 70t-102 280v526q0 60 42 60t42 -60v-526q0 -90 19 -144t65 -81t99 -34t149 -7h58z" />
    <glyph glyph-name="Uogonek" unicode="&#x172;" 
d="M794 -318q0 -48 -51 -69t-97 -21q-80 0 -131 55t-51 133t92 206q-172 18 -279 141t-107 327v776q0 56 42 56t42 -56v-776q0 -182 96 -285t264 -103t264 103t96 285v776q0 56 42 56t42 -56v-776q0 -206 -111 -330t-287 -140q-36 -32 -74 -97t-38 -97q0 -118 94 -118
q34 0 80 18t52 18q20 0 20 -26z" />
    <glyph glyph-name="uogonek" unicode="&#x173;" 
d="M1160 -318q0 -48 -51 -69t-97 -21q-80 0 -131 55t-51 143q0 48 49 129t95 129v96q-108 -144 -330 -144h-58q-212 0 -314 70t-102 280v526q0 60 42 60t42 -60v-526q0 -90 19 -144t65 -81t99 -34t149 -7h58q158 0 244 96t86 276v420q0 60 42 60t42 -60v-828q0 -54 -28 -60
q-38 -30 -77 -97t-39 -101q0 -118 94 -118q34 0 80 18t52 18q20 0 20 -26z" />
    <glyph glyph-name="Wcircumflex" unicode="&#x174;" horiz-adv-x="1934" 
d="M730 1302q-36 0 -36 36q0 18 8 26l208 274h110l212 -274q8 -10 8 -26q0 -36 -36 -36q-16 0 -22 6t-14 16t-12 14l-188 208h-6l-184 -208q-32 -36 -48 -36zM968 1304q34 0 48 -44l354 -1140l352 1144q16 40 38 40t35 -13t13 -26t-6 -31l-384 -1234h-100l-352 1130
l-350 -1130h-98l-376 1234q-2 6 -9 16t-7 19t14 22t34 13q26 0 38 -40l356 -1144l352 1140q14 44 48 44z" />
    <glyph glyph-name="wcircumflex" unicode="&#x175;" horiz-adv-x="1636" 
d="M582 1058q-36 0 -36 36q0 18 8 26l208 274h110l212 -274q8 -10 8 -26q0 -36 -36 -36q-16 0 -22 6t-14 16t-12 14l-188 208h-6l-184 -208q-32 -36 -48 -36zM1474 936q16 0 35 -11t19 -26t-6 -21l-310 -878h-142l-252 768l-272 -768h-142l-290 878q-6 4 -6 19t20 27t34 12
q20 0 34 -38l278 -806h12l288 808q6 34 42 34t46 -34l276 -808h12l290 808q12 36 34 36z" />
    <glyph glyph-name="Ycircumflex" unicode="&#x176;" horiz-adv-x="1190" 
d="M358 1302q-36 0 -36 36q0 18 8 26l208 274h110l212 -274q8 -10 8 -26q0 -36 -36 -36q-16 0 -22 6t-14 16t-12 14l-188 208h-6l-184 -208q-32 -36 -48 -36zM130 1245q0 17 13 29t30 12t39 -32l384 -546l382 546q26 32 42 32t29 -12t13 -29t-14 -37l-410 -588v-580
q0 -54 -41 -54t-41 54v580l-412 588q-14 20 -14 37z" />
    <glyph glyph-name="ycircumflex" unicode="&#x177;" 
d="M378 1058q-36 0 -36 36q0 18 8 26l208 274h110l212 -274q8 -10 8 -26q0 -36 -36 -36q-16 0 -22 6t-14 16t-12 14l-188 208h-6l-184 -208q-32 -36 -48 -36zM1058 -184q0 -128 -36 -177t-136 -49h-526q-127 0 -158 65q-32 65 -32 137t42 72t42 -64t26 -95t94 -31h498
q62 0 82 23t20 87v360q-108 -144 -330 -144h-58q-212 0 -314 70t-102 280v522q0 64 42 64t42 -64v-522q0 -90 19 -144t65 -81t99 -34t149 -7h58q158 0 244 96t86 276v416q0 64 42 64t42 -64v-1056z" />
    <glyph glyph-name="Ydieresis" unicode="&#x178;" horiz-adv-x="1190" 
d="M652 1486q0 28 30 50t61 22t62 -22t31 -50t-31 -50t-62 -22t-61 22t-30 50zM360 1486q0 28 30 50t61 22t62 -22t31 -50t-31 -50t-62 -22t-61 22t-30 50zM130 1245q0 17 13 29t30 12t39 -32l384 -546l382 546q26 32 42 32t29 -12t13 -29t-14 -37l-410 -588v-580
q0 -54 -41 -54t-41 54v580l-412 588q-14 20 -14 37z" />
    <glyph glyph-name="Zacute" unicode="&#x179;" 
d="M808 1596q0 -14 -22 -40l-140 -138q-20 -22 -38 -22t-31 13t-13 29t24 40l138 138q20 22 39 22t31 -14t12 -28zM172 0v88l792 1100h-732q-62 0 -62 42t62 42h826v-92l-788 -1096h728q60 0 60 -42t-60 -42h-826z" />
    <glyph glyph-name="zacute" unicode="&#x17a;" horiz-adv-x="1182" 
d="M862 1313q0 -19 -16 -37l-192 -230q-24 -26 -40 -26t-29 12t-13 31t16 37l192 230q24 26 40 26t29 -12t13 -31zM808 84q56 0 84 25t33 54t5 88t42 59t42 -62q0 -140 -41 -194t-149 -54h-654v118l708 720h-504q-78 0 -99 -41t-21 -113t-42 -72t-42 62q0 140 40 194t150 54
h612v-124l-702 -714h538z" />
    <glyph glyph-name="Zdotaccent" unicode="&#x17b;" 
d="M522 1484q0 28 30 50t61 22t62 -22t31 -50t-31 -50t-62 -22t-61 22t-30 50zM172 0v88l792 1100h-732q-62 0 -62 42t62 42h826v-92l-788 -1096h728q60 0 60 -42t-60 -42h-826z" />
    <glyph glyph-name="zdotaccent" unicode="&#x17c;" horiz-adv-x="1182" 
d="M506 1116q0 28 30 50t61 22t62 -22t31 -50t-31 -50t-62 -22t-61 22t-30 50zM808 84q56 0 84 25t33 54t5 88t42 59t42 -62q0 -140 -41 -194t-149 -54h-654v118l708 720h-504q-78 0 -99 -41t-21 -113t-42 -72t-42 62q0 140 40 194t150 54h612v-124l-702 -714h538z" />
    <glyph glyph-name="Zcaron" unicode="&#x17d;" 
d="M358 1594q0 30 36 30q20 0 58 -32l174 -144l174 144q38 32 58 32q36 0 36 -30q0 -12 -12 -24l-204 -214h-104l-204 214q-12 12 -12 24zM172 0v88l792 1100h-732q-62 0 -62 42t62 42h826v-92l-788 -1096h728q60 0 60 -42t-60 -42h-826z" />
    <glyph glyph-name="zcaron" unicode="&#x17e;" horiz-adv-x="1182" 
d="M296 1282q0 30 36 30q20 0 58 -32l174 -144l174 144q38 32 58 32q36 0 36 -30q0 -12 -12 -24l-204 -214h-104l-204 214q-12 12 -12 24zM808 84q56 0 84 25t33 54t5 88t42 59t42 -62q0 -140 -41 -194t-149 -54h-654v118l708 720h-504q-78 0 -99 -41t-21 -113t-42 -72
t-42 62q0 140 40 194t150 54h612v-124l-702 -714h538z" />
    <glyph glyph-name="florin" unicode="&#x192;" horiz-adv-x="816" 
d="M254 88q0 -184 -62 -241t-218 -57q-62 0 -62 42t62 42q136 0 166 41t30 225v698q-62 0 -62 42t62 42q0 220 116 290q60 36 128 48t172 12q62 0 62 -46q0 -38 -62 -38q-96 0 -149 -7t-99 -34t-65 -81t-19 -144h286q62 0 62 -46q0 -38 -62 -38h-286v-750z" />
    <glyph glyph-name="Ohorn" unicode="&#x1a0;" horiz-adv-x="1290" 
d="M614 1206q-168 0 -264 -103t-96 -285v-364q0 -182 96 -285t264 -103t264 103t96 285v364q0 182 -96 285t-264 103zM1290 1244q0 -96 -69 -164t-163 -68h-32q32 -88 32 -194v-364q0 -220 -125 -346t-319 -126t-319 126t-125 346v364q0 220 125 346t319 126q120 0 218 -51
t156 -145h70q68 0 108 41t40 103t42 62t42 -56z" />
    <glyph glyph-name="ohorn" unicode="&#x1a1;" horiz-adv-x="1292" 
d="M586 84h58q94 0 147 7t99 34t65 81t19 144v222q0 90 -19 144t-65 81t-99 34t-147 7h-58q-96 0 -149 -7t-99 -34t-65 -81t-19 -144v-222q0 -90 19 -144t65 -81t99 -34t149 -7zM1292 866q0 -96 -69 -164t-163 -68h-4q2 -30 2 -62v-222q0 -210 -102 -280t-312 -70h-58
q-212 0 -314 70t-102 280v222q0 210 102 280t314 70h58q262 0 345 -100q35 -42 53 -106h18q68 0 108 41t40 103t42 62t42 -56z" />
    <glyph glyph-name="Uhorn" unicode="&#x1af;" horiz-adv-x="1344" 
d="M1344 1234q0 -96 -69 -164t-163 -68h-54v-548q0 -220 -125 -346t-319 -126t-319 126t-125 346v776q0 56 42 56t42 -56v-776q0 -182 96 -285t264 -103t264 103t96 285v776q0 56 42 56t42 -56v-146h54q68 0 108 41t40 103t42 62t42 -56z" />
    <glyph glyph-name="uhorn" unicode="&#x1b0;" horiz-adv-x="1324" 
d="M1324 880q0 -96 -69 -164t-163 -68h-34v-600q0 -62 -38 -62q-46 0 -46 62v96q-108 -144 -330 -144h-58q-212 0 -314 70t-102 280v526q0 60 42 60t42 -60v-526q0 -90 19 -144t65 -81t99 -34t149 -7h58q158 0 244 96t86 276v420q0 60 42 60t42 -60v-146h34q68 0 108 41
t40 103t42 62t42 -56z" />
    <glyph glyph-name="Scommaaccent" unicode="&#x218;" horiz-adv-x="1172" 
d="M630 -128q20 0 46 -10t26 -29t-8 -35l-84 -166q-18 -42 -40 -42q-34 0 -34 40q0 12 6 30l48 172q12 40 40 40zM254 969q0 -85 37 -144t91 -73l434 -104q246 -62 246 -340q0 -132 -75 -228t-247 -96h-152q-104 0 -173 12t-129 48q-116 70 -116 290q0 56 46 56q40 0 40 -56
q0 -172 72 -219t260 -47h186q106 0 155 76t49 171t-41 161t-87 76l-432 106q-136 32 -192 104t-56 205t76 227t248 94h152q104 0 172 -12t128 -47q116 -68 116 -287q0 -56 -43 -56t-43 56q0 90 -18 144t-65 79t-99 32t-148 7h-188q-106 0 -155 -75t-49 -160z" />
    <glyph glyph-name="scommaaccent" unicode="&#x219;" 
d="M610 -128q20 0 46 -10t26 -29t-8 -35l-84 -166q-18 -42 -40 -42q-34 0 -34 40q0 12 6 30l48 172q12 40 40 40zM360 0q-126 0 -158 64t-32 137t42 73t42 -65t26 -95t94 -30h476q128 0 128 162q0 84 -36 134t-92 50h-432q-248 0 -248 256q0 116 57 176t191 60h450
q127 0 158 -65q32 -65 32 -137t-42 -72t-42 64t-26 95t-94 31h-472q-128 0 -128 -152q0 -82 36 -127t92 -45h434q246 0 246 -268q0 -246 -246 -246h-456z" />
    <glyph glyph-name="uni021A" unicode="&#x21a;" horiz-adv-x="1030" 
d="M526 -128q20 0 46 -10t26 -29t-8 -35l-84 -166q-18 -42 -40 -42q-34 0 -34 40q0 12 6 30l48 172q12 40 40 40zM866 1272q56 0 56 -42t-56 -42h-308v-1148q0 -54 -42 -54t-42 54v1148h-310q-56 0 -56 42t56 42h702z" />
    <glyph glyph-name="uni021B" unicode="&#x21b;" horiz-adv-x="754" 
d="M338 -128q20 0 46 -10t26 -29t-8 -35l-84 -166q-18 -42 -40 -42q-34 0 -34 40q0 12 6 30l48 172q12 40 40 40zM244 350q0 -90 19 -144t65 -81t99 -34t149 -7q60 0 60 -38q0 -46 -60 -46q-199 0 -308 66q-108 66 -108 284v488q-62 0 -62 42t62 42v218q0 62 38 62
q46 0 46 -62v-218h286q62 0 62 -46q0 -38 -62 -38h-286v-488z" />
    <glyph glyph-name="uni0237" unicode="&#x237;" horiz-adv-x="416" 
d="M248 0q0 -223 -116 -291q-60 -35 -128 -47t-172 -12q-62 0 -62 42t62 42q96 0 149 7t99 34t65 81t19 144v874q0 62 42 62t42 -62v-874z" />
    <glyph glyph-name="circumflex" unicode="&#x2c6;" horiz-adv-x="804" 
d="M166 1020q-36 0 -36 36q0 18 8 26l208 274h110l212 -274q8 -10 8 -26q0 -36 -36 -36q-16 0 -22 6t-14 16t-12 14l-188 208h-6l-184 -208q-32 -36 -48 -36z" />
    <glyph glyph-name="caron" unicode="&#x2c7;" horiz-adv-x="746" 
d="M110 1292q0 30 36 30q20 0 58 -32l174 -144l174 144q38 32 58 32q36 0 36 -30q0 -12 -12 -24l-204 -214h-104l-204 214q-12 12 -12 24z" />
    <glyph glyph-name="breve" unicode="&#x2d8;" horiz-adv-x="856" 
d="M658 1458q0 -96 -68 -169t-162 -73t-162 73t-68 169h86q0 -68 39 -111t105 -43t105 43t39 111h86z" />
    <glyph glyph-name="dotaccent" unicode="&#x2d9;" horiz-adv-x="442" 
d="M130 1260q0 28 30 50t61 22t62 -22t31 -50t-31 -50t-62 -22t-61 22t-30 50z" />
    <glyph glyph-name="ring" unicode="&#x2da;" horiz-adv-x="564" 
d="M130 1196q0 64 45 108t107 44t107 -44t45 -108t-45 -108t-107 -44t-107 44t-45 108zM184 1196q0 -40 29 -69t69 -29t69 29t29 69t-30 69t-69 29t-68 -29t-29 -69z" />
    <glyph glyph-name="ogonek" unicode="&#x2db;" horiz-adv-x="468" 
d="M420 -312q0 -48 -51 -69t-97 -21q-80 0 -131 55t-51 143q0 50 52 135t98 129l60 -60q-38 -22 -82 -95t-44 -109q0 -118 94 -118q34 0 80 18t52 18q20 0 20 -26z" />
    <glyph glyph-name="tilde" unicode="&#x2dc;" horiz-adv-x="802" 
d="M511 458q7 0 21 10l62 56q22 16 38 16t29 -10t13 -30t-24 -42l-94 -78q-14 -14 -27 -14t-25 4l-196 72q-8 4 -16 4t-22 -10l-62 -56q-22 -16 -37 -16t-28 11t-13 32t24 39l94 78q10 14 23 14t29 -4l196 -72q8 -4 15 -4z" />
    <glyph glyph-name="hungarumlaut" unicode="&#x2dd;" horiz-adv-x="666" 
d="M598 1313q0 -19 -16 -37l-192 -230q-24 -26 -40 -26t-29 12t-13 31t16 37l192 230q24 26 40 26t29 -12t13 -31zM358 1313q0 -19 -16 -37l-192 -230q-24 -26 -40 -26t-29 12t-13 31t16 37l192 230q24 26 40 26t29 -12t13 -31z" />
    <glyph glyph-name="gravecomb" unicode="&#x300;" horiz-adv-x="0" 
d="M-740 1219q0 15 13 29t31 14t38 -22l140 -138q22 -26 22 -41t-12 -28t-31 -13t-39 22l-138 138q-24 24 -24 39z" />
    <glyph glyph-name="acutecomb" unicode="&#x301;" horiz-adv-x="0" 
d="M-496 1220q0 -14 -22 -40l-140 -138q-20 -22 -38 -22t-31 13t-13 29t24 40l138 138q20 22 39 22t31 -14t12 -28z" />
    <glyph glyph-name="uni0302" unicode="&#x302;" horiz-adv-x="0" 
d="M-840 1020q-36 0 -36 36q0 18 8 26l208 274h110l212 -274q8 -10 8 -26q0 -36 -36 -36q-16 0 -22 6t-14 16t-12 14l-188 208h-6l-184 -208q-32 -36 -48 -36z" />
    <glyph glyph-name="tildecomb" unicode="&#x303;" horiz-adv-x="0" 
d="M-481 1082q7 0 21 10l62 56q22 16 38 16t29 -10t13 -30t-24 -42l-94 -78q-14 -14 -27 -14t-25 4l-196 72q-8 4 -16 4t-22 -10l-62 -56q-22 -16 -37 -16t-28 11t-13 32t24 39l94 78q10 14 23 14t29 -4l196 -72q8 -4 15 -4z" />
    <glyph glyph-name="uni0304" unicode="&#x304;" horiz-adv-x="0" 
d="M-850 1034q-52 0 -52 43t52 43h490q58 0 58 -46q0 -40 -58 -40h-490z" />
    <glyph glyph-name="uni0306" unicode="&#x306;" horiz-adv-x="0" 
d="M-378 1254q0 -96 -68 -169t-162 -73t-162 73t-68 169h86q0 -68 39 -111t105 -43t105 43t39 111h86z" />
    <glyph glyph-name="uni0307" unicode="&#x307;" horiz-adv-x="0" 
d="M-706 1116q0 28 30 50t61 22t62 -22t31 -50t-31 -50t-62 -22t-61 22t-30 50z" />
    <glyph glyph-name="uni0308" unicode="&#x308;" horiz-adv-x="0" 
d="M-562 1092q0 28 30 50t61 22t62 -22t31 -50t-31 -50t-62 -22t-61 22t-30 50zM-854 1092q0 28 30 50t61 22t62 -22t31 -50t-31 -50t-62 -22t-61 22t-30 50z" />
    <glyph glyph-name="hookabovecomb" unicode="&#x309;" horiz-adv-x="0" 
d="M-624 1094q108 0 108 64q0 38 -25 51t-83 13v62q174 0 174 -126q0 -48 -29 -78t-71 -34v-54h-74v102z" />
    <glyph glyph-name="uni030A" unicode="&#x30a;" horiz-adv-x="0" 
d="M-766 1172q0 64 45 108t107 44t107 -44t45 -108t-45 -108t-107 -44t-107 44t-45 108zM-712 1172q0 -40 29 -69t69 -29t69 29t29 69t-30 69t-69 29t-68 -29t-29 -69z" />
    <glyph glyph-name="uni030B" unicode="&#x30b;" horiz-adv-x="0" 
d="M-376 1220q0 -14 -22 -40l-140 -138q-20 -22 -38 -22t-31 13t-13 29t24 40l138 138q20 22 39 22t31 -14t12 -28zM-576 1220q0 -14 -22 -40l-140 -138q-20 -22 -38 -22t-31 13t-13 29t24 40l138 138q20 22 39 22t31 -14t12 -28z" />
    <glyph glyph-name="uni030C" unicode="&#x30c;" horiz-adv-x="0" 
d="M-866 1292q0 30 36 30q20 0 58 -32l174 -144l174 144q38 32 58 32q36 0 36 -30q0 -12 -12 -24l-204 -214h-104l-204 214q-12 12 -12 24z" />
    <glyph glyph-name="commaturnedabovecmb" unicode="&#x312;" horiz-adv-x="0" 
d="M-452 1052q-20 0 -46 10t-26 29t8 35l84 166q18 42 40 42q34 0 34 -40q0 -12 -6 -30l-48 -172q-12 -40 -40 -40z" />
    <glyph glyph-name="uni031B" unicode="&#x31b;" horiz-adv-x="422" 
d="M192 1244q0 -96 -69 -164t-163 -68h-84v82h84q68 0 108 41t40 103t42 62t42 -56z" />
    <glyph glyph-name="dotbelowcomb" unicode="&#x323;" horiz-adv-x="0" 
d="M-706 -196q0 28 30 50t61 22t62 -22t31 -50t-31 -50t-62 -22t-61 22t-30 50z" />
    <glyph glyph-name="uni0327" unicode="&#x327;" horiz-adv-x="0" 
d="M-572 24v-48q88 -28 114 -61t26 -93q0 -110 -132 -110t-132 86q0 26 21 26t21 -26q0 -44 90 -44t90 68q0 26 -6 44t-39 41t-95 37v80h42z" />
    <glyph glyph-name="uni0328" unicode="&#x328;" horiz-adv-x="0" 
d="M-228 -312q0 -48 -51 -69t-97 -21q-80 0 -131 55t-51 143q0 50 52 135t98 129l60 -60q-38 -22 -82 -95t-44 -109q0 -118 94 -118q34 0 80 18t52 18q20 0 20 -26z" />
    <glyph glyph-name="uni0334" unicode="&#x334;" horiz-adv-x="802" 
d="M-459 458q35 0 85 41t73 41t41 -10t18 -26q0 -34 -78 -86t-128 -52t-170 40t-155 40t-85 -41t-73 -41t-40 11t-17 27q0 34 76 85t126 51t171 -40t156 -40z" />
    <glyph glyph-name="uni0335" unicode="&#x335;" horiz-adv-x="0" 
d="M-850 434q-52 0 -52 43t52 43h490q58 0 58 -46q0 -40 -58 -40h-490z" />
    <glyph glyph-name="uni0337" unicode="&#x337;" horiz-adv-x="0" 
d="M-416 606q16 0 28 -13t12 -29q0 -26 -44 -44l-340 -168q-16 -6 -26 -6q-42 0 -42 46q0 20 38 40l340 168q18 6 34 6z" />
    <glyph glyph-name="uni037A" unicode="&#x37a;" horiz-adv-x="512" 
d="M374 -358h-14q-110 0 -150 54t-40 194v88q0 60 42 60t42 -60v-124q0 -70 26 -99t90 -29t64 -42t-60 -42z" />
    <glyph glyph-name="questiongreek" unicode="&#x37e;" horiz-adv-x="442" 
d="M130 866q0 28 30 50t61 22t62 -22t31 -50t-31 -50t-62 -22t-61 22t-30 50zM238 224q20 0 46 -10t26 -29t-8 -35l-84 -166q-18 -42 -40 -42q-34 0 -34 40q0 12 6 30l48 172q12 40 40 40z" />
    <glyph glyph-name="tonos" unicode="&#x384;" horiz-adv-x="478" 
d="M288 1296q40 0 40 -44q0 -16 -2 -24l-90 -330q-12 -42 -40 -42q-46 0 -46 42q0 6 4 22l88 330q12 46 46 46z" />
    <glyph glyph-name="dieresistonos" unicode="&#x385;" horiz-adv-x="746" 
d="M444 1628q40 0 40 -44q0 -16 -2 -24l-90 -330q-12 -42 -40 -42q-46 0 -46 42q0 6 4 22l88 330q12 46 46 46zM398 1092q0 28 30 50t61 22t62 -22t31 -50t-31 -50t-62 -22t-61 22t-30 50zM106 1092q0 28 30 50t61 22t62 -22t31 -50t-31 -50t-62 -22t-61 22t-30 50z" />
    <glyph glyph-name="Alphatonos" unicode="&#x386;" horiz-adv-x="1156" 
d="M348 1500q40 0 40 -44q0 -16 -2 -24l-90 -330q-12 -42 -40 -42q-46 0 -46 42q0 6 4 22l88 330q12 46 46 46zM310 492h480l-242 658zM90 -32q-42 0 -42 40q0 14 6 28l450 1236h92l450 -1236q6 -14 6 -28q0 -40 -42 -40q-28 0 -44 40l-144 400h-544l-144 -400
q-18 -40 -44 -40z" />
    <glyph glyph-name="anoteleia" unicode="&#x387;" horiz-adv-x="442" 
d="M130 774q0 28 30 50t61 22t62 -22t31 -50t-31 -50t-62 -22t-61 22t-30 50z" />
    <glyph glyph-name="Epsilontonos" unicode="&#x388;" 
d="M104 1500q40 0 40 -44q0 -16 -2 -24l-90 -330q-12 -42 -40 -42q-46 0 -46 42q0 6 4 22l88 330q12 46 46 46zM254 674v-590h746q58 0 58 -46q0 -38 -58 -38h-792q-38 0 -38 62v1148q0 62 38 62h792q58 0 58 -46q0 -38 -58 -38h-746v-430h510q60 0 60 -46q0 -38 -60 -38
h-510z" />
    <glyph glyph-name="Etatonos" unicode="&#x389;" 
d="M108 1492q40 0 40 -44q0 -16 -2 -24l-90 -330q-12 -42 -40 -42q-46 0 -46 42q0 6 4 22l88 330q12 46 46 46zM254 46q0 -60 -42 -60t-42 60v1178q0 62 38 62q46 0 46 -62v-496h720v496q0 62 42 62t42 -62v-1178q0 -60 -42 -60t-42 60v598h-720v-598z" />
    <glyph glyph-name="Iotatonos" unicode="&#x38a;" horiz-adv-x="422" 
d="M124 1500q40 0 40 -44q0 -16 -2 -24l-90 -330q-12 -42 -40 -42q-46 0 -46 42q0 6 4 22l88 330q12 46 46 46zM254 40q0 -54 -42 -54t-42 54v1190q0 56 42 56t42 -56v-1190z" />
    <glyph glyph-name="Omicrontonos" unicode="&#x38c;" 
d="M180 1500q40 0 40 -44q0 -16 -2 -24l-90 -330q-12 -42 -40 -42q-46 0 -46 42q0 6 4 22l88 330q12 46 46 46zM614 1206q-168 0 -264 -103t-96 -285v-364q0 -182 96 -285t264 -103t264 103t96 285v364q0 182 -96 285t-264 103zM614 -18q-194 0 -319 126t-125 346v364
q0 220 125 346t319 126t319 -126t125 -346v-364q0 -220 -125 -346t-319 -126z" />
    <glyph glyph-name="Upsilontonos" unicode="&#x38e;" horiz-adv-x="1190" 
d="M60 1492q40 0 40 -44q0 -16 -2 -24l-90 -330q-12 -42 -40 -42q-46 0 -46 42q0 6 4 22l88 330q12 46 46 46zM130 1245q0 17 13 29t30 12t39 -32l384 -546l382 546q26 32 42 32t29 -12t13 -29t-14 -37l-410 -588v-580q0 -54 -41 -54t-41 54v580l-412 588q-14 20 -14 37z
" />
    <glyph glyph-name="Omegatonos" unicode="&#x38f;" 
d="M176 1500q40 0 40 -44q0 -16 -2 -24l-90 -330q-12 -42 -40 -42q-46 0 -46 42q0 6 4 22l88 330q12 46 46 46zM170 654v164q0 220 125 346t319 126t319 -126t125 -346v-164q0 -162 -70 -274t-190 -162v-60q0 -52 15 -63t85 -11h100q60 0 60 -42t-60 -42h-114
q-116 0 -143 28t-27 164v84q124 28 192 126t68 252v164q0 182 -96 285t-264 103t-264 -103t-96 -285v-164q0 -154 68 -251t192 -127v-84q0 -134 -28 -163t-142 -29h-114q-60 0 -60 42t60 42h100q70 0 85 12t15 64v58q-120 50 -190 162t-70 274z" />
    <glyph glyph-name="iotadieresistonos" unicode="&#x390;" horiz-adv-x="512" 
d="M312 1666q40 0 40 -44q0 -16 -2 -24l-90 -330q-12 -42 -40 -42q-46 0 -46 42q0 6 4 22l88 330q12 46 46 46zM266 1130q0 28 30 50t61 22t62 -22t31 -50t-31 -50t-62 -22t-61 22t-30 50zM-26 1130q0 28 30 50t61 22t62 -22t31 -50t-31 -50t-62 -22t-61 22t-30 50zM374 0
h-14q-110 0 -150 54t-40 194v628q0 60 42 60t42 -60v-664q0 -70 26 -99t90 -29t64 -42t-60 -42z" />
    <glyph glyph-name="Alpha" unicode="&#x391;" horiz-adv-x="1156" 
d="M310 492h480l-242 658zM90 -32q-42 0 -42 40q0 14 6 28l450 1236h92l450 -1236q6 -14 6 -28q0 -40 -42 -40q-28 0 -44 40l-144 400h-544l-144 -400q-18 -40 -44 -40z" />
    <glyph glyph-name="Beta" unicode="&#x392;" 
d="M560 758q180 0 255 42t75 173t-75 173t-255 42h-306v-430h306zM170 62v1148q0 62 38 62h352q206 0 310 -64t104 -234t-110 -240q98 -30 146 -106t48 -220v-58q0 -210 -102 -280t-312 -70h-436q-38 0 -38 62zM254 84h390q94 0 147 7t99 34t65 81t19 144v58q0 90 -19 144
t-65 81t-99 34t-147 7h-390v-590z" />
    <glyph glyph-name="Gamma" unicode="&#x393;" horiz-adv-x="1200" 
d="M374 1188q-68 0 -94 -30t-26 -100v-1012q0 -60 -42 -60t-42 60v978q0 140 40 194t150 54h610q60 0 60 -42t-60 -42h-596z" />
    <glyph glyph-name="Delta" unicode="&#x394;" horiz-adv-x="1116" 
d="M910 86l-380 1042l-380 -1042h760zM968 0h-876q-44 0 -44 40q0 12 6 28l430 1180q14 40 46 40t46 -40l430 -1180q6 -16 6 -28q0 -40 -44 -40z" />
    <glyph glyph-name="Epsilon" unicode="&#x395;" 
d="M254 674v-590h746q58 0 58 -46q0 -38 -58 -38h-792q-38 0 -38 62v1148q0 62 38 62h792q58 0 58 -46q0 -38 -58 -38h-746v-430h510q60 0 60 -46q0 -38 -60 -38h-510z" />
    <glyph glyph-name="Zeta" unicode="&#x396;" 
d="M172 0v88l792 1100h-732q-62 0 -62 42t62 42h826v-92l-788 -1096h728q60 0 60 -42t-60 -42h-826z" />
    <glyph glyph-name="Eta" unicode="&#x397;" 
d="M254 46q0 -60 -42 -60t-42 60v1178q0 62 38 62q46 0 46 -62v-496h720v496q0 62 42 62t42 -62v-1178q0 -60 -42 -60t-42 60v598h-720v-598z" />
    <glyph glyph-name="Theta" unicode="&#x398;" 
d="M614 1206q-168 0 -264 -103t-96 -285v-364q0 -182 96 -285t264 -103t264 103t96 285v364q0 182 -96 285t-264 103zM614 -18q-194 0 -319 126t-125 346v364q0 220 125 346t319 126t319 -126t125 -346v-364q0 -220 -125 -346t-319 -126zM446 592q-52 0 -52 43t52 43h330
q58 0 58 -42q0 -18 -16 -31t-42 -13h-330z" />
    <glyph glyph-name="Iota" unicode="&#x399;" horiz-adv-x="422" 
d="M254 40q0 -54 -42 -54t-42 54v1190q0 56 42 56t42 -56v-1190z" />
    <glyph glyph-name="Kappa" unicode="&#x39a;" horiz-adv-x="1118" 
d="M990 28q0 -18 -14 -30t-32 -12t-38 26l-536 638l-116 -140v-470q0 -54 -42 -54t-42 54v1190q0 56 42 56t42 -56v-588l520 618q20 26 38 26t31 -11t13 -29t-18 -40l-412 -492l544 -648q20 -20 20 -38z" />
    <glyph glyph-name="Lambda" unicode="&#x39b;" horiz-adv-x="1156" 
d="M90 -32q-42 0 -42 40q0 14 6 28l450 1236h92l450 -1236q6 -14 6 -28q0 -40 -42 -40q-28 0 -44 40l-418 1142l-414 -1142q-18 -40 -44 -40z" />
    <glyph glyph-name="Mu" unicode="&#x39c;" horiz-adv-x="1268" 
d="M636 558q-16 0 -26 12l-356 544v-1068q0 -60 -42 -60t-42 60v1178q0 62 38 62q30 0 52 -34l374 -568l376 568q22 34 50 34q40 0 40 -62v-1178q0 -60 -42 -60t-42 60v1068l-356 -544q-8 -12 -24 -12z" />
    <glyph glyph-name="Nu" unicode="&#x39d;" 
d="M1018 -14q-24 0 -32 14l-732 1114v-1068q0 -60 -42 -60t-42 60v1178q0 62 38 62q30 0 52 -34l714 -1084v1056q0 62 42 62t42 -62v-1178q0 -60 -40 -60z" />
    <glyph glyph-name="Xi" unicode="&#x39e;" 
d="M182 0q-52 0 -52 42t52 42h860q58 0 58 -46q0 -38 -58 -38h-860zM182 1190q-52 0 -52 42t52 42h860q58 0 58 -46q0 -38 -58 -38h-860zM416 592q-52 0 -52 43t52 43h390q58 0 58 -42q0 -18 -16 -31t-42 -13h-390z" />
    <glyph glyph-name="Omicron" unicode="&#x39f;" 
d="M614 1206q-168 0 -264 -103t-96 -285v-364q0 -182 96 -285t264 -103t264 103t96 285v364q0 182 -96 285t-264 103zM614 -18q-194 0 -319 126t-125 346v364q0 220 125 346t319 126t319 -126t125 -346v-364q0 -220 -125 -346t-319 -126z" />
    <glyph glyph-name="Pi" unicode="&#x3a0;" horiz-adv-x="1200" 
d="M166 1272h868v-1226q0 -60 -42 -60t-42 60v1142h-700v-1142q0 -60 -42 -60t-42 60v1226z" />
    <glyph glyph-name="Rho" unicode="&#x3a1;" horiz-adv-x="1100" 
d="M560 758q180 0 255 42t75 173t-75 173t-255 42h-306v-430h306zM254 40q0 -54 -42 -54t-42 54v1170q0 62 38 62h352q206 0 310 -64t104 -223t-87 -235t-243 -76h-390v-634z" />
    <glyph glyph-name="Sigma" unicode="&#x3a3;" 
d="M130 1234q0 40 52 40h860q58 0 58 -46q0 -38 -58 -38h-780l446 -516q20 -26 20 -40t-18 -36l-448 -514h780q58 0 58 -46q0 -38 -58 -38h-872q-16 0 -28 11t-12 29t18 40l482 556l-482 558q-18 18 -18 40z" />
    <glyph glyph-name="Tau" unicode="&#x3a4;" horiz-adv-x="1030" 
d="M866 1272q56 0 56 -42t-56 -42h-308v-1148q0 -54 -42 -54t-42 54v1148h-310q-56 0 -56 42t56 42h702z" />
    <glyph glyph-name="Upsilon" unicode="&#x3a5;" horiz-adv-x="1190" 
d="M130 1245q0 17 13 29t30 12t39 -32l384 -546l382 546q26 32 42 32t29 -12t13 -29t-14 -37l-410 -588v-580q0 -54 -41 -54t-41 54v580l-412 588q-14 20 -14 37z" />
    <glyph glyph-name="Phi" unicode="&#x3a6;" 
d="M254 648v-24q0 -172 85 -273t237 -113v796q-152 -12 -237 -114t-85 -272zM974 624v24q0 168 -83 269t-231 117v-796q148 14 231 116t83 270zM660 40q0 -54 -42 -54t-42 54v114q-180 12 -293 136t-113 334v24q0 210 113 334t293 136v112q0 56 42 56t42 -56v-112
q176 -16 287 -140t111 -330v-24q0 -206 -111 -330t-287 -140v-114z" />
    <glyph glyph-name="Chi" unicode="&#x3a7;" horiz-adv-x="1272" 
d="M1059 1286q17 0 31 -12t14 -31t-14 -35l-402 -574l402 -570q14 -22 14 -39t-13 -28t-31 -11t-40 28l-384 548l-382 -548q-22 -28 -40 -28t-31 11t-13 28t14 39l402 570l-402 574q-14 16 -14 35t13 31t31 12t40 -32l382 -546l384 546q22 32 39 32z" />
    <glyph glyph-name="Psi" unicode="&#x3a8;" 
d="M974 1230q0 56 42 56t42 -56v-312q0 -208 -112 -332t-288 -138v-408q0 -54 -42 -54t-42 54v408q-180 12 -292 137t-112 333v312q0 56 42 56t42 -56v-312q0 -172 85 -273t235 -113v698q0 56 42 56t42 -56v-698q150 14 233 115t83 271v312z" />
    <glyph glyph-name="Omega" unicode="&#x3a9;" 
d="M170 654v164q0 220 125 346t319 126t319 -126t125 -346v-164q0 -162 -70 -274t-190 -162v-60q0 -52 15 -63t85 -11h100q60 0 60 -42t-60 -42h-114q-116 0 -143 28t-27 164v84q124 28 192 126t68 252v164q0 182 -96 285t-264 103t-264 -103t-96 -285v-164q0 -154 68 -251
t192 -127v-84q0 -134 -28 -163t-142 -29h-114q-60 0 -60 42t60 42h100q70 0 85 12t15 64v58q-120 50 -190 162t-70 274z" />
    <glyph glyph-name="Iotadieresis" unicode="&#x3aa;" horiz-adv-x="422" 
d="M268 1486q0 28 30 50t61 22t62 -22t31 -50t-31 -50t-62 -22t-61 22t-30 50zM-24 1486q0 28 30 50t61 22t62 -22t31 -50t-31 -50t-62 -22t-61 22t-30 50zM254 40q0 -54 -42 -54t-42 54v1190q0 56 42 56t42 -56v-1190z" />
    <glyph glyph-name="Upsilondieresis" unicode="&#x3ab;" horiz-adv-x="1190" 
d="M652 1486q0 28 30 50t61 22t62 -22t31 -50t-31 -50t-62 -22t-61 22t-30 50zM360 1486q0 28 30 50t61 22t62 -22t31 -50t-31 -50t-62 -22t-61 22t-30 50zM130 1245q0 17 13 29t30 12t39 -32l384 -546l382 546q26 32 42 32t29 -12t13 -29t-14 -37l-410 -588v-580
q0 -54 -41 -54t-41 54v580l-412 588q-14 20 -14 37z" />
    <glyph glyph-name="alphatonos" unicode="&#x3ac;" horiz-adv-x="1262" 
d="M632 1498q40 0 40 -44q0 -16 -2 -24l-90 -330q-12 -42 -40 -42q-46 0 -46 42q0 6 4 22l88 330q12 46 46 46zM550 838q-170 0 -235 -63t-65 -243v-142q0 -180 65 -243t235 -63q302 0 302 306v142q0 306 -302 306zM1056 0h-14q-84 0 -126 30t-56 102q-102 -132 -304 -132
t-296 86t-94 304v142q0 218 94 304t291 86t301 -122v76q0 60 42 60t42 -60v-664q0 -70 26 -99t90 -29t64 -42t-60 -42z" />
    <glyph glyph-name="epsilontonos" unicode="&#x3ad;" 
d="M660 1484q40 0 40 -44q0 -16 -2 -24l-90 -330q-12 -42 -40 -42q-46 0 -46 42q0 6 4 22l88 330q12 46 46 46zM652 434h-172q-226 0 -226 -212q0 -138 234 -138h246q52 0 116 19q124 37 124 145q0 60 42 60t42 -60q0 -128 -91 -188t-219 -60h-274q-126 0 -215 60t-89 200
t130 216q-38 14 -63 31t-46 60t-21 107q0 128 89 188t215 60h274q128 0 219 -60t91 -188q0 -60 -42 -60t-42 57t-30 93t-94 55t-116 19h-246q-236 0 -236 -138q0 -108 57 -145t171 -37h172q62 0 62 -46q0 -38 -62 -38z" />
    <glyph glyph-name="etatonos" unicode="&#x3ae;" 
d="M714 1498q40 0 40 -44q0 -16 -2 -24l-90 -330q-12 -42 -40 -42q-46 0 -46 42q0 6 4 22l88 330q12 46 46 46zM586 838q-160 0 -246 -97t-86 -277v-418q0 -60 -42 -60t-42 60v828q0 62 38 62q46 0 46 -62v-96q112 144 332 144h58q210 0 312 -70t102 -280v-922
q0 -60 -42 -60t-42 60v922q0 90 -19 144t-65 81t-99 34t-147 7h-58z" />
    <glyph glyph-name="iotatonos" unicode="&#x3af;" horiz-adv-x="512" 
d="M318 1498q40 0 40 -44q0 -16 -2 -24l-90 -330q-12 -42 -40 -42q-46 0 -46 42q0 6 4 22l88 330q12 46 46 46zM374 0h-14q-110 0 -150 54t-40 194v628q0 60 42 60t42 -60v-664q0 -70 26 -99t90 -29t64 -42t-60 -42z" />
    <glyph glyph-name="upsilondieresistonos" unicode="&#x3b0;" 
d="M714 1666q40 0 40 -44q0 -16 -2 -24l-90 -330q-12 -42 -40 -42q-46 0 -46 42q0 6 4 22l88 330q12 46 46 46zM668 1130q0 28 30 50t61 22t62 -22t31 -50t-31 -50t-62 -22t-61 22t-30 50zM376 1130q0 28 30 50t61 22t62 -22t31 -50t-31 -50t-62 -22t-61 22t-30 50zM642 0
h-56q-212 0 -314 70t-102 280v526q0 60 42 60t42 -60v-526q0 -90 19 -144t65 -81t99 -34t149 -7h56q96 0 149 7t99 34t65 81t19 144v526q0 60 42 60t42 -60v-526q0 -210 -102 -280t-314 -70z" />
    <glyph glyph-name="alpha" unicode="&#x3b1;" horiz-adv-x="1262" 
d="M550 838q-170 0 -235 -63t-65 -243v-142q0 -180 65 -243t235 -63q302 0 302 306v142q0 306 -302 306zM1056 0h-14q-84 0 -126 30t-56 102q-102 -132 -304 -132t-296 86t-94 304v142q0 218 94 304t291 86t301 -122v76q0 60 42 60t42 -60v-664q0 -70 26 -99t90 -29t64 -42
t-60 -42z" />
    <glyph glyph-name="beta" unicode="&#x3b2;" horiz-adv-x="1082" 
d="M590 66q77 0 146 36q98 51 98 254q0 130 -85 219t-273 89v84q120 0 194 62t74 188q0 88 -63 139t-131 51t-102 -8t-68 -33q-64 -47 -64 -225v-686q140 -170 274 -170zM316 -232q0 -62 -46 -62q-38 0 -38 62v1154q0 218 102 290q85 60 207 60q123 0 205 -77t82 -201
q0 -188 -160 -282q76 -20 129 -64t87 -122t34 -170q0 -370 -324 -370q-168 0 -278 124v-342z" />
    <glyph glyph-name="gamma" unicode="&#x3b3;" 
d="M164 838q-56 0 -56 42t53 42t84 -15t58 -44t69 -148t103 -332t85 -291h14l360 808q18 36 46 36q38 0 38 -36q0 -10 -6 -22l-412 -938v-244q0 -60 -46 -60q-38 0 -38 60v242q-178 624 -237 762t-115 138z" />
    <glyph glyph-name="delta" unicode="&#x3b4;" 
d="M266 1232q0 42 52 42h626q58 0 58 -46q0 -40 -58 -40h-448l22 -8q546 -198 546 -772q0 -196 -122 -309t-322 -113q-112 0 -202 45t-143 117q-109 148 -109 310t81 268t184 151t206 45t187 -48q-112 152 -358 250l-174 68q-26 10 -26 40zM978 430q0 172 -92 290t-250 118
q-125 0 -246 -87q-60 -43 -99 -118t-39 -169q0 -160 102 -276t272 -116t261 93t91 265z" />
    <glyph glyph-name="epsilon" unicode="&#x3b5;" 
d="M652 434h-172q-226 0 -226 -212q0 -138 234 -138h246q52 0 116 19q124 37 124 145q0 60 42 60t42 -60q0 -128 -91 -188t-219 -60h-274q-126 0 -215 60t-89 200t130 216q-38 14 -63 31t-46 60t-21 107q0 128 89 188t215 60h274q128 0 219 -60t91 -188q0 -60 -42 -60
t-42 57t-30 93t-94 55t-116 19h-246q-236 0 -236 -138q0 -108 57 -145t171 -37h172q62 0 62 -46q0 -38 -62 -38z" />
    <glyph glyph-name="zeta" unicode="&#x3b6;" 
d="M602 -14q-192 0 -314 113t-122 309q0 576 568 780h-448q-58 0 -58 40q0 46 58 46h626q52 0 52 -41t-26 -51q-8 -4 -75 -28t-103 -39t-109 -53t-118 -74q-142 -113 -199 -223q-82 -157 -82 -332t92 -268t260 -93q266 0 333 -60t67 -186q0 -76 -49 -130t-91 -54
q-16 0 -26 14t-10 31t46 53t46 78q0 110 -63 139t-255 29z" />
    <glyph glyph-name="eta" unicode="&#x3b7;" 
d="M586 838q-160 0 -246 -97t-86 -277v-418q0 -60 -42 -60t-42 60v828q0 62 38 62q46 0 46 -62v-96q112 144 332 144h58q210 0 312 -70t102 -280v-922q0 -60 -42 -60t-42 60v922q0 90 -19 144t-65 81t-99 34t-147 7h-58z" />
    <glyph glyph-name="theta" unicode="&#x3b8;" horiz-adv-x="1088" 
d="M834 592h-580v-138q0 -388 290 -388t290 388v138zM544 -18q-186 0 -280 121t-94 351v364q0 230 94 351t280 121t280 -121t94 -351v-364q0 -230 -94 -351t-280 -121zM544 1206q-290 0 -290 -388v-140h580v140q0 388 -290 388z" />
    <glyph glyph-name="iota" unicode="&#x3b9;" horiz-adv-x="512" 
d="M374 0h-14q-110 0 -150 54t-40 194v628q0 60 42 60t42 -60v-664q0 -70 26 -99t90 -29t64 -42t-60 -42z" />
    <glyph glyph-name="kappa" unicode="&#x3ba;" horiz-adv-x="1008" 
d="M838 31q0 -17 -11 -31t-29 -14t-38 18l-506 424v-388q0 -54 -42 -54t-42 54v840q0 56 42 56t42 -56v-380l504 422q22 20 40 20t29 -14t11 -32t-26 -38l-470 -394l472 -396q24 -20 24 -37z" />
    <glyph glyph-name="lambda" unicode="&#x3bb;" horiz-adv-x="1374" 
d="M208 -14q-38 0 -38 36q0 10 6 22l402 914l-44 106q-24 56 -68 90t-97 34t-53 40q0 46 64 46t125 -40t89 -110l392 -926q24 -56 68 -90t97 -34t53 -40q0 -46 -64 -46t-125 40t-89 110l-302 714l-370 -830q-16 -36 -46 -36z" />
    <glyph glyph-name="mu" unicode="&#x3bc;" horiz-adv-x="1170" 
d="M585 84q159 0 246 96t87 276v420q0 60 42 60t42 -60v-828q0 -62 -42 -62t-42 62v96q-112 -144 -332 -144t-332 144v-488q0 -62 -46 -62q-38 0 -38 62v1220q0 60 42 60t42 -60v-420q0 -180 86 -276t245 -96z" />
    <glyph glyph-name="nu" unicode="&#x3bd;" horiz-adv-x="1146" 
d="M130 898q0 38 45 38q23 0 39 -38l346 -806h14l360 808q18 36 46 36q38 0 38 -36q0 -16 -6 -22l-386 -878h-128l-362 878q-6 4 -6 20z" />
    <glyph glyph-name="xi" unicode="&#x3be;" horiz-adv-x="1204" 
d="M657 72q69 0 120 -3q140 -8 200 -63q61 -54 61 -180q0 -76 -49 -130t-91 -54q-16 0 -26 14t-10 31t46 53t46 78q0 110 -63 139t-191 29t-183 6t-117 27t-102 58t-67 105t-27 162t49 188t101 124q-52 20 -101 106t-49 182q0 162 146 244h-132q-52 0 -52 42t52 42h622
q58 0 58 -42t-58 -42q-554 0 -554 -244q0 -114 62 -175t166 -61h172q62 0 62 -46q0 -38 -62 -38h-172q-98 0 -162 -93t-64 -193t38 -153t101 -75t112 -30t118 -8z" />
    <glyph glyph-name="omicron" unicode="&#x3bf;" 
d="M586 84h58q94 0 147 7t99 34t65 81t19 144v222q0 90 -19 144t-65 81t-99 34t-147 7h-58q-96 0 -149 -7t-99 -34t-65 -81t-19 -144v-222q0 -90 19 -144t65 -81t99 -34t149 -7zM644 0h-58q-212 0 -314 70t-102 280v222q0 210 102 280t314 70h58q210 0 312 -70t102 -280
v-222q0 -210 -102 -280t-312 -70z" />
    <glyph glyph-name="pi" unicode="&#x3c0;" 
d="M868 838h-580v-792q0 -60 -42 -60t-42 60v792h-40q-56 0 -56 42t56 42h828q56 0 56 -42t-56 -42h-40v-626q0 -70 26 -99t90 -29t64 -42t-60 -42h-16q-110 0 -149 53t-39 195v590z" />
    <glyph glyph-name="rho" unicode="&#x3c1;" 
d="M586 922h58q210 0 312 -70t102 -280v-222q0 -210 -102 -280t-312 -70h-390v-304q0 -60 -46 -60q-38 0 -38 60v736q0 490 416 490zM974 572q0 90 -19 144t-65 81t-99 34t-147 7h-58q-160 0 -246 -97t-86 -277v-380h390q94 0 147 7t99 34t65 81t19 144v222z" />
    <glyph glyph-name="sigma1" unicode="&#x3c2;" 
d="M374 196q64 -124 230 -124q266 0 333 -60t67 -186q0 -76 -49 -130t-91 -54q-16 0 -26 14t-10 31t46 53t46 78q0 110 -63 139t-249 29t-281 129t-95 343t182 346t530 132q58 0 58 -40q0 -46 -58 -46q-180 0 -309 -35t-195 -94q-122 -109 -122 -263t56 -262z" />
    <glyph glyph-name="sigma" unicode="&#x3c3;" horiz-adv-x="1312" 
d="M586 838q-96 0 -149 -7t-99 -34t-65 -81t-19 -144v-222q0 -90 19 -144t65 -81t99 -34t149 -7h58q94 0 147 7t99 34t65 81t19 144v156q0 160 -97 246t-277 86h-14zM1122 922q60 0 60 -42t-60 -42h-208q144 -112 144 -332v-156q0 -210 -102 -280t-312 -70h-58
q-212 0 -314 70t-102 280v222q0 210 102 280t314 70h536z" />
    <glyph glyph-name="tau" unicode="&#x3c4;" horiz-adv-x="1030" 
d="M558 212q0 -70 26 -99t90 -29t64 -42t-60 -42h-16q-110 0 -149 53t-39 195v590h-310q-56 0 -56 42t56 42h702q56 0 56 -42t-56 -42h-308v-626z" />
    <glyph glyph-name="upsilon" unicode="&#x3c5;" 
d="M642 0h-56q-212 0 -314 70t-102 280v526q0 60 42 60t42 -60v-526q0 -90 19 -144t65 -81t99 -34t149 -7h56q96 0 149 7t99 34t65 81t19 144v526q0 60 42 60t42 -60v-526q0 -210 -102 -280t-314 -70z" />
    <glyph glyph-name="phi" unicode="&#x3c6;" horiz-adv-x="1176" 
d="M804 838q-100 0 -138 -86t-38 -288v-380q148 0 210 17t88 45q60 65 60 204v222q0 170 -41 218t-141 48zM796 922q140 0 207 -70t67 -280v-222q0 -96 -27 -164t-64 -103t-102 -55t-117 -24t-132 -4v-304q0 -60 -42 -60t-42 60v304q-210 2 -324 75t-114 275v268
q0 130 56 217t192 87q60 0 60 -42t-60 -42h-36q-64 0 -96 -68t-32 -166v-254q0 -173 98 -222q52 -26 108 -35t148 -9v348q0 268 40 357t108 116q44 17 104 17z" />
    <glyph glyph-name="chi" unicode="&#x3c7;" horiz-adv-x="1374" 
d="M1074 936q18 0 32 -12t14 -28t-12 -36l-314 -546l192 -454q24 -56 68 -90t97 -34t53 -40q0 -46 -64 -46t-125 40t-89 110l-182 428l-318 -552q-18 -32 -40 -32t-34 13t-12 28t12 33l350 610l-168 398q-24 56 -68 90t-97 34t-53 40q0 46 64 46t125 -40t89 -110l158 -374
l282 490q22 34 40 34z" />
    <glyph glyph-name="psi" unicode="&#x3c8;" 
d="M974 880q0 56 42 56t42 -56v-424q0 -208 -112 -332t-288 -138v-212q0 -54 -42 -54t-42 54v212q-180 12 -292 137t-112 333v424q0 56 42 56t42 -56v-424q0 -172 85 -273t235 -113v1062q0 56 42 56t42 -56v-1062q150 14 233 115t83 271v424z" />
    <glyph glyph-name="omega" unicode="&#x3c9;" horiz-adv-x="1294" 
d="M414 -14q-130 0 -209 92t-79 212v338q0 128 60 218t188 90q60 0 60 -42t-56 -42t-93 -30t-56 -92t-19 -118v-306q0 -108 53 -172t127 -64q210 0 210 228v202q0 60 47 60t47 -60v-202q0 -228 210 -228q74 0 127 64t53 172v306q0 55 -19 118q-37 122 -145 122q-60 0 -60 42
t60 42q128 0 188 -90t60 -218v-338q0 -120 -79 -212t-209 -92q-162 0 -232 132q-70 -132 -234 -132z" />
    <glyph glyph-name="iotadieresis" unicode="&#x3ca;" horiz-adv-x="512" 
d="M266 1130q0 28 30 50t61 22t62 -22t31 -50t-31 -50t-62 -22t-61 22t-30 50zM-26 1130q0 28 30 50t61 22t62 -22t31 -50t-31 -50t-62 -22t-61 22t-30 50zM374 0h-14q-110 0 -150 54t-40 194v628q0 60 42 60t42 -60v-664q0 -70 26 -99t90 -29t64 -42t-60 -42z" />
    <glyph glyph-name="upsilondieresis" unicode="&#x3cb;" 
d="M666 1130q0 28 30 50t61 22t62 -22t31 -50t-31 -50t-62 -22t-61 22t-30 50zM374 1130q0 28 30 50t61 22t62 -22t31 -50t-31 -50t-62 -22t-61 22t-30 50zM642 0h-56q-212 0 -314 70t-102 280v526q0 60 42 60t42 -60v-526q0 -90 19 -144t65 -81t99 -34t149 -7h56
q96 0 149 7t99 34t65 81t19 144v526q0 60 42 60t42 -60v-526q0 -210 -102 -280t-314 -70z" />
    <glyph glyph-name="omicrontonos" unicode="&#x3cc;" 
d="M664 1484q40 0 40 -44q0 -16 -2 -24l-90 -330q-12 -42 -40 -42q-46 0 -46 42q0 6 4 22l88 330q12 46 46 46zM586 84h58q94 0 147 7t99 34t65 81t19 144v222q0 90 -19 144t-65 81t-99 34t-147 7h-58q-96 0 -149 -7t-99 -34t-65 -81t-19 -144v-222q0 -90 19 -144t65 -81
t99 -34t149 -7zM644 0h-58q-212 0 -314 70t-102 280v222q0 210 102 280t314 70h58q210 0 312 -70t102 -280v-222q0 -210 -102 -280t-312 -70z" />
    <glyph glyph-name="upsilontonos" unicode="&#x3cd;" 
d="M662 1498q40 0 40 -44q0 -16 -2 -24l-90 -330q-12 -42 -40 -42q-46 0 -46 42q0 6 4 22l88 330q12 46 46 46zM642 0h-56q-212 0 -314 70t-102 280v526q0 60 42 60t42 -60v-526q0 -90 19 -144t65 -81t99 -34t149 -7h56q96 0 149 7t99 34t65 81t19 144v526q0 60 42 60
t42 -60v-526q0 -210 -102 -280t-314 -70z" />
    <glyph glyph-name="omegatonos" unicode="&#x3ce;" horiz-adv-x="1294" 
d="M696 1498q40 0 40 -44q0 -16 -2 -24l-90 -330q-12 -42 -40 -42q-46 0 -46 42q0 6 4 22l88 330q12 46 46 46zM414 -14q-130 0 -209 92t-79 212v338q0 128 60 218t188 90q60 0 60 -42t-56 -42t-93 -30t-56 -92t-19 -118v-306q0 -108 53 -172t127 -64q210 0 210 228v202
q0 60 47 60t47 -60v-202q0 -228 210 -228q74 0 127 64t53 172v306q0 55 -19 118q-37 122 -145 122q-60 0 -60 42t60 42q128 0 188 -90t60 -218v-338q0 -120 -79 -212t-209 -92q-162 0 -232 132q-70 -132 -234 -132z" />
    <glyph glyph-name="uni0400" unicode="&#x400;" 
d="M400 1595q0 15 13 29t31 14t38 -22l140 -138q22 -26 22 -41t-12 -28t-31 -13t-39 22l-138 138q-24 24 -24 39zM254 674v-590h746q58 0 58 -46q0 -38 -58 -38h-792q-38 0 -38 62v1148q0 62 38 62h792q58 0 58 -46q0 -38 -58 -38h-746v-430h510q60 0 60 -46q0 -38 -60 -38
h-510z" />
    <glyph glyph-name="Iocyrillic" unicode="&#x401;" 
d="M660 1486q0 28 30 50t61 22t62 -22t31 -50t-31 -50t-62 -22t-61 22t-30 50zM368 1486q0 28 30 50t61 22t62 -22t31 -50t-31 -50t-62 -22t-61 22t-30 50zM254 674v-590h746q58 0 58 -46q0 -38 -58 -38h-792q-38 0 -38 62v1148q0 62 38 62h792q58 0 58 -46q0 -38 -58 -38
h-746v-430h510q60 0 60 -46q0 -38 -60 -38h-510z" />
    <glyph glyph-name="Djecyrillic" unicode="&#x402;" horiz-adv-x="1388" 
d="M782 1272q56 0 56 -42t-56 -42h-306v-410q112 144 327 144t317 -70t102 -280v-734q0 -154 -50 -201t-154 -47q-62 0 -62 42t65 42t91 30t26 100v768q0 90 -19 144t-65 81t-99 34t-147 7q-160 0 -246 -97t-86 -277v-418q0 -60 -42 -60t-42 60v1142h-310q-56 0 -56 42
t56 42h700z" />
    <glyph glyph-name="Gjecyrillic" unicode="&#x403;" horiz-adv-x="1200" 
d="M788 1596q0 -14 -22 -40l-140 -138q-20 -22 -38 -22t-31 13t-13 29t24 40l138 138q20 22 39 22t31 -14t12 -28zM374 1188q-68 0 -94 -30t-26 -100v-1012q0 -60 -42 -60t-42 60v978q0 140 40 194t150 54h610q60 0 60 -42t-60 -42h-596z" />
    <glyph glyph-name="Ie.ukran" unicode="&#x404;" 
d="M868 1272q126 0 158 -64t32 -137t-42 -73t-42 65t-26 95t-94 30h-268q-96 0 -149 -7t-99 -34t-65 -81t-19 -144v-214h508q60 0 60 -38q0 -46 -60 -46h-508v-274q0 -90 19 -144t65 -81t99 -34t149 -7h268q68 0 94 31t26 95t42 64t42 -53q0 -93 -32 -157t-158 -64h-282
q-212 0 -314 70t-102 280v572q0 210 102 280t314 70h282z" />
    <glyph glyph-name="Dzecyrillic" unicode="&#x405;" horiz-adv-x="1172" 
d="M254 969q0 -85 37 -144t91 -73l434 -104q246 -62 246 -340q0 -132 -75 -228t-247 -96h-152q-104 0 -173 12t-129 48q-116 70 -116 290q0 56 46 56q40 0 40 -56q0 -172 72 -219t260 -47h186q106 0 155 76t49 171t-41 161t-87 76l-432 106q-136 32 -192 104t-56 205t76 227
t248 94h152q104 0 172 -12t128 -47q116 -68 116 -287q0 -56 -43 -56t-43 56q0 90 -18 144t-65 79t-99 32t-148 7h-188q-106 0 -155 -75t-49 -160z" />
    <glyph glyph-name="Icyrillic" unicode="&#x406;" horiz-adv-x="422" 
d="M254 40q0 -54 -42 -54t-42 54v1190q0 56 42 56t42 -56v-1190z" />
    <glyph glyph-name="Yicyrillic" unicode="&#x407;" horiz-adv-x="422" 
d="M268 1486q0 28 30 50t61 22t62 -22t31 -50t-31 -50t-62 -22t-61 22t-30 50zM-24 1486q0 28 30 50t61 22t62 -22t31 -50t-31 -50t-62 -22t-61 22t-30 50zM254 40q0 -54 -42 -54t-42 54v1190q0 56 42 56t42 -56v-1190z" />
    <glyph glyph-name="Jecyrillic" unicode="&#x408;" horiz-adv-x="1172" 
d="M588 68q96 0 149 7t99 34t65 81t19 144v896q0 56 42 56t42 -56v-896q0 -220 -116 -290q-60 -36 -128 -48t-172 -12t-173 12t-129 48q-116 70 -116 290q0 56 46 56q40 0 40 -56q0 -172 72 -219t260 -47z" />
    <glyph glyph-name="Ljecyrillic" unicode="&#x409;" horiz-adv-x="1924" 
d="M1062 802h282q186 0 300 -112t114 -297t-114 -296t-300 -111h-324q-42 0 -42 62v1140h-426q-68 0 -94 -30t-26 -100v-810q0 -154 -50 -201t-154 -47q-62 0 -62 42t65 42t91 29t26 99v812q0 140 40 194t150 54h524v-470zM1062 70h282q162 0 246 89t84 235t-85 235t-245 89
h-282v-648z" />
    <glyph glyph-name="Njecyrillic" unicode="&#x40a;" horiz-adv-x="1916" 
d="M1054 802h282q186 0 300 -112t114 -297t-114 -296t-300 -111h-324q-42 0 -42 62v670h-720v-672q0 -60 -42 -60t-42 60v1178q0 62 38 62q46 0 46 -62v-422h720v422q0 62 42 62t42 -62v-422zM1054 70h282q162 0 246 89t84 235t-85 235t-245 89h-282v-648z" />
    <glyph glyph-name="Tshecyrillic" unicode="&#x40b;" horiz-adv-x="1388" 
d="M782 1188h-306v-410q112 144 327 144t317 -70t102 -280v-526q0 -60 -42 -60t-42 60v526q0 90 -19 144t-65 81t-99 34t-147 7q-160 0 -246 -97t-86 -277v-418q0 -60 -42 -60t-42 60v1142h-310q-56 0 -56 42t56 42h700q56 0 56 -42t-56 -42z" />
    <glyph glyph-name="Kjecyrillic" unicode="&#x40c;" horiz-adv-x="1200" 
d="M748 1481q0 -19 -16 -37l-192 -230q-24 -26 -40 -26t-29 12t-13 31t16 37l192 230q24 26 40 26t29 -12t13 -31zM254 550v-510q0 -54 -42 -54t-42 54v1100q0 56 42 56t42 -56v-506h250q118 0 189 41t71 109v166q0 154 50 201t154 47q62 0 62 -42t-65 -42t-91 -30t-26 -100
v-186q0 -152 -116 -210q116 -64 116 -202v-186q0 -70 26 -100t91 -30t65 -42t-62 -42q-104 0 -154 47t-50 201v166q0 62 -89 106t-171 44h-250z" />
    <glyph glyph-name="Iicyrillic_grave" unicode="&#x40d;" 
d="M412 1565q0 19 13 31t29 12t40 -26l192 -230q16 -18 16 -37t-13 -31t-29 -12t-40 26l-192 230q-16 18 -16 37zM210 -14q-40 0 -40 60v1178q0 62 42 62t42 -62v-1056l714 1084q22 34 52 34q38 0 38 -62v-1178q0 -60 -42 -60t-42 60v1068l-732 -1114q-8 -14 -32 -14z" />
    <glyph glyph-name="Ushortcyrillic" unicode="&#x40e;" 
d="M862 1540v-44q0 -128 -36 -176t-136 -48h-234q-98 0 -135 49t-37 175v44h84v-76q0 -62 21 -85t83 -23h204q62 0 82 23t20 85v76h84zM130 1234q0 38 45 38q23 0 39 -38l354 -822l366 824q16 36 46 36q38 0 38 -36q0 -10 -6 -22l-498 -1134q-40 -92 -160 -92t-152 65
t-32 137t42 72t42 -64t23 -95t80 -31t87 62l72 162l-380 918q-6 4 -6 20z" />
    <glyph glyph-name="Dzhecyrillic" unicode="&#x40f;" horiz-adv-x="1200" 
d="M558 0h-392v1142q0 60 42 60t42 -60v-1058h700v1058q0 60 42 60t42 -60v-1142h-392v-124q0 -60 -42 -60t-42 60v124z" />
    <glyph glyph-name="Acyrillic" unicode="&#x410;" horiz-adv-x="1156" 
d="M310 492h480l-242 658zM90 -32q-42 0 -42 40q0 14 6 28l450 1236h92l450 -1236q6 -14 6 -28q0 -40 -42 -40q-28 0 -44 40l-144 400h-544l-144 -400q-18 -40 -44 -40z" />
    <glyph glyph-name="Becyrillic" unicode="&#x411;" horiz-adv-x="1100" 
d="M560 838h-306v-768h306q156 0 243 115t87 269t-87 269t-243 115zM848 1272q60 0 60 -42t-60 -42h-594v-266h306q180 0 297 -139t117 -330t-116 -329t-298 -138h-352q-38 0 -38 62v1224h678z" />
    <glyph glyph-name="Vecyrillic" unicode="&#x412;" 
d="M560 758q180 0 255 42t75 173t-75 173t-255 42h-306v-430h306zM170 62v1148q0 62 38 62h352q206 0 310 -64t104 -234t-110 -240q98 -30 146 -106t48 -220v-58q0 -210 -102 -280t-312 -70h-436q-38 0 -38 62zM254 84h390q94 0 147 7t99 34t65 81t19 144v58q0 90 -19 144
t-65 81t-99 34t-147 7h-390v-590z" />
    <glyph glyph-name="Gecyrillic" unicode="&#x413;" horiz-adv-x="1200" 
d="M374 1188q-68 0 -94 -30t-26 -100v-1012q0 -60 -42 -60t-42 60v978q0 140 40 194t150 54h610q60 0 60 -42t-60 -42h-596z" />
    <glyph glyph-name="Decyrillic" unicode="&#x414;" horiz-adv-x="1332" 
d="M962 1188h-394q0 -262 -67 -633t-125 -471h586v1104zM250 -124q0 -60 -42 -60t-42 60v104q0 104 92 104h26q62 104 132 492t70 696h560v-1188h28q92 0 92 -104v-104q0 -60 -42 -60t-42 60v124h-832v-124z" />
    <glyph glyph-name="Iecyrillic" unicode="&#x415;" 
d="M254 674v-590h746q58 0 58 -46q0 -38 -58 -38h-792q-38 0 -38 62v1148q0 62 38 62h792q58 0 58 -46q0 -38 -58 -38h-746v-430h510q60 0 60 -46q0 -38 -60 -38h-510z" />
    <glyph glyph-name="Zhecyrillic" unicode="&#x416;" horiz-adv-x="1392" 
d="M656 634v506q0 56 42 56t42 -56v-506q118 0 189 41t71 109v166q0 154 50 201t154 47q62 0 62 -42t-65 -42t-91 -30t-26 -100v-186q0 -152 -116 -210q116 -64 116 -202v-186q0 -70 26 -100t91 -30t65 -42t-62 -42q-104 0 -154 47t-50 201v166q0 62 -89 105t-171 45v-510
q0 -54 -42 -54t-42 54v510q-120 0 -192 -41t-72 -109v-166q0 -154 -50 -201t-154 -47q-62 0 -62 42t65 42t91 30t26 100v186q0 144 126 206q-126 62 -126 206v186q0 70 -26 100t-91 30t-65 42t62 42q104 0 154 -47t50 -201v-166q0 -68 72 -109t192 -41z" />
    <glyph glyph-name="Zecyrillic" unicode="&#x417;" 
d="M576 698h172q94 0 160 69t66 163t-66 176t-168 82h-366q-68 0 -94 -29t-26 -99v-36q0 -60 -42 -60t-42 60q0 140 40 194t150 54h394q128 0 216 -94t88 -234q0 -96 -43 -172t-115 -118q72 -46 115 -127t43 -179q0 -140 -89 -244t-215 -104h-394q-110 0 -150 54t-40 194
q0 60 42 60t42 -60v-36q0 -70 26 -99t94 -29h366q102 0 168 90t66 187t-66 175t-160 78h-172q-62 0 -62 42t62 42z" />
    <glyph glyph-name="Iicyrillic" unicode="&#x418;" 
d="M210 -14q-40 0 -40 60v1178q0 62 42 62t42 -62v-1056l714 1084q22 34 52 34q38 0 38 -62v-1178q0 -60 -42 -60t-42 60v1068l-732 -1114q-8 -14 -32 -14z" />
    <glyph glyph-name="Iishortcyrillic" unicode="&#x419;" 
d="M900 1540v-44q0 -128 -36 -176t-136 -48h-234q-98 0 -135 49t-37 175v44h84v-76q0 -62 21 -85t83 -23h204q62 0 82 23t20 85v76h84zM210 -14q-40 0 -40 60v1178q0 62 42 62t42 -62v-1056l714 1084q22 34 52 34q38 0 38 -62v-1178q0 -60 -42 -60t-42 60v1068l-732 -1114
q-8 -14 -32 -14z" />
    <glyph glyph-name="Kacyrillic" unicode="&#x41a;" horiz-adv-x="1200" 
d="M254 550v-510q0 -54 -42 -54t-42 54v1100q0 56 42 56t42 -56v-506h250q118 0 189 41t71 109v166q0 154 50 201t154 47q62 0 62 -42t-65 -42t-91 -30t-26 -100v-186q0 -152 -116 -210q116 -64 116 -202v-186q0 -70 26 -100t91 -30t65 -42t-62 -42q-104 0 -154 47t-50 201
v166q0 62 -89 106t-171 44h-250z" />
    <glyph glyph-name="Elcyrillic" unicode="&#x41b;" 
d="M1062 48q0 -62 -42 -62t-42 62v1140h-426q-68 0 -94 -30t-26 -100v-810q0 -154 -50 -201t-154 -47q-62 0 -62 42t65 42t91 29t26 99v812q0 140 40 194t150 54h524v-1224z" />
    <glyph glyph-name="Emcyrillic" unicode="&#x41c;" horiz-adv-x="1268" 
d="M636 558q-16 0 -26 12l-356 544v-1068q0 -60 -42 -60t-42 60v1178q0 62 38 62q30 0 52 -34l374 -568l376 568q22 34 50 34q40 0 40 -62v-1178q0 -60 -42 -60t-42 60v1068l-356 -544q-8 -12 -24 -12z" />
    <glyph glyph-name="Encyrillic" unicode="&#x41d;" 
d="M254 46q0 -60 -42 -60t-42 60v1178q0 62 38 62q46 0 46 -62v-496h720v496q0 62 42 62t42 -62v-1178q0 -60 -42 -60t-42 60v598h-720v-598z" />
    <glyph glyph-name="Ocyrillic" unicode="&#x41e;" 
d="M614 1206q-168 0 -264 -103t-96 -285v-364q0 -182 96 -285t264 -103t264 103t96 285v364q0 182 -96 285t-264 103zM614 -18q-194 0 -319 126t-125 346v364q0 220 125 346t319 126t319 -126t125 -346v-364q0 -220 -125 -346t-319 -126z" />
    <glyph glyph-name="Pecyrillic" unicode="&#x41f;" horiz-adv-x="1200" 
d="M166 1272h868v-1226q0 -60 -42 -60t-42 60v1142h-700v-1142q0 -60 -42 -60t-42 60v1226z" />
    <glyph glyph-name="Ercyrillic" unicode="&#x420;" horiz-adv-x="1100" 
d="M560 758q180 0 255 42t75 173t-75 173t-255 42h-306v-430h306zM254 40q0 -54 -42 -54t-42 54v1170q0 62 38 62h352q206 0 310 -64t104 -223t-87 -235t-243 -76h-390v-634z" />
    <glyph glyph-name="Escyrillic" unicode="&#x421;" 
d="M868 0h-282q-212 0 -314 70t-102 280v572q0 210 102 280t314 70h282q126 0 158 -64t32 -137t-42 -73t-42 64t-26 95t-94 31h-268q-96 0 -149 -7t-99 -34t-65 -81t-19 -144v-572q0 -90 19 -144t65 -81t99 -34t149 -7h268q68 0 94 30t26 95t42 65t42 -53q0 -93 -32 -157
t-158 -64z" />
    <glyph glyph-name="Tecyrillic" unicode="&#x422;" horiz-adv-x="1030" 
d="M866 1272q56 0 56 -42t-56 -42h-308v-1148q0 -54 -42 -54t-42 54v1148h-310q-56 0 -56 42t56 42h702z" />
    <glyph glyph-name="Ucyrillic" unicode="&#x423;" 
d="M130 1234q0 38 45 38q23 0 39 -38l354 -822l366 824q16 36 46 36q38 0 38 -36q0 -10 -6 -22l-498 -1134q-40 -92 -160 -92t-152 65t-32 137t42 72t42 -64t23 -95t80 -31t87 62l72 162l-380 918q-6 4 -6 20z" />
    <glyph glyph-name="Efcyrillic" unicode="&#x424;" 
d="M254 648v-24q0 -172 85 -273t237 -113v796q-152 -12 -237 -114t-85 -272zM974 624v24q0 168 -83 269t-231 117v-796q148 14 231 116t83 270zM660 40q0 -54 -42 -54t-42 54v114q-180 12 -293 136t-113 334v24q0 210 113 334t293 136v112q0 56 42 56t42 -56v-112
q176 -16 287 -140t111 -330v-24q0 -206 -111 -330t-287 -140v-114z" />
    <glyph glyph-name="Khacyrillic" unicode="&#x425;" horiz-adv-x="1272" 
d="M1059 1286q17 0 31 -12t14 -31t-14 -35l-402 -574l402 -570q14 -22 14 -39t-13 -28t-31 -11t-40 28l-384 548l-382 -548q-22 -28 -40 -28t-31 11t-13 28t14 39l402 570l-402 574q-14 16 -14 35t13 31t31 12t40 -32l382 -546l384 546q22 32 39 32z" />
    <glyph glyph-name="Tsecyrillic" unicode="&#x426;" horiz-adv-x="1200" 
d="M1034 -124q0 -60 -42 -60t-42 60v124h-784v1142q0 60 42 60t42 -60v-1058h584v1058q0 60 42 60t42 -60v-1058h24q92 0 92 -104v-104z" />
    <glyph glyph-name="Checyrillic" unicode="&#x427;" 
d="M642 434q160 0 246 97t86 277v418q0 60 42 60t42 -60v-1178q0 -62 -38 -62q-46 0 -46 62v446q-112 -144 -332 -144h-58q-210 0 -312 70t-102 280v526q0 60 42 60t42 -60v-526q0 -90 19 -144t65 -81t99 -34t147 -7h58z" />
    <glyph glyph-name="Shacyrillic" unicode="&#x428;" horiz-adv-x="1264" 
d="M126 0v1142q0 60 42 60t42 -60v-1058h380v1058q0 60 42 60t42 -60v-1058h380v1058q0 60 42 60t42 -60v-1142h-1012z" />
    <glyph glyph-name="Shchacyrillic" unicode="&#x429;" horiz-adv-x="1380" 
d="M590 1142q0 60 42 60t42 -60v-1058h380v1058q0 60 42 60t42 -60v-1058h24q92 0 92 -104v-104q0 -60 -42 -60t-42 60v124h-1044v1142q0 60 42 60t42 -60v-1058h380v1058z" />
    <glyph glyph-name="Hardsigncyrillic" unicode="&#x42a;" horiz-adv-x="1260" 
d="M720 838h-306v-768h306q156 0 243 115t87 269t-87 269t-243 115zM330 1188h-202q-62 0 -62 46q0 38 62 38h286v-350h306q180 0 297 -139t117 -330t-116 -329t-298 -138h-352q-38 0 -38 62v1140z" />
    <glyph glyph-name="Yericyrillic" unicode="&#x42b;" horiz-adv-x="1330" 
d="M1160 40q0 -54 -42 -54t-42 54v1190q0 56 42 56t42 -56v-1190zM560 838h-306v-768h306q156 0 243 115t87 269t-87 269t-243 115zM560 922q180 0 297 -139t117 -330t-116 -329t-298 -138h-352q-38 0 -38 62v1170q0 54 42 54t42 -54v-296h306z" />
    <glyph glyph-name="Softsigncyrillic" unicode="&#x42c;" horiz-adv-x="1100" 
d="M560 838h-306v-768h306q156 0 243 115t87 269t-87 269t-243 115zM560 922q180 0 297 -139t117 -330t-116 -329t-298 -138h-352q-38 0 -38 62v1170q0 54 42 54t42 -54v-296h306z" />
    <glyph glyph-name="Ereversedcyrillic" unicode="&#x42d;" 
d="M360 1272h282q212 0 314 -70t102 -280v-572q0 -210 -102 -280t-314 -70h-282q-126 0 -158 64t-32 137t42 73t42 -64t26 -95t94 -31h268q96 0 149 7t99 34t65 81t19 144v274h-508q-60 0 -60 46q0 38 60 38h508v214q0 90 -19 144t-65 81t-99 34t-149 7h-268q-68 0 -94 -30
t-26 -95t-42 -65t-42 53q0 93 32 157t158 64z" />
    <glyph glyph-name="IUcyrillic" unicode="&#x42e;" horiz-adv-x="1442" 
d="M828 -18q-194 0 -319 126t-125 346v150h-130v-564q0 -54 -42 -54t-42 54v1190q0 56 42 56t42 -56v-542h130v130q0 220 125 346t319 126t319 -126t125 -346v-364q0 -220 -125 -346t-319 -126zM828 1206q-168 0 -264 -103t-96 -285v-364q0 -182 96 -285t264 -103t264 103
t96 285v364q0 182 -96 285t-264 103z" />
    <glyph glyph-name="IAcyrillic" unicode="&#x42f;" horiz-adv-x="1200" 
d="M990 40v558h-334q-120 0 -192 -40t-72 -108v-216q0 -154 -50 -201t-154 -47q-62 0 -62 42t65 42t91 30t26 100v236q0 142 130 206q-154 88 -154 292q0 338 414 338h338q38 0 38 -62v-1170q0 -54 -42 -54t-42 54zM698 682h292v506h-292q-170 0 -250 -59t-80 -195t80 -194
t250 -58z" />
    <glyph glyph-name="acyrillic" unicode="&#x430;" 
d="M586 580h304v128q0 70 -26 100t-94 30h-282q-234 0 -234 -130q0 -60 -42 -60t-42 60q0 108 85 161t219 53h310q110 0 150 -54t40 -194v-628q0 -60 -42 -60t-42 60v98q-108 -144 -330 -144h-186q-90 0 -147 65t-57 162t20 159q38 116 137 155q100 39 259 39zM586 496
q-96 0 -149 -7t-99 -34t-65 -81t-19 -127t37 -118t83 -45h186q158 0 244 96t86 276v40h-304z" />
    <glyph glyph-name="becyrillic" unicode="&#x431;" 
d="M256 922h388q210 0 312 -70t102 -280v-222q0 -210 -102 -280t-312 -70h-60q-210 0 -312 70t-102 280v564q0 184 115 270q94 70 357 83q100 5 270 5q62 0 62 -46q0 -38 -62 -38q-335 0 -397 -12q-61 -12 -108 -25t-70 -32t-52 -58q-29 -38 -29 -139zM254 838v-488
q0 -90 19 -144t65 -81t99 -34t147 -7h60q94 0 147 7t99 34t65 81t19 144v222q0 90 -19 144t-65 81t-99 34t-147 7h-390z" />
    <glyph glyph-name="vecyrillic" unicode="&#x432;" 
d="M254 518h494q114 0 171 37t57 145q0 138 -236 138h-486v-320zM254 84h486q234 0 234 138q0 212 -226 212h-494v-350zM170 922h584q126 0 215 -60t89 -188q0 -92 -35 -133t-95 -65q130 -76 130 -216t-89 -200t-215 -60h-584v922z" />
    <glyph glyph-name="gecyrillic" unicode="&#x433;" horiz-adv-x="1078" 
d="M374 838q-68 0 -94 -30t-26 -100v-662q0 -60 -42 -60t-42 60v628q0 140 40 194t150 54h488q60 0 60 -42t-60 -42h-474z" />
    <glyph glyph-name="decyrillic" unicode="&#x434;" horiz-adv-x="1332" 
d="M894 838h-326q0 -418 -192 -754h518v754zM250 -124q0 -60 -42 -60t-42 60v104q0 104 92 104h26q202 340 202 838h492v-838h96q92 0 92 -104v-104q0 -60 -42 -60t-42 60v124h-832v-124z" />
    <glyph glyph-name="iecyrillic" unicode="&#x435;" 
d="M644 838h-58q-184 0 -258 -46t-74 -208h720q0 162 -74 208t-256 46zM1058 572v-72h-804v-150q0 -90 19 -144t65 -81t99 -34t149 -7h268q68 0 94 30t26 95t42 65t42 -53q0 -93 -32 -157t-158 -64h-282q-212 0 -314 70t-102 280v222q0 210 102 280t314 70h58q210 0 312 -70
t102 -280z" />
    <glyph glyph-name="zhecyrillic" unicode="&#x436;" horiz-adv-x="1392" 
d="M656 504v376q0 56 42 56t42 -56v-376q260 0 260 130v56q0 154 50 201t154 47q62 0 62 -42t-65 -42t-91 -30t-26 -100v-56q0 -152 -116 -210q116 -64 116 -202v-56q0 -70 26 -100t91 -30t65 -42t-62 -42q-104 0 -154 47t-50 201v56q0 60 -86 94t-174 36v-380
q0 -54 -42 -54t-42 54v380q-264 0 -264 -130v-56q0 -154 -50 -201t-154 -47q-62 0 -62 42t65 42t91 30t26 100v56q0 144 126 206q-126 62 -126 206v56q0 70 -26 100t-91 30t-65 42t62 42q104 0 154 -47t50 -201v-56q0 -130 264 -130z" />
    <glyph glyph-name="zecyrillic" unicode="&#x437;" 
d="M576 434q-62 0 -62 38q0 46 62 46h172q114 0 171 37t57 145q0 138 -236 138h-366q-68 0 -94 -29t-26 -99v-36q0 -60 -42 -60t-42 60q0 140 40 194t150 54h394q126 0 215 -60t89 -188q0 -92 -35 -133t-95 -65q130 -76 130 -216t-89 -200t-215 -60h-394q-110 0 -150 54
t-40 194q0 60 42 60t42 -60v-36q0 -70 26 -99t94 -29h366q234 0 234 138q0 212 -226 212h-172z" />
    <glyph glyph-name="iicyrillic" unicode="&#x438;" horiz-adv-x="1200" 
d="M1034 922v-874q0 -62 -42 -62t-42 62v758l-686 -806h-98v874q0 62 42 62t42 -62v-766l692 814h92z" />
    <glyph glyph-name="iishortcyrillic" unicode="&#x439;" horiz-adv-x="1200" 
d="M900 1272v-44q0 -128 -36 -176t-136 -48h-234q-98 0 -135 49t-37 175v44h84v-76q0 -62 21 -85t83 -23h204q62 0 82 23t20 85v76h84zM1034 922v-874q0 -62 -42 -62t-42 62v758l-686 -806h-98v874q0 62 42 62t42 -62v-766l692 814h92z" />
    <glyph glyph-name="kacyrillic" unicode="&#x43a;" horiz-adv-x="1194" 
d="M388 420h-138v-380q0 -54 -42 -54t-42 54v840q0 56 42 56t42 -56v-376h138q188 0 307 87q67 49 67 119q0 138 51 183t153 45q62 0 62 -42t-65 -42t-91 -30t-26 -100v-40q0 -76 -90 -146t-156 -80q66 -10 156 -78t90 -140v-40q0 -70 26 -100t91 -30t65 -42t-62 -42
q-102 0 -153 45t-51 183q0 66 -66 115q-123 91 -308 91z" />
    <glyph glyph-name="elcyrillic" unicode="&#x43b;" 
d="M1062 48q0 -62 -42 -62t-42 62v790h-426q-68 0 -94 -30t-26 -100v-460q0 -154 -50 -201t-154 -47q-62 0 -62 42t65 42t91 29t26 99v462q0 140 40 194t150 54h524v-874z" />
    <glyph glyph-name="emcyrillic" unicode="&#x43c;" horiz-adv-x="1268" 
d="M636 208q-16 0 -26 12l-356 544v-718q0 -60 -42 -60t-42 60v828q0 62 38 62q30 0 52 -34l374 -568l376 568q22 34 50 34q40 0 40 -62v-828q0 -60 -42 -60t-42 60v718l-356 -544q-8 -12 -24 -12z" />
    <glyph glyph-name="encyrillic" unicode="&#x43d;" horiz-adv-x="1200" 
d="M250 46q0 -60 -42 -60t-42 60v828q0 62 38 62q46 0 46 -62v-344h700v344q0 62 42 62t42 -62v-828q0 -60 -42 -60t-42 60v400h-700v-400z" />
    <glyph glyph-name="ocyrillic" unicode="&#x43e;" 
d="M586 84h58q94 0 147 7t99 34t65 81t19 144v222q0 90 -19 144t-65 81t-99 34t-147 7h-58q-96 0 -149 -7t-99 -34t-65 -81t-19 -144v-222q0 -90 19 -144t65 -81t99 -34t149 -7zM644 0h-58q-212 0 -314 70t-102 280v222q0 210 102 280t314 70h58q210 0 312 -70t102 -280
v-222q0 -210 -102 -280t-312 -70z" />
    <glyph glyph-name="pecyrillic" unicode="&#x43f;" horiz-adv-x="1200" 
d="M166 922h868v-876q0 -60 -42 -60t-42 60v792h-700v-792q0 -60 -42 -60t-42 60v876z" />
    <glyph glyph-name="ercyrillic" unicode="&#x440;" 
d="M1058 350q0 -210 -102 -280t-312 -70h-390v-304q0 -60 -46 -60q-38 0 -38 60v1180q0 60 42 60t42 -60v-98q112 144 332 144h58q210 0 312 -70t102 -280v-222zM974 572q0 90 -19 144t-65 81t-99 34t-147 7h-58q-160 0 -246 -97t-86 -277v-380h390q94 0 147 7t99 34t65 81
t19 144v222z" />
    <glyph glyph-name="escyrillic" unicode="&#x441;" 
d="M868 0h-282q-212 0 -314 70t-102 280v222q0 210 102 280t314 70h282q127 0 158 -65q32 -65 32 -137t-42 -72t-42 64t-26 95t-94 31h-268q-96 0 -149 -7t-99 -34t-65 -81t-19 -144v-222q0 -90 19 -144t65 -81t99 -34t149 -7h268q68 0 94 30t26 95t42 65t42 -53
q0 -93 -32 -157t-158 -64z" />
    <glyph glyph-name="tecyrillic" unicode="&#x442;" horiz-adv-x="1030" 
d="M866 922q56 0 56 -42t-56 -42h-308v-798q0 -54 -42 -54t-42 54v798h-310q-56 0 -56 42t56 42h702z" />
    <glyph glyph-name="ucyrillic" unicode="&#x443;" 
d="M1058 -184q0 -128 -36 -177t-136 -49h-526q-127 0 -158 65q-32 65 -32 137t42 72t42 -64t26 -95t94 -31h498q62 0 82 23t20 87v360q-108 -144 -330 -144h-58q-212 0 -314 70t-102 280v522q0 64 42 64t42 -64v-522q0 -90 19 -144t65 -81t99 -34t149 -7h58q158 0 244 96
t86 276v416q0 64 42 64t42 -64v-1056z" />
    <glyph glyph-name="efcyrillic" unicode="&#x444;" horiz-adv-x="1548" 
d="M816 -304q0 -60 -42 -60t-42 60v448q-60 -78 -116 -111t-148 -33q-322 0 -322 390v142q0 390 322 390q92 0 148 -33t116 -111v448q0 60 42 60t42 -60v-448q60 78 116 111t148 33q322 0 322 -390v-142q0 -390 -322 -390q-92 0 -148 33t-116 111v-448zM230 390
q0 -174 59 -240t190 -66t192 112t61 266t-61 265t-203 111q-175 0 -218 -139q-20 -64 -20 -167v-142zM1318 390v142q0 174 -59 240t-190 66t-192 -111t-61 -265t61 -266t203 -112q175 0 218 139q20 64 20 167z" />
    <glyph glyph-name="khacyrillic" unicode="&#x445;" horiz-adv-x="1136" 
d="M980 16q0 -16 -13 -27t-29 -11t-38 24l-330 394l-332 -394q-22 -24 -39 -24t-30 11t-13 27t18 42l340 402l-340 406q-18 22 -18 39t13 28t30 11t39 -24l332 -394l330 394q22 24 38 24t29 -11t13 -28t-18 -39l-340 -406l340 -402q18 -26 18 -42z" />
    <glyph glyph-name="tsecyrillic" unicode="&#x446;" horiz-adv-x="1200" 
d="M1034 -124q0 -60 -42 -60t-42 60v124h-784v876q0 60 42 60t42 -60v-792h584v792q0 60 42 60t42 -60v-792h24q92 0 92 -104v-104z" />
    <glyph glyph-name="checyrillic" unicode="&#x447;" 
d="M642 350q160 0 246 97t86 277v152q0 60 42 60t42 -60v-828q0 -62 -38 -62q-46 0 -46 62v362q-112 -144 -332 -144h-58q-210 0 -312 70t-102 280v260q0 60 42 60t42 -60v-260q0 -90 19 -144t65 -81t99 -34t147 -7h58z" />
    <glyph glyph-name="shacyrillic" unicode="&#x448;" horiz-adv-x="1184" 
d="M126 0v876q0 60 42 60t42 -60v-792h340v792q0 60 42 60t42 -60v-792h340v792q0 60 42 60t42 -60v-876h-932z" />
    <glyph glyph-name="shchacyrillic" unicode="&#x449;" horiz-adv-x="1300" 
d="M550 876q0 60 42 60t42 -60v-792h340v792q0 60 42 60t42 -60v-792h24q92 0 92 -104v-104q0 -60 -42 -60t-42 60v124h-964v876q0 60 42 60t42 -60v-792h340v792z" />
    <glyph glyph-name="hardsigncyrillic" unicode="&#x44a;" horiz-adv-x="1238" 
d="M382 0v838h-202q-62 0 -62 46q0 38 62 38h286v-404h342q126 0 215 -59t89 -200t-89 -200t-215 -59h-426zM794 84q236 0 236 176q0 122 -105 157q-51 17 -131 17h-328v-350h328z" />
    <glyph glyph-name="yericyrillic" unicode="&#x44b;" horiz-adv-x="1358" 
d="M1192 40q0 -54 -42 -54t-42 54v840q0 56 42 56t42 -56v-840zM166 0v874q0 62 42 62t42 -62v-356h424q126 0 215 -59t89 -200t-89 -200t-215 -59h-508zM660 84q236 0 236 176q0 122 -105 157q-51 17 -131 17h-410v-350h410z" />
    <glyph glyph-name="softsigncyrillic" unicode="&#x44c;" horiz-adv-x="1144" 
d="M166 0v874q0 62 42 62t42 -62v-356h424q126 0 215 -59t89 -200t-89 -200t-215 -59h-508zM660 84q236 0 236 176q0 122 -105 157q-51 17 -131 17h-410v-350h410z" />
    <glyph glyph-name="ereversedcyrillic" unicode="&#x44d;" 
d="M360 922h282q212 0 314 -70t102 -280v-222q0 -210 -102 -280t-314 -70h-282q-127 0 -158 65q-32 65 -32 137t42 72t42 -64t26 -95t94 -31h268q96 0 149 7t99 34t65 81t19 144v84h-398q-62 0 -62 38q0 46 62 46h398v54q0 90 -19 144t-65 81t-99 34t-149 7h-268
q-68 0 -94 -30t-26 -95t-42 -65t-42 53q0 93 32 157t158 64z" />
    <glyph glyph-name="iucyrillic" unicode="&#x44e;" horiz-adv-x="1404" 
d="M819 84q95 0 148 7t99 34t65 81t19 144v222q0 90 -19 144t-65 81t-99 34t-148 7t-148 -7t-99 -34t-65 -81t-19 -144v-222q0 -90 19 -144t65 -81t99 -34t148 -7zM254 40q0 -54 -42 -54t-42 54v840q0 56 42 56t42 -56v-362h150v54q0 210 102 280t313 70t313 -70t102 -280
v-222q0 -210 -102 -280t-313 -70t-313 70t-102 280v84h-150v-394z" />
    <glyph glyph-name="iacyrillic" unicode="&#x44f;" horiz-adv-x="1200" 
d="M636 488h314v350h-314q-154 0 -211 -30t-57 -146t57 -145t211 -29zM438 424q-154 41 -154 219q0 151 71 215t343 64h298q38 0 38 -62v-820q0 -54 -42 -54t-42 54v364h-254q-264 0 -264 -130v-40q0 -154 -50 -201t-154 -47q-62 0 -62 42t65 42t91 30t26 100v40
q0 122 90 184z" />
    <glyph glyph-name="uni0450" unicode="&#x450;" 
d="M408 1313q0 19 13 31t29 12t40 -26l192 -230q16 -18 16 -37t-13 -31t-29 -12t-40 26l-192 230q-16 18 -16 37zM644 838h-58q-184 0 -258 -46t-74 -208h720q0 162 -74 208t-256 46zM1058 572v-72h-804v-150q0 -90 19 -144t65 -81t99 -34t149 -7h268q68 0 94 30t26 95
t42 65t42 -53q0 -93 -32 -157t-158 -64h-282q-212 0 -314 70t-102 280v222q0 210 102 280t314 70h58q210 0 312 -70t102 -280z" />
    <glyph glyph-name="iocyrillic" unicode="&#x451;" 
d="M670 1116q0 28 30 50t61 22t62 -22t31 -50t-31 -50t-62 -22t-61 22t-30 50zM378 1116q0 28 30 50t61 22t62 -22t31 -50t-31 -50t-62 -22t-61 22t-30 50zM644 838h-58q-184 0 -258 -46t-74 -208h720q0 162 -74 208t-256 46zM1058 572v-72h-804v-150q0 -90 19 -144t65 -81
t99 -34t149 -7h268q68 0 94 30t26 95t42 65t42 -53q0 -93 -32 -157t-158 -64h-282q-212 0 -314 70t-102 280v222q0 210 102 280t314 70h58q210 0 312 -70t102 -280z" />
    <glyph glyph-name="djecyrillic" unicode="&#x452;" 
d="M1058 -162q0 -154 -50 -201t-154 -47q-62 0 -62 42t65 42t91 30t26 100v768q0 90 -19 144t-65 81t-99 34t-147 7h-58q-160 0 -246 -97t-86 -277v-418q0 -60 -42 -60t-42 60v974q-50 0 -50 43t50 43v118q0 62 38 62q46 0 46 -62v-118h408q58 0 58 -46q0 -40 -58 -40h-408
v-242q112 144 332 144h58q210 0 312 -70t102 -280v-734z" />
    <glyph glyph-name="gjecyrillic" unicode="&#x453;" horiz-adv-x="1078" 
d="M776 1313q0 -19 -16 -37l-192 -230q-24 -26 -40 -26t-29 12t-13 31t16 37l192 230q24 26 40 26t29 -12t13 -31zM374 838q-68 0 -94 -30t-26 -100v-662q0 -60 -42 -60t-42 60v628q0 140 40 194t150 54h488q60 0 60 -42t-60 -42h-474z" />
    <glyph glyph-name="ecyrillic" unicode="&#x454;" 
d="M868 922q126 0 158 -64t32 -137t-42 -73t-42 65t-26 95t-94 30h-268q-96 0 -149 -7t-99 -34t-65 -81t-19 -144v-54h398q62 0 62 -46q0 -38 -62 -38h-398v-84q0 -90 19 -144t65 -81t99 -34t149 -7h268q68 0 94 31t26 95t42 64t42 -53q0 -90 -32 -156q-32 -65 -158 -65
h-282q-212 0 -314 70t-102 280v222q0 210 102 280t314 70h282z" />
    <glyph glyph-name="dzecyrillic" unicode="&#x455;" 
d="M360 0q-126 0 -158 64t-32 137t42 73t42 -65t26 -95t94 -30h476q128 0 128 162q0 84 -36 134t-92 50h-432q-248 0 -248 256q0 116 57 176t191 60h450q127 0 158 -65q32 -65 32 -137t-42 -72t-42 64t-26 95t-94 31h-472q-128 0 -128 -152q0 -82 36 -127t92 -45h434
q246 0 246 -268q0 -246 -246 -246h-456z" />
    <glyph glyph-name="icyrillic" unicode="&#x456;" horiz-adv-x="420" 
d="M120 1202q0 28 30 50t61 22t62 -22t31 -50t-31 -50t-62 -22t-61 22t-30 50zM254 40q0 -54 -42 -54t-42 54v840q0 56 42 56t42 -56v-840z" />
    <glyph glyph-name="yicyrillic" unicode="&#x457;" horiz-adv-x="420" 
d="M266 1130q0 28 30 50t61 22t62 -22t31 -50t-31 -50t-62 -22t-61 22t-30 50zM-26 1130q0 28 30 50t61 22t62 -22t31 -50t-31 -50t-62 -22t-61 22t-30 50zM254 40q0 -54 -42 -54t-42 54v840q0 56 42 56t42 -56v-840z" />
    <glyph glyph-name="jecyrillic" unicode="&#x458;" horiz-adv-x="416" 
d="M248 0q0 -223 -116 -291q-60 -35 -128 -47t-172 -12q-62 0 -62 42t62 42q96 0 149 7t99 34t65 81t19 144v874q0 62 42 62t42 -62v-874zM114 1202q0 28 31 50t62 22t61 -22t30 -50t-30 -50t-61 -22t-62 22t-31 50z" />
    <glyph glyph-name="ljecyrillic" unicode="&#x459;" horiz-adv-x="1648" 
d="M976 518h202q126 0 215 -59t89 -200t-89 -200t-215 -59h-286v838h-340q-68 0 -94 -30t-26 -100v-460q0 -154 -50 -201t-154 -47q-62 0 -62 42t65 42t91 29t26 99v462q0 140 40 194t150 54h438v-404zM976 434v-350h188q236 0 236 176q0 122 -105 157q-51 17 -131 17h-188z
" />
    <glyph glyph-name="njecyrillic" unicode="&#x45a;" horiz-adv-x="1648" 
d="M976 518h202q126 0 215 -59t89 -200t-89 -200t-215 -59h-286v434h-642v-388q0 -60 -42 -60t-42 60v828q0 62 38 62q46 0 46 -62v-356h642v356q0 62 42 62t42 -62v-356zM976 434v-350h188q236 0 236 176q0 122 -105 157q-51 17 -131 17h-188z" />
    <glyph glyph-name="tshecyrillic" unicode="&#x45b;" 
d="M1058 46q0 -60 -42 -60t-42 60v526q0 90 -19 144t-65 81t-99 34t-147 7h-58q-160 0 -246 -97t-86 -277v-418q0 -60 -42 -60t-42 60v974q-50 0 -50 43t50 43v118q0 62 38 62q46 0 46 -62v-118h408q58 0 58 -46q0 -40 -58 -40h-408v-242q112 144 332 144h58q210 0 312 -70
t102 -280v-526z" />
    <glyph glyph-name="kjecyrillic" unicode="&#x45c;" horiz-adv-x="1194" 
d="M748 1313q0 -19 -16 -37l-192 -230q-24 -26 -40 -26t-29 12t-13 31t16 37l192 230q24 26 40 26t29 -12t13 -31zM388 420h-138v-380q0 -54 -42 -54t-42 54v840q0 56 42 56t42 -56v-376h138q188 0 307 87q67 49 67 119q0 138 51 183t153 45q62 0 62 -42t-65 -42t-91 -30
t-26 -100v-40q0 -76 -90 -146t-156 -80q66 -10 156 -78t90 -140v-40q0 -70 26 -100t91 -30t65 -42t-62 -42q-102 0 -153 45t-51 183q0 66 -66 115q-123 91 -308 91z" />
    <glyph glyph-name="iicyrillic_grave" unicode="&#x45d;" horiz-adv-x="1200" 
d="M410 1313q0 19 13 31t29 12t40 -26l192 -230q16 -18 16 -37t-13 -31t-29 -12t-40 26l-192 230q-16 18 -16 37zM1034 922v-874q0 -62 -42 -62t-42 62v758l-686 -806h-98v874q0 62 42 62t42 -62v-766l692 814h92z" />
    <glyph glyph-name="ushortcyrillic" unicode="&#x45e;" 
d="M912 1272v-44q0 -128 -36 -176t-136 -48h-234q-98 0 -135 49t-37 175v44h84v-76q0 -62 21 -85t83 -23h204q62 0 82 23t20 85v76h84zM1058 -184q0 -128 -36 -177t-136 -49h-526q-127 0 -158 65q-32 65 -32 137t42 72t42 -64t26 -95t94 -31h498q62 0 82 23t20 87v360
q-108 -144 -330 -144h-58q-212 0 -314 70t-102 280v522q0 64 42 64t42 -64v-522q0 -90 19 -144t65 -81t99 -34t149 -7h58q158 0 244 96t86 276v416q0 64 42 64t42 -64v-1056z" />
    <glyph glyph-name="dzhecyrillic" unicode="&#x45f;" horiz-adv-x="1200" 
d="M558 0h-392v876q0 60 42 60t42 -60v-792h700v792q0 60 42 60t42 -60v-876h-392v-124q0 -60 -42 -60t-42 60v124z" />
    <glyph glyph-name="Yatcyrillic" unicode="&#x462;" horiz-adv-x="1444" 
d="M582 70h282q162 0 246 89t84 235t-85 235t-245 89h-282v-648zM498 1224q0 62 42 62t42 -62v-218h300q56 0 56 -42t-56 -42h-300v-120h282q186 0 300 -112t114 -297t-114 -296t-300 -111h-324q-42 0 -42 62v874h-294q-56 0 -56 42t56 42h294v218z" />
    <glyph glyph-name="yatcyrillic" unicode="&#x463;" horiz-adv-x="1396" 
d="M816 84q180 0 255 42t75 173t-75 173t-255 42h-306v-430h306zM464 0q-38 0 -38 62v776h-284q-56 0 -56 42t56 42h284v310q0 54 42 54t42 -54v-310h284q56 0 56 -42t-56 -42h-284v-240h390q156 0 243 -76t87 -235t-104 -223t-310 -64h-352z" />
    <glyph glyph-name="Fitacyrillic" unicode="&#x472;" 
d="M1058 454q0 -220 -125 -346t-319 -126t-319 126t-125 346v364q0 220 125 346t319 126t319 -126t125 -346v-364zM974 818q0 182 -96 285t-264 103t-264 -103t-96 -285v-140q58 46 128 46t236 -40t198 -40q65 0 134 52l24 16v106zM842 560q-70 0 -236 40t-212 40t-118 -48
l-22 -18v-120q0 -182 96 -285t264 -103t264 103t96 285v152q-62 -46 -132 -46z" />
    <glyph glyph-name="fitacyrillic" unicode="&#x473;" horiz-adv-x="1200" 
d="M616 0h-30q-212 0 -314 70t-102 280v222q0 210 102 280t314 70h30q210 0 312 -70t102 -280v-222q0 -210 -102 -280t-312 -70zM946 572q0 90 -19 144t-65 81t-99 34t-147 7h-30q-96 0 -149 -7t-99 -34t-65 -81t-19 -144v-72q58 46 128 46t222 -40t197 -40t121 50l24 18v38
zM814 382q-70 0 -222 40t-196 40t-120 -50l-22 -16v-46q0 -90 19 -144t65 -81t99 -34t149 -7h30q94 0 147 7t99 34t65 81t19 144v78q-62 -46 -132 -46z" />
    <glyph glyph-name="Gheupturncyrillic" unicode="&#x490;" horiz-adv-x="1200" 
d="M1030 1188h-656q-68 0 -94 -30t-26 -100v-1012q0 -60 -42 -60t-42 60v978q0 140 40 194t150 54h586v164q0 60 42 60t42 -60v-248z" />
    <glyph glyph-name="gheupturncyrillic" unicode="&#x491;" horiz-adv-x="1078" 
d="M374 838q-68 0 -94 -30t-26 -100v-662q0 -60 -42 -60t-42 60v628q0 140 40 194t150 54h464v164q0 60 42 60t42 -60v-248h-534z" />
    <glyph glyph-name="uni1E02" unicode="&#x1e02;" 
d="M478 1484q0 28 30 50t61 22t62 -22t31 -50t-31 -50t-62 -22t-61 22t-30 50zM560 758q180 0 255 42t75 173t-75 173t-255 42h-306v-430h306zM170 62v1148q0 62 38 62h352q206 0 310 -64t104 -234t-110 -240q98 -30 146 -106t48 -220v-58q0 -210 -102 -280t-312 -70h-436
q-38 0 -38 62zM254 84h390q94 0 147 7t99 34t65 81t19 144v58q0 90 -19 144t-65 81t-99 34t-147 7h-390v-590z" />
    <glyph glyph-name="uni1E03" unicode="&#x1e03;" 
d="M522 1116q0 28 30 50t61 22t62 -22t31 -50t-31 -50t-62 -22t-61 22t-30 50zM586 838q-160 0 -246 -97t-86 -277v-8q0 -180 86 -276t246 -96h58q94 0 147 7t99 34t65 81t19 144v222q0 90 -19 144t-65 81t-99 34t-147 7h-58zM586 922h58q210 0 312 -70t102 -280v-222
q0 -210 -102 -280t-312 -70h-58q-220 0 -332 144v-98q0 -60 -42 -60t-42 60v1178q0 62 38 62q46 0 46 -62v-446q112 144 332 144z" />
    <glyph glyph-name="uni1E0A" unicode="&#x1e0a;" 
d="M478 1484q0 28 30 50t61 22t62 -22t31 -50t-31 -50t-62 -22t-61 22t-30 50zM974 350v572q0 90 -19 144t-65 81t-99 34t-147 7h-390v-1104h390q94 0 147 7t99 34t65 81t19 144zM1058 922v-572q0 -210 -102 -280t-312 -70h-436q-38 0 -38 62v1148q0 62 38 62h436
q210 0 312 -70t102 -280z" />
    <glyph glyph-name="uni1E0B" unicode="&#x1e0b;" 
d="M522 1116q0 28 30 50t61 22t62 -22t31 -50t-31 -50t-62 -22t-61 22t-30 50zM170 572q0 210 102 280t314 70h388v302q0 62 46 62q38 0 38 -62v-1178q0 -60 -42 -60t-42 60v98q-108 -144 -330 -144h-58q-212 0 -314 70t-102 280v222zM254 350q0 -90 19 -144t65 -81t99 -34
t149 -7h58q158 0 244 96t86 276v382h-388q-96 0 -149 -7t-99 -34t-65 -81t-19 -144v-222z" />
    <glyph glyph-name="uni1E1E" unicode="&#x1e1e;" 
d="M512 1484q0 28 30 50t61 22t62 -22t31 -50t-31 -50t-62 -22t-61 22t-30 50zM254 46q0 -60 -42 -60t-42 60v1164q0 62 38 62h792q58 0 58 -46q0 -38 -58 -38h-746v-430h510q60 0 60 -46q0 -38 -60 -38h-510v-628z" />
    <glyph glyph-name="uni1E1F" unicode="&#x1e1f;" horiz-adv-x="744" 
d="M306 1428q0 28 30 50t61 22t62 -22t31 -50t-31 -50t-62 -22t-61 22t-30 50zM586 1188q-96 0 -149 -7t-99 -34t-65 -81t-19 -144h286q62 0 62 -46q0 -38 -62 -38h-286v-790q0 -62 -46 -62q-38 0 -38 62v790q-62 0 -62 42t62 42q0 220 116 290q60 36 128 48t172 12
q62 0 62 -46q0 -38 -62 -38z" />
    <glyph glyph-name="uni1E40" unicode="&#x1e40;" horiz-adv-x="1268" 
d="M542 1344q0 28 30 50t61 22t62 -22t31 -50t-31 -50t-62 -22t-61 22t-30 50zM636 558q-16 0 -26 12l-356 544v-1068q0 -60 -42 -60t-42 60v1178q0 62 38 62q30 0 52 -34l374 -568l376 568q22 34 50 34q40 0 40 -62v-1178q0 -60 -42 -60t-42 60v1068l-356 -544
q-8 -12 -24 -12z" />
    <glyph glyph-name="uni1E41" unicode="&#x1e41;" horiz-adv-x="1672" 
d="M748 1130q0 28 30 50t61 22t62 -22t31 -50t-31 -50t-62 -22t-61 22t-30 50zM524 838q-128 0 -199 -97t-71 -277v-418q0 -60 -42 -60t-42 60v828q0 62 38 62q46 0 46 -62v-96q60 78 118 111t172 33t196 -36t116 -138q94 174 282 174t277 -70t89 -280v-526q0 -60 -42 -60
t-42 60v526q0 90 -14 144t-52 81t-82 34t-124 7q-128 0 -199 -97t-71 -277v-418q0 -60 -42 -60t-42 60v526q0 90 -14 144t-52 81t-81 34t-123 7z" />
    <glyph glyph-name="uni1E56" unicode="&#x1e56;" horiz-adv-x="1100" 
d="M424 1484q0 28 30 50t61 22t62 -22t31 -50t-31 -50t-62 -22t-61 22t-30 50zM560 758q180 0 255 42t75 173t-75 173t-255 42h-306v-430h306zM254 40q0 -54 -42 -54t-42 54v1170q0 62 38 62h352q206 0 310 -64t104 -223t-87 -235t-243 -76h-390v-634z" />
    <glyph glyph-name="uni1E57" unicode="&#x1e57;" 
d="M556 1130q0 28 30 50t61 22t62 -22t31 -50t-31 -50t-62 -22t-61 22t-30 50zM1058 350q0 -210 -102 -280t-312 -70h-390v-304q0 -60 -46 -60q-38 0 -38 60v1180q0 60 42 60t42 -60v-98q112 144 332 144h58q210 0 312 -70t102 -280v-222zM974 572q0 90 -19 144t-65 81
t-99 34t-147 7h-58q-160 0 -246 -97t-86 -277v-380h390q94 0 147 7t99 34t65 81t19 144v222z" />
    <glyph glyph-name="uni1E60" unicode="&#x1e60;" horiz-adv-x="1172" 
d="M534 1484q0 28 30 50t61 22t62 -22t31 -50t-31 -50t-62 -22t-61 22t-30 50zM254 969q0 -85 37 -144t91 -73l434 -104q246 -62 246 -340q0 -132 -75 -228t-247 -96h-152q-104 0 -173 12t-129 48q-116 70 -116 290q0 56 46 56q40 0 40 -56q0 -172 72 -219t260 -47h186
q106 0 155 76t49 171t-41 161t-87 76l-432 106q-136 32 -192 104t-56 205t76 227t248 94h152q104 0 172 -12t128 -47q116 -68 116 -287q0 -56 -43 -56t-43 56q0 90 -18 144t-65 79t-99 32t-148 7h-188q-106 0 -155 -75t-49 -160z" />
    <glyph glyph-name="uni1E61" unicode="&#x1e61;" 
d="M550 1116q0 28 30 50t61 22t62 -22t31 -50t-31 -50t-62 -22t-61 22t-30 50zM360 0q-126 0 -158 64t-32 137t42 73t42 -65t26 -95t94 -30h476q128 0 128 162q0 84 -36 134t-92 50h-432q-248 0 -248 256q0 116 57 176t191 60h450q127 0 158 -65q32 -65 32 -137t-42 -72
t-42 64t-26 95t-94 31h-472q-128 0 -128 -152q0 -82 36 -127t92 -45h434q246 0 246 -268q0 -246 -246 -246h-456z" />
    <glyph glyph-name="uni1E6A" unicode="&#x1e6a;" horiz-adv-x="1030" 
d="M422 1484q0 28 30 50t61 22t62 -22t31 -50t-31 -50t-62 -22t-61 22t-30 50zM866 1272q56 0 56 -42t-56 -42h-308v-1148q0 -54 -42 -54t-42 54v1148h-310q-56 0 -56 42t56 42h702z" />
    <glyph glyph-name="uni1E6B" unicode="&#x1e6b;" horiz-adv-x="754" 
d="M110 1396q0 28 30 50t61 22t62 -22t31 -50t-31 -50t-62 -22t-61 22t-30 50zM244 350q0 -90 19 -144t65 -81t99 -34t149 -7q60 0 60 -38q0 -46 -60 -46q-199 0 -308 66q-108 66 -108 284v488q-62 0 -62 42t62 42v218q0 62 38 62q46 0 46 -62v-218h286q62 0 62 -46
q0 -38 -62 -38h-286v-488z" />
    <glyph glyph-name="Wgrave" unicode="&#x1e80;" horiz-adv-x="1934" 
d="M764 1595q0 15 13 29t31 14t38 -22l140 -138q22 -26 22 -41t-12 -28t-31 -13t-39 22l-138 138q-24 24 -24 39zM968 1304q34 0 48 -44l354 -1140l352 1144q16 40 38 40t35 -13t13 -26t-6 -31l-384 -1234h-100l-352 1130l-350 -1130h-98l-376 1234q-2 6 -9 16t-7 19t14 22
t34 13q26 0 38 -40l356 -1144l352 1140q14 44 48 44z" />
    <glyph glyph-name="wgrave" unicode="&#x1e81;" horiz-adv-x="1636" 
d="M564 1315q0 19 13 31t29 12t40 -26l192 -230q16 -18 16 -37t-13 -31t-29 -12t-40 26l-192 230q-16 18 -16 37zM1474 936q16 0 35 -11t19 -26t-6 -21l-310 -878h-142l-252 768l-272 -768h-142l-290 878q-6 4 -6 19t20 27t34 12q20 0 34 -38l278 -806h12l288 808
q6 34 42 34t46 -34l276 -808h12l290 808q12 36 34 36z" />
    <glyph glyph-name="Wacute" unicode="&#x1e82;" horiz-adv-x="1934" 
d="M1170 1596q0 -14 -22 -40l-140 -138q-20 -22 -38 -22t-31 13t-13 29t24 40l138 138q20 22 39 22t31 -14t12 -28zM968 1304q34 0 48 -44l354 -1140l352 1144q16 40 38 40t35 -13t13 -26t-6 -31l-384 -1234h-100l-352 1130l-350 -1130h-98l-376 1234q-2 6 -9 16t-7 19
t14 22t34 13q26 0 38 -40l356 -1144l352 1140q14 44 48 44z" />
    <glyph glyph-name="wacute" unicode="&#x1e83;" horiz-adv-x="1636" 
d="M1084 1313q0 -19 -16 -37l-192 -230q-24 -26 -40 -26t-29 12t-13 31t16 37l192 230q24 26 40 26t29 -12t13 -31zM1474 936q16 0 35 -11t19 -26t-6 -21l-310 -878h-142l-252 768l-272 -768h-142l-290 878q-6 4 -6 19t20 27t34 12q20 0 34 -38l278 -806h12l288 808
q6 34 42 34t46 -34l276 -808h12l290 808q12 36 34 36z" />
    <glyph glyph-name="Wdieresis" unicode="&#x1e84;" horiz-adv-x="1934" 
d="M1022 1498q0 28 30 50t61 22t62 -22t31 -50t-31 -50t-62 -22t-61 22t-30 50zM730 1498q0 28 30 50t61 22t62 -22t31 -50t-31 -50t-62 -22t-61 22t-30 50zM968 1304q34 0 48 -44l354 -1140l352 1144q16 40 38 40t35 -13t13 -26t-6 -31l-384 -1234h-100l-352 1130
l-350 -1130h-98l-376 1234q-2 6 -9 16t-7 19t14 22t34 13q26 0 38 -40l356 -1144l352 1140q14 44 48 44z" />
    <glyph glyph-name="wdieresis" unicode="&#x1e85;" horiz-adv-x="1636" 
d="M872 1130q0 28 30 50t61 22t62 -22t31 -50t-31 -50t-62 -22t-61 22t-30 50zM580 1130q0 28 30 50t61 22t62 -22t31 -50t-31 -50t-62 -22t-61 22t-30 50zM1474 936q16 0 35 -11t19 -26t-6 -21l-310 -878h-142l-252 768l-272 -768h-142l-290 878q-6 4 -6 19t20 27t34 12
q20 0 34 -38l278 -806h12l288 808q6 34 42 34t46 -34l276 -808h12l290 808q12 36 34 36z" />
    <glyph glyph-name="uni1EA0" unicode="&#x1ea0;" horiz-adv-x="1156" 
d="M458 -208q0 28 30 50t61 22t62 -22t31 -50t-31 -50t-62 -22t-61 22t-30 50zM310 492h480l-242 658zM90 -32q-42 0 -42 40q0 14 6 28l450 1236h92l450 -1236q6 -14 6 -28q0 -40 -42 -40q-28 0 -44 40l-144 400h-544l-144 -400q-18 -40 -44 -40z" />
    <glyph glyph-name="uni1EA1" unicode="&#x1ea1;" 
d="M476 -208q0 28 30 50t61 22t62 -22t31 -50t-31 -50t-62 -22t-61 22t-30 50zM586 580h304v128q0 70 -26 100t-94 30h-282q-234 0 -234 -130q0 -60 -42 -60t-42 60q0 108 85 161t219 53h310q110 0 150 -54t40 -194v-628q0 -60 -42 -60t-42 60v98q-108 -144 -330 -144h-186
q-90 0 -147 65t-57 162t20 159q38 116 137 155q100 39 259 39zM586 496q-96 0 -149 -7t-99 -34t-65 -81t-19 -127t37 -118t83 -45h186q158 0 244 96t86 276v40h-304z" />
    <glyph glyph-name="uni1EA2" unicode="&#x1ea2;" horiz-adv-x="1156" 
d="M512 1448q108 0 108 64q0 38 -25 51t-83 13v62q174 0 174 -126q0 -48 -29 -78t-71 -34v-54h-74v102zM310 492h480l-242 658zM90 -32q-42 0 -42 40q0 14 6 28l450 1236h92l450 -1236q6 -14 6 -28q0 -40 -42 -40q-28 0 -44 40l-144 400h-544l-144 -400q-18 -40 -44 -40z
" />
    <glyph glyph-name="uni1EA3" unicode="&#x1ea3;" 
d="M554 1146q108 0 108 64q0 38 -25 51t-83 13v62q174 0 174 -126q0 -48 -29 -78t-71 -34v-54h-74v102zM586 580h304v128q0 70 -26 100t-94 30h-282q-234 0 -234 -130q0 -60 -42 -60t-42 60q0 108 85 161t219 53h310q110 0 150 -54t40 -194v-628q0 -60 -42 -60t-42 60v98
q-108 -144 -330 -144h-186q-90 0 -147 65t-57 162t20 159q38 116 137 155q100 39 259 39zM586 496q-96 0 -149 -7t-99 -34t-65 -81t-19 -127t37 -118t83 -45h186q158 0 244 96t86 276v40h-304z" />
    <glyph glyph-name="uni1EA4" unicode="&#x1ea4;" horiz-adv-x="1156" 
d="M312 1126q-36 0 -36 36q0 18 8 26l208 274h110l212 -274q8 -10 8 -26q0 -36 -36 -36q-16 0 -22 6t-14 16t-12 14l-188 208h-6l-184 -208q-32 -36 -48 -36zM960 1518q0 -14 -22 -40l-140 -138q-20 -22 -38 -22t-31 13t-13 29t24 40l138 138q20 22 39 22t31 -14t12 -28z
M320 448h460l-232 546zM87 -14q-39 0 -39 34q0 12 6 24l450 1060h92l450 -1060q6 -12 6 -24q0 -34 -38 -34t-54 34l-144 344h-532l-144 -344q-14 -34 -53 -34z" />
    <glyph glyph-name="uni1EA5" unicode="&#x1ea5;" 
d="M336 1036q-36 0 -36 36q0 18 8 26l208 274h110l212 -274q8 -10 8 -26q0 -36 -36 -36q-16 0 -22 6t-14 16t-12 14l-188 208h-6l-184 -208q-32 -36 -48 -36zM984 1428q0 -14 -22 -40l-140 -138q-20 -22 -38 -22t-31 13t-13 29t24 40l138 138q20 22 39 22t31 -14t12 -28z
M586 580h304v128q0 70 -26 100t-94 30h-282q-234 0 -234 -130q0 -60 -42 -60t-42 60q0 108 85 161t219 53h310q110 0 150 -54t40 -194v-628q0 -60 -42 -60t-42 60v98q-108 -144 -330 -144h-186q-90 0 -147 65t-57 162t20 159q38 116 137 155q100 39 259 39zM586 496
q-96 0 -149 -7t-99 -34t-65 -81t-19 -127t37 -118t83 -45h186q158 0 244 96t86 276v40h-304z" />
    <glyph glyph-name="uni1EA6" unicode="&#x1ea6;" horiz-adv-x="1156" 
d="M312 1110q-36 0 -36 36q0 18 8 26l208 274h110l212 -274q8 -10 8 -26q0 -36 -36 -36q-16 0 -22 6t-14 16t-12 14l-188 208h-6l-184 -208q-32 -36 -48 -36zM136 1501q0 15 13 29t31 14t38 -22l140 -138q22 -26 22 -41t-12 -28t-31 -13t-39 22l-138 138q-24 24 -24 39z
M320 448h460l-232 546zM87 -14q-39 0 -39 34q0 12 6 24l450 1060h92l450 -1060q6 -12 6 -24q0 -34 -38 -34t-54 34l-144 344h-532l-144 -344q-14 -34 -53 -34z" />
    <glyph glyph-name="uni1EA7" unicode="&#x1ea7;" 
d="M336 1036q-36 0 -36 36q0 18 8 26l208 274h110l212 -274q8 -10 8 -26q0 -36 -36 -36q-16 0 -22 6t-14 16t-12 14l-188 208h-6l-184 -208q-32 -36 -48 -36zM160 1427q0 15 13 29t31 14t38 -22l140 -138q22 -26 22 -41t-12 -28t-31 -13t-39 22l-138 138q-24 24 -24 39z
M586 580h304v128q0 70 -26 100t-94 30h-282q-234 0 -234 -130q0 -60 -42 -60t-42 60q0 108 85 161t219 53h310q110 0 150 -54t40 -194v-628q0 -60 -42 -60t-42 60v98q-108 -144 -330 -144h-186q-90 0 -147 65t-57 162t20 159q38 116 137 155q100 39 259 39zM586 496
q-96 0 -149 -7t-99 -34t-65 -81t-19 -127t37 -118t83 -45h186q158 0 244 96t86 276v40h-304z" />
    <glyph glyph-name="uni1EA8" unicode="&#x1ea8;" horiz-adv-x="1156" 
d="M312 1126q-36 0 -36 36q0 18 8 26l208 274h110l212 -274q8 -10 8 -26q0 -36 -36 -36q-16 0 -22 6t-14 16t-12 14l-188 208h-6l-184 -208q-32 -36 -48 -36zM778 1448q108 0 108 64q0 38 -25 51t-83 13v62q174 0 174 -126q0 -48 -29 -78t-71 -34v-54h-74v102zM320 448h460
l-232 546zM87 -14q-39 0 -39 34q0 12 6 24l450 1060h92l450 -1060q6 -12 6 -24q0 -34 -38 -34t-54 34l-144 344h-532l-144 -344q-14 -34 -53 -34z" />
    <glyph glyph-name="uni1EA9" unicode="&#x1ea9;" 
d="M336 1036q-36 0 -36 36q0 18 8 26l208 274h110l212 -274q8 -10 8 -26q0 -36 -36 -36q-16 0 -22 6t-14 16t-12 14l-188 208h-6l-184 -208q-32 -36 -48 -36zM802 1358q108 0 108 64q0 38 -25 51t-83 13v62q174 0 174 -126q0 -48 -29 -78t-71 -34v-54h-74v102zM586 580h304
v128q0 70 -26 100t-94 30h-282q-234 0 -234 -130q0 -60 -42 -60t-42 60q0 108 85 161t219 53h310q110 0 150 -54t40 -194v-628q0 -60 -42 -60t-42 60v98q-108 -144 -330 -144h-186q-90 0 -147 65t-57 162t20 159q38 116 137 155q100 39 259 39zM586 496q-96 0 -149 -7
t-99 -34t-65 -81t-19 -127t37 -118t83 -45h186q158 0 244 96t86 276v40h-304z" />
    <glyph glyph-name="uni1EAA" unicode="&#x1eaa;" horiz-adv-x="1156" 
d="M312 1126q-36 0 -36 36q0 18 8 26l208 274h110l212 -274q8 -10 8 -26q0 -36 -36 -36q-16 0 -22 6t-14 16t-12 14l-188 208h-6l-184 -208q-32 -36 -48 -36zM657 1556q7 0 21 10l62 56q22 16 38 16t29 -10t13 -30t-24 -42l-94 -78q-14 -14 -27 -14t-25 4l-196 72
q-8 4 -16 4t-22 -10l-62 -56q-22 -16 -37 -16t-28 11t-13 32t24 39l94 78q10 14 23 14t29 -4l196 -72q8 -4 15 -4zM320 448h460l-232 546zM87 -14q-39 0 -39 34q0 12 6 24l450 1060h92l450 -1060q6 -12 6 -24q0 -34 -38 -34t-54 34l-144 344h-532l-144 -344q-14 -34 -53 -34
z" />
    <glyph glyph-name="uni1EAB" unicode="&#x1eab;" 
d="M336 1036q-36 0 -36 36q0 18 8 26l208 274h110l212 -274q8 -10 8 -26q0 -36 -36 -36q-16 0 -22 6t-14 16t-12 14l-188 208h-6l-184 -208q-32 -36 -48 -36zM681 1466q7 0 21 10l62 56q22 16 38 16t29 -10t13 -30t-24 -42l-94 -78q-14 -14 -27 -14t-25 4l-196 72
q-8 4 -16 4t-22 -10l-62 -56q-22 -16 -37 -16t-28 11t-13 32t24 39l94 78q10 14 23 14t29 -4l196 -72q8 -4 15 -4zM586 580h304v128q0 70 -26 100t-94 30h-282q-234 0 -234 -130q0 -60 -42 -60t-42 60q0 108 85 161t219 53h310q110 0 150 -54t40 -194v-628q0 -60 -42 -60
t-42 60v98q-108 -144 -330 -144h-186q-90 0 -147 65t-57 162t20 159q38 116 137 155q100 39 259 39zM586 496q-96 0 -149 -7t-99 -34t-65 -81t-19 -127t37 -118t83 -45h186q158 0 244 96t86 276v40h-304z" />
    <glyph glyph-name="uni1EAC" unicode="&#x1eac;" horiz-adv-x="1156" 
d="M314 1302q-36 0 -36 36q0 18 8 26l208 274h110l212 -274q8 -10 8 -26q0 -36 -36 -36q-16 0 -22 6t-14 16t-12 14l-188 208h-6l-184 -208q-32 -36 -48 -36zM458 -208q0 28 30 50t61 22t62 -22t31 -50t-31 -50t-62 -22t-61 22t-30 50zM310 492h480l-242 658zM90 -32
q-42 0 -42 40q0 14 6 28l450 1236h92l450 -1236q6 -14 6 -28q0 -40 -42 -40q-28 0 -44 40l-144 400h-544l-144 -400q-18 -40 -44 -40z" />
    <glyph glyph-name="uni1EAD" unicode="&#x1ead;" 
d="M368 1036q-36 0 -36 36q0 18 8 26l208 274h110l212 -274q8 -10 8 -26q0 -36 -36 -36q-16 0 -22 6t-14 16t-12 14l-188 208h-6l-184 -208q-32 -36 -48 -36zM476 -208q0 28 30 50t61 22t62 -22t31 -50t-31 -50t-62 -22t-61 22t-30 50zM586 580h304v128q0 70 -26 100t-94 30
h-282q-234 0 -234 -130q0 -60 -42 -60t-42 60q0 108 85 161t219 53h310q110 0 150 -54t40 -194v-628q0 -60 -42 -60t-42 60v98q-108 -144 -330 -144h-186q-90 0 -147 65t-57 162t20 159q38 116 137 155q100 39 259 39zM586 496q-96 0 -149 -7t-99 -34t-65 -81t-19 -127
t37 -118t83 -45h186q158 0 244 96t86 276v40h-304z" />
    <glyph glyph-name="uni1EAE" unicode="&#x1eae;" horiz-adv-x="1156" 
d="M754 1558q0 -14 -22 -40l-140 -138q-20 -22 -38 -22t-31 13t-13 29t24 40l138 138q20 22 39 22t31 -14t12 -28zM778 1400q0 -96 -68 -169t-162 -73t-162 73t-68 169h86q0 -68 39 -111t105 -43t105 43t39 111h86zM320 448h460l-232 546zM87 -14q-39 0 -39 34q0 12 6 24
l450 1060h92l450 -1060q6 -12 6 -24q0 -34 -38 -34t-54 34l-144 344h-532l-144 -344q-14 -34 -53 -34z" />
    <glyph glyph-name="uni1EAF" unicode="&#x1eaf;" 
d="M778 1444q0 -14 -22 -40l-140 -138q-20 -22 -38 -22t-31 13t-13 29t24 40l138 138q20 22 39 22t31 -14t12 -28zM802 1286q0 -96 -68 -169t-162 -73t-162 73t-68 169h86q0 -68 39 -111t105 -43t105 43t39 111h86zM586 580h304v128q0 70 -26 100t-94 30h-282
q-234 0 -234 -130q0 -60 -42 -60t-42 60q0 108 85 161t219 53h310q110 0 150 -54t40 -194v-628q0 -60 -42 -60t-42 60v98q-108 -144 -330 -144h-186q-90 0 -147 65t-57 162t20 159q38 116 137 155q100 39 259 39zM586 496q-96 0 -149 -7t-99 -34t-65 -81t-19 -127t37 -118
t83 -45h186q158 0 244 96t86 276v40h-304z" />
    <glyph glyph-name="uni1EB0" unicode="&#x1eb0;" horiz-adv-x="1156" 
d="M340 1557q0 15 13 29t31 14t38 -22l140 -138q22 -26 22 -41t-12 -28t-31 -13t-39 22l-138 138q-24 24 -24 39zM778 1400q0 -96 -68 -169t-162 -73t-162 73t-68 169h86q0 -68 39 -111t105 -43t105 43t39 111h86zM320 448h460l-232 546zM87 -14q-39 0 -39 34q0 12 6 24
l450 1060h92l450 -1060q6 -12 6 -24q0 -34 -38 -34t-54 34l-144 344h-532l-144 -344q-14 -34 -53 -34z" />
    <glyph glyph-name="uni1EB1" unicode="&#x1eb1;" 
d="M364 1443q0 15 13 29t31 14t38 -22l140 -138q22 -26 22 -41t-12 -28t-31 -13t-39 22l-138 138q-24 24 -24 39zM802 1286q0 -96 -68 -169t-162 -73t-162 73t-68 169h86q0 -68 39 -111t105 -43t105 43t39 111h86zM586 580h304v128q0 70 -26 100t-94 30h-282
q-234 0 -234 -130q0 -60 -42 -60t-42 60q0 108 85 161t219 53h310q110 0 150 -54t40 -194v-628q0 -60 -42 -60t-42 60v98q-108 -144 -330 -144h-186q-90 0 -147 65t-57 162t20 159q38 116 137 155q100 39 259 39zM586 496q-96 0 -149 -7t-99 -34t-65 -81t-19 -127t37 -118
t83 -45h186q158 0 244 96t86 276v40h-304z" />
    <glyph glyph-name="uni1EB2" unicode="&#x1eb2;" horiz-adv-x="1156" 
d="M508 1450q108 0 108 64q0 38 -25 51t-83 13v62q174 0 174 -126q0 -48 -29 -78t-71 -34v-54h-74v102zM778 1400q0 -96 -68 -169t-162 -73t-162 73t-68 169h86q0 -68 39 -111t105 -43t105 43t39 111h86zM320 448h460l-232 546zM87 -14q-39 0 -39 34q0 12 6 24l450 1060h92
l450 -1060q6 -12 6 -24q0 -34 -38 -34t-54 34l-144 344h-532l-144 -344q-14 -34 -53 -34z" />
    <glyph glyph-name="uni1EB3" unicode="&#x1eb3;" 
d="M532 1336q108 0 108 64q0 38 -25 51t-83 13v62q174 0 174 -126q0 -48 -29 -78t-71 -34v-54h-74v102zM802 1286q0 -96 -68 -169t-162 -73t-162 73t-68 169h86q0 -68 39 -111t105 -43t105 43t39 111h86zM586 580h304v128q0 70 -26 100t-94 30h-282q-234 0 -234 -130
q0 -60 -42 -60t-42 60q0 108 85 161t219 53h310q110 0 150 -54t40 -194v-628q0 -60 -42 -60t-42 60v98q-108 -144 -330 -144h-186q-90 0 -147 65t-57 162t20 159q38 116 137 155q100 39 259 39zM586 496q-96 0 -149 -7t-99 -34t-65 -81t-19 -127t37 -118t83 -45h186
q158 0 244 96t86 276v40h-304z" />
    <glyph glyph-name="uni1EB4" unicode="&#x1eb4;" horiz-adv-x="1156" 
d="M661 1556q7 0 21 10l62 56q22 16 38 16t29 -10t13 -30t-24 -42l-94 -78q-14 -14 -27 -14t-25 4l-196 72q-8 4 -16 4t-22 -10l-62 -56q-22 -16 -37 -16t-28 11t-13 32t24 39l94 78q10 14 23 14t29 -4l196 -72q8 -4 15 -4zM778 1400q0 -96 -68 -169t-162 -73t-162 73
t-68 169h86q0 -68 39 -111t105 -43t105 43t39 111h86zM320 448h460l-232 546zM87 -14q-39 0 -39 34q0 12 6 24l450 1060h92l450 -1060q6 -12 6 -24q0 -34 -38 -34t-54 34l-144 344h-532l-144 -344q-14 -34 -53 -34z" />
    <glyph glyph-name="uni1EB5" unicode="&#x1eb5;" 
d="M723 1442q7 0 21 10l62 56q22 16 38 16t29 -10t13 -30t-24 -42l-94 -78q-14 -14 -27 -14t-25 4l-196 72q-8 4 -16 4t-22 -10l-62 -56q-22 -16 -37 -16t-28 11t-13 32t24 39l94 78q10 14 23 14t29 -4l196 -72q8 -4 15 -4zM840 1286q0 -96 -68 -169t-162 -73t-162 73
t-68 169h86q0 -68 39 -111t105 -43t105 43t39 111h86zM586 580h304v128q0 70 -26 100t-94 30h-282q-234 0 -234 -130q0 -60 -42 -60t-42 60q0 108 85 161t219 53h310q110 0 150 -54t40 -194v-628q0 -60 -42 -60t-42 60v98q-108 -144 -330 -144h-186q-90 0 -147 65t-57 162
t20 159q38 116 137 155q100 39 259 39zM586 496q-96 0 -149 -7t-99 -34t-65 -81t-19 -127t37 -118t83 -45h186q158 0 244 96t86 276v40h-304z" />
    <glyph glyph-name="uni1EB6" unicode="&#x1eb6;" horiz-adv-x="1156" 
d="M780 1638q0 -96 -68 -169t-162 -73t-162 73t-68 169h86q0 -68 39 -111t105 -43t105 43t39 111h86zM458 -208q0 28 30 50t61 22t62 -22t31 -50t-31 -50t-62 -22t-61 22t-30 50zM310 492h480l-242 658zM90 -32q-42 0 -42 40q0 14 6 28l450 1236h92l450 -1236q6 -14 6 -28
q0 -40 -42 -40q-28 0 -44 40l-144 400h-544l-144 -400q-18 -40 -44 -40z" />
    <glyph glyph-name="uni1EB7" unicode="&#x1eb7;" 
d="M802 1286q0 -96 -68 -169t-162 -73t-162 73t-68 169h86q0 -68 39 -111t105 -43t105 43t39 111h86zM476 -208q0 28 30 50t61 22t62 -22t31 -50t-31 -50t-62 -22t-61 22t-30 50zM586 580h304v128q0 70 -26 100t-94 30h-282q-234 0 -234 -130q0 -60 -42 -60t-42 60
q0 108 85 161t219 53h310q110 0 150 -54t40 -194v-628q0 -60 -42 -60t-42 60v98q-108 -144 -330 -144h-186q-90 0 -147 65t-57 162t20 159q38 116 137 155q100 39 259 39zM586 496q-96 0 -149 -7t-99 -34t-65 -81t-19 -127t37 -118t83 -45h186q158 0 244 96t86 276v40h-304z
" />
    <glyph glyph-name="uni1EB8" unicode="&#x1eb8;" 
d="M512 -194q0 28 30 50t61 22t62 -22t31 -50t-31 -50t-62 -22t-61 22t-30 50zM254 674v-590h746q58 0 58 -46q0 -38 -58 -38h-792q-38 0 -38 62v1148q0 62 38 62h792q58 0 58 -46q0 -38 -58 -38h-746v-430h510q60 0 60 -46q0 -38 -60 -38h-510z" />
    <glyph glyph-name="uni1EB9" unicode="&#x1eb9;" 
d="M522 -194q0 28 30 50t61 22t62 -22t31 -50t-31 -50t-62 -22t-61 22t-30 50zM644 838h-58q-184 0 -258 -46t-74 -208h720q0 162 -74 208t-256 46zM1058 572v-72h-804v-150q0 -90 19 -144t65 -81t99 -34t149 -7h268q68 0 94 30t26 95t42 65t42 -53q0 -93 -32 -157t-158 -64
h-282q-212 0 -314 70t-102 280v222q0 210 102 280t314 70h58q210 0 312 -70t102 -280z" />
    <glyph glyph-name="uni1EBA" unicode="&#x1eba;" 
d="M568 1448q108 0 108 64q0 38 -25 51t-83 13v62q174 0 174 -126q0 -48 -29 -78t-71 -34v-54h-74v102zM254 674v-590h746q58 0 58 -46q0 -38 -58 -38h-792q-38 0 -38 62v1148q0 62 38 62h792q58 0 58 -46q0 -38 -58 -38h-746v-430h510q60 0 60 -46q0 -38 -60 -38h-510z" />
    <glyph glyph-name="uni1EBB" unicode="&#x1ebb;" 
d="M578 1146q108 0 108 64q0 38 -25 51t-83 13v62q174 0 174 -126q0 -48 -29 -78t-71 -34v-54h-74v102zM644 838h-58q-184 0 -258 -46t-74 -208h720q0 162 -74 208t-256 46zM1058 572v-72h-804v-150q0 -90 19 -144t65 -81t99 -34t149 -7h268q68 0 94 30t26 95t42 65t42 -53
q0 -93 -32 -157t-158 -64h-282q-212 0 -314 70t-102 280v222q0 210 102 280t314 70h58q210 0 312 -70t102 -280z" />
    <glyph glyph-name="uni1EBC" unicode="&#x1ebc;" 
d="M713 1506q7 0 21 10l62 56q22 16 38 16t29 -10t13 -30t-24 -42l-94 -78q-14 -14 -27 -14t-25 4l-196 72q-8 4 -16 4t-22 -10l-62 -56q-22 -16 -37 -16t-28 11t-13 32t24 39l94 78q10 14 23 14t29 -4l196 -72q8 -4 15 -4zM254 674v-590h746q58 0 58 -46q0 -38 -58 -38
h-792q-38 0 -38 62v1148q0 62 38 62h792q58 0 58 -46q0 -38 -58 -38h-746v-430h510q60 0 60 -46q0 -38 -60 -38h-510z" />
    <glyph glyph-name="uni1EBD" unicode="&#x1ebd;" 
d="M723 1138q7 0 21 10l62 56q22 16 38 16t29 -10t13 -30t-24 -42l-94 -78q-14 -14 -27 -14t-25 4l-196 72q-8 4 -16 4t-22 -10l-62 -56q-22 -16 -37 -16t-28 11t-13 32t24 39l94 78q10 14 23 14t29 -4l196 -72q8 -4 15 -4zM644 838h-58q-184 0 -258 -46t-74 -208h720
q0 162 -74 208t-256 46zM1058 572v-72h-804v-150q0 -90 19 -144t65 -81t99 -34t149 -7h268q68 0 94 30t26 95t42 65t42 -53q0 -93 -32 -157t-158 -64h-282q-212 0 -314 70t-102 280v222q0 210 102 280t314 70h58q210 0 312 -70t102 -280z" />
    <glyph glyph-name="uni1EBE" unicode="&#x1ebe;" 
d="M352 1166q-36 0 -36 36q0 18 8 26l208 274h110l212 -274q8 -10 8 -26q0 -36 -36 -36q-16 0 -22 6t-14 16t-12 14l-188 208h-6l-184 -208q-32 -36 -48 -36zM1000 1558q0 -14 -22 -40l-140 -138q-20 -22 -38 -22t-31 13t-13 29t24 40l138 138q20 22 39 22t31 -14t12 -28z
M254 552v-468h746q58 0 58 -46q0 -38 -58 -38h-792q-38 0 -38 62v980q0 62 38 62h792q58 0 58 -46q0 -38 -58 -38h-746v-384h510q60 0 60 -46q0 -38 -60 -38h-510z" />
    <glyph glyph-name="uni1EBF" unicode="&#x1ebf;" 
d="M376 1036q-36 0 -36 36q0 18 8 26l208 274h110l212 -274q8 -10 8 -26q0 -36 -36 -36q-16 0 -22 6t-14 16t-12 14l-188 208h-6l-184 -208q-32 -36 -48 -36zM1024 1428q0 -14 -22 -40l-140 -138q-20 -22 -38 -22t-31 13t-13 29t24 40l138 138q20 22 39 22t31 -14t12 -28z
M644 838h-58q-184 0 -258 -46t-74 -208h720q0 162 -74 208t-256 46zM1058 572v-72h-804v-150q0 -90 19 -144t65 -81t99 -34t149 -7h268q68 0 94 30t26 95t42 65t42 -53q0 -93 -32 -157t-158 -64h-282q-212 0 -314 70t-102 280v222q0 210 102 280t314 70h58q210 0 312 -70
t102 -280z" />
    <glyph glyph-name="uni1EC0" unicode="&#x1ec0;" 
d="M352 1150q-36 0 -36 36q0 18 8 26l208 274h110l212 -274q8 -10 8 -26q0 -36 -36 -36q-16 0 -22 6t-14 16t-12 14l-188 208h-6l-184 -208q-32 -36 -48 -36zM176 1541q0 15 13 29t31 14t38 -22l140 -138q22 -26 22 -41t-12 -28t-31 -13t-39 22l-138 138q-24 24 -24 39z
M254 552v-468h746q58 0 58 -46q0 -38 -58 -38h-792q-38 0 -38 62v980q0 62 38 62h792q58 0 58 -46q0 -38 -58 -38h-746v-384h510q60 0 60 -46q0 -38 -60 -38h-510z" />
    <glyph glyph-name="uni1EC1" unicode="&#x1ec1;" 
d="M376 1036q-36 0 -36 36q0 18 8 26l208 274h110l212 -274q8 -10 8 -26q0 -36 -36 -36q-16 0 -22 6t-14 16t-12 14l-188 208h-6l-184 -208q-32 -36 -48 -36zM200 1427q0 15 13 29t31 14t38 -22l140 -138q22 -26 22 -41t-12 -28t-31 -13t-39 22l-138 138q-24 24 -24 39z
M644 838h-58q-184 0 -258 -46t-74 -208h720q0 162 -74 208t-256 46zM1058 572v-72h-804v-150q0 -90 19 -144t65 -81t99 -34t149 -7h268q68 0 94 30t26 95t42 65t42 -53q0 -93 -32 -157t-158 -64h-282q-212 0 -314 70t-102 280v222q0 210 102 280t314 70h58q210 0 312 -70
t102 -280z" />
    <glyph glyph-name="uni1EC2" unicode="&#x1ec2;" 
d="M352 1126q-36 0 -36 36q0 18 8 26l208 274h110l212 -274q8 -10 8 -26q0 -36 -36 -36q-16 0 -22 6t-14 16t-12 14l-188 208h-6l-184 -208q-32 -36 -48 -36zM818 1448q108 0 108 64q0 38 -25 51t-83 13v62q174 0 174 -126q0 -48 -29 -78t-71 -34v-54h-74v102zM254 552v-468
h746q58 0 58 -46q0 -38 -58 -38h-792q-38 0 -38 62v980q0 62 38 62h792q58 0 58 -46q0 -38 -58 -38h-746v-384h510q60 0 60 -46q0 -38 -60 -38h-510z" />
    <glyph glyph-name="uni1EC3" unicode="&#x1ec3;" 
d="M376 1036q-36 0 -36 36q0 18 8 26l208 274h110l212 -274q8 -10 8 -26q0 -36 -36 -36q-16 0 -22 6t-14 16t-12 14l-188 208h-6l-184 -208q-32 -36 -48 -36zM842 1358q108 0 108 64q0 38 -25 51t-83 13v62q174 0 174 -126q0 -48 -29 -78t-71 -34v-54h-74v102zM644 838h-58
q-184 0 -258 -46t-74 -208h720q0 162 -74 208t-256 46zM1058 572v-72h-804v-150q0 -90 19 -144t65 -81t99 -34t149 -7h268q68 0 94 30t26 95t42 65t42 -53q0 -93 -32 -157t-158 -64h-282q-212 0 -314 70t-102 280v222q0 210 102 280t314 70h58q210 0 312 -70t102 -280z" />
    <glyph glyph-name="uni1EC4" unicode="&#x1ec4;" 
d="M352 1126q-36 0 -36 36q0 18 8 26l208 274h110l212 -274q8 -10 8 -26q0 -36 -36 -36q-16 0 -22 6t-14 16t-12 14l-188 208h-6l-184 -208q-32 -36 -48 -36zM697 1556q7 0 21 10l62 56q22 16 38 16t29 -10t13 -30t-24 -42l-94 -78q-14 -14 -27 -14t-25 4l-196 72
q-8 4 -16 4t-22 -10l-62 -56q-22 -16 -37 -16t-28 11t-13 32t24 39l94 78q10 14 23 14t29 -4l196 -72q8 -4 15 -4zM254 552v-468h746q58 0 58 -46q0 -38 -58 -38h-792q-38 0 -38 62v980q0 62 38 62h792q58 0 58 -46q0 -38 -58 -38h-746v-384h510q60 0 60 -46q0 -38 -60 -38
h-510z" />
    <glyph glyph-name="uni1EC5" unicode="&#x1ec5;" 
d="M376 1036q-36 0 -36 36q0 18 8 26l208 274h110l212 -274q8 -10 8 -26q0 -36 -36 -36q-16 0 -22 6t-14 16t-12 14l-188 208h-6l-184 -208q-32 -36 -48 -36zM721 1466q7 0 21 10l62 56q22 16 38 16t29 -10t13 -30t-24 -42l-94 -78q-14 -14 -27 -14t-25 4l-196 72
q-8 4 -16 4t-22 -10l-62 -56q-22 -16 -37 -16t-28 11t-13 32t24 39l94 78q10 14 23 14t29 -4l196 -72q8 -4 15 -4zM644 838h-58q-184 0 -258 -46t-74 -208h720q0 162 -74 208t-256 46zM1058 572v-72h-804v-150q0 -90 19 -144t65 -81t99 -34t149 -7h268q68 0 94 30t26 95
t42 65t42 -53q0 -93 -32 -157t-158 -64h-282q-212 0 -314 70t-102 280v222q0 210 102 280t314 70h58q210 0 312 -70t102 -280z" />
    <glyph glyph-name="uni1EC6" unicode="&#x1ec6;" 
d="M366 1302q-36 0 -36 36q0 18 8 26l208 274h110l212 -274q8 -10 8 -26q0 -36 -36 -36q-16 0 -22 6t-14 16t-12 14l-188 208h-6l-184 -208q-32 -36 -48 -36zM512 -194q0 28 30 50t61 22t62 -22t31 -50t-31 -50t-62 -22t-61 22t-30 50zM254 674v-590h746q58 0 58 -46
q0 -38 -58 -38h-792q-38 0 -38 62v1148q0 62 38 62h792q58 0 58 -46q0 -38 -58 -38h-746v-430h510q60 0 60 -46q0 -38 -60 -38h-510z" />
    <glyph glyph-name="uni1EC7" unicode="&#x1ec7;" 
d="M378 1044q-36 0 -36 36q0 18 8 26l208 274h110l212 -274q8 -10 8 -26q0 -36 -36 -36q-16 0 -22 6t-14 16t-12 14l-188 208h-6l-184 -208q-32 -36 -48 -36zM522 -194q0 28 30 50t61 22t62 -22t31 -50t-31 -50t-62 -22t-61 22t-30 50zM644 838h-58q-184 0 -258 -46
t-74 -208h720q0 162 -74 208t-256 46zM1058 572v-72h-804v-150q0 -90 19 -144t65 -81t99 -34t149 -7h268q68 0 94 30t26 95t42 65t42 -53q0 -93 -32 -157t-158 -64h-282q-212 0 -314 70t-102 280v222q0 210 102 280t314 70h58q210 0 312 -70t102 -280z" />
    <glyph glyph-name="uni1EC8" unicode="&#x1ec8;" horiz-adv-x="422" 
d="M176 1448q108 0 108 64q0 38 -25 51t-83 13v62q174 0 174 -126q0 -48 -29 -78t-71 -34v-54h-74v102zM254 40q0 -54 -42 -54t-42 54v1190q0 56 42 56t42 -56v-1190z" />
    <glyph glyph-name="uni1EC9" unicode="&#x1ec9;" horiz-adv-x="420" 
d="M174 1160q108 0 108 64q0 38 -25 51t-83 13v62q174 0 174 -126q0 -48 -29 -78t-71 -34v-54h-74v102zM254 40q0 -54 -42 -54t-42 54v840q0 56 42 56t42 -56v-840z" />
    <glyph glyph-name="uni1ECA" unicode="&#x1eca;" horiz-adv-x="422" 
d="M118 -208q0 28 30 50t61 22t62 -22t31 -50t-31 -50t-62 -22t-61 22t-30 50zM254 40q0 -54 -42 -54t-42 54v1190q0 56 42 56t42 -56v-1190z" />
    <glyph glyph-name="uni1ECB" unicode="&#x1ecb;" horiz-adv-x="420" 
d="M118 -208q0 28 30 50t61 22t62 -22t31 -50t-31 -50t-62 -22t-61 22t-30 50zM120 1202q0 28 30 50t61 22t62 -22t31 -50t-31 -50t-62 -22t-61 22t-30 50zM254 40q0 -54 -42 -54t-42 54v840q0 56 42 56t42 -56v-840z" />
    <glyph glyph-name="uni1ECC" unicode="&#x1ecc;" 
d="M522 -212q0 28 30 50t61 22t62 -22t31 -50t-31 -50t-62 -22t-61 22t-30 50zM614 1206q-168 0 -264 -103t-96 -285v-364q0 -182 96 -285t264 -103t264 103t96 285v364q0 182 -96 285t-264 103zM614 -18q-194 0 -319 126t-125 346v364q0 220 125 346t319 126t319 -126
t125 -346v-364q0 -220 -125 -346t-319 -126z" />
    <glyph glyph-name="uni1ECD" unicode="&#x1ecd;" 
d="M522 -194q0 28 30 50t61 22t62 -22t31 -50t-31 -50t-62 -22t-61 22t-30 50zM586 84h58q94 0 147 7t99 34t65 81t19 144v222q0 90 -19 144t-65 81t-99 34t-147 7h-58q-96 0 -149 -7t-99 -34t-65 -81t-19 -144v-222q0 -90 19 -144t65 -81t99 -34t149 -7zM644 0h-58
q-212 0 -314 70t-102 280v222q0 210 102 280t314 70h58q210 0 312 -70t102 -280v-222q0 -210 -102 -280t-312 -70z" />
    <glyph glyph-name="uni1ECE" unicode="&#x1ece;" 
d="M576 1448q108 0 108 64q0 38 -25 51t-83 13v62q174 0 174 -126q0 -48 -29 -78t-71 -34v-54h-74v102zM614 1206q-168 0 -264 -103t-96 -285v-364q0 -182 96 -285t264 -103t264 103t96 285v364q0 182 -96 285t-264 103zM614 -18q-194 0 -319 126t-125 346v364
q0 220 125 346t319 126t319 -126t125 -346v-364q0 -220 -125 -346t-319 -126z" />
    <glyph glyph-name="uni1ECF" unicode="&#x1ecf;" 
d="M578 1146q108 0 108 64q0 38 -25 51t-83 13v62q174 0 174 -126q0 -48 -29 -78t-71 -34v-54h-74v102zM586 84h58q94 0 147 7t99 34t65 81t19 144v222q0 90 -19 144t-65 81t-99 34t-147 7h-58q-96 0 -149 -7t-99 -34t-65 -81t-19 -144v-222q0 -90 19 -144t65 -81t99 -34
t149 -7zM644 0h-58q-212 0 -314 70t-102 280v222q0 210 102 280t314 70h58q210 0 312 -70t102 -280v-222q0 -210 -102 -280t-312 -70z" />
    <glyph glyph-name="uni1ED0" unicode="&#x1ed0;" 
d="M376 1126q-36 0 -36 36q0 18 8 26l208 274h110l212 -274q8 -10 8 -26q0 -36 -36 -36q-16 0 -22 6t-14 16t-12 14l-188 208h-6l-184 -208q-32 -36 -48 -36zM1024 1518q0 -14 -22 -40l-140 -138q-20 -22 -38 -22t-31 13t-13 29t24 40l138 138q20 22 39 22t31 -14t12 -28z
M614 1038q-168 0 -264 -103t-96 -285v-196q0 -182 96 -285t264 -103t264 103t96 285v196q0 182 -96 285t-264 103zM614 -18q-194 0 -319 126t-125 346v196q0 220 125 346t319 126t319 -126t125 -346v-196q0 -220 -125 -346t-319 -126z" />
    <glyph glyph-name="uni1ED1" unicode="&#x1ed1;" 
d="M376 1036q-36 0 -36 36q0 18 8 26l208 274h110l212 -274q8 -10 8 -26q0 -36 -36 -36q-16 0 -22 6t-14 16t-12 14l-188 208h-6l-184 -208q-32 -36 -48 -36zM1024 1428q0 -14 -22 -40l-140 -138q-20 -22 -38 -22t-31 13t-13 29t24 40l138 138q20 22 39 22t31 -14t12 -28z
M586 84h58q94 0 147 7t99 34t65 81t19 144v222q0 90 -19 144t-65 81t-99 34t-147 7h-58q-96 0 -149 -7t-99 -34t-65 -81t-19 -144v-222q0 -90 19 -144t65 -81t99 -34t149 -7zM644 0h-58q-212 0 -314 70t-102 280v222q0 210 102 280t314 70h58q210 0 312 -70t102 -280v-222
q0 -210 -102 -280t-312 -70z" />
    <glyph glyph-name="uni1ED2" unicode="&#x1ed2;" 
d="M376 1110q-36 0 -36 36q0 18 8 26l208 274h110l212 -274q8 -10 8 -26q0 -36 -36 -36q-16 0 -22 6t-14 16t-12 14l-188 208h-6l-184 -208q-32 -36 -48 -36zM200 1501q0 15 13 29t31 14t38 -22l140 -138q22 -26 22 -41t-12 -28t-31 -13t-39 22l-138 138q-24 24 -24 39z
M614 1038q-168 0 -264 -103t-96 -285v-196q0 -182 96 -285t264 -103t264 103t96 285v196q0 182 -96 285t-264 103zM614 -18q-194 0 -319 126t-125 346v196q0 220 125 346t319 126t319 -126t125 -346v-196q0 -220 -125 -346t-319 -126z" />
    </font>
</defs>
</svg>
